<svg width="40" height="40" viewBox="0 0 40 40" fill="none" xmlns="http://www.w3.org/2000/svg">
<path d="M21.0148 0.998414L38.0153 8.55399C38.9182 8.95524 39.5 9.85055 39.5 10.8385V29.1615C39.5 30.1495 38.9182 31.0448 38.0153 31.446L21.0148 39.0016C20.3684 39.2889 19.6305 39.2889 18.9841 39.0016L1.98463 31.446C1.08182 31.0448 0.5 30.1495 0.5 29.1615V10.8385C0.5 9.85052 1.08182 8.95523 1.98463 8.55397L18.9841 0.998434C19.6305 0.711133 20.3684 0.711125 21.0148 0.998414Z" fill="#171C1F" stroke="#54ADFF"/>
<path d="M26.5199 24.1517C27.3861 25.3156 28.2793 26.5066 29.1726 27.6977C27.3861 29.809 25.1664 31.1624 22.4867 31.7309C19.5091 32.3534 16.694 31.8933 13.9601 30.3774C16.3962 28.5639 18.7783 26.7773 21.1874 24.9908C21.7287 25.5051 22.243 26.0194 22.7573 26.5066C23.3258 27.048 23.1092 27.0751 23.8401 26.6691C24.8416 26.1006 25.6807 25.3156 26.3304 24.3682C26.3575 24.3141 26.4116 24.26 26.4387 24.2058C26.4116 24.2058 26.4387 24.2058 26.5199 24.1517V24.1517ZM15.8819 26.5337C15.2052 27.048 14.5826 27.5082 13.9601 27.9954C13.4999 28.3473 13.0397 28.6721 12.5796 29.024C12.3901 29.1864 12.2548 29.1864 12.0382 28.9969C9.981 27.1563 8.68171 24.8825 8.19448 22.1757C7.70724 19.4418 8.14034 16.8432 9.43963 14.3799C9.4667 14.3258 9.52083 14.2446 9.5479 14.1905C9.5479 14.1634 9.57497 14.1634 9.62911 14.1363C11.4156 16.4913 13.2292 18.8462 15.0157 21.2012C14.9616 21.2824 14.9345 21.3366 14.8804 21.3907C14.339 21.9591 13.7977 22.5276 13.2292 23.0689C13.0668 23.2314 13.0397 23.3667 13.148 23.5562C13.7165 24.6389 14.5014 25.5322 15.4759 26.263C15.6113 26.3442 15.7195 26.4254 15.8819 26.5337V26.5337ZM25.9785 9.72415C25.1123 10.3467 24.2461 10.9693 23.3799 11.5648C21.8912 12.6205 20.4024 13.7032 18.9407 14.7589C18.7512 14.8942 18.6159 14.9213 18.4534 14.7318C17.9662 14.2175 17.4519 13.7574 16.9647 13.2431C16.8293 13.1077 16.694 13.0807 16.5045 13.1619C15.3406 13.7574 14.4202 14.5965 13.6623 15.6522C13.6082 15.7063 13.554 15.7875 13.4999 15.8687C13.0668 15.3003 12.6608 14.786 12.2548 14.2446C11.8217 13.6762 11.4156 13.1077 11.0096 12.5663C10.8743 12.3769 10.8472 12.2415 11.0367 12.052C13.1209 9.75122 15.6925 8.3978 18.7783 8.07297C21.2144 7.80229 23.5423 8.28952 25.7078 9.45347C25.789 9.50761 25.8702 9.53467 25.9514 9.58881C25.9514 9.67002 25.9514 9.69709 25.9785 9.72415V9.72415ZM30.3907 25.9653C29.8222 25.2344 29.3079 24.5577 28.7936 23.881C27.6026 22.311 26.4116 20.714 25.1935 19.144C25.0311 18.9275 25.0311 18.7921 25.2206 18.6026C25.7349 18.0883 26.2221 17.574 26.7364 17.0597C26.8718 16.9244 26.9259 16.789 26.8176 16.5996C26.2221 15.4627 25.4101 14.5153 24.3544 13.7574C24.2732 13.7032 24.192 13.622 24.0837 13.5679C24.1649 13.4867 24.2461 13.4325 24.3003 13.3784C25.3289 12.5934 26.3575 11.8355 27.3861 11.0505C27.5485 10.9152 27.6838 10.861 27.8733 11.0505C30.4448 13.3784 31.8253 16.2747 31.9606 19.7666C32.0148 21.7967 31.5546 23.7186 30.6343 25.5322C30.5531 25.6404 30.4719 25.7758 30.3907 25.9653V25.9653Z" fill="white"/>
</svg>
