<svg width="40" height="40" viewBox="0 0 40 40" fill="none" xmlns="http://www.w3.org/2000/svg">
<path d="M21.0148 0.998414L38.0153 8.55399C38.9182 8.95524 39.5 9.85055 39.5 10.8385V29.1615C39.5 30.1495 38.9182 31.0448 38.0153 31.446L21.0148 39.0016C20.3684 39.2889 19.6305 39.2889 18.9841 39.0016L1.98463 31.446C1.08182 31.0448 0.5 30.1495 0.5 29.1615V10.8385C0.5 9.85052 1.08182 8.95523 1.98463 8.55397L18.9841 0.998434C19.6305 0.711133 20.3684 0.711125 21.0148 0.998414Z" fill="#171C1F" stroke="#54ADFF"/>
<path d="M13.26 27.928C12.796 27.728 12.656 27.396 12.84 26.932L18.708 12.856C18.876 12.464 19.16 12.268 19.56 12.268H19.62C20.012 12.276 20.284 12.472 20.436 12.856L26.34 26.932C26.54 27.396 26.404 27.728 25.932 27.928C25.468 28.112 25.14 27.976 24.948 27.52L23.46 23.956H15.72L14.244 27.52C14.06 27.984 13.732 28.12 13.26 27.928ZM16.332 22.444H22.824L19.56 14.656L16.332 22.444Z" fill="#54ADFF"/>
</svg>
