<svg width="40" height="40" viewBox="0 0 40 40" fill="none" xmlns="http://www.w3.org/2000/svg">
<path d="M21.0148 0.998414L38.0153 8.55399C38.9182 8.95524 39.5 9.85055 39.5 10.8385V29.1615C39.5 30.1495 38.9182 31.0448 38.0153 31.446L21.0148 39.0016C20.3684 39.2889 19.6305 39.2889 18.9841 39.0016L1.98463 31.446C1.08182 31.0448 0.5 30.1495 0.5 29.1615V10.8385C0.5 9.85052 1.08182 8.95523 1.98463 8.55397L18.9841 0.998434C19.6305 0.711133 20.3684 0.711125 21.0148 0.998414Z" fill="#171C1F" stroke="#54ADFF"/>
<path d="M13.469 29L16.3717 23.9912L19.2743 19L22.1593 13.9912L22.6372 13.1975L22.8496 13.9912L23.7345 17.2892L22.7434 19L19.8407 23.9912L16.9558 29H20.4248L23.3274 23.9912L24.8319 21.3986L25.5398 23.9912L26.885 29H30L28.6549 23.9912L27.3097 19L26.9558 17.7125L29.115 13.9912H25.9646L25.8584 13.6208L24.7611 9.5291L24.6195 9H21.5929L21.5221 9.10582L18.6903 13.9912L15.7876 19L12.9027 23.9912L10 29H13.469Z" fill="white"/>
</svg>
