<svg width="158" height="31" viewBox="0 0 158 31" fill="none" xmlns="http://www.w3.org/2000/svg">
<path d="M11.7583 30.2362H11.7292C3.5531 28.3081 -0.403275 20.7414 0.0324396 14.6076V14.5948C0.175736 12.6364 0.758242 10.89 1.73336 9.5328C4.0028 6.41989 7.13435 4.68402 10.5548 4.63975C13.2045 4.62828 15.7694 5.57354 17.7779 7.3018C19.8458 9.08777 21.0481 11.4667 21.1564 14.0041C21.1568 14.0319 21.1473 14.0589 21.1296 14.0802C21.1119 14.1016 21.0871 14.1159 21.0597 14.1206H21.0411C21.0157 14.1219 20.9905 14.1149 20.9695 14.1006C20.9485 14.0863 20.9327 14.0655 20.9246 14.0414C20.7951 13.6363 20.6237 13.2459 20.4132 12.8764C19.8889 11.9544 19.1275 11.1895 18.2079 10.6612C17.2882 10.1328 16.2439 9.86028 15.1834 9.87182C14.6702 9.87906 14.1605 9.95747 13.6689 10.1048C13.6585 10.1066 13.6479 10.1066 13.6374 10.1048H13.6305L13.6013 10.1188L13.585 10.1258C12.9056 10.3401 12.2778 10.6922 11.7408 11.1603L11.7268 11.1708C7.46288 13.8911 5.25402 17.8195 5.66877 21.9553C5.83984 23.7358 6.50406 25.4333 7.58679 26.857C8.66952 28.2808 10.1278 29.3743 11.7979 30.0149C11.8237 30.0242 11.8454 30.0425 11.8591 30.0663C11.8728 30.0901 11.8777 30.118 11.8728 30.1451C11.8679 30.1721 11.8536 30.1966 11.8325 30.2141C11.8113 30.2316 11.7846 30.2411 11.7571 30.2409L11.7583 30.2362Z" fill="#8961AA"/>
<path d="M15.4743 30.9986C14.1364 31.0211 12.8065 30.7874 11.5564 30.3101C9.84606 29.6539 8.35265 28.5337 7.24398 27.0753C6.13531 25.617 5.45534 23.8784 5.28048 22.0548C4.85991 17.8235 7.10722 13.8194 11.448 11.0548C11.4661 11.0431 11.4871 11.0367 11.5086 11.0362C11.5271 11.0358 11.5454 11.0398 11.562 11.0479C11.5786 11.056 11.5931 11.068 11.6042 11.0828C11.6216 11.1064 11.6295 11.1357 11.6262 11.1648C11.623 11.194 11.6089 11.2208 11.5867 11.24C10.955 11.7999 10.4526 12.4904 10.1141 13.2637C9.48627 15.164 9.50922 17.2192 10.1794 19.105C11.6508 23.2641 15.8448 26.1289 20.3814 26.073C21.0009 26.0649 21.6187 26.0041 22.2279 25.8912C22.8276 25.7781 23.4174 25.6176 23.9917 25.4112C24.012 25.4051 24.0335 25.4045 24.054 25.4096C24.0745 25.4148 24.0933 25.4254 24.1082 25.4404C24.523 25.8668 24.9447 26.2978 25.3653 26.7219C25.377 26.7333 25.3862 26.7471 25.3922 26.7624C25.3982 26.7777 25.401 26.794 25.4002 26.8104C25.3996 26.827 25.3954 26.8433 25.388 26.8582C25.3806 26.8731 25.37 26.8862 25.3571 26.8966C22.1079 29.5389 18.6886 30.959 15.4743 30.9986Z" fill="#4F5CA8"/>
<path d="M20.5399 26.0657C15.9031 26.1227 11.6171 23.1962 10.1154 18.9474C9.42515 17.0104 9.40178 14.8983 10.049 12.9465V12.9302C10.4047 12.1245 10.9319 11.4061 11.5938 10.825C12.1527 10.3361 12.8068 9.96843 13.5149 9.74502C13.5469 9.73355 13.5796 9.72383 13.6127 9.71589C14.1208 9.56523 14.6475 9.48679 15.1773 9.48289C16.2811 9.46933 17.3684 9.75193 18.3259 10.3013C19.2833 10.8506 20.076 11.6466 20.6214 12.6063C20.8406 12.9908 21.0186 13.3973 21.1527 13.8191C21.1608 13.84 21.1678 13.8668 21.1772 13.8936C21.1777 13.9029 21.1777 13.9123 21.1772 13.9216C21.4439 19.3832 22.0882 21.7062 24.2819 25.2222C24.2921 25.2399 24.2975 25.26 24.2975 25.2804C24.2975 25.3009 24.2921 25.321 24.2819 25.3387C24.2744 25.3526 24.2641 25.3649 24.2517 25.3747C24.2393 25.3845 24.225 25.3917 24.2097 25.3958C23.6262 25.6056 23.0271 25.7688 22.4179 25.8839C21.7983 25.9985 21.17 26.0593 20.5399 26.0657V26.0657Z" fill="#ADD9FC"/>
<path d="M40.3204 26.3523C34.7982 26.4198 29.9413 22.1279 29.7188 16.9797C29.7183 16.9523 29.7275 16.9256 29.7447 16.9043C29.762 16.883 29.7862 16.8685 29.8131 16.8632H29.8329C29.8586 16.8621 29.884 16.8694 29.9051 16.8842C29.9262 16.8989 29.9417 16.9202 29.9494 16.9448C30.0895 17.39 30.2802 17.8177 30.518 18.2193C31.051 19.1158 31.8101 19.8566 32.7193 20.3677C33.6284 20.8788 34.6558 21.1423 35.6988 21.1318C36.259 21.1282 36.8154 21.0386 37.3484 20.8662H37.3682L37.3834 20.8592C37.3872 20.8562 37.3915 20.8538 37.3962 20.8522C37.959 20.6613 38.4848 20.3748 38.9503 20.0053L38.9631 19.996C43.3238 17.3479 45.6107 13.4183 45.2391 9.2196C45.0761 7.40848 44.4122 5.67847 43.3217 4.22333C42.2312 2.76819 40.7571 1.64538 39.0645 0.980644C39.0358 0.969451 39.0127 0.947361 39.0003 0.9192C38.9878 0.89104 38.9871 0.859099 38.9981 0.830357C39.0065 0.808646 39.0211 0.789941 39.0402 0.776651C39.0594 0.763362 39.082 0.756099 39.1053 0.755797C39.1149 0.754578 39.1247 0.754578 39.1344 0.755797C42.8123 1.62956 45.8891 3.69396 48.0374 6.74279C49.9189 9.41183 50.9499 12.7181 50.8696 15.8159C50.8136 18.005 50.2206 19.9552 49.1418 21.4546C46.8736 24.5733 43.7408 26.3103 40.3204 26.3523Z" fill="#CA70C0"/>
<path d="M39.0455 20.2044C39.0208 20.2053 38.9965 20.1984 38.976 20.1846C38.9555 20.1709 38.94 20.151 38.9316 20.1278C38.9231 20.1046 38.9223 20.0793 38.9292 20.0556C38.936 20.0319 38.9502 20.011 38.9697 19.9959C39.6905 19.4163 40.2601 18.6708 40.6299 17.8231C41.2565 15.9175 41.2311 13.8574 40.5576 11.9678C39.0897 7.81102 34.8934 4.94859 30.3568 5.008C29.7484 5.01409 29.1416 5.07177 28.5429 5.18042C27.9306 5.29227 27.3289 5.45556 26.7441 5.66856C26.7317 5.67033 26.7192 5.67033 26.7068 5.66856C26.6908 5.66897 26.6749 5.66608 26.6601 5.66007C26.6452 5.65405 26.6318 5.64505 26.6206 5.63361L25.3904 4.38472C25.3789 4.37386 25.3701 4.36059 25.3645 4.34588C25.3588 4.33117 25.3565 4.31538 25.3577 4.29968V4.25657C25.3578 4.23907 25.3618 4.22182 25.3695 4.20608C25.3772 4.19035 25.3883 4.17655 25.402 4.1657C28.6594 1.53044 32.067 0.123109 35.265 0.0834988C36.5998 0.0611395 37.9265 0.294456 39.1736 0.770856C40.9045 1.45262 42.4118 2.60209 43.5273 4.09092C44.6427 5.57974 45.3223 7.34932 45.4903 9.20204C45.8713 13.4939 43.5424 17.4981 39.1002 20.1986C39.0827 20.2049 39.0639 20.2069 39.0455 20.2044Z" fill="#F6A3CE"/>
<path d="M35.765 21.3661C34.6796 21.377 33.6103 21.1022 32.6646 20.5693C31.7189 20.0364 30.9299 19.2642 30.3769 18.3301C30.1281 17.9138 29.9284 17.4701 29.7815 17.0078L29.7629 16.9531C29.7617 16.943 29.7617 16.9328 29.7629 16.9228C29.4903 11.4472 28.8519 9.12768 26.6523 5.62217C26.6421 5.60445 26.6367 5.58436 26.6367 5.56391C26.6367 5.54346 26.6421 5.52337 26.6523 5.50566C26.66 5.49162 26.6705 5.4793 26.6831 5.46948C26.6957 5.45966 26.7102 5.45254 26.7257 5.44858C27.3204 5.23536 27.9318 5.07208 28.5536 4.96044C29.1648 4.84678 29.7844 4.78482 30.406 4.7752C35.0416 4.71928 39.3277 7.64579 40.8294 11.8923C41.5225 13.8316 41.5483 15.9468 40.9027 17.9026C40.9039 17.9063 40.9039 17.9104 40.9027 17.9142C40.5195 18.7993 39.9265 19.5778 39.175 20.1825C38.6907 20.57 38.1423 20.8697 37.5545 21.0679C37.5382 21.0754 37.5215 21.082 37.5044 21.0877C36.9425 21.2699 36.3557 21.3639 35.765 21.3661V21.3661Z" fill="#FDD4FD"/>
<path d="M25.4231 26.794V26.7614H25.3963C24.9746 26.3396 24.5555 25.9125 24.1392 25.4799C21.9816 22.0314 21.2931 19.7492 21.017 14.1245C21.0089 14.1 21.0019 14.0756 20.9937 14.0523C20.6197 5.76437 8.50363 0.414642 1.77918 9.63804C0.794744 11.0162 0.232044 12.7556 0.101562 14.6359C0.530287 2.07478 15.3842 -4.85471 25.5419 3.95977V3.96909L25.5151 3.99006L25.5419 4.01686L26.7733 5.27157C28.9298 8.72001 29.6195 11.0023 29.9002 16.6339L29.9189 16.6899C30.2823 24.9812 42.4113 30.3356 49.1334 21.1052C50.2157 19.5977 50.7854 17.644 50.8401 15.5342C50.8549 15.1606 50.8526 14.7785 50.8332 14.3878C51.7815 28.0184 36.0363 35.9976 25.4231 26.794Z" fill="#B49ED6"/>
<path d="M60.7 14.3L59.65 17.375H65.5L64.45 14.3C64.1167 13.3167 63.8 12.375 63.5 11.475C63.2 10.575 62.9083 9.61667 62.625 8.6H62.525C62.2417 9.61667 61.95 10.575 61.65 11.475C61.35 12.375 61.0333 13.3167 60.7 14.3ZM56.2 24L62 7.525H63.15L68.95 24H67.75L65.825 18.35H59.3L57.35 24H56.2ZM72.9342 24.3C71.9508 24.3 71.4592 23.6667 71.4592 22.4V6.025H72.5592V22.55C72.5592 22.8167 72.6092 23.0167 72.7092 23.15C72.8092 23.2667 72.9342 23.325 73.0842 23.325C73.1342 23.325 73.1842 23.325 73.2342 23.325C73.3008 23.325 73.4008 23.3083 73.5342 23.275L73.7342 24.175C73.6175 24.2083 73.5008 24.2333 73.3842 24.25C73.2675 24.2833 73.1175 24.3 72.9342 24.3ZM78.8668 24.3C77.8835 24.3 77.3918 23.6667 77.3918 22.4V6.025H78.4918V22.55C78.4918 22.8167 78.5418 23.0167 78.6418 23.15C78.7418 23.2667 78.8668 23.325 79.0168 23.325C79.0668 23.325 79.1168 23.325 79.1668 23.325C79.2335 23.325 79.3335 23.3083 79.4668 23.275L79.6668 24.175C79.5501 24.2083 79.4335 24.2333 79.3168 24.25C79.2001 24.2833 79.0501 24.3 78.8668 24.3ZM89.2994 24.3C88.2827 24.3 87.3494 24.1 86.4994 23.7C85.6494 23.3 84.9161 22.7333 84.2994 22C83.6994 21.25 83.2327 20.35 82.8994 19.3C82.5661 18.2333 82.3994 17.0417 82.3994 15.725C82.3994 14.425 82.5661 13.25 82.8994 12.2C83.2494 11.15 83.7327 10.2583 84.3494 9.525C84.9661 8.775 85.6994 8.20833 86.5494 7.825C87.4161 7.425 88.3744 7.225 89.4244 7.225C90.3911 7.225 91.2411 7.425 91.9744 7.825C92.7077 8.225 93.2911 8.68333 93.7244 9.2L93.0494 9.975C92.5994 9.45833 92.0744 9.05 91.4744 8.75C90.8744 8.43333 90.1994 8.275 89.4494 8.275C88.5494 8.275 87.7327 8.45 86.9994 8.8C86.2827 9.15 85.6661 9.65 85.1494 10.3C84.6494 10.9333 84.2661 11.7083 83.9994 12.625C83.7327 13.5417 83.5994 14.575 83.5994 15.725C83.5994 16.875 83.7327 17.9167 83.9994 18.85C84.2661 19.7667 84.6494 20.55 85.1494 21.2C85.6494 21.85 86.2494 22.3583 86.9494 22.725C87.6661 23.075 88.4661 23.25 89.3494 23.25C90.1994 23.25 90.9577 23.0833 91.6244 22.75C92.2911 22.4 92.9244 21.8917 93.5244 21.225L94.1994 21.95C93.5661 22.6833 92.8577 23.2583 92.0744 23.675C91.2911 24.0917 90.3661 24.3 89.2994 24.3ZM97.4357 24V6.025H98.5357V13.875C99.1691 13.2417 99.8107 12.725 100.461 12.325C101.111 11.9083 101.852 11.7 102.686 11.7C103.936 11.7 104.852 12.075 105.436 12.825C106.019 13.575 106.311 14.7333 106.311 16.3V24H105.211V16.45C105.211 15.1667 104.994 14.225 104.561 13.625C104.144 13.0083 103.444 12.7 102.461 12.7C101.744 12.7 101.094 12.8917 100.511 13.275C99.9274 13.6417 99.2691 14.2 98.5357 14.95V24H97.4357ZM113.269 24.3C112.785 24.3 112.335 24.2333 111.919 24.1C111.502 23.9667 111.135 23.7667 110.819 23.5C110.502 23.2333 110.252 22.8917 110.069 22.475C109.885 22.0583 109.794 21.5667 109.794 21C109.794 19.6667 110.41 18.6583 111.644 17.975C112.894 17.275 114.86 16.775 117.544 16.475C117.544 16.025 117.51 15.575 117.444 15.125C117.377 14.6583 117.235 14.25 117.019 13.9C116.802 13.5333 116.51 13.2417 116.144 13.025C115.777 12.7917 115.294 12.675 114.694 12.675C113.894 12.675 113.16 12.8333 112.494 13.15C111.827 13.4667 111.285 13.775 110.869 14.075L110.369 13.25C110.585 13.1 110.844 12.9333 111.144 12.75C111.46 12.5667 111.81 12.4 112.194 12.25C112.577 12.1 112.994 11.975 113.444 11.875C113.894 11.7583 114.36 11.7 114.844 11.7C115.544 11.7 116.135 11.825 116.619 12.075C117.102 12.3083 117.494 12.6333 117.794 13.05C118.094 13.4667 118.31 13.9583 118.444 14.525C118.577 15.075 118.644 15.675 118.644 16.325V24H117.694L117.594 22.45H117.519C116.902 22.9333 116.235 23.3667 115.519 23.75C114.819 24.1167 114.069 24.3 113.269 24.3ZM113.469 23.35C114.169 23.35 114.835 23.1833 115.469 22.85C116.102 22.5167 116.794 22.0333 117.544 21.4V17.325C116.31 17.475 115.269 17.6583 114.419 17.875C113.569 18.0917 112.885 18.35 112.369 18.65C111.852 18.95 111.477 19.2917 111.244 19.675C111.027 20.0583 110.919 20.4833 110.919 20.95C110.919 21.3833 110.985 21.75 111.119 22.05C111.252 22.35 111.435 22.6 111.669 22.8C111.902 22.9833 112.169 23.125 112.469 23.225C112.785 23.3083 113.119 23.35 113.469 23.35ZM122.924 24V12H123.874L123.974 13.85H124.049C124.666 13.2333 125.299 12.725 125.949 12.325C126.599 11.9083 127.341 11.7 128.174 11.7C129.424 11.7 130.341 12.075 130.924 12.825C131.507 13.575 131.799 14.7333 131.799 16.3V24H130.699V16.45C130.699 15.1667 130.482 14.225 130.049 13.625C129.632 13.0083 128.932 12.7 127.949 12.7C127.232 12.7 126.582 12.8917 125.999 13.275C125.416 13.6417 124.757 14.2 124.024 14.95V24H122.924ZM140.155 29.775C138.638 29.775 137.438 29.475 136.555 28.875C135.671 28.275 135.23 27.4667 135.23 26.45C135.23 25.9167 135.388 25.4 135.705 24.9C136.021 24.4 136.455 23.95 137.005 23.55V23.45C136.705 23.2667 136.455 23.0167 136.255 22.7C136.055 22.3833 135.955 21.9917 135.955 21.525C135.955 20.9917 136.105 20.5417 136.405 20.175C136.705 19.7917 136.988 19.5083 137.255 19.325V19.225C136.871 18.8917 136.521 18.4417 136.205 17.875C135.905 17.3083 135.755 16.6583 135.755 15.925C135.755 15.3083 135.863 14.7417 136.08 14.225C136.296 13.7083 136.596 13.2667 136.98 12.9C137.363 12.5167 137.813 12.225 138.33 12.025C138.846 11.8083 139.396 11.7 139.98 11.7C140.313 11.7 140.613 11.7333 140.88 11.8C141.146 11.85 141.371 11.9167 141.555 12H145.63V12.925H142.83C143.213 13.2583 143.53 13.6917 143.78 14.225C144.03 14.7417 144.155 15.3167 144.155 15.95C144.155 16.5667 144.046 17.1333 143.83 17.65C143.613 18.1667 143.313 18.6167 142.93 19C142.563 19.3667 142.121 19.6583 141.605 19.875C141.105 20.075 140.563 20.175 139.98 20.175C139.646 20.175 139.296 20.1333 138.93 20.05C138.58 19.9667 138.263 19.8417 137.98 19.675C137.713 19.8917 137.48 20.1333 137.28 20.4C137.096 20.6667 137.005 21 137.005 21.4C137.005 21.8333 137.163 22.2083 137.48 22.525C137.796 22.825 138.405 22.975 139.305 22.975H141.88C143.23 22.975 144.221 23.2 144.855 23.65C145.505 24.0833 145.83 24.775 145.83 25.725C145.83 26.2417 145.696 26.7417 145.43 27.225C145.163 27.725 144.78 28.1583 144.28 28.525C143.796 28.9083 143.205 29.2083 142.505 29.425C141.805 29.6583 141.021 29.775 140.155 29.775ZM139.98 19.3C140.396 19.3 140.788 19.225 141.155 19.075C141.538 18.9083 141.871 18.675 142.155 18.375C142.438 18.075 142.663 17.7167 142.83 17.3C142.996 16.8833 143.08 16.425 143.08 15.925C143.08 15.425 142.996 14.9667 142.83 14.55C142.663 14.1333 142.438 13.7833 142.155 13.5C141.888 13.2167 141.563 13 141.18 12.85C140.796 12.6833 140.396 12.6 139.98 12.6C139.546 12.6 139.138 12.6833 138.755 12.85C138.388 13 138.063 13.2167 137.78 13.5C137.496 13.7833 137.271 14.1333 137.105 14.55C136.938 14.95 136.855 15.4083 136.855 15.925C136.855 16.425 136.938 16.8833 137.105 17.3C137.271 17.7167 137.496 18.075 137.78 18.375C138.08 18.675 138.413 18.9083 138.78 19.075C139.163 19.225 139.563 19.3 139.98 19.3ZM140.28 28.875C140.946 28.875 141.555 28.7833 142.105 28.6C142.655 28.4333 143.121 28.2083 143.505 27.925C143.888 27.6417 144.18 27.3167 144.38 26.95C144.596 26.6 144.705 26.2333 144.705 25.85C144.705 25.1833 144.463 24.7083 143.98 24.425C143.513 24.1583 142.83 24.025 141.93 24.025H139.355C139.221 24.025 139.013 24.0167 138.73 24C138.463 23.9667 138.171 23.9083 137.855 23.825C137.305 24.2083 136.905 24.6167 136.655 25.05C136.405 25.4833 136.28 25.9167 136.28 26.35C136.28 27.1 136.621 27.7083 137.305 28.175C138.005 28.6417 138.996 28.875 140.28 28.875ZM152.694 24.3C151.927 24.3 151.202 24.1583 150.519 23.875C149.852 23.5917 149.269 23.1833 148.769 22.65C148.269 22.1 147.869 21.4417 147.569 20.675C147.285 19.8917 147.144 19.0083 147.144 18.025C147.144 17.0417 147.285 16.1583 147.569 15.375C147.869 14.5917 148.26 13.9333 148.744 13.4C149.244 12.85 149.802 12.4333 150.419 12.15C151.052 11.85 151.702 11.7 152.369 11.7C153.802 11.7 154.927 12.1833 155.744 13.15C156.56 14.1167 156.969 15.4833 156.969 17.25C156.969 17.4 156.969 17.55 156.969 17.7C156.969 17.85 156.952 18 156.919 18.15H148.269C148.285 18.9 148.402 19.6 148.619 20.25C148.835 20.8833 149.135 21.4333 149.519 21.9C149.919 22.35 150.394 22.7083 150.944 22.975C151.494 23.225 152.11 23.35 152.794 23.35C153.444 23.35 154.027 23.2583 154.544 23.075C155.077 22.875 155.569 22.6083 156.019 22.275L156.469 23.125C155.985 23.4083 155.452 23.675 154.869 23.925C154.302 24.175 153.577 24.3 152.694 24.3ZM148.269 17.25H155.919C155.919 15.7 155.602 14.55 154.969 13.8C154.335 13.0333 153.477 12.65 152.394 12.65C151.877 12.65 151.385 12.7583 150.919 12.975C150.452 13.175 150.027 13.475 149.644 13.875C149.277 14.275 148.969 14.7583 148.719 15.325C148.485 15.8917 148.335 16.5333 148.269 17.25Z" fill="#B0B0B0"/>
</svg>
