<svg width="40" height="40" viewBox="0 0 40 40" fill="none" xmlns="http://www.w3.org/2000/svg">
<path d="M21.0148 0.998414L38.0153 8.55399C38.9182 8.95524 39.5 9.85055 39.5 10.8385V29.1615C39.5 30.1495 38.9182 31.0448 38.0153 31.446L21.0148 39.0016C20.3684 39.2889 19.6305 39.2889 18.9841 39.0016L1.98463 31.446C1.08182 31.0448 0.5 30.1495 0.5 29.1615V10.8385C0.5 9.85052 1.08182 8.95523 1.98463 8.55397L18.9841 0.998434C19.6305 0.711133 20.3684 0.711125 21.0148 0.998414Z" fill="#171C1F" stroke="#54ADFF"/>
<mask id="mask0_6208_67799" style="mask-type:alpha" maskUnits="userSpaceOnUse" x="8" y="8" width="24" height="24">
<rect x="8" y="8" width="24" height="24" fill="#D9D9D9"/>
</mask>
<g mask="url(#mask0_6208_67799)">
<path d="M14.5004 25C14.2837 25 14.1047 24.9294 13.9634 24.788C13.8214 24.646 13.7504 24.4667 13.7504 24.25V18.225C13.7504 18.025 13.8214 17.854 13.9634 17.712C14.1047 17.5707 14.2837 17.5 14.5004 17.5C14.7171 17.5 14.8961 17.5707 15.0374 17.712C15.1794 17.854 15.2504 18.0334 15.2504 18.25V24.275C15.2504 24.475 15.1794 24.646 15.0374 24.788C14.8961 24.9294 14.7171 25 14.5004 25ZM20.0004 25C19.7837 25 19.6047 24.9294 19.4634 24.788C19.3214 24.646 19.2504 24.4667 19.2504 24.25V18.225C19.2504 18.025 19.3214 17.854 19.4634 17.712C19.6047 17.5707 19.7837 17.5 20.0004 17.5C20.2171 17.5 20.3964 17.5707 20.5384 17.712C20.6797 17.854 20.7504 18.0334 20.7504 18.25V24.275C20.7504 24.475 20.6797 24.646 20.5384 24.788C20.3964 24.9294 20.2171 25 20.0004 25ZM11.5004 28.5C11.2837 28.5 11.1087 28.4294 10.9754 28.288C10.8421 28.146 10.7754 27.9667 10.7754 27.75C10.7754 27.5334 10.8464 27.354 10.9884 27.212C11.1297 27.0707 11.3087 27 11.5254 27H28.5004C28.7171 27 28.8921 27.0707 29.0254 27.212C29.1587 27.354 29.2254 27.5334 29.2254 27.75C29.2254 27.9667 29.1547 28.146 29.0134 28.288C28.8714 28.4294 28.6921 28.5 28.4754 28.5H11.5004ZM25.5004 25C25.2837 25 25.1044 24.9294 24.9624 24.788C24.8211 24.646 24.7504 24.4667 24.7504 24.25V18.225C24.7504 18.025 24.8211 17.854 24.9624 17.712C25.1044 17.5707 25.2837 17.5 25.5004 17.5C25.7171 17.5 25.8964 17.5707 26.0384 17.712C26.1797 17.854 26.2504 18.0334 26.2504 18.25V24.275C26.2504 24.475 26.1797 24.646 26.0384 24.788C25.8964 24.9294 25.7171 25 25.5004 25ZM20.8004 9.95002L28.7504 13.825C28.9004 13.9084 29.0171 14.025 29.1004 14.175C29.1837 14.325 29.2254 14.4917 29.2254 14.675C29.2254 14.9084 29.1421 15.104 28.9754 15.262C28.8087 15.4207 28.6087 15.5 28.3754 15.5H11.6254C11.3921 15.5 11.1921 15.4207 11.0254 15.262C10.8587 15.104 10.7754 14.9084 10.7754 14.675C10.7754 14.4917 10.8171 14.325 10.9004 14.175C10.9837 14.025 11.1087 13.9167 11.2754 13.85L19.2004 9.95002C19.4504 9.83336 19.7171 9.77502 20.0004 9.77502C20.2837 9.77502 20.5504 9.83336 20.8004 9.95002ZM14.3254 14H25.6754L20.0004 11.25L14.3254 14Z" fill="#54ADFF"/>
</g>
</svg>
