<svg width="40" height="40" viewBox="0 0 40 40" fill="none" xmlns="http://www.w3.org/2000/svg">
<path d="M21.0148 0.998414L38.0153 8.55399C38.9182 8.95524 39.5 9.85055 39.5 10.8385V29.1615C39.5 30.1495 38.9182 31.0448 38.0153 31.446L21.0148 39.0016C20.3684 39.2889 19.6305 39.2889 18.9841 39.0016L1.98463 31.446C1.08182 31.0448 0.5 30.1495 0.5 29.1615V10.8385C0.5 9.85052 1.08182 8.95523 1.98463 8.55397L18.9841 0.998434C19.6305 0.711133 20.3684 0.711125 21.0148 0.998414Z" fill="#171C1F" stroke="#54ADFF"/>
<path d="M20 34C27.732 34 34 27.732 34 20C34 12.268 27.732 6 20 6C12.268 6 6 12.268 6 20C6 27.732 12.268 34 20 34Z" fill="#0E0E21"/>
<path d="M27.8161 23.2665L26.1536 20.4373C26.0953 20.3207 25.9494 20.2915 25.8619 20.379L24.7828 21.079C24.6953 21.1373 24.6661 21.2832 24.7244 21.3707L25.6869 22.9748C25.7161 23.0332 25.6869 23.0915 25.6578 23.1207L20.0578 26.7373C20.0286 26.7665 19.9703 26.7665 19.9411 26.7373L14.3994 23.1207C14.3411 23.0915 14.3411 23.0332 14.3703 22.9748L15.3328 21.3707C15.3911 21.2832 15.3619 21.1373 15.2744 21.079L14.1953 20.379C14.0786 20.3207 13.9619 20.3498 13.9036 20.4373L12.2411 23.2665C12.1244 23.4707 12.1828 23.7332 12.3869 23.8498L19.8244 28.6915C19.9703 28.779 20.1453 28.779 20.2911 28.6915L27.7286 23.8498C27.8744 23.704 27.9328 23.4415 27.8161 23.2665Z" fill="white"/>
<path d="M15.0125 18.8625L16.0917 19.5625C16.2083 19.6208 16.325 19.5917 16.3833 19.5042L19.8833 13.5542C19.9125 13.4958 20.0292 13.4958 20.0583 13.5542L23.5583 19.5042C23.6167 19.6208 23.7625 19.65 23.85 19.5625L24.9292 18.8625C25.0167 18.8042 25.0458 18.6583 24.9875 18.5708L20.875 11.4542C20.7875 11.3083 20.6708 11.25 20.4958 11.25H19.5042C19.3583 11.25 19.2125 11.3375 19.125 11.4542L14.9542 18.5708C14.8958 18.6583 14.925 18.8042 15.0125 18.8625Z" fill="#2AE7A8"/>
</svg>
