<svg id="Слой_1" data-name="Слой 1" xmlns="http://www.w3.org/2000/svg" width="150" height="150" viewBox="0 0 150 150">
  <defs>
    <style>
      .cls-1 {
        fill: #33b6ff;
      }

      .cls-2 {
        fill: #fff;
      }
    </style>
  </defs>
  <title>automatic_exchange</title>
  <g>
    <circle class="cls-1" cx="75" cy="75" r="75"/>
    <path class="cls-2" d="M91.79,107.52l-2.32-7.83a2,2,0,0,0-1.92-1.43h-25a2,2,0,0,0-1.92,1.43l-2.33,7.83a4,4,0,0,1-3.83,2.86H39.73a4,4,0,0,1-3.8-5.25L61,29.13a4,4,0,0,1,3.8-2.75H85.19A4,4,0,0,1,89,29.13l25.08,76a4,4,0,0,1-3.8,5.25H95.63A4,4,0,0,1,91.79,107.52ZM69.27,79.78H80.84a2,2,0,0,0,1.92-2.57L76.93,57.69a2,2,0,0,0-3.84,0L67.35,77.22A2,2,0,0,0,69.27,79.78Z"/>
  </g>
</svg>
