<svg width="40" height="40" viewBox="0 0 40 40" fill="none" xmlns="http://www.w3.org/2000/svg">
<path d="M21.0148 0.998414L38.0153 8.55399C38.9182 8.95524 39.5 9.85055 39.5 10.8385V29.1615C39.5 30.1495 38.9182 31.0448 38.0153 31.446L21.0148 39.0016C20.3684 39.2889 19.6305 39.2889 18.9841 39.0016L1.98463 31.446C1.08182 31.0448 0.5 30.1495 0.5 29.1615V10.8385C0.5 9.85052 1.08182 8.95523 1.98463 8.55397L18.9841 0.998434C19.6305 0.711133 20.3684 0.711125 21.0148 0.998414Z" fill="#171C1F" stroke="#54ADFF"/>
<path d="M26.7888 12.7644H13.1963V25.1266H26.7888V12.7644Z" fill="white"/>
<path fill-rule="evenodd" clip-rule="evenodd" d="M31 20C31 26.0752 26.0752 31 20 31C13.9249 31 9 26.0752 9 20C9 13.9249 13.9249 9 20 9C26.0752 9 31 13.9249 31 20ZM16.8829 24.3774H14.7481C14.2995 24.3774 14.078 24.3774 13.9429 24.291C13.7969 24.1964 13.7078 24.0397 13.6969 23.8667C13.6888 23.7073 13.7996 23.5127 14.0212 23.1236L19.2923 13.8326C19.5166 13.4381 19.6301 13.2408 19.7733 13.1678C19.9273 13.0895 20.1111 13.0895 20.2651 13.1678C20.4083 13.2408 20.5218 13.4381 20.7461 13.8326L21.8297 15.7242L21.8352 15.7338C22.0775 16.1571 22.2003 16.3717 22.254 16.597C22.3134 16.8429 22.3134 17.1023 22.254 17.3483C22.1999 17.5752 22.0783 17.7914 21.8324 18.2211L19.0637 23.1155L19.0565 23.128C18.8126 23.5548 18.6891 23.7711 18.5178 23.9342C18.3313 24.1126 18.107 24.2423 17.8611 24.3153C17.6368 24.3774 17.3855 24.3774 16.8829 24.3774ZM22.274 24.3774H25.3329C25.7842 24.3774 26.0112 24.3774 26.1464 24.2884C26.2923 24.1938 26.3841 24.0343 26.3923 23.8614C26.4001 23.7072 26.2917 23.5201 26.0793 23.1536C26.072 23.1412 26.0646 23.1285 26.0572 23.1155L24.5249 20.4943L24.5075 20.4648C24.2922 20.1007 24.1835 19.9169 24.0439 19.8458C23.89 19.7674 23.7088 19.7674 23.5548 19.8458C23.4143 19.9188 23.3008 20.1106 23.0765 20.497L21.5498 23.1182L21.5445 23.1273C21.321 23.5131 21.2093 23.7059 21.2174 23.8641C21.2282 24.037 21.3174 24.1964 21.4633 24.291C21.5957 24.3774 21.8227 24.3774 22.274 24.3774Z" fill="#E84142"/>
</svg>
