<svg width="40" height="40" viewBox="0 0 40 40" fill="none" xmlns="http://www.w3.org/2000/svg">
<path d="M21.0148 0.998414L38.0153 8.55399C38.9182 8.95524 39.5 9.85055 39.5 10.8385V29.1615C39.5 30.1495 38.9182 31.0448 38.0153 31.446L21.0148 39.0016C20.3684 39.2889 19.6305 39.2889 18.9841 39.0016L1.98463 31.446C1.08182 31.0448 0.5 30.1495 0.5 29.1615V10.8385C0.5 9.85052 1.08182 8.95523 1.98463 8.55397L18.9841 0.998434C19.6305 0.711133 20.3684 0.711125 21.0148 0.998414Z" fill="#171C1F" stroke="#54ADFF"/>
<path d="M21.0215 17.3262L20.8544 17.2305L20.6855 17.3266L21.0215 17.3262Z" fill="#662D91"/>
<path d="M32 27.5991L20.0575 20.7607L8 27.6274L32 27.5991Z" fill="#662D91"/>
<path d="M20.0605 7L20.0566 20.7614L31.9992 27.5997L20.0605 7Z" fill="#9E1F63"/>
<path d="M8 27.628L20.0575 20.7614L20.0613 7L8 27.628Z" fill="#FF5000"/>
<path d="M20.0337 15.5L15.1035 23.5827H24.986L20.0337 15.3477V15.5Z" fill="white" stroke="#FF5000" stroke-miterlimit="10"/>
</svg>
