<svg width="180" height="36" viewBox="0 0 180 36" fill="none" xmlns="http://www.w3.org/2000/svg">
<path d="M73.4414 36H4.37769C1.95844 36 0 34.1241 0 31.8069V4.1931C0 1.87586 1.95844 0 4.37769 0H73.4414V36Z" fill="url(#paint0_linear)"/>
<path d="M175.622 36H73.4375V0H175.622C178.041 0 180 1.87586 180 4.1931V31.8207C180 34.1241 178.041 36 175.622 36Z" fill="url(#paint1_linear)"/>
<path d="M22.439 21.8353C22.439 23.2008 22.2374 24.2905 21.8486 25.1043C21.4598 25.9181 20.9414 26.5388 20.3222 26.9526C19.703 27.3801 19.0118 27.656 18.2486 27.7939C17.4853 27.9319 16.7365 28.0008 16.0021 28.0008H8.70117V8.15257H16.7365C17.7733 8.15257 18.6086 8.31808 19.271 8.64912C19.9334 8.98015 20.4518 9.40774 20.8406 9.94567C21.2294 10.4836 21.4886 11.0767 21.6326 11.725C21.7766 12.3733 21.8342 13.0215 21.8198 13.6422C21.791 15.4491 21.3158 16.6767 20.3942 17.325C20.999 17.6008 21.4886 18.0974 21.8774 18.8146C22.2518 19.5457 22.439 20.5526 22.439 21.8353V21.8353ZM17.9462 13.7112C17.9462 13.0905 17.8742 12.6215 17.7157 12.3181C17.5573 12.0146 17.2549 11.8629 16.7941 11.8629H12.6324V15.8215H16.4197C17.0101 15.8215 17.3989 15.6284 17.6149 15.256C17.831 14.8698 17.9462 14.3457 17.9462 13.7112V13.7112ZM18.4934 21.8629C18.4934 21.3112 18.4502 20.8698 18.3494 20.5526C18.263 20.2353 18.1334 19.9733 17.9894 19.7939C17.8454 19.6146 17.6869 19.4905 17.4997 19.4353C17.3269 19.3802 17.1541 19.3526 16.9813 19.3526H12.6324V24.1112H16.6501C17.3413 24.1112 17.831 23.9319 18.0902 23.587C18.3638 23.2284 18.4934 22.6629 18.4934 21.8629ZM38.193 28.0008H25.0311V8.15257H37.9625V12.0008H28.948V15.656H37.2425V19.5043H28.948V24.125H38.193V28.0008ZM53.4285 22.1388C53.4285 26.3181 51.0812 28.4146 46.3867 28.4146C44.1115 28.4146 42.369 27.7939 41.1738 26.5664C39.9786 25.325 39.3882 23.4215 39.3882 20.8422H43.2042C43.2331 21.4077 43.3051 21.9457 43.4059 22.4146C43.5067 22.8974 43.6939 23.2974 43.9531 23.6422C44.2123 23.987 44.5435 24.2491 44.9611 24.4422C45.3787 24.6353 45.9115 24.7319 46.5595 24.7319C47.6251 24.7319 48.3883 24.5388 48.8636 24.1664C49.3388 23.7939 49.5836 23.0491 49.5836 21.9733C49.5836 21.4077 49.4828 20.9939 49.2956 20.7457C49.1084 20.4974 48.806 20.3043 48.4028 20.1526C47.9419 19.987 47.3803 19.8629 46.7323 19.7664C46.0843 19.6698 45.3355 19.5181 44.5003 19.2974C43.8523 19.1181 43.2475 18.9112 42.7002 18.6767C42.153 18.4422 41.6634 18.125 41.2458 17.6974C40.8282 17.2698 40.5114 16.7181 40.281 16.0422C40.0506 15.3664 39.9354 14.4698 39.9354 13.3664C39.9354 12.5526 40.0362 11.8491 40.2522 11.256C40.4538 10.6629 40.7418 10.1526 41.0874 9.73877C41.433 9.32498 41.8362 8.99395 42.2826 8.73188C42.7434 8.46981 43.2042 8.2767 43.6795 8.13877C44.1547 8.00084 44.6299 7.90429 45.1051 7.86291C45.5803 7.82153 46.0267 7.79395 46.4155 7.79395C47.7691 7.79395 48.878 8.00084 49.7132 8.40084C50.5628 8.80084 51.2108 9.33877 51.686 9.97326C52.1612 10.6215 52.478 11.3526 52.6364 12.1526C52.7948 12.9664 52.8812 13.7664 52.8812 14.5526H49.1372C49.0796 14.2215 49.0364 13.8491 48.9932 13.4491C48.9644 13.0491 48.8636 12.6905 48.7196 12.4008C48.59 12.1388 48.374 11.9043 48.0427 11.6974C47.7115 11.4905 47.1931 11.3802 46.4875 11.3802C45.9403 11.3802 45.4795 11.4215 45.1195 11.5181C44.7595 11.6146 44.4859 11.7526 44.2843 11.9319C44.0827 12.1112 43.9387 12.3595 43.8667 12.6491C43.7947 12.9388 43.7515 13.2974 43.7515 13.6974C43.7515 14.1802 43.8667 14.525 44.0827 14.7319C44.2987 14.9388 44.7163 15.1181 45.3211 15.2698C45.9547 15.4353 46.5883 15.5733 47.2363 15.6836C47.8843 15.7939 48.5036 15.9319 49.1084 16.0836C49.7132 16.2353 50.2748 16.4422 50.7932 16.7043C51.3116 16.9664 51.7724 17.3112 52.1612 17.7664C52.55 18.2215 52.8668 18.8008 53.0828 19.5043C53.3276 20.2077 53.4285 21.0905 53.4285 22.1388V22.1388ZM67.7279 11.987H62.9902V28.0008H59.059V11.987H54.3213V8.15257H67.7135V11.987H67.7279Z" fill="white"/>
<path d="M93.1252 20.7027C93.0388 21.7372 92.8516 22.7165 92.5636 23.6544C92.2756 24.5924 91.858 25.4061 91.3108 26.0958C90.7635 26.7993 90.0435 27.351 89.1651 27.7648C88.2867 28.1786 87.2211 28.3855 85.9683 28.3855C84.5282 28.3855 83.3042 28.151 82.2962 27.682C81.2882 27.213 80.4818 26.5234 79.8481 25.6406C79.2289 24.7441 78.7681 23.6406 78.4945 22.3303C78.2065 21.0199 78.0625 19.5303 78.0625 17.8475C78.0625 16.3027 78.2209 14.8958 78.5233 13.6544C78.8257 12.413 79.3009 11.351 79.9489 10.4682C80.597 9.59925 81.4178 8.92339 82.397 8.45442C83.3906 7.98546 84.5714 7.75098 85.9395 7.75098C87.3219 7.75098 88.4451 7.95787 89.3235 8.37167C90.2019 8.78546 90.8932 9.32339 91.426 9.98546C91.9444 10.6475 92.3188 11.4061 92.5492 12.2475C92.7796 13.0889 92.938 13.9441 93.0388 14.7855H89.3235C89.2371 14.3441 89.1363 13.9165 89.0211 13.5165C88.9203 13.1165 88.7475 12.7579 88.5315 12.4682C88.3155 12.1786 88.0131 11.9441 87.6387 11.7648C87.2643 11.5855 86.7603 11.5027 86.1267 11.5027C85.3634 11.5027 84.7154 11.6268 84.197 11.8613C83.6786 12.0958 83.2466 12.482 82.9298 13.0199C82.613 13.5579 82.3826 14.2613 82.2386 15.1303C82.0946 15.9993 82.037 17.0751 82.037 18.3579C82.037 19.6544 82.1378 20.6889 82.325 21.5027C82.5122 22.3027 82.7858 22.9372 83.1314 23.3786C83.477 23.8337 83.8946 24.1372 84.3986 24.3027C84.9026 24.4682 85.4499 24.551 86.0691 24.551C86.7027 24.551 87.1923 24.4544 87.5667 24.2751C87.9411 24.0958 88.2291 23.8337 88.4451 23.4889C88.6611 23.1441 88.8339 22.7441 88.9491 22.2751C89.0787 21.8061 89.1939 21.282 89.3235 20.6889H93.1252V20.7027ZM108.894 27.9993H104.977V19.4337H99.0725V27.9993H95.1556V8.15098H99.0725V15.5579H104.977V8.15098H108.894V27.9993ZM125.411 27.9993H121.307L120.227 23.9027H115.014L113.948 27.9993H109.988L115.662 8.15098H119.55L125.411 27.9993ZM119.247 20.2061L117.634 13.8199L115.978 20.2061H119.247ZM136.916 27.9993L130.926 15.9165V27.9993H127.009V8.15098H130.854L136.888 20.151V8.15098H140.776V27.9993H136.916V27.9993ZM158.445 27.9993H155.262V25.9855C155.032 26.4682 154.744 26.8544 154.398 27.1579C154.053 27.4613 153.678 27.6958 153.275 27.8751C152.872 28.0544 152.44 28.1648 152.008 28.2337C151.576 28.3027 151.144 28.3303 150.726 28.3303C149.286 28.3303 148.077 28.0682 147.112 27.5303C146.147 26.9924 145.369 26.2613 144.779 25.3234C144.189 24.3855 143.771 23.2682 143.526 21.9855C143.281 20.7027 143.152 19.3234 143.152 17.8475C143.152 11.1165 145.787 7.75098 151.072 7.75098C152.382 7.75098 153.477 7.95787 154.384 8.35787C155.291 8.75787 156.026 9.3096 156.587 9.97167C157.149 10.6475 157.552 11.4199 157.797 12.2751C158.042 13.1441 158.171 14.0406 158.171 14.951H154.168C154.168 14.551 154.139 14.1372 154.082 13.7096C154.024 13.282 153.894 12.9096 153.693 12.5786C153.491 12.2475 153.174 11.9717 152.757 11.7648C152.339 11.5579 151.778 11.4475 151.058 11.4475C150.338 11.4475 149.718 11.5579 149.229 11.7924C148.725 12.0268 148.321 12.3855 148.005 12.882C147.688 13.3786 147.457 14.0268 147.313 14.813C147.169 15.5993 147.097 16.551 147.097 17.6544C147.097 18.8682 147.155 19.9165 147.285 20.7855C147.414 21.6544 147.63 22.3579 147.947 22.882C148.264 23.4199 148.681 23.8061 149.2 24.0544C149.718 24.3027 150.381 24.4268 151.187 24.4268C151.648 24.4268 152.08 24.3579 152.498 24.2199C152.915 24.082 153.275 23.8613 153.578 23.5717C153.88 23.282 154.125 22.8958 154.298 22.4406C154.47 21.9855 154.542 21.4337 154.528 20.7855H150.842V17.1303H158.474V27.9993H158.445ZM174.04 27.9993H160.907V8.15098H173.81V11.9993H164.824V15.6544H173.09V19.5027H164.824V24.1234H174.04V27.9993V27.9993Z" fill="#363636"/>
<defs>
<linearGradient id="paint0_linear" x1="36.7212" y1="36" x2="36.7212" y2="0" gradientUnits="userSpaceOnUse">
<stop stop-color="#1C1C1C"/>
<stop offset="1" stop-color="#4B4B4B"/>
</linearGradient>
<linearGradient id="paint1_linear" x1="126.719" y1="36" x2="126.719" y2="0" gradientUnits="userSpaceOnUse">
<stop stop-color="#BCBCBC"/>
<stop offset="1" stop-color="#F3F3F3"/>
</linearGradient>
</defs>
</svg>
