<svg width="154" height="31" viewBox="0 0 154 31" fill="none" xmlns="http://www.w3.org/2000/svg">
<path d="M62.8184 31H3.74447C1.67516 31 0 29.3847 0 27.3893V3.61073C0 1.61533 1.67516 0 3.74447 0H62.8184V31Z" fill="url(#paint0_linear)"/>
<path d="M150.218 31H62.8145V0H150.218C152.288 0 153.963 1.61533 153.963 3.61073V27.4011C153.963 29.3847 152.288 31 150.218 31Z" fill="url(#paint1_linear)"/>
<path d="M19.1941 18.8031C19.1941 19.979 19.0217 20.9173 18.6891 21.618C18.3565 22.3188 17.9131 22.8533 17.3834 23.2096C16.8538 23.5778 16.2626 23.8154 15.6098 23.9341C14.9569 24.0529 14.3164 24.1123 13.6882 24.1123H7.44336V7.02073H14.3164C15.2033 7.02073 15.9177 7.16326 16.4843 7.44831C17.0509 7.73337 17.4943 8.10157 17.8269 8.56479C18.1594 9.02801 18.3812 9.53873 18.5043 10.097C18.6275 10.6552 18.6768 11.2134 18.6644 11.7479C18.6398 13.3039 18.2333 14.361 17.445 14.9192C17.9624 15.1567 18.3811 15.5843 18.7137 16.202C19.034 16.8315 19.1941 17.6985 19.1941 18.8031V18.8031ZM15.3511 11.8073C15.3511 11.2728 15.2895 10.869 15.154 10.6077C15.0185 10.3464 14.7599 10.2157 14.3657 10.2157H10.806V13.6246H14.0454C14.5505 13.6246 14.883 13.4583 15.0678 13.1376C15.2525 12.805 15.3511 12.3537 15.3511 11.8073V11.8073ZM15.8191 18.8269C15.8191 18.3518 15.7822 17.9717 15.696 17.6985C15.6221 17.4253 15.5112 17.1997 15.388 17.0452C15.2649 16.8908 15.1294 16.7839 14.9692 16.7364C14.8214 16.6889 14.6736 16.6652 14.5258 16.6652H10.806V20.7629H14.2425C14.8338 20.7629 15.2525 20.6085 15.4743 20.3115C15.7083 20.0027 15.8191 19.5157 15.8191 18.8269ZM32.6693 24.1123H21.4112V7.02073H32.4722V10.3345H24.7615V13.482H31.8563V16.7958H24.7615V20.7747H32.6693V24.1123ZM45.701 19.0644C45.701 22.6633 43.6933 24.4686 39.6778 24.4686C37.7317 24.4686 36.2413 23.9341 35.2189 22.877C34.1966 21.8081 33.6916 20.169 33.6916 17.9479H36.9557C36.9803 18.4349 37.0419 18.8981 37.1281 19.302C37.2144 19.7177 37.3745 20.0621 37.5962 20.359C37.8179 20.656 38.1012 20.8816 38.4584 21.0479C38.8156 21.2142 39.2713 21.2974 39.8256 21.2974C40.7371 21.2974 41.3899 21.1311 41.7964 20.8104C42.2029 20.4897 42.4123 19.8483 42.4123 18.9219C42.4123 18.4349 42.326 18.0786 42.1659 17.8648C42.0058 17.651 41.7471 17.4847 41.4022 17.3541C41.0081 17.2115 40.5277 17.1046 39.9734 17.0215C39.4192 16.9384 38.7787 16.8077 38.0642 16.6177C37.51 16.4633 36.9926 16.2851 36.5246 16.0832C36.0565 15.8813 35.6377 15.6081 35.2805 15.2399C34.9233 14.8717 34.6523 14.3966 34.4553 13.8146C34.2582 13.2326 34.1597 12.4606 34.1597 11.5104C34.1597 10.8096 34.2459 10.2039 34.4306 9.69314C34.6031 9.18241 34.8494 8.74295 35.145 8.38663C35.4407 8.0303 35.7855 7.74525 36.1674 7.51958C36.5615 7.29391 36.9557 7.12762 37.3622 7.00885C37.7686 6.89007 38.1751 6.80693 38.5816 6.7713C38.9881 6.73567 39.3699 6.71191 39.7025 6.71191C40.8603 6.71191 41.8087 6.89008 42.5231 7.23452C43.2498 7.57896 43.8041 8.04218 44.2106 8.58854C44.6171 9.14678 44.8881 9.77628 45.0235 10.4652C45.159 11.1659 45.2329 11.8548 45.2329 12.5318H42.0304C41.9812 12.2468 41.9442 11.9261 41.9073 11.5816C41.8826 11.2372 41.7964 10.9284 41.6732 10.679C41.5624 10.4533 41.3776 10.2514 41.0943 10.0732C40.811 9.89506 40.3676 9.80004 39.764 9.80004C39.296 9.80004 38.9018 9.83567 38.5939 9.91881C38.286 10.002 38.0519 10.1207 37.8795 10.2751C37.707 10.4295 37.5839 10.6433 37.5223 10.8928C37.4607 11.1422 37.4237 11.451 37.4237 11.7954C37.4237 12.2111 37.5223 12.5081 37.707 12.6862C37.8918 12.8644 38.249 13.0188 38.7663 13.1495C39.3083 13.292 39.8503 13.4108 40.4045 13.5058C40.9588 13.6008 41.4885 13.7196 42.0058 13.8502C42.5231 13.9809 43.0035 14.159 43.4469 14.3847C43.8903 14.6104 44.2845 14.9073 44.6171 15.2993C44.9496 15.6912 45.2206 16.1901 45.4054 16.7958C45.6148 17.4016 45.701 18.1617 45.701 19.0644V19.0644ZM57.9321 10.3226H53.8797V24.1123H50.5171V10.3226H46.4647V7.02073H57.9198V10.3226H57.9321Z" fill="white"/>
<path d="M79.6554 17.8267C79.5815 18.7175 79.4214 19.5608 79.175 20.3685C78.9287 21.1761 78.5715 21.8769 78.1034 22.4708C77.6354 23.0765 77.0195 23.5516 76.2682 23.9079C75.5168 24.2643 74.6053 24.4424 73.5337 24.4424C72.302 24.4424 71.255 24.2405 70.3928 23.8367C69.5306 23.4328 68.8408 22.839 68.2988 22.0788C67.7692 21.3068 67.375 20.3566 67.141 19.2282C66.8947 18.0999 66.7715 16.8171 66.7715 15.3681C66.7715 14.0378 66.907 12.8263 67.1656 11.7574C67.4243 10.6884 67.8308 9.77383 68.3851 9.01367C68.9393 8.2654 69.6414 7.68341 70.479 7.27958C71.3289 6.87574 72.3389 6.67383 73.5091 6.67383C74.6915 6.67383 75.6523 6.85199 76.4036 7.20831C77.155 7.56463 77.7462 8.02785 78.202 8.59797C78.6454 9.16808 78.9656 9.82134 79.1627 10.5459C79.3598 11.2704 79.4953 12.0068 79.5815 12.7313H76.4036C76.3297 12.3512 76.2435 11.983 76.145 11.6386C76.0588 11.2941 75.9109 10.9853 75.7262 10.7359C75.5414 10.4865 75.2828 10.2846 74.9625 10.1302C74.6423 9.97574 74.2112 9.90448 73.6692 9.90448C73.0164 9.90448 72.4621 10.0114 72.0187 10.2133C71.5752 10.4152 71.2057 10.7478 70.9347 11.211C70.6638 11.6742 70.4667 12.28 70.3435 13.0282C70.2203 13.7765 70.1711 14.7029 70.1711 15.8075C70.1711 16.924 70.2573 17.8148 70.4174 18.5156C70.5775 19.2045 70.8116 19.7508 71.1072 20.1309C71.4028 20.5229 71.76 20.7842 72.1911 20.9267C72.6222 21.0692 73.0903 21.1405 73.6199 21.1405C74.1619 21.1405 74.5807 21.0574 74.9009 20.9029C75.2212 20.7485 75.4675 20.5229 75.6523 20.2259C75.837 19.929 75.9849 19.5846 76.0834 19.1807C76.1942 18.7769 76.2928 18.3256 76.4036 17.8148H79.6554V17.8267ZM93.1429 24.1098H89.7926V16.734H84.7425V24.1098H81.3922V7.01827H84.7425V13.3964H89.7926V7.01827H93.1429V24.1098ZM107.271 24.1098H103.76L102.837 20.5823H98.3778L97.4663 24.1098H94.079L98.932 7.01827H102.258L107.271 24.1098ZM101.999 17.3991L100.62 11.8999L99.203 17.3991H101.999ZM117.112 24.1098L111.988 13.7052V24.1098H108.638V7.01827H111.927L117.088 17.3516V7.01827H120.413V24.1098H117.112V24.1098ZM135.527 24.1098H132.805V22.3757C132.608 22.7915 132.361 23.124 132.066 23.3853C131.77 23.6466 131.45 23.8485 131.105 24.0029C130.76 24.1574 130.391 24.2524 130.021 24.3118C129.651 24.3711 129.282 24.3949 128.925 24.3949C127.693 24.3949 126.658 24.1692 125.833 23.706C125.008 23.2428 124.343 22.6133 123.838 21.8056C123.333 20.998 122.975 20.0359 122.766 18.9313C122.557 17.8267 122.446 16.639 122.446 15.3681C122.446 9.57191 124.7 6.67383 129.22 6.67383C130.341 6.67383 131.277 6.85199 132.053 7.19643C132.829 7.54088 133.458 8.01597 133.938 8.58609C134.418 9.16808 134.763 9.83321 134.973 10.5696C135.182 11.3179 135.293 12.0899 135.293 12.8738H131.869C131.869 12.5294 131.844 12.1731 131.795 11.8049C131.745 11.4367 131.635 11.116 131.462 10.8309C131.29 10.5459 131.019 10.3083 130.661 10.1302C130.304 9.95199 129.824 9.85697 129.208 9.85697C128.592 9.85697 128.063 9.95199 127.644 10.1539C127.213 10.3558 126.868 10.6646 126.597 11.0922C126.326 11.5198 126.129 12.078 126.006 12.7551C125.882 13.4321 125.821 14.2516 125.821 15.2018C125.821 16.247 125.87 17.1497 125.981 17.898C126.092 18.6462 126.277 19.252 126.548 19.7033C126.818 20.1665 127.176 20.4991 127.619 20.7129C128.063 20.9267 128.629 21.0336 129.319 21.0336C129.713 21.0336 130.083 20.9742 130.44 20.8554C130.797 20.7367 131.105 20.5466 131.364 20.2972C131.622 20.0478 131.832 19.7152 131.979 19.3233C132.127 18.9313 132.189 18.4562 132.177 17.898H129.023V14.7505H135.551V24.1098H135.527ZM148.867 24.1098H137.633V7.01827H148.669V10.3321H140.983V13.4796H148.054V16.7934H140.983V20.7723H148.867V24.1098V24.1098Z" fill="#363636"/>
<defs>
<linearGradient id="paint0_linear" x1="31.4096" y1="31" x2="31.4096" y2="0" gradientUnits="userSpaceOnUse">
<stop stop-color="#1C1C1C"/>
<stop offset="1" stop-color="#4B4B4B"/>
</linearGradient>
<linearGradient id="paint1_linear" x1="108.389" y1="31" x2="108.389" y2="0" gradientUnits="userSpaceOnUse">
<stop stop-color="#BCBCBC"/>
<stop offset="1" stop-color="#F3F3F3"/>
</linearGradient>
</defs>
</svg>
