<svg width="40" height="40" viewBox="0 0 40 40" fill="none" xmlns="http://www.w3.org/2000/svg">
<path d="M18.9841 0.998434C19.6305 0.711133 20.3684 0.711125 21.0148 0.998414L38.0153 8.55399C38.9182 8.95524 39.5 9.85055 39.5 10.8385V29.1615C39.5 30.1495 38.9182 31.0448 38.0153 31.446L21.0148 39.0016C20.3684 39.2889 19.6305 39.2889 18.9841 39.0016L1.98463 31.446C1.08182 31.0448 0.5 30.1495 0.5 29.1615V10.8385C0.5 9.85052 1.08182 8.95523 1.98463 8.55397L18.9841 0.998434Z" fill="#171C1F" stroke="#54ADFF"/>
<path d="M20.5 33C27.4036 33 33 27.4036 33 20.5C33 13.5964 27.4036 8 20.5 8C13.5964 8 8 13.5964 8 20.5C8 27.4036 13.5964 33 20.5 33Z" fill="#0AC18E"/>
<path d="M24.4029 16.317C23.7759 14.8925 22.3363 14.5965 20.5706 14.8875L20.0038 12.6904L18.6645 13.0365L19.2213 15.2286C18.8702 15.3188 18.509 15.3941 18.1529 15.4944L17.5911 13.3174L16.2518 13.6635L16.8186 15.8606C16.5327 15.9408 14.125 16.5628 14.125 16.5628L14.4962 17.9924C14.4962 17.9924 15.4793 17.7165 15.4693 17.7416C16.011 17.6011 16.2669 17.872 16.3923 18.1278L17.9472 24.1471C17.9673 24.3227 17.9372 24.6236 17.561 24.7189C17.5811 24.729 16.5879 24.9697 16.5879 24.9697L16.7333 26.6351C16.7333 26.6351 19.116 26.0231 19.432 25.9479L20.0088 28.17L21.3431 27.8239L20.7713 25.5867C21.1425 25.5014 21.4936 25.4111 21.8447 25.3208L22.4165 27.548L23.7558 27.2019L23.184 24.9848C25.2406 24.4832 26.6952 23.189 26.3943 21.2027C26.2037 20.0088 24.8995 19.0257 23.811 18.9153C24.4731 18.3134 24.8142 17.4456 24.4029 16.317ZM23.7558 21.5538C24.0217 23.5201 21.2929 23.7609 20.385 23.9966L19.5975 21.0572C20.5104 20.8164 23.3094 19.8182 23.7558 21.5538ZM22.1106 17.551C22.3915 19.2966 20.059 19.5022 19.3016 19.6979L18.5893 17.0293C19.3467 16.8337 21.5387 15.9358 22.1106 17.551Z" fill="white"/>
</svg>
