<svg width="40" height="40" viewBox="0 0 40 40" fill="none" xmlns="http://www.w3.org/2000/svg">
<path d="M21.0148 0.998414L38.0153 8.55399C38.9182 8.95524 39.5 9.85055 39.5 10.8385V29.1615C39.5 30.1495 38.9182 31.0448 38.0153 31.446L21.0148 39.0016C20.3684 39.2889 19.6305 39.2889 18.9841 39.0016L1.98463 31.446C1.08182 31.0448 0.5 30.1495 0.5 29.1615V10.8385C0.5 9.85052 1.08182 8.95523 1.98463 8.55397L18.9841 0.998434C19.6305 0.711133 20.3684 0.711125 21.0148 0.998414Z" fill="#171C1F" stroke="#54ADFF"/>
<circle cx="20" cy="20" r="12" fill="white"/>
<path d="M19.3644 8H20.6148C21.9192 8.0864 23.2164 8.3468 24.4284 8.8364C27.4284 10.016 29.904 12.4628 31.1124 15.4532C32.7757 19.4349 32.0617 24.2913 29.2848 27.6045C27.4056 29.9109 24.642 31.4817 21.6924 31.8813C18.924 32.2761 16.0188 31.6797 13.65 30.1833C11.8235 29.0457 10.3115 27.4089 9.33233 25.4913C8.07592 23.0829 7.69432 20.2365 8.24632 17.5797C8.83673 14.6348 10.5947 11.948 13.0464 10.2164C14.8824 8.888 17.1084 8.1404 19.3644 8ZM18.6204 8.5436C14.97 8.96241 11.6147 11.2616 9.87473 14.4944C8.69753 16.6436 8.22712 19.1781 8.58233 21.6057C8.98433 24.5289 10.5743 27.2637 12.9023 29.0733C14.6748 30.4713 16.8672 31.3293 19.1184 31.4973C21.6684 31.7001 24.2796 31.0197 26.3964 29.5833C28.992 27.8649 30.834 25.0545 31.3633 21.9861C31.6681 20.1777 31.5649 18.2937 31.0056 16.5452C30.2076 14.0024 28.4976 11.7548 26.2536 10.3148C24.0228 8.8508 21.2688 8.216 18.6204 8.5436Z" fill="#00206B"/>
<path d="M18.909 13.2693C20.9958 12.9201 23.2338 13.6041 24.735 15.1017C26.067 16.3593 26.8446 18.1869 26.8062 20.0193C26.8326 21.8421 26.0514 23.6554 24.7254 24.9022C23.2818 26.3374 21.159 27.0226 19.1466 26.7574C17.2506 26.5294 15.4758 25.4518 14.3982 23.8738C13.2054 22.1841 12.8766 19.9353 13.4958 17.9661C14.2206 15.5421 16.4094 13.6473 18.909 13.2693ZM19.3254 13.6845C19.3266 14.2809 19.3278 14.8773 19.3266 15.4737C19.6242 15.4737 19.9218 15.4737 20.2194 15.4749C20.2206 14.8629 20.2218 14.2509 20.2194 13.6401C19.9218 13.6497 19.623 13.6641 19.3254 13.6845V13.6845ZM21.4722 15.5025C22.2558 15.6081 23.0982 15.7281 23.7234 16.2573C24.6774 17.1141 24.5538 18.9129 23.3862 19.5345C24.0858 19.6977 24.7782 20.1645 24.951 20.8989C25.1754 21.8625 24.9966 23.0193 24.2226 23.6986C23.4558 24.3298 22.4178 24.4126 21.4698 24.5026C21.4746 25.0606 21.4722 25.6186 21.471 26.1778C23.4666 25.6894 25.1886 24.2038 25.9206 22.2813C26.6154 20.5077 26.451 18.4209 25.4706 16.7877C24.6042 15.3141 23.1306 14.2317 21.4758 13.8165C21.471 14.3781 21.471 14.9397 21.4722 15.5025V15.5025ZM15.5166 15.4785C16.3806 15.5205 17.2458 15.5109 18.111 15.5097C18.111 14.9829 18.1122 14.4573 18.1086 13.9305C17.1402 14.2449 16.2774 14.8089 15.5166 15.4785ZM15.4134 15.5481C15.1842 15.8301 14.7594 16.3629 14.5074 16.8345C13.491 18.5661 13.3758 20.7885 14.2242 22.6101C14.9562 24.2434 16.4082 25.5142 18.1086 26.0614C18.111 25.5358 18.1098 25.0102 18.1098 24.4858C17.2422 24.4774 16.3722 24.5086 15.5058 24.4618C15.5154 23.9782 15.6294 23.5053 15.7938 23.0493C16.2186 23.0409 16.6614 23.1153 17.0718 22.9761C17.3118 22.7745 17.2434 22.4409 17.2566 22.1649C17.2434 20.5869 17.2626 19.0089 17.2482 17.4321C17.2638 17.1777 17.1042 16.9029 16.8402 16.8525C16.4046 16.7649 15.9558 16.7997 15.5154 16.7961C15.4638 16.4409 15.4578 16.0821 15.453 15.7233C15.453 15.7233 15.459 15.6105 15.4206 15.5373L15.4134 15.5481V15.5481ZM19.3626 16.9041V19.2297C20.139 19.2153 21.0006 19.3017 21.6798 18.8505C22.2438 18.4809 22.2078 17.5461 21.6258 17.2137C20.9454 16.8117 20.1162 16.9257 19.3626 16.9041V16.9041ZM19.3626 20.4813V23.0613C20.3214 22.9845 21.3966 23.1453 22.2306 22.5669C22.827 22.1709 22.755 21.1905 22.1406 20.8473C21.3054 20.3481 20.2902 20.5065 19.3626 20.4813V20.4813ZM19.3278 24.5206C19.3278 25.117 19.3266 25.7146 19.3254 26.311C19.6362 26.3314 19.9458 26.3434 20.2566 26.353C20.259 25.7422 20.2578 25.1314 20.2578 24.5206H19.3278V24.5206Z" fill="#00206B"/>
<path d="M18.6896 9.16668C20.7921 8.94108 22.9689 9.26148 24.8577 10.2311C27.2877 11.4227 29.2305 13.5647 30.1881 16.0955C31.1649 18.6299 31.1433 21.5292 30.1317 24.0516C28.5933 28.0272 24.5313 30.8856 20.2545 30.8916C17.7428 30.9828 15.2156 30.138 13.2488 28.5756C11.1512 26.9448 9.7004 24.5076 9.2528 21.888C8.7956 19.2935 9.308 16.5371 10.6952 14.2943C12.3908 11.4815 15.428 9.53749 18.6896 9.16668ZM18.3236 12.6875C16.6148 13.0727 15.0524 14.0819 14.0048 15.4871C12.848 17.0087 12.3176 18.9875 12.554 20.8823C12.776 22.9104 13.8836 24.8232 15.5312 26.0244C17.0732 27.1836 19.0773 27.6924 20.9853 27.4308C23.3433 27.1428 25.5117 25.6416 26.6121 23.5356C27.4365 22.0332 27.6621 20.2475 27.3597 18.5711C26.9745 16.5383 25.7049 14.6915 23.9385 13.6139C22.2849 12.5843 20.2209 12.2543 18.3236 12.6875V12.6875Z" fill="#EBA809"/>
</svg>
