<svg width="180" height="39" viewBox="0 0 180 39" fill="none" xmlns="http://www.w3.org/2000/svg">
<path d="M33.4281 19.9037V22.5841C33.4281 23.7247 33.0858 24.8652 32.4583 26.0058C29.1497 32.3931 18.3113 38.7233 16.657 38.7233C14.8316 38.6663 0 30.9103 0 22.5841V5.30429C0 3.65045 0 2.62392 0 2.62392C0 2.62392 3.30858 1.1982 9.24121 0.45682C10.8385 0.228704 12.6639 0.114646 14.6034 0.0576172C25.0996 0.627907 33.4281 9.29632 33.4281 19.9037Z" fill="#F39325"/>
<path d="M22.4179 17.9074C22.532 17.9644 22.6461 18.0214 22.8172 18.0214C23.3306 18.1925 23.844 18.4206 24.2433 18.7628C24.7567 19.162 25.099 19.6753 25.2701 20.3026C25.4983 21.101 25.4983 21.8994 25.3842 22.6978C25.3272 23.2681 25.156 23.8384 24.9278 24.3516C24.5285 25.1501 24.0151 25.7203 23.2165 26.1195C22.4749 26.5188 21.7334 26.7469 20.9347 26.8609C20.3072 26.975 19.6227 27.032 18.9382 27.089C18.71 27.089 18.6529 27.1461 18.6529 27.3742C18.6529 28.0585 18.6529 28.6859 18.5959 29.3702C18.5959 29.7694 18.5959 30.1686 18.5959 30.5678C18.5959 30.7959 18.5959 30.7959 18.3677 30.7959C17.7973 30.7959 17.2839 30.7959 16.7134 30.7959C16.4853 30.7959 16.4282 30.7959 16.4282 30.5108C16.4282 29.5413 16.4853 28.5718 16.4853 27.5453C16.4853 27.1461 16.4853 27.1461 16.0859 27.089C15.6866 27.089 15.3444 27.089 14.9451 27.089C14.6598 27.089 14.6598 27.089 14.6598 27.3742C14.6598 28.4007 14.6028 29.3702 14.6028 30.3967C14.6028 30.4538 14.6028 30.5108 14.6028 30.5678C14.6028 30.7389 14.5457 30.7959 14.4317 30.7389C13.8612 30.7389 13.2908 30.7389 12.7203 30.6819C12.4921 30.6819 12.4921 30.6248 12.4921 30.3967C12.4921 29.4843 12.5492 28.5718 12.5492 27.6593C12.5492 27.4882 12.5492 27.3742 12.5492 27.2031C12.5492 26.975 12.4921 26.975 12.321 26.975C11.8647 26.975 11.4653 26.918 11.009 26.918C10.1533 26.918 9.29765 26.8609 8.38494 26.8609C8.09972 26.8609 8.09972 26.8609 8.15676 26.5758C8.27085 25.8914 8.38494 25.2071 8.55607 24.5227C8.61312 24.2376 8.61312 24.2376 8.89834 24.2376C9.3547 24.2376 9.81105 24.2376 10.2674 24.2376C10.8379 24.2376 11.066 23.8384 11.066 23.4392C11.1231 22.2416 11.1231 21.044 11.1231 19.8464C11.1231 19.162 11.1801 18.4206 11.1801 17.7363C11.1801 17.3941 11.1801 17.109 11.1801 16.7668C11.1801 15.7973 11.2372 14.8278 11.2372 13.8013C11.2372 13.6872 11.2372 13.5732 11.2372 13.4591C11.1231 12.8888 10.7808 12.5466 10.2104 12.4896C9.69696 12.4326 9.18356 12.4326 8.67016 12.4326C8.44198 12.4326 8.38494 12.4326 8.44198 12.1474C8.44198 11.5771 8.44198 10.9498 8.49903 10.3795C8.49903 10.1514 8.49903 10.1514 8.72721 10.1514C9.92514 10.2085 11.1231 10.2085 12.3781 10.2085C12.4921 10.2085 12.6633 10.2085 12.7774 10.2085C12.9485 10.2085 13.0055 10.1514 13.0055 9.98033C13.0055 9.63816 13.0055 9.29599 13.0055 8.95381C13.0055 8.32649 13.0055 7.64215 13.0055 7.01483C13.0055 6.9578 13.0055 6.90077 13.0055 6.84374C13.0055 6.55859 13.0055 6.55859 13.2908 6.55859C13.8042 6.55859 14.3746 6.55859 14.888 6.61562C15.1162 6.61562 15.1732 6.67265 15.1732 6.90077C15.1732 7.41403 15.1732 7.92729 15.1162 8.44055C15.1162 8.95381 15.1162 9.41004 15.1162 9.92331C15.1162 10.1514 15.1162 10.1514 15.3444 10.1514C15.8007 10.1514 16.2 10.1514 16.6564 10.1514C16.9416 10.1514 16.9416 10.1514 16.9416 9.86628C16.9416 8.89678 16.9987 7.92729 16.9987 6.9578C16.9987 6.55859 16.9987 6.55859 17.398 6.55859C17.9114 6.55859 18.3677 6.55859 18.8811 6.55859C19.1093 6.55859 19.1663 6.61562 19.1663 6.84374C19.1663 7.87026 19.1093 8.89678 19.1093 9.92331C19.1093 10.2085 19.1093 10.2085 19.3945 10.2085C20.2502 10.3225 21.0488 10.4366 21.8474 10.7787C22.4179 11.0069 22.9313 11.292 23.3876 11.6912C23.9581 12.2615 24.3004 12.8888 24.4144 13.6872C24.4715 14.2575 24.5285 14.8278 24.3574 15.3981C24.1292 16.2535 23.6729 16.9379 22.8742 17.4511C22.7601 17.5082 22.6461 17.6222 22.532 17.6793C22.4179 17.8503 22.4179 17.9074 22.4179 17.9074ZM18.767 24.1806C19.3375 24.0665 19.7938 23.8954 20.2502 23.6103C20.7636 23.2681 21.1059 22.8119 21.1629 22.1845C21.2199 21.3861 20.9918 20.7018 20.2502 20.2456C19.5657 19.7893 18.8241 19.6182 18.0825 19.5042C17.1127 19.3331 16.2 19.3901 15.2303 19.3901C14.9451 19.3901 14.9451 19.3901 14.9451 19.6753C14.9451 20.3026 14.9451 20.9299 14.888 21.5572C14.888 22.4127 14.831 23.2681 14.831 24.0665C14.831 24.2946 14.888 24.3516 15.1162 24.3516C15.5155 24.3516 15.9719 24.4087 16.3712 24.3516C17.1698 24.4087 17.9684 24.4087 18.767 24.1806ZM18.1966 17.109C18.6529 16.9949 19.0523 16.8808 19.3945 16.6527C20.4213 16.0254 20.5354 14.4856 19.6797 13.6872C19.3375 13.345 18.8811 13.174 18.3677 13.0029C17.3409 12.7177 16.2571 12.7177 15.2303 12.7748C15.0591 12.7748 15.0021 12.8318 15.0021 13.0029C15.0021 13.288 15.0021 13.6302 15.0021 13.9153C15.0021 14.9419 14.9451 15.9114 14.9451 16.9379C14.9451 17.166 14.9451 17.223 15.2303 17.223C15.5155 17.223 15.8007 17.223 16.0859 17.223C16.7705 17.2801 17.455 17.28 18.1966 17.109Z" fill="white"/>
<path d="M33.4278 2.62334C33.4278 2.62334 33.4278 12.6034 33.4278 19.9031C33.4278 9.29573 25.0993 0.627319 14.6602 0.057029C15.2876 0 16.0292 0 16.7138 0C27.267 0 33.4278 2.62334 33.4278 2.62334Z" fill="#F9B45C"/>
<path d="M49.0266 14.3708C49.9964 14.3708 50.795 14.5419 51.4795 14.8841C52.1641 15.2263 52.7345 15.6825 53.1909 16.2528C53.6472 16.8231 53.9895 17.5074 54.2177 18.3058C54.4459 19.1042 54.5599 19.9026 54.5599 20.8151C54.5599 22.1838 54.3318 23.4955 53.8184 24.6931C53.305 25.8907 52.6204 26.9742 51.7648 27.8867C50.9091 28.7992 49.8823 29.4835 48.6844 30.0538C47.4864 30.5671 46.1744 30.8522 44.8053 30.8522C44.6342 30.8522 44.2919 30.8522 43.8926 30.8522C43.4363 30.8522 42.9229 30.7952 42.3524 30.7381C41.782 30.6811 41.1545 30.5671 40.527 30.396C39.8425 30.1108 39.215 29.9397 38.6445 29.6546L43.7785 7.98356L48.3991 7.24219L46.5737 14.9411C46.973 14.77 47.3723 14.5989 47.7716 14.5419C48.171 14.4278 48.5703 14.3708 49.0266 14.3708ZM45.1476 27.1453C45.8321 27.1453 46.5167 26.9742 47.0871 26.6321C47.7146 26.2899 48.228 25.8336 48.6844 25.2634C49.1407 24.6931 49.483 24.0657 49.7682 23.3244C50.0534 22.583 50.1675 21.8416 50.1675 21.1002C50.1675 20.1307 49.9964 19.3894 49.7112 18.8761C49.3689 18.3628 48.7985 18.0777 47.9428 18.0777C47.6576 18.0777 47.3153 18.1347 46.8589 18.2488C46.4026 18.3628 46.0033 18.5339 45.661 18.8761L43.7215 27.0313C43.8356 27.0313 43.9497 27.0883 44.0067 27.0883C44.1208 27.0883 44.1778 27.1453 44.2919 27.1453C44.406 27.1453 44.5201 27.1453 44.6342 27.1453C44.7483 27.1453 44.9194 27.1453 45.1476 27.1453Z" fill="#F39325"/>
<path d="M59.8631 30.396H55.4707L59.1786 14.713H63.6281L59.8631 30.396ZM62.0308 12.831C61.4033 12.831 60.8329 12.66 60.3765 12.2608C59.8631 11.9186 59.635 11.3483 59.635 10.5499C59.635 10.1507 59.692 9.75148 59.8631 9.35227C60.0343 9.0101 60.2624 8.66792 60.5477 8.38278C60.8329 8.09763 61.1752 7.92655 61.5174 7.75546C61.8597 7.58437 62.259 7.52734 62.7154 7.52734C63.3428 7.52734 63.9133 7.69843 64.3696 8.09763C64.883 8.43981 65.1112 9.0101 65.1112 9.8085C65.1112 10.2077 65.0542 10.6069 64.883 11.0061C64.7119 11.3483 64.4837 11.6905 64.1985 11.9756C63.9133 12.2608 63.571 12.4318 63.2288 12.6029C62.8294 12.717 62.4301 12.831 62.0308 12.831Z" fill="#F39325"/>
<path d="M67.8495 10.8351L72.4701 10.0938L71.3292 14.7131H76.2921L75.3794 18.363H70.4736L69.1616 23.8377C69.0475 24.294 68.9904 24.6932 68.9334 25.0924C68.8763 25.4916 68.9334 25.8338 69.1045 26.1189C69.2186 26.404 69.4468 26.6322 69.789 26.8033C70.1313 26.9743 70.5306 27.0314 71.1011 27.0314C71.5574 27.0314 72.0138 26.9743 72.4701 26.9173C72.9265 26.8033 73.3828 26.6892 73.8392 26.5181L74.1815 29.9398C73.611 30.168 72.9265 30.3391 72.242 30.5101C71.5574 30.6812 70.7018 30.7383 69.789 30.7383C68.42 30.7383 67.3361 30.5101 66.5945 30.1109C65.853 29.7117 65.2825 29.1414 64.9973 28.4571C64.655 27.7727 64.5409 26.9173 64.598 26.0048C64.655 25.0924 64.7691 24.1229 64.9973 23.0964L67.8495 10.8351Z" fill="#F39325"/>
<path d="M80.7993 27.2018C81.8261 27.2018 82.5107 27.0307 82.91 26.7456C83.3093 26.4605 83.4804 26.1183 83.4804 25.8331C83.4804 25.605 83.4234 25.4339 83.3663 25.2628C83.3093 25.0918 83.1952 24.9777 83.0241 24.8066C82.8529 24.6926 82.6248 24.5215 82.3966 24.3504C82.1114 24.1793 81.7691 24.0082 81.3127 23.8371C80.7993 23.609 80.343 23.3809 79.8866 23.1528C79.4303 22.9247 79.088 22.5825 78.7457 22.2403C78.4035 21.8981 78.1753 21.4989 77.9471 21.0427C77.776 20.5865 77.6619 20.0732 77.6619 19.4459C77.6619 17.8491 78.2323 16.5944 79.4303 15.6249C80.6282 14.7125 82.3395 14.1992 84.6213 14.1992C85.7052 14.1992 86.6749 14.3133 87.4735 14.5414C88.2722 14.7695 88.9567 15.0547 89.5271 15.3398L87.9869 18.6475C87.5876 18.4194 87.0172 18.2483 86.3897 18.0202C85.7622 17.8491 85.0777 17.735 84.4502 17.735C84.165 17.735 83.8797 17.735 83.6516 17.792C83.3663 17.8491 83.1382 17.9061 82.91 17.9631C82.6818 18.0772 82.5107 18.1913 82.3395 18.3623C82.2255 18.5334 82.1114 18.7615 82.1114 19.1037C82.1114 19.5029 82.2825 19.7881 82.5677 20.0162C82.8529 20.1873 83.3093 20.4724 83.8797 20.7576C84.6784 21.1568 85.3059 21.4989 85.8193 21.7841C86.3327 22.1263 86.732 22.4114 87.0742 22.8106C87.3594 23.1528 87.5876 23.552 87.7588 24.0082C87.8729 24.4644 87.9869 24.9777 87.9869 25.605C87.9869 26.2323 87.8729 26.8597 87.5876 27.487C87.3024 28.1143 86.9031 28.6276 86.3327 29.1408C85.7622 29.5971 85.0206 29.9963 84.1079 30.2814C83.1952 30.5665 82.1684 30.7376 80.9134 30.7376C80.1148 30.7376 79.4303 30.6806 78.8028 30.5665C78.1753 30.4525 77.6048 30.3384 77.1485 30.1673C76.6921 29.9963 76.2928 29.8822 75.9506 29.7111C75.6083 29.54 75.3801 29.426 75.209 29.3119L76.7492 25.8902C77.0915 26.0613 77.6049 26.3464 78.3464 26.6315C78.9169 27.0878 79.7725 27.2018 80.7993 27.2018Z" fill="#F39325"/>
<path d="M92.8921 25.2627C93.5766 25.2627 94.1471 25.4338 94.6605 25.833C95.1168 26.2322 95.345 26.8025 95.345 27.6579C95.345 28.1141 95.288 28.5133 95.1168 28.9126C94.9457 29.3118 94.7175 29.5969 94.4323 29.882C94.1471 30.1672 93.8619 30.3383 93.4626 30.5094C93.1203 30.6805 92.721 30.7375 92.3787 30.7375C91.6942 30.7375 91.1237 30.5664 90.6103 30.1672C90.154 29.768 89.9258 29.1407 89.9258 28.3423C89.9258 27.886 89.9828 27.4868 90.154 27.0876C90.3251 26.6884 90.5533 26.4033 90.8385 26.1181C91.1237 25.833 91.4089 25.6619 91.8083 25.4908C92.1505 25.3768 92.4928 25.2627 92.8921 25.2627Z" fill="#A5B9C4"/>
<path d="M101.051 15.4537C101.394 15.3396 101.736 15.2256 102.135 15.1115C102.534 14.9974 102.934 14.8834 103.447 14.7693C103.961 14.6553 104.474 14.5982 105.101 14.4842C105.729 14.4271 106.413 14.3701 107.212 14.3701C108.182 14.3701 108.98 14.4842 109.608 14.7123C110.235 14.9404 110.806 15.2826 111.319 15.7958C112.061 15.3966 112.802 15.0545 113.487 14.7693C114.229 14.4842 115.084 14.3701 116.054 14.3701C116.967 14.3701 117.765 14.4842 118.45 14.7693C119.134 14.9974 119.648 15.3966 120.104 15.8529C120.56 16.3091 120.846 16.8794 121.074 17.5067C121.245 18.134 121.359 18.8754 121.359 19.6168C121.359 19.959 121.359 20.3582 121.302 20.7574C121.245 21.1566 121.188 21.5558 121.074 21.955L119.02 30.3953H114.514L116.453 22.1261C116.51 21.8409 116.567 21.5558 116.624 21.2136C116.681 20.8714 116.738 20.5293 116.738 20.1871C116.738 19.6168 116.624 19.1606 116.339 18.7614C116.054 18.3621 115.598 18.134 114.799 18.134C114.4 18.134 114 18.1911 113.601 18.3621C113.202 18.5332 112.859 18.6473 112.574 18.8184C112.631 18.9895 112.631 19.1035 112.631 19.2746C112.631 19.3887 112.631 19.5598 112.631 19.6738C112.631 20.016 112.631 20.4152 112.574 20.8144C112.517 21.2136 112.46 21.6128 112.346 22.012L110.292 30.4523H105.957L107.897 22.1831C107.954 21.8979 108.011 21.6128 108.068 21.2706C108.125 20.9285 108.182 20.5863 108.182 20.2441C108.182 19.6738 108.068 19.2176 107.782 18.8184C107.497 18.4192 107.041 18.1911 106.242 18.1911C105.9 18.1911 105.672 18.1911 105.444 18.2481C105.215 18.3051 104.987 18.3051 104.645 18.3621L101.736 30.5093H97.4004L101.051 15.4537Z" fill="#A5B9C4"/>
<path d="M123.24 24.2369C123.24 22.9823 123.468 21.7276 123.925 20.53C124.381 19.3324 125.009 18.3059 125.807 17.3364C126.606 16.4239 127.633 15.6826 128.774 15.1123C129.914 14.542 131.226 14.2568 132.653 14.2568C133.337 14.2568 134.022 14.3709 134.592 14.542C135.163 14.7131 135.733 15.0552 136.132 15.3974C136.589 15.7966 136.931 16.2529 137.159 16.7661C137.387 17.3364 137.558 17.9067 137.558 18.6481C137.558 19.7887 137.33 20.7011 136.817 21.4995C136.303 22.2979 135.619 22.9252 134.763 23.3815C133.908 23.8947 132.824 24.2369 131.626 24.465C130.428 24.6931 129.116 24.8072 127.69 24.8072C127.804 25.6626 128.146 26.2329 128.602 26.5751C129.059 26.9173 129.8 27.0884 130.827 27.0884C131.455 27.0884 132.082 27.0313 132.767 26.9173C133.394 26.8032 134.022 26.6321 134.592 26.404L134.934 29.8828C134.364 30.1109 133.679 30.282 132.824 30.4531C131.968 30.6242 130.884 30.7953 129.914 30.7953C128.659 30.7953 127.633 30.6242 126.777 30.282C125.921 29.9398 125.237 29.4836 124.723 28.8563C124.21 28.286 123.811 27.5446 123.582 26.7462C123.354 26.0048 123.24 25.1494 123.24 24.2369ZM131.911 17.7926C130.884 17.7926 130.029 18.1348 129.23 18.8762C128.488 19.6176 127.975 20.5871 127.747 21.7276C129.002 21.6706 129.971 21.5565 130.713 21.4425C131.455 21.2714 132.082 21.0433 132.481 20.8152C132.881 20.5871 133.166 20.3019 133.337 20.0168C133.451 19.7316 133.565 19.4465 133.565 19.1613C133.508 18.3059 132.938 17.7926 131.911 17.7926Z" fill="#A5B9C4"/>
<path d="M144.289 30.7952C143.319 30.7952 142.464 30.6241 141.722 30.2819C141.038 29.9397 140.467 29.4835 140.011 28.9132C139.554 28.3429 139.212 27.6586 139.041 26.8602C138.813 26.0618 138.756 25.2634 138.756 24.3509C138.756 22.9822 138.984 21.7276 139.497 20.5299C140.011 19.3323 140.638 18.3058 141.494 17.3934C142.35 16.4809 143.376 15.7965 144.517 15.2833C145.715 14.77 146.97 14.4849 148.339 14.4849C148.682 14.4849 149.024 14.4849 149.366 14.5419C149.651 14.5989 149.994 14.656 150.279 14.713L151.876 7.98356L156.497 7.24219L152.561 23.6095C152.275 24.7501 152.218 25.8907 152.332 27.0313C152.447 28.1718 152.675 29.1984 153.017 30.1108L149.081 30.6811C148.967 30.453 148.853 30.2249 148.739 29.9968C148.625 29.7686 148.568 29.5405 148.453 29.2554C147.883 29.7116 147.255 30.1108 146.571 30.396C145.886 30.6811 145.145 30.7952 144.289 30.7952ZM149.423 18.2488C149.309 18.2488 149.195 18.1918 149.138 18.1918C149.024 18.1918 148.967 18.1347 148.853 18.1347C148.739 18.1347 148.625 18.1347 148.51 18.1347C148.396 18.1347 148.168 18.1347 147.997 18.1347C147.313 18.1347 146.628 18.3058 146.058 18.648C145.487 18.9902 144.974 19.3894 144.517 19.9597C144.118 20.5299 143.776 21.1573 143.491 21.8416C143.262 22.526 143.148 23.2673 143.148 24.0087C143.148 24.9782 143.319 25.7196 143.662 26.2329C144.004 26.8031 144.574 27.0313 145.43 27.0313C145.886 27.0313 146.286 26.9172 146.685 26.7461C147.084 26.575 147.484 26.2899 147.883 25.8336C147.94 25.3204 147.997 24.8071 148.054 24.2939C148.168 23.7236 148.225 23.2673 148.339 22.8111L149.423 18.2488Z" fill="#A5B9C4"/>
<path d="M159.521 30.396H155.129L158.837 14.713H163.286L159.521 30.396ZM161.632 12.831C161.004 12.831 160.434 12.66 159.978 12.2608C159.464 11.9186 159.236 11.3483 159.236 10.5499C159.236 10.1507 159.293 9.75148 159.464 9.35227C159.635 9.0101 159.864 8.66792 160.149 8.38278C160.434 8.09763 160.776 7.92655 161.119 7.75546C161.461 7.58437 161.86 7.52734 162.317 7.52734C162.944 7.52734 163.514 7.69843 163.971 8.09763C164.484 8.43981 164.712 9.0101 164.712 9.8085C164.712 10.2077 164.655 10.6069 164.484 11.0061C164.313 11.3483 164.085 11.6905 163.8 11.9756C163.514 12.2608 163.172 12.4318 162.83 12.6029C162.488 12.717 162.088 12.831 161.632 12.831Z" fill="#A5B9C4"/>
<path d="M177.947 23.6088C177.662 24.7494 177.605 25.89 177.719 27.0306C177.833 28.1711 178.061 29.1977 178.403 30.1101L174.467 30.6804C174.353 30.4523 174.239 30.2242 174.125 29.9961C174.011 29.7679 173.954 29.5398 173.84 29.2547C173.269 29.7109 172.642 30.1101 172.014 30.3953C171.33 30.6804 170.588 30.8515 169.733 30.8515C168.763 30.8515 167.907 30.6804 167.166 30.3382C166.481 29.9961 165.911 29.5398 165.454 28.9125C164.998 28.3422 164.713 27.6579 164.484 26.8595C164.313 26.0611 164.199 25.2627 164.199 24.3502C164.199 22.9815 164.427 21.6698 164.941 20.4722C165.454 19.2746 166.082 18.1911 166.994 17.2786C167.85 16.3661 168.877 15.6818 170.075 15.1685C171.273 14.6553 172.528 14.3701 173.897 14.3701C174.068 14.3701 174.41 14.3701 174.81 14.4271C175.266 14.4271 175.779 14.4842 176.35 14.5412C176.92 14.5982 177.548 14.7123 178.175 14.8834C178.803 15.0545 179.43 15.2826 180.001 15.5107L177.947 23.6088ZM174.81 18.134C174.524 18.077 174.296 18.077 174.125 18.02C173.897 18.02 173.669 17.9629 173.383 17.9629C172.699 17.9629 172.071 18.134 171.501 18.4762C170.93 18.8184 170.417 19.2746 169.961 19.7879C169.504 20.3582 169.162 20.9855 168.934 21.6698C168.706 22.4112 168.535 23.1526 168.535 23.894C168.535 24.8635 168.706 25.6048 168.991 26.1751C169.333 26.7454 169.904 27.0306 170.759 27.0306C171.216 27.0306 171.615 26.9165 172.014 26.7454C172.357 26.5743 172.756 26.2892 173.212 25.8329C173.269 25.3197 173.326 24.8064 173.383 24.2932C173.497 23.7229 173.555 23.2666 173.669 22.8104L174.81 18.134Z" fill="#A5B9C4"/>
</svg>
