<?xml version="1.0" encoding="UTF-8"?> <svg xmlns="http://www.w3.org/2000/svg" width="145" height="31" viewBox="0 0 145 31" fill="none"><path d="M26.7609 15.9337V18.0795C26.7609 18.9926 26.4869 19.9057 25.9846 20.8188C23.3359 25.9321 14.6591 30.9998 13.3348 30.9998C11.8734 30.9541 0 24.7451 0 18.0795V4.24613C0 2.92214 0 2.10036 0 2.10036C0 2.10036 2.64869 0.958992 7.39806 0.365481C8.67674 0.182862 10.1381 0.0915531 11.6908 0.0458984C20.0935 0.502445 26.7609 7.44196 26.7609 15.9337Z" fill="#F39325"></path><path d="M17.9484 14.3353C18.0398 14.3809 18.1311 14.4266 18.2681 14.4266C18.6791 14.5636 19.0901 14.7462 19.4098 15.0201C19.8208 15.3397 20.0948 15.7506 20.2318 16.2528C20.4145 16.8919 20.4145 17.5311 20.3231 18.1703C20.2775 18.6268 20.1405 19.0834 19.9578 19.4943C19.6381 20.1334 19.2271 20.59 18.5878 20.9096C17.9941 21.2291 17.4004 21.4118 16.7611 21.5031C16.2588 21.5944 15.7108 21.64 15.1627 21.6857C14.9801 21.6857 14.9344 21.7313 14.9344 21.914C14.9344 22.4618 14.9344 22.964 14.8887 23.5119C14.8887 23.8315 14.8887 24.151 14.8887 24.4706C14.8887 24.6532 14.8887 24.6532 14.7061 24.6532C14.2494 24.6532 13.8384 24.6532 13.3817 24.6532C13.1991 24.6532 13.1534 24.6532 13.1534 24.425C13.1534 23.6488 13.1991 22.8727 13.1991 22.0509C13.1991 21.7313 13.1991 21.7313 12.8794 21.6857C12.5597 21.6857 12.2857 21.6857 11.9661 21.6857C11.7377 21.6857 11.7377 21.6857 11.7377 21.914C11.7377 22.7357 11.6921 23.5119 11.6921 24.3337C11.6921 24.3793 11.6921 24.425 11.6921 24.4706C11.6921 24.6076 11.6464 24.6532 11.5551 24.6076C11.0984 24.6076 10.6417 24.6076 10.185 24.5619C10.0024 24.5619 10.0024 24.5163 10.0024 24.3337C10.0024 23.6032 10.048 22.8727 10.048 22.1422C10.048 22.0053 10.048 21.914 10.048 21.777C10.048 21.5944 10.0024 21.5944 9.86537 21.5944C9.50003 21.5944 9.18036 21.5487 8.81503 21.5487C8.13002 21.5487 7.44502 21.5031 6.71434 21.5031C6.48601 21.5031 6.48601 21.5031 6.53168 21.2748C6.62301 20.7269 6.71434 20.1791 6.85134 19.6312C6.89701 19.4029 6.89701 19.4029 7.12535 19.4029C7.49068 19.4029 7.85602 19.4029 8.22136 19.4029C8.67803 19.4029 8.8607 19.0834 8.8607 18.7638C8.90636 17.805 8.90636 16.8463 8.90636 15.8875C8.90636 15.3397 8.95203 14.7462 8.95203 14.1983C8.95203 13.9244 8.95203 13.6961 8.95203 13.4222C8.95203 12.6461 8.9977 11.8699 8.9977 11.0481C8.9977 10.9568 8.9977 10.8655 8.9977 10.7742C8.90636 10.3177 8.63236 10.0437 8.17569 9.99809C7.76469 9.95243 7.35368 9.95243 6.94268 9.95243C6.76001 9.95243 6.71434 9.95243 6.76001 9.72416C6.76001 9.26761 6.76001 8.76541 6.80568 8.30886C6.80568 8.12624 6.80568 8.12624 6.98835 8.12624C7.94735 8.1719 8.90636 8.1719 9.91104 8.1719C10.0024 8.1719 10.1394 8.1719 10.2307 8.1719C10.3677 8.1719 10.4134 8.12624 10.4134 7.98928C10.4134 7.71535 10.4134 7.44142 10.4134 7.1675C10.4134 6.66529 10.4134 6.11744 10.4134 5.61524C10.4134 5.56958 10.4134 5.52393 10.4134 5.47827C10.4134 5.25 10.4134 5.25 10.6417 5.25C11.0527 5.25 11.5094 5.25 11.9204 5.29565C12.1031 5.29565 12.1487 5.34131 12.1487 5.52393C12.1487 5.93482 12.1487 6.34571 12.1031 6.7566C12.1031 7.1675 12.1031 7.53273 12.1031 7.94363C12.1031 8.12624 12.1031 8.12624 12.2857 8.12624C12.6511 8.12624 12.9707 8.12624 13.3361 8.12624C13.5644 8.12624 13.5644 8.12624 13.5644 7.89797C13.5644 7.12184 13.6101 6.34571 13.6101 5.56958C13.6101 5.25 13.6101 5.25 13.9297 5.25C14.3407 5.25 14.7061 5.25 15.1171 5.25C15.2998 5.25 15.3454 5.29565 15.3454 5.47827C15.3454 6.30006 15.2998 7.12184 15.2998 7.94363C15.2998 8.1719 15.2998 8.1719 15.5281 8.1719C16.2131 8.26321 16.8524 8.35452 17.4918 8.62845C17.9484 8.81106 18.3594 9.03934 18.7248 9.35892C19.1815 9.81547 19.4555 10.3177 19.5468 10.9568C19.5925 11.4134 19.6381 11.8699 19.5011 12.3265C19.3185 13.0113 18.9531 13.5592 18.3138 13.97C18.2224 14.0157 18.1311 14.107 18.0398 14.1527C17.9484 14.2896 17.9484 14.3353 17.9484 14.3353ZM15.0257 19.3573C15.4824 19.266 15.8478 19.129 16.2131 18.9007C16.6241 18.6268 16.8981 18.2616 16.9438 17.7594C16.9894 17.1202 16.8068 16.5724 16.2131 16.2071C15.6651 15.8419 15.0714 15.7049 14.4777 15.6136C13.7014 15.4766 12.9707 15.5223 12.1944 15.5223C11.9661 15.5223 11.9661 15.5223 11.9661 15.7506C11.9661 16.2528 11.9661 16.755 11.9204 17.2572C11.9204 17.942 11.8747 18.6268 11.8747 19.266C11.8747 19.4486 11.9204 19.4943 12.1031 19.4943C12.4227 19.4943 12.7881 19.5399 13.1077 19.4943C13.7471 19.5399 14.3864 19.5399 15.0257 19.3573ZM14.5691 13.6961C14.9344 13.6048 15.2541 13.5135 15.5281 13.3309C16.3501 12.8287 16.4414 11.596 15.7564 10.9568C15.4824 10.6829 15.1171 10.5459 14.7061 10.409C13.8841 10.1807 13.0164 10.1807 12.1944 10.2264C12.0574 10.2264 12.0117 10.272 12.0117 10.409C12.0117 10.6373 12.0117 10.9112 12.0117 11.1395C12.0117 11.9612 11.9661 12.7374 11.9661 13.5592C11.9661 13.7418 11.9661 13.7874 12.1944 13.7874C12.4227 13.7874 12.6511 13.7874 12.8794 13.7874C13.4274 13.8331 13.9754 13.8331 14.5691 13.6961Z" fill="white"></path><path d="M26.7627 2.10012C26.7627 2.10012 26.7627 10.0897 26.7627 15.9335C26.7627 7.44171 20.0954 0.502201 11.7383 0.0456547C12.2406 0 12.8343 0 13.3823 0C21.8307 0 26.7627 2.10012 26.7627 2.10012Z" fill="#F9B45C"></path><path d="M39.247 11.5047C40.0233 11.5047 40.6626 11.6417 41.2106 11.9156C41.7586 12.1895 42.2153 12.5547 42.5806 13.0113C42.946 13.4678 43.22 14.0157 43.4027 14.6549C43.5853 15.294 43.6767 15.9332 43.6767 16.6637C43.6767 17.7594 43.494 18.8094 43.083 19.7682C42.672 20.7269 42.124 21.5944 41.439 22.3248C40.754 23.0553 39.932 23.6032 38.9729 24.0597C38.0139 24.4706 36.9636 24.6989 35.8676 24.6989C35.7306 24.6989 35.4566 24.6989 35.1369 24.6989C34.7716 24.6989 34.3606 24.6532 33.9039 24.6076C33.4472 24.5619 32.9449 24.4706 32.4426 24.3337C31.8946 24.1054 31.3922 23.9684 30.9355 23.7401L35.0456 6.39136L38.7446 5.79785L37.2833 11.9612C37.6029 11.8243 37.9226 11.6873 38.2423 11.6417C38.5619 11.5503 38.8816 11.5047 39.247 11.5047ZM36.1416 21.7313C36.6896 21.7313 37.2376 21.5944 37.6943 21.3204C38.1966 21.0465 38.6076 20.6813 38.9729 20.2247C39.3383 19.7682 39.6123 19.266 39.8406 18.6725C40.069 18.079 40.1603 17.4854 40.1603 16.8919C40.1603 16.1158 40.0233 15.5223 39.795 15.1114C39.521 14.7005 39.0643 14.4722 38.3793 14.4722C38.1509 14.4722 37.8769 14.5179 37.5116 14.6092C37.1463 14.7005 36.8266 14.8375 36.5526 15.1114L34.9999 21.64C35.0912 21.64 35.1826 21.6857 35.2283 21.6857C35.3196 21.6857 35.3653 21.7313 35.4566 21.7313C35.5479 21.7313 35.6393 21.7313 35.7306 21.7313C35.8219 21.7313 35.9589 21.7313 36.1416 21.7313Z" fill="#F39325"></path><path d="M47.9226 24.3329H44.4062L47.3746 11.7779H50.9366L47.9226 24.3329ZM49.658 10.2713C49.1556 10.2713 48.699 10.1343 48.3336 9.81473C47.9226 9.5408 47.7399 9.08425 47.7399 8.44509C47.7399 8.12551 47.7856 7.80592 47.9226 7.48634C48.0596 7.21241 48.2423 6.93848 48.4706 6.71021C48.699 6.48194 48.973 6.34497 49.247 6.20801C49.521 6.07105 49.8406 6.02539 50.206 6.02539C50.7083 6.02539 51.165 6.16235 51.5303 6.48194C51.9413 6.75587 52.124 7.21241 52.124 7.85158C52.124 8.17116 52.0783 8.49074 51.9413 8.81033C51.8043 9.08425 51.6216 9.35818 51.3933 9.58645C51.165 9.81473 50.891 9.95169 50.617 10.0887C50.2973 10.18 49.9776 10.2713 49.658 10.2713Z" fill="#F39325"></path><path d="M54.3174 8.67457L58.0164 8.08105L57.1031 11.7791H61.0761L60.3454 14.701H56.418L55.3677 19.0838C55.2764 19.4491 55.2307 19.7687 55.185 20.0882C55.1394 20.4078 55.185 20.6817 55.322 20.91C55.4134 21.1383 55.596 21.3209 55.87 21.4579C56.144 21.5948 56.4637 21.6405 56.9204 21.6405C57.2857 21.6405 57.6511 21.5948 58.0164 21.5492C58.3817 21.4579 58.7471 21.3666 59.1124 21.2296L59.3864 23.9689C58.9297 24.1515 58.3817 24.2885 57.8337 24.4254C57.2857 24.5624 56.6007 24.608 55.87 24.608C54.774 24.608 53.9064 24.4254 53.3127 24.1058C52.719 23.7863 52.2623 23.3297 52.034 22.7819C51.76 22.234 51.6687 21.5492 51.7143 20.8187C51.76 20.0882 51.8513 19.3121 52.034 18.4903L54.3174 8.67457Z" fill="#F39325"></path><path d="M64.6843 21.7755C65.5064 21.7755 66.0544 21.6385 66.374 21.4102C66.6937 21.182 66.8307 20.908 66.8307 20.6798C66.8307 20.4971 66.785 20.3602 66.7394 20.2232C66.6937 20.0863 66.6024 19.9949 66.4654 19.858C66.3284 19.7667 66.1457 19.6297 65.963 19.4927C65.7347 19.3558 65.4607 19.2188 65.0954 19.0819C64.6844 18.8992 64.319 18.7166 63.9537 18.534C63.5883 18.3514 63.3143 18.0774 63.0403 17.8035C62.7663 17.5296 62.5837 17.21 62.401 16.8448C62.264 16.4795 62.1727 16.0686 62.1727 15.5664C62.1727 14.2881 62.6293 13.2837 63.5883 12.5076C64.5474 11.7771 65.9174 11.3662 67.744 11.3662C68.6117 11.3662 69.3881 11.4575 70.0274 11.6401C70.6667 11.8228 71.2147 12.051 71.6714 12.2793L70.4384 14.9273C70.1187 14.7447 69.6621 14.6077 69.1597 14.4251C68.6574 14.2881 68.1094 14.1968 67.607 14.1968C67.3787 14.1968 67.1504 14.1968 66.9677 14.2425C66.7394 14.2881 66.5567 14.3338 66.374 14.3794C66.1914 14.4707 66.0544 14.562 65.9174 14.699C65.826 14.836 65.7347 15.0186 65.7347 15.2925C65.7347 15.6121 65.8717 15.8404 66.1 16.023C66.3284 16.16 66.6937 16.3882 67.1504 16.6165C67.7897 16.9361 68.292 17.21 68.7031 17.4383C69.1141 17.7122 69.4337 17.9405 69.7077 18.2601C69.9361 18.534 70.1187 18.8536 70.2557 19.2188C70.3471 19.5841 70.4384 19.9949 70.4384 20.4971C70.4384 20.9993 70.3471 21.5015 70.1187 22.0038C69.8904 22.506 69.5707 22.9168 69.1141 23.3277C68.6574 23.693 68.0637 24.0126 67.333 24.2408C66.6024 24.4691 65.7804 24.6061 64.7757 24.6061C64.1364 24.6061 63.5883 24.5604 63.086 24.4691C62.5837 24.3778 62.127 24.2865 61.7617 24.1495C61.3963 24.0126 61.0767 23.9212 60.8027 23.7843C60.5286 23.6473 60.346 23.556 60.209 23.4647L61.442 20.7254C61.716 20.8624 62.127 21.0907 62.7207 21.3189C63.1773 21.6842 63.8623 21.7755 64.6843 21.7755Z" fill="#F39325"></path><path d="M74.3649 20.2236C74.9129 20.2236 75.3696 20.3606 75.7806 20.6802C76.1459 20.9998 76.3286 21.4563 76.3286 22.1411C76.3286 22.5064 76.2829 22.8259 76.1459 23.1455C76.0089 23.4651 75.8263 23.6934 75.5979 23.9217C75.3696 24.1499 75.1413 24.2869 74.8216 24.4239C74.5476 24.5608 74.2279 24.6065 73.9539 24.6065C73.4059 24.6065 72.9492 24.4695 72.5382 24.1499C72.1729 23.8304 71.9902 23.3282 71.9902 22.689C71.9902 22.3237 72.0359 22.0042 72.1729 21.6846C72.3099 21.365 72.4926 21.1367 72.7209 20.9085C72.9492 20.6802 73.1776 20.5432 73.4973 20.4063C73.7713 20.3149 74.0453 20.2236 74.3649 20.2236Z" fill="#A5B9C4"></path><path d="M80.8973 12.3713C81.1713 12.28 81.4453 12.1887 81.765 12.0974C82.0846 12.0061 82.4043 11.9148 82.8153 11.8235C83.2263 11.7322 83.6373 11.6865 84.1397 11.5952C84.642 11.5496 85.19 11.5039 85.8293 11.5039C86.6057 11.5039 87.245 11.5952 87.7474 11.7778C88.2497 11.9605 88.7064 12.2344 89.1174 12.6453C89.711 12.3257 90.3047 12.0518 90.8527 11.8235C91.4464 11.5952 92.1314 11.5039 92.9077 11.5039C93.6384 11.5039 94.2777 11.5952 94.8258 11.8235C95.3738 12.0061 95.7848 12.3257 96.1501 12.6909C96.5154 13.0562 96.7438 13.5127 96.9264 14.0149C97.0634 14.5171 97.1548 15.1106 97.1548 15.7041C97.1548 15.9781 97.1548 16.2976 97.1091 16.6172C97.0634 16.9368 97.0178 17.2564 96.9264 17.576L95.2824 24.3329H91.6747L93.2274 17.7129C93.2731 17.4847 93.3187 17.2564 93.3644 16.9825C93.4101 16.7085 93.4557 16.4346 93.4557 16.1607C93.4557 15.7041 93.3644 15.3389 93.1361 15.0193C92.9077 14.6997 92.5424 14.5171 91.9031 14.5171C91.5834 14.5171 91.2637 14.5628 90.9441 14.6997C90.6244 14.8367 90.3504 14.928 90.122 15.065C90.1677 15.2019 90.1677 15.2932 90.1677 15.4302C90.1677 15.5215 90.1677 15.6585 90.1677 15.7498C90.1677 16.0237 90.1677 16.3433 90.122 16.6629C90.0764 16.9825 90.0307 17.302 89.9394 17.6216L88.2954 24.3785H84.8247L86.3773 17.7586C86.423 17.5303 86.4687 17.302 86.5143 17.0281C86.56 16.7542 86.6057 16.4803 86.6057 16.2063C86.6057 15.7498 86.5143 15.3846 86.286 15.065C86.0577 14.7454 85.6923 14.5628 85.053 14.5628C84.779 14.5628 84.5963 14.5628 84.4137 14.6084C84.231 14.6541 84.0483 14.6541 83.7743 14.6997L81.4453 24.4242H77.9746L80.8973 12.3713Z" fill="#A5B9C4"></path><path d="M98.6582 19.4027C98.6582 18.3983 98.8409 17.3938 99.2062 16.4351C99.5715 15.4764 100.074 14.6546 100.713 13.8784C101.353 13.148 102.175 12.5545 103.088 12.0979C104.001 11.6414 105.052 11.4131 106.193 11.4131C106.741 11.4131 107.289 11.5044 107.746 11.6414C108.203 11.7783 108.659 12.0523 108.979 12.3262C109.344 12.6458 109.618 13.011 109.801 13.4219C109.984 13.8784 110.121 14.335 110.121 14.9285C110.121 15.8416 109.938 16.5721 109.527 17.2112C109.116 17.8504 108.568 18.3526 107.883 18.7178C107.198 19.1287 106.33 19.4027 105.371 19.5853C104.412 19.7679 103.362 19.8592 102.22 19.8592C102.312 20.544 102.586 21.0006 102.951 21.2745C103.316 21.5484 103.91 21.6854 104.732 21.6854C105.234 21.6854 105.737 21.6397 106.285 21.5484C106.787 21.4571 107.289 21.3201 107.746 21.1375L108.02 23.9225C107.563 24.1051 107.015 24.242 106.33 24.379C105.645 24.516 104.778 24.6529 104.001 24.6529C102.997 24.6529 102.175 24.516 101.49 24.242C100.805 23.9681 100.257 23.6029 99.8455 23.1007C99.4345 22.6441 99.1149 22.0506 98.9322 21.4115C98.7495 20.8179 98.6582 20.1331 98.6582 19.4027ZM105.6 14.2437C104.778 14.2437 104.093 14.5176 103.453 15.1111C102.86 15.7046 102.449 16.4808 102.266 17.3938C103.271 17.3482 104.047 17.2569 104.641 17.1656C105.234 17.0286 105.737 16.846 106.056 16.6634C106.376 16.4808 106.604 16.2525 106.741 16.0242C106.833 15.7959 106.924 15.5677 106.924 15.3394C106.878 14.6546 106.422 14.2437 105.6 14.2437Z" fill="#A5B9C4"></path><path d="M115.512 24.6532C114.735 24.6532 114.05 24.5163 113.457 24.2423C112.909 23.9684 112.452 23.6032 112.087 23.1466C111.721 22.6901 111.447 22.1422 111.31 21.5031C111.128 20.8639 111.082 20.2247 111.082 19.4943C111.082 18.3985 111.265 17.3941 111.676 16.4354C112.087 15.4766 112.589 14.6549 113.274 13.9244C113.959 13.1939 114.781 12.6461 115.694 12.2352C116.653 11.8243 117.658 11.596 118.754 11.596C119.028 11.596 119.302 11.596 119.576 11.6417C119.804 11.6873 120.078 11.733 120.307 11.7786L121.585 6.39136L125.284 5.79785L122.133 18.9007C121.905 19.8138 121.859 20.7269 121.951 21.64C122.042 22.5531 122.225 23.3749 122.499 24.1054L119.348 24.5619C119.256 24.3793 119.165 24.1967 119.074 24.0141C118.982 23.8314 118.937 23.6488 118.845 23.4206C118.389 23.7858 117.886 24.1054 117.338 24.3336C116.79 24.5619 116.197 24.6532 115.512 24.6532ZM119.622 14.6092C119.53 14.6092 119.439 14.5635 119.393 14.5635C119.302 14.5635 119.256 14.5179 119.165 14.5179C119.074 14.5179 118.982 14.5179 118.891 14.5179C118.8 14.5179 118.617 14.5179 118.48 14.5179C117.932 14.5179 117.384 14.6549 116.927 14.9288C116.471 15.2027 116.06 15.5223 115.694 15.9788C115.375 16.4354 115.101 16.9376 114.872 17.4854C114.69 18.0333 114.598 18.6268 114.598 19.2203C114.598 19.9965 114.735 20.59 115.009 21.0009C115.283 21.4574 115.74 21.64 116.425 21.64C116.79 21.64 117.11 21.5487 117.43 21.4118C117.749 21.2748 118.069 21.0465 118.389 20.6813C118.434 20.2704 118.48 19.8595 118.526 19.4486C118.617 18.9921 118.663 18.6268 118.754 18.2616L119.622 14.6092Z" fill="#A5B9C4"></path><path d="M127.706 24.3329H124.189L127.158 11.7779H130.72L127.706 24.3329ZM129.396 10.2713C128.893 10.2713 128.436 10.1343 128.071 9.81473C127.66 9.5408 127.477 9.08425 127.477 8.44509C127.477 8.12551 127.523 7.80592 127.66 7.48634C127.797 7.21241 127.98 6.93848 128.208 6.71021C128.436 6.48194 128.71 6.34497 128.985 6.20801C129.259 6.07105 129.578 6.02539 129.944 6.02539C130.446 6.02539 130.903 6.16235 131.268 6.48194C131.679 6.75587 131.862 7.21241 131.862 7.85158C131.862 8.17116 131.816 8.49074 131.679 8.81033C131.542 9.08425 131.359 9.35818 131.131 9.58645C130.903 9.81473 130.629 9.95169 130.355 10.0887C130.081 10.18 129.761 10.2713 129.396 10.2713Z" fill="#A5B9C4"></path><path d="M142.455 18.9C142.227 19.8131 142.181 20.7261 142.272 21.6392C142.364 22.5523 142.546 23.3741 142.82 24.1046L139.669 24.5611C139.578 24.3785 139.487 24.1959 139.395 24.0133C139.304 23.8307 139.258 23.648 139.167 23.4198C138.71 23.785 138.208 24.1046 137.706 24.3329C137.158 24.5611 136.564 24.6981 135.879 24.6981C135.103 24.6981 134.418 24.5611 133.824 24.2872C133.276 24.0133 132.819 23.648 132.454 23.1458C132.089 22.6893 131.86 22.1414 131.678 21.5023C131.541 20.8631 131.449 20.2239 131.449 19.4935C131.449 18.3978 131.632 17.3477 132.043 16.389C132.454 15.4302 132.956 14.5628 133.687 13.8323C134.372 13.1018 135.194 12.554 136.153 12.1431C137.112 11.7322 138.117 11.5039 139.213 11.5039C139.35 11.5039 139.624 11.5039 139.943 11.5496C140.309 11.5496 140.72 11.5952 141.176 11.6409C141.633 11.6865 142.135 11.7778 142.638 11.9148C143.14 12.0518 143.642 12.2344 144.099 12.417L142.455 18.9ZM139.943 14.5171C139.715 14.4715 139.532 14.4715 139.395 14.4258C139.213 14.4258 139.03 14.3802 138.802 14.3802C138.254 14.3802 137.751 14.5171 137.295 14.791C136.838 15.065 136.427 15.4302 136.062 15.8411C135.696 16.2976 135.422 16.7998 135.24 17.3477C135.057 17.9412 134.92 18.5347 134.92 19.1282C134.92 19.9044 135.057 20.4979 135.285 20.9544C135.559 21.411 136.016 21.6392 136.701 21.6392C137.066 21.6392 137.386 21.5479 137.706 21.411C137.98 21.274 138.299 21.0457 138.665 20.6805C138.71 20.2696 138.756 19.8587 138.802 19.4478C138.893 18.9913 138.939 18.626 139.03 18.2608L139.943 14.5171Z" fill="#A5B9C4"></path></svg> 