<svg width="40" height="40" viewBox="0 0 40 40" fill="none" xmlns="http://www.w3.org/2000/svg">
<path d="M21.0148 0.998414L38.0153 8.55399C38.9182 8.95524 39.5 9.85055 39.5 10.8385V29.1615C39.5 30.1495 38.9182 31.0448 38.0153 31.446L21.0148 39.0016C20.3684 39.2889 19.6305 39.2889 18.9841 39.0016L1.98463 31.446C1.08182 31.0448 0.5 30.1495 0.5 29.1615V10.8385C0.5 9.85052 1.08182 8.95523 1.98463 8.55397L18.9841 0.998434C19.6305 0.711133 20.3684 0.711125 21.0148 0.998414Z" fill="#171C1F" stroke="#54ADFF"/>
<path d="M20 32C26.6274 32 32 26.6274 32 20C32 13.3726 26.6274 8 20 8C13.3726 8 8 13.3726 8 20C8 26.6274 13.3726 32 20 32Z" fill="black"/>
<path d="M28.8072 18.1546C28.6885 17.5785 28.5132 17.0155 28.2837 16.4739C28.0575 15.9404 27.7807 15.4298 27.4572 14.9491C27.1363 14.4742 26.7704 14.0314 26.3644 13.6269C25.9596 13.2209 25.5166 12.8549 25.0414 12.5341C24.56 12.2122 24.0498 11.9355 23.5174 11.7076C22.4164 11.2407 21.2326 11 20.0367 11C18.8407 11 17.6569 11.2407 16.5559 11.7076C15.4912 12.1567 14.5242 12.8088 13.7089 13.6276C13.303 14.0319 12.937 14.4745 12.6162 14.9491C12.2942 15.4308 12.0175 15.9412 11.7897 16.4739C11.3227 17.5749 11.082 18.7587 11.082 19.9546C11.082 21.1506 11.3227 22.3343 11.7897 23.4354C12.0102 23.9679 12.2952 24.4726 12.6162 24.9594C12.937 25.4345 13.3029 25.8776 13.7089 26.2824C14.1137 26.6884 14.5567 27.0544 15.0319 27.3751C15.5089 27.6961 16.0234 27.9721 16.5559 28.2016C17.6569 28.6686 18.8407 28.9093 20.0367 28.9093C21.2326 28.9093 22.4164 28.6686 23.5174 28.2016C24.0499 27.9811 24.5547 27.6961 25.0414 27.3751C25.5166 27.0544 25.9596 26.6884 26.3644 26.2824C26.7704 25.8776 27.1364 25.4346 27.4572 24.9594C27.7782 24.4824 28.0542 23.9679 28.2837 23.4354C28.9902 21.7691 29.1728 19.9272 28.8072 18.1546V18.1546ZM20.0449 27.7884C15.7197 27.7884 12.2209 24.2799 12.2209 19.9636C12.2209 15.6474 15.7294 12.1389 20.0449 12.1389C24.3612 12.1389 27.8697 15.6474 27.8697 19.9636C27.8697 24.2799 24.3619 27.7884 20.0449 27.7884Z" fill="white"/>
<path d="M20.1833 27.1088H20.3948C20.4316 27.1088 20.4676 27.1088 20.5043 27.0991H20.5141C20.5508 27.0991 20.5778 27.0991 20.6146 27.0901H20.6423C20.6701 27.0901 20.6978 27.0901 20.7248 27.0811H20.7526C20.7803 27.0811 20.8081 27.0721 20.8448 27.0721H20.8628C20.8996 27.0721 20.9363 27.0623 20.9731 27.0623C21.0098 27.0623 21.0376 27.0533 21.0743 27.0443H21.0923C21.1201 27.0443 21.1478 27.0353 21.1748 27.0353H21.1936C21.2303 27.0256 21.2581 27.0256 21.2948 27.0166C21.3676 27.0076 21.4411 26.9888 21.5056 26.9708H21.5243C21.5513 26.9618 21.5881 26.9618 21.6158 26.9521H21.6248C21.6983 26.9341 21.7628 26.9153 21.8363 26.8973C21.1484 26.9191 20.4606 26.8544 19.7888 26.7046C18.7778 26.4841 17.8141 26.0896 16.9966 25.4093C16.3521 24.873 15.8349 24.2001 15.4823 23.4394C15.1298 22.6786 14.9507 21.849 14.9581 21.0106C14.9647 19.7597 15.4098 18.5508 16.2158 17.5943C17.2628 16.3546 18.7508 15.7021 20.2748 15.6653H20.4863V14.4443H20.2478C19.7842 14.4528 19.3226 14.5081 18.8701 14.6093C18.4147 14.7123 17.9715 14.8631 17.5478 15.0593C17.1158 15.2618 16.7116 15.5093 16.3351 15.7943C15.946 16.0901 15.5918 16.429 15.2791 16.8046C14.9847 17.1522 14.7292 17.5309 14.5171 17.9341C14.3073 18.3227 14.1379 18.7319 14.0116 19.1551C13.8877 19.5718 13.8048 19.9995 13.7641 20.4323L13.7363 20.8358V21.0743C13.7453 21.5431 13.8008 22.0021 13.9013 22.4521C14.0026 22.9118 14.1586 23.3521 14.3513 23.7751C14.5816 24.2798 14.9948 25.0238 15.6098 25.5841C16.8656 26.574 18.4186 27.1112 20.0176 27.1088H20.1833Z" fill="white"/>
<path d="M22.1846 25.9334C21.7316 25.9172 21.2804 25.8681 20.8346 25.7864C18.9431 25.4467 17.3171 24.2894 16.7209 22.5449C15.9949 20.4232 17.1064 18.1274 19.2184 17.4299C19.6208 17.295 20.0426 17.2266 20.4671 17.2274C21.0094 17.2274 21.5509 17.3377 22.0474 17.5394L22.5611 16.4467C22.4066 16.3847 22.2506 16.3267 22.0931 16.2727C21.5669 16.1075 21.0186 16.0238 20.4671 16.0244C19.9146 16.0255 19.3658 16.1154 18.8419 16.2907C18.1731 16.5112 17.5572 16.8677 17.0329 17.3377C16.78 17.5629 16.5494 17.8121 16.3444 18.0817C16.1417 18.3482 15.9663 18.6343 15.8209 18.9359C15.5247 19.5422 15.3499 20.2006 15.3064 20.8739C15.2606 21.5714 15.3521 22.2689 15.5816 22.9304C15.8154 23.6109 16.1913 24.2339 16.6841 24.7582C17.1341 25.2449 17.6576 25.6124 18.2906 25.9522C18.9521 26.3009 19.7696 26.4847 20.6231 26.6047C21.1744 26.6774 21.9094 26.6962 22.3406 26.6962C22.7171 26.5582 22.8731 26.4937 23.0756 26.4112C23.2504 26.3287 23.4244 26.2462 23.5991 26.1449C23.7739 26.0437 23.8016 26.0249 24.0949 25.8329C24.121 25.8167 24.1456 25.7981 24.1684 25.7774C23.1581 25.9522 22.9009 25.9424 22.1846 25.9334V25.9334Z" fill="white"/>
<path d="M24.4468 24.5645C24.1618 24.5825 23.7575 24.6095 23.2985 24.6095C22.481 24.6095 21.4798 24.5367 20.6263 24.2517C19.3033 23.8115 18.0545 22.682 18.0545 21.2855C18.0543 20.955 18.1191 20.6276 18.2455 20.3222C18.3718 20.0168 18.5572 19.7393 18.7909 19.5056C19.0246 19.2719 19.3021 19.0865 19.6075 18.9602C19.9129 18.8338 20.2403 18.7689 20.5708 18.7692C21.5165 18.7692 22.334 19.2927 22.766 20.0547L23.8588 19.5132C23.6875 19.1907 23.4674 18.8964 23.2063 18.641C22.8604 18.2945 22.4495 18.0195 21.9972 17.832C21.5449 17.6444 21.0601 17.5479 20.5704 17.5479C20.0808 17.5479 19.5959 17.6444 19.1436 17.832C18.6914 18.0195 18.2805 18.2945 17.9345 18.641C17.5881 18.9869 17.3133 19.3977 17.1258 19.85C16.9383 20.3022 16.8418 20.7869 16.8418 21.2765C16.8442 21.7896 16.9541 22.2964 17.1643 22.7645C17.3563 23.1867 17.6233 23.582 17.963 23.9495C18.56 24.5915 19.3768 25.106 20.2498 25.4C21.0853 25.6752 22.316 25.7765 23.51 25.694C23.84 25.6662 24.0883 25.6385 24.5105 25.547C24.918 25.2254 25.2879 24.8589 25.613 24.4542C25.328 24.482 24.8045 24.5367 24.4468 24.5645V24.5645Z" fill="white"/>
</svg>
