<svg width="40" height="40" viewBox="0 0 40 40" fill="none" xmlns="http://www.w3.org/2000/svg">
<path d="M21.0148 0.998414L38.0153 8.55399C38.9182 8.95524 39.5 9.85055 39.5 10.8385V29.1615C39.5 30.1495 38.9182 31.0448 38.0153 31.446L21.0148 39.0016C20.3684 39.2889 19.6305 39.2889 18.9841 39.0016L1.98463 31.446C1.08182 31.0448 0.5 30.1495 0.5 29.1615V10.8385C0.5 9.85052 1.08182 8.95523 1.98463 8.55397L18.9841 0.998434C19.6305 0.711133 20.3684 0.711125 21.0148 0.998414Z" fill="#171C1F" stroke="#54ADFF"/>
<path d="M14.5789 20.0081C14.5277 20.8976 15.2124 21.6591 16.102 21.7103C16.134 21.7103 16.166 21.7103 16.198 21.7103C17.0939 21.7103 17.817 20.9872 17.8106 20.0912C17.8106 19.1953 17.0875 18.4722 16.1916 18.4786C15.334 18.4786 14.6237 19.1505 14.5789 20.0081Z" fill="white"/>
<path d="M8.5509 19.592C8.26292 19.5728 8.01334 19.7968 8.00054 20.0847C7.98774 20.3727 8.20532 20.6223 8.4933 20.6351C8.78128 20.6543 9.02447 20.4303 9.04367 20.1423C9.06286 19.8543 8.83888 19.6112 8.5509 19.592Z" fill="white"/>
<path d="M14.4778 10.6262C14.7338 10.4982 14.8362 10.1782 14.7082 9.92221C14.5802 9.66622 14.2602 9.56383 14.0042 9.69182C13.7483 9.81981 13.6459 10.1334 13.7739 10.3894C13.9018 10.6518 14.2154 10.7605 14.4778 10.6262C14.4778 10.6262 14.4714 10.6262 14.4778 10.6262Z" fill="white"/>
<path d="M16.1159 13.487C16.5127 13.2886 16.6727 12.8022 16.4743 12.4054C16.2759 12.0087 15.7895 11.8487 15.3927 12.0471C14.996 12.2454 14.836 12.7318 15.0344 13.1286C15.2328 13.5254 15.7191 13.6853 16.1159 13.487Z" fill="white"/>
<path d="M10.5992 15.4515C10.9064 15.6499 11.3159 15.5667 11.5207 15.2595C11.7191 14.9523 11.6359 14.5427 11.3287 14.338C11.0216 14.1396 10.612 14.2228 10.4072 14.5299C10.2024 14.8371 10.292 15.2531 10.5992 15.4515Z" fill="white"/>
<path d="M11.5771 19.3051C11.1291 19.2795 10.7516 19.6186 10.726 20.0666C10.7004 20.5146 11.0395 20.8922 11.4875 20.9178C11.9355 20.9434 12.3131 20.6042 12.3387 20.1562C12.3643 19.7146 12.0251 19.3307 11.5771 19.3051Z" fill="white"/>
<path d="M10.6882 24.7248C10.3618 24.8912 10.2274 25.288 10.3938 25.6208C10.5602 25.9472 10.957 26.0816 11.2897 25.9152C11.6161 25.7488 11.7505 25.352 11.5841 25.0192C11.4177 24.6929 11.0146 24.5585 10.6882 24.7248Z" fill="white"/>
<path d="M13.8238 17.6337C14.2653 17.9217 14.8541 17.8001 15.1357 17.3585C15.4237 16.917 15.3021 16.3282 14.8605 16.0466C14.4189 15.7586 13.8302 15.8802 13.5486 16.3218C13.2606 16.757 13.3822 17.3457 13.8238 17.6337Z" fill="white"/>
<path d="M23.775 13.4226C24.1461 13.6658 24.6517 13.5634 24.8949 13.1923C25.138 12.8211 25.0356 12.3155 24.6645 12.0723C24.2933 11.8292 23.7878 11.9315 23.5446 12.3027C23.295 12.6803 23.3974 13.1795 23.775 13.4226Z" fill="white"/>
<path d="M25.4265 10.5753C25.6697 10.7353 25.9896 10.6649 26.1496 10.4217C26.3096 10.1785 26.2392 9.85852 25.996 9.69853C25.7528 9.53854 25.4329 9.60893 25.2729 9.84572C25.1193 10.0889 25.1897 10.4153 25.4265 10.5753Z" fill="white"/>
<path d="M23.8964 18.4656C23.0068 18.4144 22.2389 19.0991 22.1941 19.9887C22.1429 20.8782 22.8277 21.6462 23.7172 21.691C23.7492 21.691 23.7812 21.691 23.8068 21.691C24.6963 21.691 25.4195 20.9678 25.4195 20.0719C25.4259 19.2207 24.7539 18.5104 23.8964 18.4656Z" fill="white"/>
<path d="M16.6469 17.519C16.9221 18.063 17.4789 18.4086 18.0932 18.4086C18.9828 18.4086 19.7059 17.6854 19.7059 16.7895C19.7059 16.5399 19.6483 16.2903 19.5331 16.06C19.1299 15.26 18.1572 14.94 17.3637 15.3432C16.5637 15.7528 16.2437 16.7255 16.6469 17.519Z" fill="white"/>
<path d="M29.3109 15.4521C29.6373 15.2857 29.7653 14.8825 29.5989 14.5562C29.4325 14.2298 29.0293 14.1018 28.7029 14.2682C28.3766 14.4346 28.2486 14.8313 28.4086 15.1577C28.5814 15.4841 28.9781 15.6185 29.3109 15.4521Z" fill="white"/>
<path d="M25.2153 15.964C24.7482 16.2008 24.5562 16.7703 24.793 17.2375C25.0298 17.7047 25.5993 17.8967 26.0665 17.6599C26.5337 17.4231 26.7256 16.8535 26.4889 16.3864C26.2521 15.9192 25.6825 15.7336 25.2153 15.964Z" fill="white"/>
<path d="M19.9367 10.3321C20.3014 10.3513 20.615 10.0697 20.6406 9.7049C20.6662 9.34012 20.3782 9.02654 20.0135 9.00095C19.6487 8.98175 19.3351 9.25693 19.3095 9.6217C19.2903 9.99288 19.5719 10.3065 19.9367 10.3321Z" fill="white"/>
<path d="M19.9284 14.5113C20.4531 14.5433 20.9011 14.1401 20.9267 13.6153C20.9587 13.0906 20.5555 12.6426 20.0308 12.617C19.506 12.585 19.058 12.9882 19.0324 13.513C19.0068 14.0377 19.4036 14.4857 19.9284 14.5113Z" fill="white"/>
<path d="M14.7833 24.2125C15.2505 23.9757 15.4424 23.4062 15.2057 22.939C14.9689 22.4718 14.3993 22.2798 13.9321 22.5166C13.465 22.7534 13.273 23.323 13.5098 23.7901C13.7466 24.2573 14.3161 24.4493 14.7833 24.2125Z" fill="white"/>
<path d="M20.5447 15.8995C20.0584 16.6482 20.2632 17.6465 21.0119 18.1329C21.7607 18.6193 22.759 18.4145 23.2454 17.6657C23.7317 16.917 23.5269 15.9187 22.7782 15.4323C22.5158 15.2595 22.2086 15.1699 21.8951 15.1699C21.3511 15.1699 20.8455 15.4451 20.5447 15.8995Z" fill="white"/>
<path d="M23.3534 22.6576C22.9503 21.8577 21.9775 21.5377 21.184 21.9409C20.384 22.344 20.0641 23.3168 20.4672 24.1103C20.8704 24.9103 21.8431 25.2302 22.6367 24.8271C23.4302 24.4303 23.7566 23.4704 23.3598 22.6704C23.3598 22.664 23.3598 22.664 23.3534 22.6576Z" fill="white"/>
<path d="M26.1769 22.5427C25.7353 22.2547 25.1466 22.3763 24.865 22.8179C24.577 23.2595 24.6986 23.8482 25.1402 24.1298C25.5817 24.4178 26.1705 24.2962 26.4521 23.8546C26.7401 23.4195 26.6185 22.8307 26.1769 22.5427Z" fill="white"/>
<path d="M29.2723 20.1162C29.2979 19.6682 28.9587 19.2906 28.5107 19.265C28.0627 19.2394 27.6852 19.5786 27.6596 20.0266C27.634 20.4746 27.9731 20.8521 28.4211 20.8777C28.8627 20.9033 29.2467 20.5578 29.2723 20.1162Z" fill="white"/>
<path d="M31.506 19.5402C31.218 19.521 30.9684 19.745 30.9556 20.033C30.9428 20.321 31.1604 20.5705 31.4484 20.5833C31.7364 20.6025 31.9795 20.3785 31.9987 20.0906C32.0115 19.8026 31.794 19.5594 31.506 19.5402Z" fill="white"/>
<path d="M29.4021 24.7247C29.0949 24.5263 28.6853 24.6095 28.4805 24.9167C28.2822 25.2238 28.3653 25.6334 28.6725 25.8382C28.9797 26.0366 29.3893 25.9534 29.5941 25.6462C29.7988 25.339 29.7092 24.9231 29.4021 24.7247Z" fill="white"/>
<path d="M14.5672 29.6009C14.324 29.4409 14.004 29.5113 13.844 29.7481C13.684 29.9912 13.7544 30.3112 13.9912 30.4712C14.2344 30.6312 14.5544 30.5608 14.7144 30.324C14.8808 30.0872 14.8104 29.7609 14.5672 29.6009Z" fill="white"/>
<path d="M25.5218 29.5499C25.2658 29.6779 25.1634 29.9979 25.2914 30.2539C25.4194 30.5099 25.7394 30.6123 25.9954 30.4843C26.2514 30.3563 26.3538 30.0427 26.2258 29.7867C26.0978 29.5243 25.7842 29.4155 25.5218 29.5499C25.5218 29.5499 25.5282 29.5499 25.5218 29.5499Z" fill="white"/>
<path d="M19.4558 24.2768C19.9421 23.528 19.7373 22.5297 18.9886 22.0369C18.2398 21.5506 17.2415 21.7554 16.7487 22.5041C16.256 23.2528 16.4672 24.2512 17.2159 24.7439C17.4783 24.9167 17.7855 25.0063 18.099 25.0063C18.6494 25.0127 19.155 24.7375 19.4558 24.2768Z" fill="white"/>
<path d="M16.2245 26.753C15.8533 26.5098 15.3477 26.6122 15.1046 26.9834C14.8614 27.3546 14.9638 27.8601 15.3349 28.1033C15.7061 28.3465 16.2117 28.2441 16.4549 27.8729C16.7045 27.5017 16.6021 26.9962 16.2245 26.753Z" fill="white"/>
<path d="M19.9926 29.8447C19.6279 29.8255 19.3143 30.1071 19.2887 30.4718C19.2631 30.8366 19.5511 31.1502 19.9159 31.1758C20.2806 31.195 20.5942 30.9198 20.6198 30.555C20.639 30.1839 20.3574 29.8703 19.9926 29.8447Z" fill="white"/>
<path d="M20.0001 25.6658C19.4753 25.6338 19.0274 26.037 19.0018 26.5618C18.9698 27.0865 19.373 27.5345 19.8977 27.5601C20.4225 27.5857 20.8705 27.1889 20.8961 26.6642C20.9281 26.1458 20.5249 25.6914 20.0001 25.6658Z" fill="white"/>
<path d="M23.8846 26.6895C23.4879 26.8943 23.3279 27.3807 23.5326 27.7774C23.7374 28.1742 24.2238 28.3342 24.6206 28.1294C25.0173 27.931 25.1773 27.4447 24.9789 27.0479C24.7742 26.6511 24.2878 26.4847 23.8846 26.6895Z" fill="white"/>
</svg>
