<svg width="178" height="80" viewBox="0 0 178 80" fill="none" xmlns="http://www.w3.org/2000/svg">
<path d="M33.9091 39.1486H25.9948C24.5808 38.4884 23.2727 37.6238 22.113 36.5828C21.35 36.0637 20.6985 35.3988 20.1963 34.6268C19.6942 33.8548 19.3516 32.9911 19.1883 32.086C18.7819 30.7439 18.0339 29.529 17.017 28.5591C16.5454 28.1906 16.1617 27.7227 15.8935 27.1891C15.6254 26.6555 15.4793 26.0694 15.466 25.473C15.4294 24.9198 15.3434 24.371 15.209 23.833L21.661 28.9823C21.7839 29.2382 21.8647 29.5121 21.9003 29.7935C21.9233 30.2035 21.9826 30.6106 22.0775 31.0102C22.11 31.2055 22.1604 31.3973 22.2282 31.5834C22.4789 32.4841 23.017 33.2793 23.7614 33.8494C23.9032 33.964 24.0362 34.0698 24.1602 34.1845L24.3286 34.352L24.8249 34.8722L25.0111 35.0662C26.0845 36.0617 27.315 36.8749 28.6536 37.4733C30.3351 38.2303 32.0985 38.7924 33.9091 39.1486V39.1486Z" fill="#FDF064"/>
<path d="M42.0897 33.5584V36.4329L41.6997 36.1066C41.4887 35.951 41.3033 35.7636 41.1503 35.5511C40.4375 34.6103 39.4453 33.9162 38.3142 33.5673C37.1178 33.1793 36.9848 32.5092 36.1872 31.0103C36.0276 30.7197 35.8244 30.4551 35.5845 30.2255L35.3896 30.058L35.2566 29.9698C35.1295 29.8863 34.9962 29.8126 34.8578 29.7494C34.7696 29.7036 34.6777 29.6652 34.5831 29.6348C34.4098 29.567 34.2322 29.511 34.0513 29.4672C33.7854 29.4055 33.5373 29.3526 33.3246 29.2909H33.165C32.3763 29.0264 31.1266 27.1747 28.4235 26.8221C26.5202 26.6988 24.6693 26.1503 23.0085 25.2173C21.5373 24.4502 20.0838 24.1857 19.4634 24.5913L14.6953 20.7911C15.1916 19.4244 18.2404 19.5126 21.2005 19.3098C24.4797 19.0893 30.329 21.0732 32.3231 23.2775C34.3172 25.4818 33.9715 25.7728 36.6303 28.1535C38.456 29.767 38.0749 30.8604 38.9789 31.8126C39.6259 32.4651 40.911 32.3593 42.0897 33.5584Z" fill="#FDF064"/>
<path d="M41.7965 47.2602C41.894 47.0398 41.9826 46.8194 42.0801 46.5813V50.1082C41.1783 53.4636 39.7741 56.6648 37.9147 59.6044C36.4523 61.8175 35.3888 61.4825 34.8571 62.082C34.3253 62.6816 34.4582 63.5369 32.2692 66.1821C30.0801 68.8272 25.0816 68.5627 22.3519 66.8434C19.6222 65.124 19.897 61.4119 20.4287 60.2921C20.7432 59.803 20.8804 59.2218 20.8175 58.6445C20.7547 58.0673 20.4956 57.5287 20.0831 57.1179C18.7714 55.3545 18.9664 52.3566 23.3534 47.7187C26.3594 44.5699 30.2105 42.3451 34.4494 41.3086H37.1082L36.6562 41.4761L36.3371 41.5996C35.9826 41.7318 35.637 41.8817 35.2825 42.0404L34.9723 42.1727C34.4439 42.4119 33.9291 42.6798 33.4302 42.9751L33.0402 43.2131L32.7389 43.4159C30.151 45.2675 28.024 47.657 27.4213 49.5086C26.8187 51.3603 28.6887 52.1538 29.2825 53.4147C29.8763 54.6756 28.6532 57.1797 28.0063 59.4369C27.3593 61.6941 29.1318 61.4825 30.665 60.2216C31.9782 59.0247 33.4739 58.0426 35.0964 57.3119C36.8689 56.5889 37.5602 55.4603 39.1554 52.6123C39.8556 51.3691 40.4405 50.2934 40.9989 49.0854L41.247 48.5652L41.4509 48.1243C41.5802 47.8421 41.6956 47.5537 41.7965 47.2602V47.2602Z" fill="#FDF064"/>
<path d="M55.339 58.4235C57.7141 60.6279 60.045 62.6999 62.2075 64.5956L61.791 64.7367C57.9357 65.8565 52.9283 63.855 47.8943 58.7145C46.3241 57.1572 45.0906 55.2968 44.2695 53.2478V48.4336C44.57 49.7949 45.0342 51.1153 45.6521 52.3661C45.6699 52.4175 45.6969 52.4653 45.7319 52.5072C46.3157 53.6112 47.1428 54.5697 48.1514 55.311C49.9176 56.5908 51.8895 57.5628 53.983 58.1855C54.24 58.2648 54.4793 58.3266 54.7097 58.3795C54.914 58.4382 55.1284 58.4532 55.339 58.4235V58.4235Z" fill="#FDF064"/>
<path d="M64.2275 63.4663C61.8878 61.4384 59.3354 59.1635 56.7298 56.7388C56.8111 56.2401 56.79 55.7302 56.6677 55.2398C56.5818 54.939 56.4752 54.6444 56.3487 54.3581C56.2335 54.0936 56.1182 53.7673 56.003 53.4764L55.9233 53.1854C55.8978 53.0657 55.856 52.95 55.7992 52.8415C55.7367 52.6651 55.6835 52.4856 55.6397 52.3037L55.5865 52.0833V51.6688C55.5776 51.6074 55.5776 51.5451 55.5865 51.4837C55.5772 51.4105 55.5772 51.3364 55.5865 51.2632V51.0957C55.5943 50.9936 55.6152 50.8928 55.6485 50.7959L55.7017 50.5843C55.8701 50.0553 56.136 49.5174 56.3309 48.9972C56.3904 48.8535 56.4407 48.7063 56.4816 48.5563V48.3976C56.5077 48.3204 56.5256 48.2406 56.5348 48.1596C56.5437 48.0834 56.5437 48.0065 56.5348 47.9303C56.5437 47.81 56.5437 47.6892 56.5348 47.5688V47.0662L56.4816 46.8987L56.4019 46.6871C56.3487 46.5636 56.2955 46.449 56.2335 46.3344L56.1271 46.211L55.9764 45.8847L55.8878 45.7525C55.7112 45.5133 55.5218 45.2838 55.3206 45.0647L55.0902 44.8178C54.8509 44.571 54.585 44.3241 54.2837 44.0684L53.9558 43.8039C53.7253 43.6275 53.4772 43.4512 53.2113 43.2836C52.5368 42.8592 51.8385 42.4736 51.1197 42.1286L50.4018 41.7935L49.6662 41.4761C49.5422 41.4144 49.4092 41.3703 49.2852 41.3174H52.1035C54.9513 42.1307 57.6871 43.2917 60.2482 44.7737C61.8169 45.9376 61.4624 47.4189 61.8612 48.0978C62.26 48.7768 62.6589 48.3888 63.3236 49.3852C63.9883 50.3815 63.3236 51.2368 63.7933 51.7658C64.263 52.2949 65.9114 51.0428 67.5067 54.7725C68.6766 57.6822 66.8952 61.4295 64.2275 63.4663Z" fill="#FDF064"/>
<path d="M32.3125 32.6063C32.3125 32.2907 32.4386 31.9879 32.6629 31.7647C32.8873 31.5414 33.1916 31.416 33.509 31.416C33.8263 31.416 34.1306 31.5414 34.355 31.7647C34.5794 31.9879 34.7054 32.2907 34.7054 32.6063C34.7045 32.7841 34.662 32.9592 34.5813 33.1177C35.2403 33.8082 35.9849 34.4127 36.797 34.9165L37.1692 35.1898C37.701 35.5778 38.4189 36.001 39.181 36.4595C39.9432 36.918 41.0511 37.5881 41.9019 38.2229C40.6977 38.1341 39.5081 37.9062 38.3568 37.544C37.6124 37.0943 36.9122 36.6623 36.3627 36.2831L35.9905 36.0098C35.0247 35.3935 34.1582 34.6355 33.4203 33.7614C33.1232 33.7436 32.8438 33.6146 32.6383 33.4004C32.4328 33.1861 32.3164 32.9025 32.3125 32.6063V32.6063Z" fill="#FDF064"/>
<path d="M39.5995 41.3174H42.0899V42.2432C41.0741 43.3171 40.29 44.5863 39.7856 45.9729C39.9728 46.1852 40.0766 46.4576 40.0781 46.74C40.0781 47.0557 39.952 47.3585 39.7276 47.5817C39.5033 47.8049 39.1989 47.9303 38.8816 47.9303C38.5984 47.9285 38.325 47.8267 38.1101 47.6431C37.8952 47.4595 37.7528 47.206 37.7081 46.9277C37.6634 46.6495 37.7194 46.3644 37.8662 46.1234C38.0129 45.8824 38.2408 45.7009 38.5094 45.6114C38.8971 44.5015 39.4595 43.4598 40.1756 42.5253C37.8945 43.8523 35.7485 45.3967 33.7679 47.1368V47.3308C33.7661 47.5654 33.6947 47.7943 33.5625 47.9887C33.4304 48.1831 33.2435 48.3343 33.0252 48.4233C32.8069 48.5123 32.5671 48.5351 32.3359 48.4889C32.1046 48.4427 31.8922 48.3295 31.7254 48.1636C31.5586 47.9977 31.4449 47.7864 31.3984 47.5563C31.352 47.3262 31.3749 47.0876 31.4644 46.8705C31.5538 46.6533 31.7058 46.4673 31.9012 46.3359C32.0966 46.2044 32.3267 46.1333 32.5626 46.1316H32.8284C34.9158 44.3029 37.1844 42.6899 39.5995 41.3174V41.3174Z" fill="#FDF064"/>
<path d="M49.8176 44.765C49.8176 45.0807 49.6915 45.3835 49.4671 45.6067C49.2428 45.8299 48.9384 45.9553 48.6211 45.9553C48.3038 45.9553 47.9995 45.8299 47.7751 45.6067C47.5507 45.3835 47.4246 45.0807 47.4246 44.765V44.765C47.4226 44.5908 47.4621 44.4185 47.5399 44.2624C46.9596 43.3668 46.2138 42.5889 45.3419 41.9699C45.2887 41.7495 45.2444 41.5203 45.209 41.291H46.6447C47.4452 41.9371 48.1416 42.7013 48.7097 43.557C49.0145 43.5795 49.2991 43.7172 49.5051 43.9418C49.7111 44.1664 49.8229 44.461 49.8176 44.765V44.765Z" fill="#FDF064"/>
<path d="M75.6252 31.4603V21.5585C75.5363 20.2803 75.9458 19.0172 76.7685 18.0316C77.2038 17.5964 77.7286 17.2599 78.3068 17.0453C78.8851 16.8307 79.5031 16.7431 80.1186 16.7884C80.7536 16.7405 81.3917 16.8256 81.9917 17.0382C82.5916 17.2508 83.14 17.5862 83.6016 18.0228C84.4599 18.992 84.8966 20.2604 84.8158 21.5497V23.4542H81.8202V21.3733C81.8202 20.1213 81.2973 19.5041 80.2604 19.5041C79.2235 19.5041 78.6917 20.1213 78.6917 21.3733V31.6454C78.6917 32.8798 79.2146 33.5059 80.2604 33.5059C81.3062 33.5059 81.8202 32.8798 81.8202 31.6454V28.9209H84.8158V31.4603C84.8966 32.7495 84.4599 34.018 83.6016 34.9872C83.1503 35.418 82.614 35.7509 82.0267 35.9649C81.4393 36.1789 80.8138 36.2693 80.1895 36.2304C79.574 36.2757 78.956 36.188 78.3777 35.9734C77.7995 35.7588 77.2747 35.4224 76.8394 34.9872C75.9976 34.0085 75.5633 32.7469 75.6252 31.4603Z" fill="#FDF064"/>
<path d="M85.6582 36.0275L88.6981 17.0352H93.351L96.3997 36.0716H93.351L92.8281 32.6152H89.1501L88.6272 36.0716L85.6582 36.0275ZM89.5666 29.9877H92.4647L91.0112 20.4033L89.5666 29.9877Z" fill="#FDF064"/>
<path d="M97.5527 36.0277V17.0354H102.064C102.67 16.9835 103.281 17.0519 103.861 17.2365C104.44 17.4212 104.977 17.7184 105.44 18.1111C106.216 19.0319 106.595 20.2202 106.495 21.4175V22.9165C106.495 24.8739 105.839 26.1612 104.528 26.7784C105.212 27.047 105.763 27.5728 106.061 28.2421C106.394 29.0617 106.551 29.9418 106.522 30.8256V33.7617C106.482 34.5422 106.578 35.3237 106.805 36.0718H103.836L103.686 35.5692C103.642 35.3602 103.615 35.1478 103.606 34.9344C103.561 34.5363 103.544 34.1357 103.553 33.7353V30.7021C103.607 30.0458 103.445 29.3899 103.092 28.8329C102.898 28.6369 102.664 28.4856 102.405 28.3896C102.146 28.2936 101.869 28.2553 101.594 28.2774H100.557V36.0277H97.5527ZM100.557 25.5617H101.727C101.97 25.5796 102.215 25.5491 102.446 25.4718C102.677 25.3946 102.891 25.2723 103.074 25.112C103.415 24.666 103.576 24.1094 103.526 23.5513V21.6909C103.561 21.17 103.438 20.6506 103.172 20.2008C103.027 20.0396 102.847 19.9137 102.646 19.8327C102.445 19.7517 102.227 19.7177 102.011 19.7335H100.557V25.5617Z" fill="#FDF064"/>
<path d="M107.646 19.6803V17.0352H116.952V19.6803H113.797V35.9923H110.802V19.6803H107.646Z" fill="#FDF064"/>
<path d="M118.254 36.0275V17.0352H126.443V19.6803H121.258V24.9707H125.379V27.6776H121.258V33.2501H126.443V35.9746L118.254 36.0275Z" fill="#FDF064"/>
<path d="M127.834 31.4598V30.2606H130.909V31.6185C130.909 32.8529 131.396 33.4789 132.354 33.4789C133.311 33.4789 133.798 32.8529 133.798 31.6185C133.797 31.1013 133.685 30.5904 133.47 30.1195C133.259 29.6588 132.981 29.2311 132.646 28.8499C132.309 28.4707 131.937 28.1004 131.529 27.7213C131.122 27.3421 130.696 26.9542 130.271 26.5397C129.843 26.1334 129.452 25.6908 129.101 25.2172C128.72 24.7174 128.421 24.161 128.215 23.5683C127.987 22.9075 127.876 22.2124 127.887 21.5139C127.844 20.8746 127.931 20.2334 128.141 19.6278C128.351 19.0222 128.68 18.4643 129.11 17.987C129.546 17.5652 130.064 17.2372 130.633 17.0233C131.201 16.8095 131.808 16.7143 132.416 16.7438C133.008 16.7081 133.6 16.8008 134.153 17.0155C134.705 17.2301 135.204 17.5616 135.615 17.987C136.42 18.9816 136.821 20.2397 136.741 21.5139V22.1223H133.904V21.3287C133.904 20.0767 133.399 19.4595 132.389 19.4595C132.185 19.4527 131.982 19.4911 131.795 19.5719C131.608 19.6527 131.442 19.774 131.308 19.9268C131.017 20.3442 130.882 20.8494 130.927 21.3552C130.927 21.8734 131.042 22.3852 131.263 22.8541C131.486 23.3233 131.786 23.7524 132.15 24.1238C132.495 24.4941 132.876 24.8733 133.293 25.2524C133.71 25.6316 134.135 26.0195 134.551 26.4339C134.96 26.8439 135.342 27.2798 135.695 27.7389C136.051 28.2427 136.331 28.7951 136.528 29.3789C136.747 30.0449 136.857 30.7414 136.856 31.4421C136.937 32.7193 136.528 33.9795 135.712 34.969C135.292 35.3946 134.785 35.7257 134.226 35.9401C133.666 36.1545 133.067 36.2473 132.469 36.2123C131.857 36.2454 131.245 36.1521 130.672 35.9381C130.098 35.7241 129.575 35.3942 129.136 34.969C128.694 34.501 128.35 33.9491 128.126 33.3462C127.902 32.7433 127.803 32.1018 127.834 31.4598V31.4598Z" fill="#FDF064"/>
<path d="M138.551 36.0275V17.0352H141.555V36.0275H138.551Z" fill="#FDF064"/>
<path d="M143.558 31.4866V17.0352H146.527V31.6718C146.527 32.9062 147.05 33.5322 148.087 33.5322C149.123 33.5322 149.638 32.9062 149.638 31.6718V17.0352H152.633V31.4866C152.712 32.7741 152.28 34.041 151.428 35.0135C150.978 35.4446 150.444 35.7777 149.858 35.9918C149.272 36.2058 148.647 36.2961 148.025 36.2568C147.423 36.2922 146.82 36.2006 146.257 35.9878C145.693 35.7751 145.181 35.446 144.754 35.0223C143.909 34.0429 143.48 32.775 143.558 31.4866V31.4866Z" fill="#FDF064"/>
<path d="M154.094 31.4604V30.2613H157.161V31.6191C157.161 32.8535 157.639 33.4796 158.605 33.4796C159.571 33.4796 160.041 32.8535 160.041 31.6191C160.041 31.1028 159.933 30.5922 159.722 30.1202C159.511 29.6594 159.233 29.2317 158.898 28.8505C158.561 28.4714 158.189 28.101 157.781 27.7219C157.374 27.3428 156.948 26.9548 156.514 26.5404C156.104 26.1458 155.727 25.7182 155.388 25.2619C155.002 24.7654 154.703 24.2081 154.502 23.6131C154.271 22.9528 154.157 22.2577 154.165 21.5586C154.127 20.919 154.216 20.2781 154.427 19.6728C154.638 19.0675 154.968 18.5097 155.397 18.0317C155.832 17.6111 156.349 17.2837 156.916 17.0699C157.483 16.856 158.088 16.7603 158.694 16.7885C159.287 16.7533 159.881 16.8462 160.435 17.0608C160.989 17.2754 161.489 17.6066 161.902 18.0317C162.707 19.0264 163.108 20.2844 163.028 21.5586V22.167H160.183V21.3735C160.183 20.1214 159.678 19.5042 158.676 19.5042C158.466 19.4867 158.254 19.5173 158.058 19.5937C157.861 19.6701 157.685 19.7903 157.542 19.9451C157.258 20.3651 157.127 20.8691 157.17 21.3735C157.167 21.891 157.279 22.4028 157.498 22.8724C157.726 23.3384 158.025 23.7667 158.384 24.1421C158.729 24.5124 159.111 24.8916 159.536 25.2707C159.961 25.6499 160.369 26.0378 160.794 26.4522C161.205 26.8581 161.584 27.2943 161.929 27.7572C162.29 28.2589 162.574 28.8117 162.771 29.3972C162.99 30.0632 163.1 30.7597 163.099 31.4604C163.176 32.7386 162.765 33.9986 161.947 34.9873C161.528 35.4126 161.023 35.7437 160.465 35.9581C159.907 36.1726 159.309 36.2655 158.712 36.2306C158.103 36.2605 157.494 36.1664 156.922 35.9542C156.351 35.7419 155.829 35.4159 155.388 34.9961C154.941 34.5261 154.596 33.9698 154.373 33.3616C154.151 32.7535 154.056 32.1065 154.094 31.4604V31.4604Z" fill="#FDF064"/>
<path d="M119.239 48.1419V55.0546H118.255L118.166 54.0847C117.906 54.4492 117.558 54.7423 117.154 54.9365C116.749 55.1308 116.302 55.22 115.853 55.1957C115.083 55.2569 114.32 55.0134 113.729 54.5182C113.138 54.0229 112.768 53.3159 112.698 52.5505C112.689 52.4125 112.689 52.2741 112.698 52.1361C112.698 50.2139 113.948 49.1471 116.146 49.1471H118.14V48.1419C118.14 46.6694 117.448 45.8935 116.146 45.8935C115.66 45.8467 115.176 45.993 114.799 46.3003C114.422 46.6077 114.183 47.0511 114.134 47.5335V47.6569H113.008C113.022 46.8867 113.343 46.1535 113.899 45.618C114.456 45.0825 115.203 44.7883 115.977 44.8001H116.181C118.069 44.8001 119.239 46.0786 119.239 48.1419ZM118.104 52.2331V50.258H116.075C114.595 50.258 113.815 50.9458 113.815 52.2155C113.815 53.4851 114.701 54.1641 116.013 54.1641C116.282 54.1877 116.553 54.1545 116.809 54.0668C117.065 53.979 117.299 53.8386 117.496 53.6547C117.693 53.4708 117.85 53.2476 117.954 52.9996C118.059 52.7516 118.11 52.4844 118.104 52.2155V52.2331Z" fill="white"/>
<path d="M128.101 45.0305V55.7258C128.122 56.4985 127.835 57.248 127.301 57.81C126.768 58.3721 126.032 58.7007 125.256 58.7237C125.138 58.7325 125.019 58.7325 124.901 58.7237C124.512 58.7538 124.12 58.7071 123.749 58.5864C123.378 58.4657 123.034 58.2732 122.738 58.0201C122.441 57.7671 122.198 57.4583 122.022 57.1115C121.845 56.7647 121.74 56.3867 121.711 55.9992V55.8316H122.801C122.803 56.079 122.854 56.3235 122.952 56.5511C123.05 56.7786 123.191 56.9848 123.369 57.1577C123.547 57.3305 123.758 57.4667 123.989 57.5585C124.22 57.6502 124.466 57.6956 124.715 57.6921H124.91C125.399 57.7493 125.89 57.6117 126.277 57.3094C126.664 57.007 126.915 56.5644 126.975 56.0785C126.975 55.9727 126.975 55.8581 126.975 55.7523V53.8125C126.702 54.1292 126.359 54.3797 125.974 54.5447C125.588 54.7097 125.17 54.785 124.75 54.7648C122.818 54.7648 121.516 53.4863 121.516 51.2379V48.5927C121.516 46.0886 122.818 44.7924 124.715 44.7924C125.174 44.784 125.628 44.894 126.032 45.1119C126.436 45.3298 126.776 45.6481 127.019 46.0357L127.17 45.0217L128.101 45.0305ZM126.975 51.2026V48.4075C126.975 46.6441 126.089 45.877 124.945 45.877C123.527 45.877 122.659 46.6705 122.659 48.6015V51.1761C122.659 52.8691 123.545 53.6714 124.945 53.6714C126.204 53.6714 126.975 52.8691 126.975 51.1761V51.2026Z" fill="white"/>
<path d="M137.123 51.9692C137.132 52.3907 137.058 52.8099 136.904 53.2029C136.751 53.5959 136.521 53.9549 136.228 54.2595C135.935 54.5641 135.585 54.8083 135.197 54.9781C134.809 55.1479 134.391 55.2401 133.968 55.2492H133.595C131.637 55.2492 130.352 53.9707 130.352 51.7223V48.3718C130.352 46.0793 131.654 44.8008 133.613 44.8008C135.572 44.8008 136.963 46.0793 136.963 48.3718V50.5849H131.504V51.6694C131.504 53.3447 132.31 54.1294 133.631 54.1294C133.903 54.1627 134.18 54.142 134.444 54.0685C134.708 53.9951 134.956 53.8704 135.171 53.7016C135.387 53.5328 135.567 53.3233 135.701 53.085C135.836 52.8467 135.921 52.5843 135.953 52.3131C135.962 52.1986 135.962 52.0837 135.953 51.9692H137.123ZM131.53 48.3718V49.5356H135.891V48.3718C135.891 46.6965 135.066 45.9118 133.684 45.9118C132.301 45.9118 131.53 46.6965 131.53 48.3718Z" fill="white"/>
<path d="M145.693 48.6363V55.0376H144.603V48.7773C144.603 46.7582 144.071 45.85 142.742 45.85C141.412 45.85 140.428 47.0051 140.428 48.9537V55.0376H139.285V45.03H140.171L140.366 46.2732C140.619 45.8116 140.995 45.4292 141.454 45.169C141.913 44.9089 142.435 44.7813 142.963 44.8008C144.603 44.8008 145.693 45.8941 145.693 48.6363Z" fill="white"/>
<path d="M147.855 51.6694V48.3718C147.855 46.0793 149.141 44.8008 151.073 44.8008C153.005 44.8008 154.352 46.0793 154.352 48.3718H153.2C153.146 46.6965 152.375 45.9118 151.037 45.9118C149.699 45.9118 148.963 46.6965 148.963 48.3718V51.6694C148.963 53.3447 149.752 54.1294 151.037 54.1294C152.322 54.1294 153.164 53.3447 153.217 51.6694H154.37C154.316 53.9531 153.031 55.1963 151.037 55.1963C149.043 55.1963 147.855 53.9531 147.855 51.6694Z" fill="white"/>
<path d="M162.373 45.0294L158.987 56.2626C158.544 57.7439 157.968 58.6785 156.585 58.6785H155.938V57.594H156.435C157.321 57.594 157.605 56.9239 157.853 56.1039L158.482 54.0494L155.238 45.047H156.444L158.961 52.3036L161.159 45.0029L162.373 45.0294Z" fill="white"/>
<path d="M180 40.2067L170.074 36.1684L172.077 39.5718H46.5288C47.4213 39.3414 48.2883 39.0224 49.1167 38.6196C54.2038 36.1684 65.7253 28.5238 66.9306 21.8668C67.11 20.9909 67.0678 20.0844 66.8079 19.2287C66.548 18.373 66.0786 17.5949 65.4416 16.9644C64.8168 16.2868 64.0166 15.7935 63.1287 15.5384C62.2407 15.2834 61.2993 15.2764 60.4077 15.5184C53.7164 17.0437 45.9616 29.0352 44.4549 33.6907C44.2245 34.4137 44.0118 35.1103 43.8434 35.8069V7.90908L47.2644 9.87532L43.2142 0L39.1374 9.87532L42.5229 7.90908V38.6901C37.2053 38.5138 32.5258 35.3307 30.8863 34.061C26.6056 30.7546 6.2836 14.4867 6.0709 14.328C5.93281 14.2184 5.75696 14.1671 5.58123 14.1853C5.4055 14.2034 5.24398 14.2895 5.13146 14.425C5.03196 14.5561 4.98582 14.7197 5.00225 14.8832C5.01868 15.0466 5.09647 15.1979 5.22009 15.3068V15.3068C5.42393 15.4743 25.7371 31.7421 30.0354 35.0662C32.736 37.1644 35.8441 38.6835 39.164 39.5277H0.664697C0.488409 39.5277 0.31934 39.5974 0.194685 39.7214C0.0700299 39.8454 0 40.0137 0 40.189C0 40.3644 0.0700299 40.5326 0.194685 40.6566C0.31934 40.7807 0.488409 40.8503 0.664697 40.8503H42.5052V79.2318C42.5139 79.3197 42.5403 79.4049 42.5827 79.4825C42.6251 79.5601 42.6827 79.6284 42.7521 79.6835C42.8215 79.7385 42.9013 79.7792 42.9867 79.8031C43.0722 79.827 43.1616 79.8336 43.2496 79.8226C43.4012 79.8056 43.5425 79.7379 43.6504 79.6305C43.7583 79.5232 43.8263 79.3826 43.8434 79.2318V43.2574C44.8715 46.5727 47.4948 50.3906 52.8922 55.5399C63.6868 65.8472 74.2866 74.109 74.3929 74.1972C74.5106 74.2919 74.6582 74.3418 74.8095 74.3383C74.8979 74.336 74.9851 74.3164 75.0659 74.2806C75.1467 74.2448 75.2197 74.1935 75.2806 74.1296C75.3415 74.0657 75.3892 73.9905 75.4209 73.9083C75.4525 73.8261 75.4676 73.7385 75.4653 73.6505C75.4611 73.5542 75.4369 73.4598 75.3942 73.3733C75.3515 73.2868 75.2912 73.2101 75.2171 73.1479C75.1108 73.0686 64.582 64.8421 53.8139 54.5788C47.4417 48.4949 45.1108 44.483 44.7031 40.8944H172.077L170.109 44.2714L180 40.2067ZM44.6854 38.5843C44.8609 37.0351 45.2057 35.5095 45.7134 34.0346C47.3087 29.0528 54.8863 18.0666 60.6736 16.7175C61.0312 16.6363 61.3968 16.5949 61.7637 16.5941C62.2768 16.5955 62.7839 16.7036 63.2525 16.9117C63.7211 17.1197 64.1408 17.423 64.4845 17.802C64.976 18.2826 65.3377 18.8787 65.536 19.5353C65.7343 20.1919 65.7628 20.8877 65.6189 21.5582C64.582 27.3688 53.805 34.9163 48.5318 37.4645C47.3202 38.0456 46.0207 38.424 44.6854 38.5843V38.5843Z" fill="white"/>
</svg>
