<svg width="40" height="40" viewBox="0 0 40 40" fill="none" xmlns="http://www.w3.org/2000/svg">
<path d="M21.0148 0.998414L38.0153 8.55399C38.9182 8.95524 39.5 9.85055 39.5 10.8385V29.1615C39.5 30.1495 38.9182 31.0448 38.0153 31.446L21.0148 39.0016C20.3684 39.2889 19.6305 39.2889 18.9841 39.0016L1.98463 31.446C1.08182 31.0448 0.5 30.1495 0.5 29.1615V10.8385C0.5 9.85052 1.08182 8.95523 1.98463 8.55397L18.9841 0.998434C19.6305 0.711133 20.3684 0.711125 21.0148 0.998414Z" fill="#171C1F" stroke="#54ADFF"/>
<path d="M13.74 20.552C13.524 20.552 13.356 20.496 13.236 20.384C13.124 20.264 13.068 20.096 13.068 19.88C13.068 19.656 13.124 19.488 13.236 19.376C13.356 19.264 13.524 19.208 13.74 19.208H23.592C23.816 19.208 23.984 19.264 24.096 19.376C24.208 19.488 24.264 19.656 24.264 19.88C24.264 20.096 24.208 20.264 24.096 20.384C23.984 20.496 23.816 20.552 23.592 20.552H13.74ZM13.74 23.132C13.524 23.132 13.356 23.076 13.236 22.964C13.124 22.844 13.068 22.676 13.068 22.46C13.068 22.236 13.124 22.068 13.236 21.956C13.356 21.844 13.524 21.788 13.74 21.788H22.284C22.508 21.788 22.676 21.844 22.788 21.956C22.9 22.068 22.956 22.236 22.956 22.46C22.956 22.676 22.9 22.844 22.788 22.964C22.676 23.076 22.508 23.132 22.284 23.132H13.74ZM20.208 28.988C18.44 28.988 17.144 28.576 16.32 27.752C15.496 26.928 15.084 25.632 15.084 23.864V18.416C15.084 16.624 15.496 15.32 16.32 14.504C17.144 13.688 18.432 13.284 20.184 13.292H23.088C23.832 13.292 24.436 13.412 24.9 13.652C25.364 13.884 25.844 14.296 26.34 14.888C26.452 15.024 26.508 15.184 26.508 15.368C26.508 15.576 26.436 15.756 26.292 15.908C26.148 16.052 25.968 16.124 25.752 16.124C25.632 16.124 25.52 16.096 25.416 16.04C25.32 15.976 25.236 15.908 25.164 15.836C24.812 15.412 24.504 15.136 24.24 15.008C23.984 14.872 23.6 14.804 23.088 14.804H20.184C19.296 14.796 18.588 14.904 18.06 15.128C17.54 15.352 17.164 15.728 16.932 16.256C16.708 16.784 16.596 17.504 16.596 18.416V23.864C16.596 24.76 16.708 25.472 16.932 26C17.164 26.52 17.544 26.896 18.072 27.128C18.6 27.36 19.312 27.476 20.208 27.476H23.088C23.504 27.476 23.852 27.452 24.132 27.404C24.42 27.348 24.664 27.248 24.864 27.104C25.072 26.952 25.264 26.736 25.44 26.456C25.504 26.36 25.588 26.288 25.692 26.24C25.796 26.184 25.904 26.156 26.016 26.156C26.232 26.156 26.412 26.228 26.556 26.372C26.7 26.516 26.772 26.696 26.772 26.912C26.772 27.088 26.712 27.236 26.592 27.356C26.296 27.74 25.984 28.052 25.656 28.292C25.336 28.532 24.968 28.708 24.552 28.82C24.144 28.932 23.656 28.988 23.088 28.988H20.208Z" fill="#54ADFF"/>
</svg>
