<svg width="40" height="40" viewBox="0 0 40 40" fill="none" xmlns="http://www.w3.org/2000/svg">
<path d="M21.0148 0.998414L38.0153 8.55399C38.9182 8.95524 39.5 9.85055 39.5 10.8385V29.1615C39.5 30.1495 38.9182 31.0448 38.0153 31.446L21.0148 39.0016C20.3684 39.2889 19.6305 39.2889 18.9841 39.0016L1.98463 31.446C1.08182 31.0448 0.5 30.1495 0.5 29.1615V10.8385C0.5 9.85052 1.08182 8.95523 1.98463 8.55397L18.9841 0.998434C19.6305 0.711133 20.3684 0.711125 21.0148 0.998414Z" fill="#171C1F" stroke="#54ADFF"/>
<path d="M17.084 28C16.58 28 16.328 27.748 16.328 27.244V13.024C16.328 12.52 16.58 12.268 17.084 12.268H22.7C24.1 12.268 25.164 12.632 25.892 13.36C26.62 14.088 26.984 15.152 26.984 16.552V17.272C26.984 18.664 26.62 19.728 25.892 20.464C25.164 21.192 24.1 21.556 22.7 21.556H17.84V27.244C17.84 27.748 17.588 28 17.084 28ZM17.84 20.044H22.7C23.684 20.044 24.392 19.828 24.824 19.396C25.256 18.956 25.472 18.248 25.472 17.272V16.552C25.472 15.576 25.256 14.872 24.824 14.44C24.392 14 23.684 13.78 22.7 13.78H17.84V20.044ZM15.416 24.352C14.968 24.352 14.744 24.128 14.744 23.68C14.744 23.232 14.968 23.008 15.416 23.008H21.656C22.104 23.008 22.328 23.232 22.328 23.68C22.328 24.128 22.104 24.352 21.656 24.352H15.416ZM15.416 21.58C14.968 21.58 14.744 21.356 14.744 20.908C14.744 20.46 14.968 20.236 15.416 20.236H21.656C22.104 20.236 22.328 20.46 22.328 20.908C22.328 21.356 22.104 21.58 21.656 21.58H15.416Z" fill="#54ADFF"/>
</svg>
