<svg width="40" height="40" viewBox="0 0 40 40" fill="none" xmlns="http://www.w3.org/2000/svg">
<path d="M21.0148 0.998414L38.0153 8.55399C38.9182 8.95524 39.5 9.85055 39.5 10.8385V29.1615C39.5 30.1495 38.9182 31.0448 38.0153 31.446L21.0148 39.0016C20.3684 39.2889 19.6305 39.2889 18.9841 39.0016L1.98463 31.446C1.08182 31.0448 0.5 30.1495 0.5 29.1615V10.8385C0.5 9.85052 1.08182 8.95523 1.98463 8.55397L18.9841 0.998434C19.6305 0.711133 20.3684 0.711125 21.0148 0.998414Z" fill="#171C1F" stroke="#54ADFF"/>
<path d="M5.84 24.952C5.53067 24.8187 5.43733 24.5973 5.56 24.288L9.472 14.904C9.584 14.6427 9.77333 14.512 10.04 14.512H10.08C10.3413 14.5173 10.5227 14.648 10.624 14.904L14.56 24.288C14.6933 24.5973 14.6027 24.8187 14.288 24.952C13.9787 25.0747 13.76 24.984 13.632 24.68L12.64 22.304H7.48L6.496 24.68C6.37333 24.9893 6.15467 25.08 5.84 24.952ZM7.888 21.296H12.216L10.04 16.104L7.888 21.296ZM17.1654 25C16.8294 25 16.6614 24.832 16.6614 24.496V15.016C16.6614 14.68 16.8294 14.512 17.1654 14.512H23.0774C23.4134 14.512 23.5814 14.68 23.5814 15.016C23.5814 15.352 23.4134 15.52 23.0774 15.52H17.6694V19.192H21.1894C21.5254 19.192 21.6934 19.36 21.6934 19.696C21.6934 20.032 21.5254 20.2 21.1894 20.2H17.6694V23.992H23.0774C23.4134 23.992 23.5814 24.16 23.5814 24.496C23.5814 24.832 23.4134 25 23.0774 25H17.1654ZM26.3685 25C26.0325 25 25.8645 24.832 25.8645 24.496V15.016C25.8645 14.68 26.0325 14.512 26.3685 14.512H30.2245C31.5738 14.512 32.5605 14.824 33.1845 15.448C33.8085 16.072 34.1205 17.0587 34.1205 18.408V21.104C34.1205 22.448 33.8085 23.4347 33.1845 24.064C32.5658 24.688 31.5792 25 30.2245 25H26.3685ZM26.8725 23.992H30.2245C30.9392 23.992 31.5072 23.9013 31.9285 23.72C32.3498 23.5333 32.6512 23.2293 32.8325 22.808C33.0192 22.3813 33.1125 21.8133 33.1125 21.104V18.408C33.1125 17.6987 33.0192 17.1333 32.8325 16.712C32.6512 16.2853 32.3498 15.9813 31.9285 15.8C31.5072 15.6133 30.9392 15.52 30.2245 15.52H26.8725V23.992Z" fill="#54ADFF"/>
</svg>
