<svg width="40" height="40" viewBox="0 0 40 40" fill="none" xmlns="http://www.w3.org/2000/svg">
<path d="M21.0148 0.998414L38.0153 8.55399C38.9182 8.95524 39.5 9.85055 39.5 10.8385V29.1615C39.5 30.1495 38.9182 31.0448 38.0153 31.446L21.0148 39.0016C20.3684 39.2889 19.6305 39.2889 18.9841 39.0016L1.98463 31.446C1.08182 31.0448 0.5 30.1495 0.5 29.1615V10.8385C0.5 9.85052 1.08182 8.95523 1.98463 8.55397L18.9841 0.998434C19.6305 0.711133 20.3684 0.711125 21.0148 0.998414Z" fill="#171C1F" stroke="#54ADFF"/>
<path d="M18.156 28C16.7 28 15.628 27.656 14.94 26.968C14.26 26.272 13.92 25.204 13.92 23.764C13.92 23.548 13.992 23.368 14.136 23.224C14.28 23.08 14.46 23.008 14.676 23.008C14.892 23.008 15.072 23.08 15.216 23.224C15.36 23.368 15.432 23.548 15.432 23.764C15.432 24.796 15.628 25.508 16.02 25.9C16.42 26.292 17.132 26.488 18.156 26.488H21.468C22.5 26.488 23.212 26.292 23.604 25.9C23.996 25.508 24.192 24.796 24.192 23.764C24.192 22.724 23.996 22.012 23.604 21.628C23.212 21.236 22.5 21.04 21.468 21.04H18.516C17.132 21.04 16.112 20.704 15.456 20.032C14.8 19.352 14.472 18.328 14.472 16.96C14.472 15.576 14.8 14.56 15.456 13.912C16.112 13.264 17.124 12.94 18.492 12.94H21.396C22.772 12.94 23.784 13.264 24.432 13.912C25.088 14.56 25.416 15.568 25.416 16.936C25.416 17.152 25.344 17.332 25.2 17.476C25.056 17.62 24.876 17.692 24.66 17.692C24.444 17.692 24.264 17.62 24.12 17.476C23.976 17.332 23.904 17.152 23.904 16.936C23.904 15.992 23.724 15.344 23.364 14.992C23.012 14.632 22.356 14.452 21.396 14.452H18.492C17.54 14.452 16.884 14.632 16.524 14.992C16.164 15.344 15.984 16 15.984 16.96C15.984 17.904 16.164 18.568 16.524 18.952C16.892 19.336 17.556 19.528 18.516 19.528H21.468C22.916 19.528 23.984 19.872 24.672 20.56C25.36 21.248 25.704 22.316 25.704 23.764C25.704 25.204 25.36 26.272 24.672 26.968C23.984 27.656 22.916 28 21.468 28H18.156ZM19.848 30.064C19.4 30.064 19.176 29.84 19.176 29.392V20.572L19.296 19.936V11.212C19.296 10.764 19.52 10.54 19.968 10.54C20.416 10.54 20.64 10.764 20.64 11.212V20.032L20.52 20.62V29.392C20.52 29.84 20.296 30.064 19.848 30.064Z" fill="#54ADFF"/>
</svg>
