<svg width="40" height="40" viewBox="0 0 40 40" fill="none" xmlns="http://www.w3.org/2000/svg">
<path d="M21.0148 0.998414L38.0153 8.55399C38.9182 8.95524 39.5 9.85055 39.5 10.8385V29.1615C39.5 30.1495 38.9182 31.0448 38.0153 31.446L21.0148 39.0016C20.3684 39.2889 19.6305 39.2889 18.9841 39.0016L1.98463 31.446C1.08182 31.0448 0.5 30.1495 0.5 29.1615V10.8385C0.5 9.85052 1.08182 8.95523 1.98463 8.55397L18.9841 0.998434C19.6305 0.711133 20.3684 0.711125 21.0148 0.998414Z" fill="#171C1F" stroke="#54ADFF"/>
<path d="M20.4037 8L18.2018 9.26606L12.2018 12.7339L10 14V26L12.2018 27.2661L18.2569 30.7339L20.4587 32L22.6606 30.7339L28.6055 27.2661L30.8073 26V14L28.6055 12.7339L22.6055 9.26606L20.4037 8ZM14.4037 23.4679V16.5321L20.4037 13.0642L26.4037 16.5321V23.4679L20.4037 26.9358L14.4037 23.4679Z" fill="#2A5ADA"/>
</svg>
