<svg width="48" height="42" viewBox="0 0 48 42" fill="none" xmlns="http://www.w3.org/2000/svg">
<path d="M47.125 16.2059C47.125 12.0761 45.0989 8.20865 41.4199 5.31631C37.814 2.48147 33.0343 0.920166 27.9615 0.920166C22.8887 0.920166 18.1089 2.48147 14.5031 5.31631C12.7153 6.72192 11.3192 8.35806 10.3548 10.1423C8.35422 10.7687 6.5148 11.7161 4.94122 12.9532C1.83554 15.3951 0.125 18.6632 0.125 22.156C0.125 25.3407 1.56437 28.3652 4.19114 30.7269L3.93218 39.9326C3.91952 40.3816 4.18325 40.7944 4.6012 40.9801C4.75221 41.0473 4.91276 41.0799 5.07221 41.0799C5.35393 41.0799 5.63199 40.9777 5.84725 40.7829L12.5478 34.7144C13.7579 34.9413 15.0018 35.0563 16.2539 35.0563C20.44 35.0563 24.3893 33.7891 27.4023 31.485C27.5883 31.4892 27.7746 31.492 27.9616 31.492C29.844 31.492 31.6988 31.2757 33.4847 30.8484L39.349 36.1595C39.5642 36.3543 39.8422 36.4564 40.124 36.4564C40.2834 36.4564 40.444 36.4237 40.595 36.3567C41.0131 36.171 41.2767 35.7582 41.264 35.3091L41.0413 27.3841C44.916 24.4989 47.125 20.4553 47.125 16.2059ZM16.254 32.8229C14.9644 32.8229 13.6861 32.6856 12.4548 32.4144C12.0882 32.3339 11.7052 32.4347 11.4297 32.6843L6.28732 37.3417L6.48625 30.2672C6.4957 29.9295 6.34855 29.6057 6.08583 29.3866C3.71316 27.4077 2.40643 24.8397 2.40643 22.1559C2.40643 18.2492 5.14748 14.8269 9.22538 12.9687C8.94374 14.02 8.79797 15.1034 8.79797 16.2058C8.79797 20.3357 10.8241 24.203 14.5031 27.0954C17.0881 29.1277 20.2763 30.5052 23.7433 31.1224C21.5825 32.1971 19.0117 32.8229 16.254 32.8229ZM39.2244 25.9196C38.9137 26.1354 38.7336 26.4884 38.744 26.8611L38.9086 32.7183L34.5764 28.7946C34.3628 28.6013 34.0851 28.4976 33.8015 28.4976C33.7006 28.4976 33.599 28.5106 33.4992 28.5375C31.7213 29.016 29.8581 29.2586 27.9613 29.2586C18.6525 29.2586 11.0792 23.4031 11.0792 16.2057C11.0792 9.00835 18.6526 3.15296 27.9615 3.15296C37.2703 3.15296 44.8436 9.00844 44.8436 16.2058C44.8436 19.9003 42.7955 23.4408 39.2244 25.9196Z" fill="#4AC1F4"/>
<path d="M28.1206 12.8892C26.0763 12.8892 24.4132 14.5169 24.4132 16.5177C24.4132 18.5185 26.0763 20.1462 28.1206 20.1462C30.1649 20.1462 31.828 18.5185 31.828 16.5177C31.828 14.5169 30.1649 12.8892 28.1206 12.8892ZM28.1206 17.9132C27.3342 17.9132 26.6947 17.2872 26.6947 16.5177C26.6947 15.7482 27.3343 15.1221 28.1206 15.1221C28.9069 15.1221 29.5465 15.7482 29.5465 16.5177C29.5465 17.2872 28.9069 17.9132 28.1206 17.9132Z" fill="#4AC1F4"/>
<path d="M37.8168 12.8892C35.7725 12.8892 34.1094 14.5169 34.1094 16.5177C34.1094 18.5185 35.7725 20.1462 37.8168 20.1462C39.8611 20.1462 41.5242 18.5185 41.5242 16.5177C41.5242 14.5169 39.8611 12.8892 37.8168 12.8892ZM37.8168 17.9132C37.0305 17.9132 36.3909 17.2872 36.3909 16.5177C36.3909 15.7482 37.0306 15.1221 37.8168 15.1221C38.603 15.1221 39.2427 15.7482 39.2427 16.5177C39.2427 17.2872 38.6031 17.9132 37.8168 17.9132Z" fill="#4AC1F4"/>
<path d="M18.4244 12.8892C16.3802 12.8892 14.717 14.5169 14.717 16.5177C14.717 18.5185 16.3802 20.1462 18.4244 20.1462C20.4686 20.1462 22.1318 18.5185 22.1318 16.5177C22.1318 14.5169 20.4688 12.8892 18.4244 12.8892ZM18.4244 17.9132C17.6381 17.9132 16.9986 17.2872 16.9986 16.5177C16.9986 15.7482 17.6382 15.1221 18.4244 15.1221C19.2108 15.1221 19.8503 15.7482 19.8503 16.5177C19.8503 17.2872 19.2108 17.9132 18.4244 17.9132Z" fill="#4AC1F4"/>
</svg>
