<svg width="20" height="200" viewBox="0 0 20 200" fill="none" xmlns="http://www.w3.org/2000/svg">
<path d="M9.39054 0.817924C9.77838 0.645543 10.2211 0.645539 10.609 0.817912L18.6092 4.37348C19.1509 4.61423 19.5 5.15142 19.5 5.7442V14.2558C19.5 14.8486 19.1509 15.3858 18.6092 15.6265L10.6089 19.1821C10.2211 19.3545 9.77838 19.3545 9.39053 19.1821L1.39078 15.6265C0.849094 15.3858 0.5 14.8486 0.5 14.2558V5.74418C0.5 5.1514 0.849094 4.61422 1.39078 4.37347L9.39054 0.817924Z" stroke="#54ADFF"/>
<path d="M9.39053 180.818C9.77838 180.646 10.2211 180.646 10.609 180.818L18.6092 184.373C19.1509 184.614 19.5 185.151 19.5 185.744V194.256C19.5 194.849 19.1509 195.386 18.6092 195.627L10.609 199.182C10.2211 199.354 9.77838 199.354 9.39054 199.182L1.39078 195.627C0.849094 195.386 0.5 194.849 0.5 194.256V185.744C0.5 185.151 0.849094 184.614 1.39078 184.373L9.39053 180.818Z" stroke="#54ADFF"/>
<path d="M14.365 186.138C14.8943 185.446 16 185.82 16 186.692V186.692C16 186.892 15.9342 187.086 15.8126 187.245L11.0357 193.492C10.2517 194.517 8.71636 194.542 7.89909 193.543L5.21471 190.262C5.07586 190.093 5 189.88 5 189.661V189.661C5 188.768 6.11974 188.369 6.68501 189.059L9.09977 192.011C9.30409 192.261 9.68793 192.254 9.88393 191.998L14.365 186.138Z" fill="#54ADFF"/>
</svg>
