<svg width="20" height="20" viewBox="0 0 20 20" fill="none" xmlns="http://www.w3.org/2000/svg">
<rect x="6.66602" y="5" width="11.7822" height="2.35702" rx="1.17851" transform="rotate(45 6.66602 5)" fill="#59788C"/>
<rect x="5.00195" y="13.334" width="11.7851" height="2.35702" rx="1.17851" transform="rotate(-45 5.00195 13.334)" fill="#59788C"/>
<path d="M10.609 0.817912L18.6092 4.37348C19.1509 4.61423 19.5 5.15142 19.5 5.7442V14.2558C19.5 14.8486 19.1509 15.3858 18.6092 15.6265L10.609 19.1821C10.2211 19.3545 9.77838 19.3545 9.39054 19.1821L1.39078 15.6265C0.849094 15.3858 0.5 14.8486 0.5 14.2558V5.74418C0.5 5.1514 0.849094 4.61422 1.39078 4.37347L9.39054 0.817924C9.77838 0.645543 10.2211 0.645539 10.609 0.817912Z" stroke="#59788C"/>
</svg>
