<svg width="40" height="40" viewBox="0 0 40 40" fill="none" xmlns="http://www.w3.org/2000/svg">
<path d="M21.0148 0.998414L38.0153 8.55399C38.9182 8.95524 39.5 9.85055 39.5 10.8385V29.1615C39.5 30.1495 38.9182 31.0448 38.0153 31.446L21.0148 39.0016C20.3684 39.2889 19.6305 39.2889 18.9841 39.0016L1.98463 31.446C1.08182 31.0448 0.5 30.1495 0.5 29.1615V10.8385C0.5 9.85052 1.08182 8.95523 1.98463 8.55397L18.9841 0.998434C19.6305 0.711133 20.3684 0.711125 21.0148 0.998414Z" fill="#171C1F" stroke="#54ADFF"/>
<path d="M20 32C26.6274 32 32 26.6274 32 20C32 13.3726 26.6274 8 20 8C13.3726 8 8 13.3726 8 20C8 26.6274 13.3726 32 20 32Z" fill="#2E3148"/>
<path d="M20.0001 26.9621C23.8456 26.9621 26.9631 23.8447 26.9631 19.9991C26.9631 16.1536 23.8456 13.0361 20.0001 13.0361C16.1545 13.0361 13.0371 16.1536 13.0371 19.9991C13.0371 23.8447 16.1545 26.9621 20.0001 26.9621Z" fill="#1B1E36"/>
<path d="M20.0234 9.53125C18.7281 9.53125 17.6777 14.2295 17.6777 20.0251C17.6777 25.8207 18.7281 30.519 20.0234 30.519C21.3188 30.519 22.3692 25.8207 22.3692 20.0251C22.3692 14.2295 21.3188 9.53125 20.0234 9.53125ZM20.1854 29.9267C20.0373 30.1243 19.8891 29.9761 19.8891 29.9761C19.2926 29.2849 18.9943 28.0008 18.9943 28.0008C17.9509 24.6428 18.1992 17.4329 18.1992 17.4329C18.6896 11.709 19.5816 10.3569 19.8852 10.0567C19.9162 10.026 19.957 10.0073 20.0005 10.0038C20.0439 10.0003 20.0872 10.0122 20.1227 10.0375C20.5632 10.3496 20.9326 11.6548 20.9326 11.6548C22.0235 15.7041 21.9247 19.5066 21.9247 19.5066C22.0235 22.8153 21.378 26.5189 21.378 26.5189C20.8812 29.3337 20.1854 29.9267 20.1854 29.9267Z" fill="#6F7390"/>
<path d="M29.1261 14.803C28.4812 13.679 23.8837 15.1061 18.8541 17.9902C13.8246 20.8742 10.2768 24.1235 10.9213 25.247C11.5657 26.3705 16.1637 24.9438 21.1933 22.0598C26.2228 19.1758 29.7706 15.9264 29.1261 14.803V14.803ZM11.5163 25.0928C11.2694 25.0617 11.3252 24.8588 11.3252 24.8588C11.628 23.9976 12.5919 23.0998 12.5919 23.0998C14.9864 20.5235 21.3643 17.1511 21.3643 17.1511C26.5726 14.7279 28.1904 14.8301 28.6008 14.9431C28.643 14.9549 28.6796 14.9812 28.7042 15.0173C28.7288 15.0535 28.7398 15.0972 28.7352 15.1407C28.6859 15.6783 27.7352 16.6479 27.7352 16.6479C24.7677 19.6104 21.42 21.4173 21.42 21.4173C18.5993 23.1501 15.0655 24.4325 15.0655 24.4325C12.3766 25.4015 11.5164 25.0928 11.5164 25.0928H11.5163Z" fill="#6F7390"/>
<path d="M29.1029 25.284C29.7528 24.163 26.214 20.8988 21.2021 17.9931C16.1903 15.0874 11.5934 13.6426 10.944 14.7655C10.2947 15.8884 13.8329 19.1507 18.8477 22.0564C23.8624 24.9621 28.4535 26.407 29.1029 25.284ZM11.3747 15.1987C11.2787 14.9711 11.4813 14.9163 11.4813 14.9163C12.3785 14.7468 13.6388 15.1329 13.6388 15.1329C17.0674 15.9137 23.1812 19.7433 23.1812 19.7433C27.8883 23.0371 28.6102 24.4879 28.7184 24.8998C28.7294 24.942 28.7251 24.9868 28.7063 25.0262C28.6876 25.0656 28.6554 25.0971 28.6157 25.1151C28.1248 25.3398 26.8102 25.005 26.8102 25.005C22.7584 23.9186 19.5179 21.928 19.5179 21.928C16.6064 20.3577 13.7273 17.9414 13.7273 17.9414C11.5397 16.0995 11.3753 15.2012 11.3753 15.2012L11.3747 15.1987Z" fill="#6F7390"/>
<path d="M19.9982 21.2347C20.6801 21.2347 21.2328 20.682 21.2328 20.0002C21.2328 19.3184 20.6801 18.7656 19.9982 18.7656C19.3164 18.7656 18.7637 19.3184 18.7637 20.0002C18.7637 20.682 19.3164 21.2347 19.9982 21.2347Z" fill="#B7B9C8"/>
<path d="M25.0617 16C25.4572 16 25.7777 15.6684 25.7777 15.2593C25.7777 14.8502 25.4572 14.5186 25.0617 14.5186C24.6663 14.5186 24.3457 14.8502 24.3457 15.2593C24.3457 15.6684 24.6663 16 25.0617 16Z" fill="#B7B9C8"/>
<path d="M13.3079 18.5186C13.7034 18.5186 14.024 18.1869 14.024 17.7778C14.024 17.3687 13.7034 17.0371 13.3079 17.0371C12.9124 17.0371 12.5918 17.3687 12.5918 17.7778C12.5918 18.1869 12.9124 18.5186 13.3079 18.5186Z" fill="#B7B9C8"/>
<path d="M18.5423 27.6045C18.9377 27.6045 19.2584 27.2729 19.2584 26.8638C19.2584 26.4547 18.9377 26.123 18.5423 26.123C18.1468 26.123 17.8262 26.4547 17.8262 26.8638C17.8262 27.2729 18.1468 27.6045 18.5423 27.6045Z" fill="#B7B9C8"/>
</svg>
