<svg width="40" height="40" viewBox="0 0 40 40" fill="none" xmlns="http://www.w3.org/2000/svg">
<path d="M21.0148 0.998414L38.0153 8.55399C38.9182 8.95524 39.5 9.85055 39.5 10.8385V29.1615C39.5 30.1495 38.9182 31.0448 38.0153 31.446L21.0148 39.0016C20.3684 39.2889 19.6305 39.2889 18.9841 39.0016L1.98463 31.446C1.08182 31.0448 0.5 30.1495 0.5 29.1615V10.8385C0.5 9.85052 1.08182 8.95523 1.98463 8.55397L18.9841 0.998434C19.6305 0.711133 20.3684 0.711125 21.0148 0.998414Z" fill="#171C1F" stroke="#54ADFF"/>
<path d="M20 8C26.628 8 32 13.3731 32 20C32 26.628 26.628 32 20 32C13.3731 32 8 26.6275 8 20C8 13.3731 13.3731 8 20 8Z" fill="#F5AC37"/>
<path d="M20.4383 20.8415H24.9981C25.0953 20.8415 25.1412 20.8415 25.1482 20.7141C25.1855 20.2502 25.1855 19.7836 25.1482 19.3192C25.1482 19.2291 25.1034 19.1918 25.0057 19.1918H15.9309C15.8185 19.1918 15.7883 19.2291 15.7883 19.3344V20.6692C15.7883 20.8415 15.7883 20.8415 15.9681 20.8415H20.4383V20.8415ZM24.639 17.6317C24.652 17.5977 24.652 17.5604 24.639 17.527C24.5629 17.3612 24.4727 17.203 24.3679 17.0545C24.2102 16.8006 24.0245 16.5668 23.8128 16.3568C23.7129 16.2299 23.5973 16.1159 23.4677 16.0193C22.8186 15.4668 22.047 15.0759 21.2175 14.8793C20.799 14.7853 20.3713 14.7405 19.9426 14.7443H15.9152C15.8029 14.7443 15.7878 14.7891 15.7878 14.8869V17.5491C15.7878 17.6614 15.7878 17.6917 15.9303 17.6917H24.585C24.585 17.6917 24.6601 17.6765 24.6752 17.6317H24.6385H24.639ZM24.639 22.4016C24.5116 22.3875 24.383 22.3875 24.2556 22.4016H15.9384C15.8261 22.4016 15.7883 22.4016 15.7883 22.5517V25.1545C15.7883 25.2744 15.7883 25.3047 15.9384 25.3047H19.7784C19.962 25.3187 20.1456 25.3057 20.3254 25.2674C20.8827 25.2274 21.4308 25.1065 21.9535 24.9072C22.1436 24.8413 22.3272 24.7555 22.5006 24.6523H22.553C23.4531 24.1841 24.1843 23.4487 24.6455 22.5458C24.6455 22.5458 24.6979 22.4324 24.639 22.4027V22.4016ZM14.2811 26.6541V26.6093V24.8618V24.2695V22.5069C14.2811 22.4091 14.2811 22.3946 14.1613 22.3946H12.5337C12.4435 22.3946 12.4062 22.3946 12.4062 22.2747V20.8496H14.1461C14.2433 20.8496 14.2811 20.8496 14.2811 20.7222V19.3122C14.2811 19.222 14.2811 19.1999 14.1613 19.1999H12.5337C12.4435 19.1999 12.4062 19.1999 12.4062 19.08V17.7602C12.4062 17.6776 12.4063 17.6555 12.5261 17.6555H14.1386C14.2509 17.6555 14.2811 17.6555 14.2811 17.5129V13.4704C14.2811 13.3506 14.2811 13.3203 14.4313 13.3203H20.056C20.4642 13.3365 20.8698 13.3813 21.271 13.4553C22.0977 13.6081 22.8921 13.9035 23.6184 14.3253C24.1001 14.6088 24.5434 14.9511 24.9382 15.3453C25.2352 15.6537 25.503 15.9874 25.7406 16.3427C25.9766 16.7029 26.1726 17.0879 26.3265 17.4902C26.3454 17.595 26.4458 17.6657 26.5506 17.6479H27.8931C28.0653 17.6479 28.0653 17.6479 28.0729 17.8132V19.0433C28.0729 19.1632 28.0281 19.1934 27.9076 19.1934H26.8725C26.7677 19.1934 26.7375 19.1934 26.745 19.3284C26.7861 19.7853 26.7861 20.2437 26.745 20.7006C26.745 20.828 26.745 20.8431 26.8881 20.8431H28.0723C28.1247 20.9106 28.0723 20.9781 28.0723 21.0462C28.0799 21.1331 28.0799 21.2211 28.0723 21.3081V22.2158C28.0723 22.3433 28.0351 22.3811 27.9222 22.3811H26.5047C26.4059 22.3622 26.3098 22.4253 26.2871 22.5236C25.9496 23.4011 25.4096 24.1879 24.7119 24.8186C24.457 25.0481 24.1892 25.2642 23.9094 25.4634C23.6092 25.6362 23.3171 25.816 23.0093 25.9586C22.4428 26.2135 21.8488 26.4014 21.2391 26.5207C20.6602 26.6244 20.0732 26.6714 19.4841 26.6633H14.279V26.6557L14.2811 26.6541Z" fill="#FEFEFD"/>
</svg>
