<svg width="40" height="40" viewBox="0 0 40 40" fill="none" xmlns="http://www.w3.org/2000/svg">
<path d="M21.0148 0.998414L38.0153 8.55399C38.9182 8.95524 39.5 9.85055 39.5 10.8385V29.1615C39.5 30.1495 38.9182 31.0448 38.0153 31.446L21.0148 39.0016C20.3684 39.2889 19.6305 39.2889 18.9841 39.0016L1.98463 31.446C1.08182 31.0448 0.5 30.1495 0.5 29.1615V10.8385C0.5 9.85052 1.08182 8.95523 1.98463 8.55397L18.9841 0.998434C19.6305 0.711133 20.3684 0.711125 21.0148 0.998414Z" fill="#171C1F" stroke="#54ADFF"/>
<path d="M20 32C26.6274 32 32 26.6274 32 20C32 13.3726 26.6274 8 20 8C13.3726 8 8 13.3726 8 20C8 26.6274 13.3726 32 20 32Z" fill="#008CE7"/>
<path d="M22.3135 14.0039H16.8565L16.405 16.5292L21.3265 16.5367C23.7498 16.5367 24.469 17.4164 24.4458 18.8767C24.4353 19.6252 24.109 20.8912 23.971 21.2992C23.5983 22.3942 22.8303 23.6407 19.9518 23.6369L15.1683 23.6339L14.7168 26.1622H20.1595C22.0788 26.1622 22.8963 25.9379 23.7595 25.5397C25.675 24.6562 26.8158 22.7639 27.274 20.2942C27.9535 16.6192 27.106 14.0039 22.3128 14.0039H22.3135Z" fill="white"/>
<path d="M19.8542 19.8495C20.032 19.1107 20.0882 18.8145 20.0882 18.8145H14.5037C13.0757 18.8145 12.8717 19.7445 12.736 20.307C12.5582 21.0427 12.502 21.3427 12.502 21.3427H18.0872C19.5145 21.3427 19.7185 20.4127 19.8542 19.8495V19.8495Z" fill="white"/>
</svg>
