<svg width="40" height="40" viewBox="0 0 40 40" fill="none" xmlns="http://www.w3.org/2000/svg">
<path d="M21.0148 0.998414L38.0153 8.55399C38.9182 8.95524 39.5 9.85055 39.5 10.8385V29.1615C39.5 30.1495 38.9182 31.0448 38.0153 31.446L21.0148 39.0016C20.3684 39.2889 19.6305 39.2889 18.9841 39.0016L1.98463 31.446C1.08182 31.0448 0.5 30.1495 0.5 29.1615V10.8385C0.5 9.85052 1.08182 8.95523 1.98463 8.55397L18.9841 0.998434C19.6305 0.711133 20.3684 0.711125 21.0148 0.998414Z" fill="#171C1F" stroke="#54ADFF"/>
<path d="M20 32C26.6274 32 32 26.6274 32 20C32 13.3726 26.6274 8 20 8C13.3726 8 8 13.3726 8 20C8 26.6274 13.3726 32 20 32Z" fill="#988430"/>
<path d="M20.0004 31.615C26.4155 31.615 31.616 26.4145 31.616 19.9994C31.616 13.5843 26.4155 8.38379 20.0004 8.38379C13.5853 8.38379 8.38477 13.5843 8.38477 19.9994C8.38477 26.4145 13.5853 31.615 20.0004 31.615Z" fill="#7A6A2A"/>
<path d="M19.9998 31.3716C26.2798 31.3716 31.3707 26.2807 31.3707 20.0008C31.3707 13.7208 26.2798 8.62988 19.9998 8.62988C13.7198 8.62988 8.62891 13.7208 8.62891 20.0008C8.62891 26.2807 13.7198 31.3716 19.9998 31.3716Z" fill="#BA9F33"/>
<path fill-rule="evenodd" clip-rule="evenodd" d="M13.2468 18.7185C13.1789 18.6564 13.1071 18.5942 13.041 18.5321C12.975 18.47 12.9071 18.4078 12.8391 18.3457L12.6372 18.1537C12.6041 18.1207 12.5692 18.0917 12.5362 18.0585C12.5031 18.0294 12.4644 17.9964 12.4313 17.9672C12.1633 17.7129 11.8937 17.4586 11.6294 17.2041C11.9032 17.4546 12.1712 17.7033 12.445 17.9575L12.5401 18.0527C12.5732 18.0856 12.6081 18.1148 12.6411 18.1478L12.843 18.3342C12.911 18.3963 12.977 18.4585 13.045 18.5262C13.1129 18.5939 13.179 18.6563 13.247 18.7182L13.2468 18.7185ZM9.68958 18.6801C9.68958 18.6801 10.6643 18.7809 11.1401 18.8489C11.5808 18.9111 12.9595 19.1227 12.9595 19.1227L9.68958 18.6801ZM9.68958 18.6801C9.96337 18.7034 10.2372 18.7324 10.511 18.7616C10.6507 18.7752 10.7847 18.7907 10.9188 18.8042L11.1245 18.8277C11.1924 18.8373 11.2585 18.847 11.3264 18.8567L12.1421 18.9868L12.5497 19.0547C12.6838 19.078 12.8178 19.1034 12.9575 19.1267C12.8235 19.1131 12.6838 19.0936 12.5497 19.0742L12.1421 19.0159L11.3264 18.8956C11.2585 18.8859 11.1924 18.8722 11.1245 18.8626L10.9186 18.8389C10.7846 18.8253 10.6448 18.8059 10.5108 18.7903C10.237 18.7574 9.96325 18.7223 9.68945 18.6797L9.68958 18.6801ZM12.8624 19.3766C12.8624 19.3766 11.8217 19.6408 11.4702 19.7418C11.1246 19.8369 10.0779 20.1554 10.0779 20.1554L12.8623 19.3768L12.8624 19.3766Z" fill="#CFB66C"/>
<path fill-rule="evenodd" clip-rule="evenodd" d="M12.8625 19.376C12.6315 19.4439 12.4017 19.51 12.1673 19.5722L11.4722 19.7586C11.2411 19.8265 11.0114 19.8926 10.781 19.9606L10.4354 20.0557C10.3208 20.0887 10.2043 20.1177 10.0859 20.1509C10.2004 20.1125 10.317 20.0732 10.4315 20.0402L10.7771 19.9296C11.0082 19.8576 11.2379 19.7897 11.4683 19.7179C11.7032 19.6596 11.9344 19.5974 12.1693 19.5411C12.3925 19.4848 12.6275 19.4286 12.8625 19.3761V19.376ZM10.2238 20.7955C10.3382 20.7527 11.6587 20.1373 11.9655 19.9936C12.1191 19.9216 12.5656 19.7632 12.5656 19.7632L10.2238 20.7955Z" fill="#CFB66C"/>
<path fill-rule="evenodd" clip-rule="evenodd" d="M10.2228 20.7957C10.3236 20.7573 10.4189 20.7104 10.5159 20.6657L10.8033 20.5317L11.38 20.254C11.572 20.1628 11.7587 20.062 11.9567 19.9763C12.0577 19.9336 12.1587 19.8987 12.2595 19.8657L12.4131 19.8172C12.4655 19.8036 12.5141 19.788 12.5667 19.7744C12.3747 19.8657 12.1726 19.9434 11.9804 20.0326C11.7884 20.1278 11.592 20.2055 11.3939 20.2909L10.8075 20.5491C10.6106 20.6288 10.4186 20.7142 10.2227 20.7957H10.2228ZM10.3508 21.3333C10.3508 21.3333 11.5468 20.6324 11.9585 20.4071C12.174 20.2868 12.8711 19.9411 12.8711 19.9411L10.3508 21.3333Z" fill="#CFB66C"/>
<path fill-rule="evenodd" clip-rule="evenodd" d="M10.3516 21.3346C10.5534 21.2103 10.7592 21.0841 10.9651 20.9559L11.2723 20.7695C11.3771 20.7074 11.4781 20.6491 11.585 20.5871C11.6898 20.5248 11.7908 20.4628 11.8975 20.4045C11.9484 20.3731 12.0016 20.3459 12.0568 20.323L12.2199 20.2415C12.4354 20.1366 12.651 20.0297 12.8782 19.9385C12.6723 20.0687 12.4606 20.1794 12.249 20.2938C12.1442 20.352 12.0373 20.4045 11.9325 20.4628C11.8277 20.521 11.7267 20.5832 11.6198 20.6395C11.515 20.7016 11.414 20.7599 11.3072 20.8162L10.9907 20.989L10.3518 21.3346H10.3516ZM12.8622 20.0957C12.8622 20.0957 12.1185 20.6665 11.8777 20.8491C11.6369 21.0316 10.9282 21.5442 10.9282 21.5442L12.8622 20.0957V20.0957Z" fill="#CFB66C"/>
<path fill-rule="evenodd" clip-rule="evenodd" d="M17.1286 24.6988L16.748 23.9784L16.9694 23.0774L18.548 22.4677L17.8761 21.0892L18.2081 19.6969L18.8315 18.4502L20.7578 18.1474L22.1732 16.7979L25.2296 17.0289L25.8295 20.2969L24.6742 24.4114L24.016 26.5416L21.348 26.6426L20.1092 25.7843L18.6587 25.1784L17.1286 24.6988Z" fill="#E2CC85"/>
<path fill-rule="evenodd" clip-rule="evenodd" d="M21.81 24.676C21.81 24.676 21.441 24.8449 20.8116 24.806C20.6295 24.5614 19.3538 24.4469 19.3538 24.4469C19.3538 24.4469 19.1946 24.3983 18.913 24.5148C18.6296 24.63 18.3616 24.6158 18.1111 24.6779C17.8606 24.74 17.6119 24.4138 17.4199 24.3459C17.2279 24.2741 16.9733 24.1013 16.9733 24.1013L16.4357 24.0488L15.3561 23.5925L13.641 21.8838L13.175 22.6134L13.0312 23.5163L13.5498 24.5863L14.9459 25.8581L17.6682 26.5493L19.2817 26.0739L21.3031 25.2195L21.81 24.6759V24.676Z" fill="#F1D789"/>
<path fill-rule="evenodd" clip-rule="evenodd" d="M12.1391 18.6368L12.4847 17.5903L12.8965 16.9144L14.2226 16.8037L13.8245 17.9649L12.7159 19.9378L13.1761 21.6989L12.3606 22.1066L12.11 21.7222L11.9081 20.8407L11.8945 19.8504L12.1391 18.6368Z" fill="#F4ECB4"/>
<path fill-rule="evenodd" clip-rule="evenodd" d="M13.6251 24.604L13.3708 24.2487C13.3708 24.2487 13.3028 24.0797 13.3417 23.9321C13.3801 23.7826 13.3746 23.7729 13.3553 23.7166C13.336 23.6602 13.1728 23.4661 13.1825 23.299C13.1921 23.1301 13.1689 23.0738 13.2931 22.9399C13.4231 22.8098 13.3844 22.5845 13.3844 22.5845L13.5533 22.6894L13.5917 22.6311C13.5917 22.6311 13.6538 22.6796 13.6538 22.7554C13.6674 22.6506 13.611 22.1651 13.7392 22.0545C13.8673 21.9439 14.0945 22.5729 14.0945 22.5729L13.9547 21.6602L13.5954 20.7244L12.9566 19.87L12.9182 18.9282V18.8467C12.9182 18.8467 12.6249 19.2972 12.5434 19.6531C12.4852 19.8977 12.6249 20.1948 12.5959 20.5463C12.5725 20.8958 12.5434 20.8686 12.6288 21.0071C12.7142 21.1456 12.922 21.4304 12.8405 21.6362C12.7687 21.813 12.5239 21.6887 12.5239 21.6887C12.5239 21.6887 12.4754 21.8323 12.4094 21.8848C12.3861 21.7994 12.3609 21.745 12.3143 21.6928C12.3103 21.7258 12.3007 21.7705 12.3007 21.7705C12.3007 21.7705 12.258 21.6364 12.2152 21.4675C12.1571 21.2423 12.0949 20.9452 12.0386 20.786C12.0153 20.8773 11.957 21.1549 11.957 21.1549L11.9901 21.5822L12.1493 22.1685L12.3029 22.5525L12.4524 23.0224L12.5823 23.3381L12.6871 23.5788L12.7784 24.1207L13.2191 24.5866L13.4541 24.6915L13.6249 24.6041L13.6251 24.604Z" fill="#F3E19D"/>
<path fill-rule="evenodd" clip-rule="evenodd" d="M12.3683 17.7818C12.3683 17.7818 12.0517 18.3194 11.9606 18.8614C11.8695 19.4033 11.7878 19.976 11.8454 20.7138C11.9036 21.4576 12.0144 21.9138 12.1037 22.24C12.2573 22.7819 12.6551 23.5353 12.6551 23.5353L12.6687 23.5061C12.6018 23.3793 12.5485 23.2459 12.5095 23.108C12.457 22.9022 12.4375 22.6576 12.389 22.5469C12.3463 22.4363 12.2745 22.341 12.2395 22.2051C12.2065 22.075 12.2011 21.8692 12.0997 21.7159C12.057 21.6537 12.0045 21.4906 11.989 21.3275C11.9696 21.0828 11.9987 20.809 11.9754 20.5838C11.9327 20.2091 11.9036 19.9547 11.9424 19.7585C11.9812 19.5623 12.1833 19.0052 12.3076 18.5625C12.3891 18.279 12.3405 18.0401 12.49 17.7935C12.6395 17.5488 12.7309 17.3333 12.7638 17.1838C12.8022 17.0479 12.3678 17.7818 12.3678 17.7818H12.3683Z" fill="#F2E8B0"/>
<path fill-rule="evenodd" clip-rule="evenodd" d="M13.8705 17.5664C13.8705 17.5664 13.7074 17.615 13.6297 17.7004C13.552 17.782 13.519 17.8499 13.4141 17.9878C13.3093 18.1256 13.3034 18.2383 13.2179 18.4111C13.1325 18.58 12.9441 18.8344 12.9208 18.9256C12.8975 19.0169 12.8587 19.444 12.8102 19.646C12.7675 19.848 12.8587 20.0966 12.8587 20.0966L12.9693 20.0732C12.9693 20.0732 12.9693 20.2169 13.0801 20.3141C13.1906 20.4092 13.2101 19.9916 13.2101 19.9916L13.6237 18.5955L14.2469 18.1722L14.3149 17.8305L13.8702 17.5664H13.8705Z" fill="#F5EEC0"/>
<path fill-rule="evenodd" clip-rule="evenodd" d="M14.1717 18.2005C14.1717 18.2005 13.8784 18.2198 13.7348 18.3248C13.6766 18.3674 13.6533 18.4024 13.5912 18.4548C13.4766 18.5499 13.36 18.6374 13.3038 18.762C13.2416 18.8862 13.1737 19.0746 13.1271 19.4299C13.1076 19.5794 13.1076 19.7173 13.094 19.8377C13.0746 20.0008 13.0455 20.1309 13.061 20.2217C13.0805 20.4081 13.2727 20.5053 13.2914 20.7169L13.6895 20.515L14.0643 19.0372L14.8604 18.538L14.4099 18.0332L14.1712 18.1996L14.1717 18.2005Z" fill="#E6DB9D"/>
<path fill-rule="evenodd" clip-rule="evenodd" d="M12.0724 28.1506C12.0741 28.1361 12.0757 28.1215 12.0774 28.1065C12.1355 27.6073 12.1454 27.2289 12.188 26.992C12.2501 26.6561 12.2928 26.5312 12.2831 26.4055C12.2695 26.2036 12.254 26.0561 12.2735 25.9007C12.3025 25.6948 12.5045 25.4502 12.4988 25.2813C12.4948 25.1473 12.4268 25.06 12.3686 24.9784C12.3103 24.8969 12.2638 24.8289 12.2638 24.8289C12.2638 24.8289 12.6618 24.5551 12.658 23.4521C12.6661 23.4544 12.6739 23.4577 12.6813 23.4619L12.8774 24.0191L13.0114 24.1821L13.526 25.1414L14.1881 25.7842L15.1667 26.4424L15.7803 27.1101L15.8424 28.8907L15.0405 29.9315L14.9091 30.1693C13.8658 29.6455 12.909 28.9647 12.0723 28.1505L12.0724 28.1506Z" fill="#E5CB7A"/>
<path fill-rule="evenodd" clip-rule="evenodd" d="M14.5215 29.8545C14.5215 29.8545 14.5351 29.6332 14.7176 29.4895C14.7468 29.538 14.7661 29.5847 14.7603 29.6195C14.7934 29.5614 15.0244 29.1886 15.5468 29.0914C16.0691 28.9963 16.1953 28.6158 16.1953 28.6158L17.3039 27.608L18.5719 26.441L20.1137 25.8992L20.8342 25.7224C20.8342 25.7224 20.8478 25.7749 20.8206 25.8914C20.9545 25.8818 21.2516 25.8138 21.5603 25.705C21.6846 25.6565 21.8012 25.6371 21.8633 25.7012C21.9546 25.7866 21.9681 25.9886 21.9739 26.1089C22.1234 26.0758 22.2962 25.9322 22.4347 25.9458C22.6561 25.9691 22.8522 26.2293 23.0775 26.2293C23.3746 26.2293 23.5085 26.0468 23.7164 25.903C23.8407 25.8177 24.0192 25.711 24.1202 25.639C24.361 25.4622 26.9086 24.6836 26.9086 24.6836L27.8017 24.7418L27.9455 25.7011L27.8687 28.2086C27.8592 28.2177 27.8497 28.2271 27.8401 28.2362L23.779 30.3573L18.1495 31.2203C16.8885 31.0143 15.6716 30.5957 14.5507 29.9824L14.5219 29.8544L14.5215 29.8545Z" fill="#D8C173"/>
<path fill-rule="evenodd" clip-rule="evenodd" d="M12.4141 28.4696C12.4941 28.3023 12.566 28.1624 12.5787 28.1123C12.5887 28.2132 12.607 28.4345 12.6438 28.6697C12.5664 28.604 12.4898 28.5372 12.4141 28.4694V28.4696Z" fill="#F1D789"/>
<path fill-rule="evenodd" clip-rule="evenodd" d="M16.5263 30.8303L17.2544 30.6278L17.3164 30.6472C17.3164 30.6472 17.3495 30.6667 17.3495 30.7326C17.4407 30.6803 17.5184 30.6899 17.5747 30.655C17.6038 30.7171 17.6328 30.923 17.7611 30.9482C17.895 30.9774 18.0387 30.8899 18.1844 30.7793C18.328 30.6648 18.4916 30.521 18.6154 30.4628C18.6608 30.5463 18.701 30.6325 18.7358 30.721C18.8989 30.5909 19.1824 30.0628 19.5863 30.0724C19.703 29.7966 19.898 29.561 20.1472 29.3948C20.5219 29.1404 20.7568 29.121 21.0501 29.1443C21.1665 28.993 21.3101 28.8646 21.4734 28.7656C21.5219 28.7851 21.6559 28.8666 21.8229 28.7889C21.9919 28.7114 22.1821 28.4103 22.4326 28.3715C22.5676 28.353 22.7048 28.3818 22.8209 28.4531C22.8209 28.4531 23.5505 27.7287 24.054 27.4879C24.0345 27.4297 23.9957 27.2103 24.5859 26.7248C24.619 26.754 24.5957 26.8355 24.619 26.84C24.6286 26.84 24.7726 26.7779 24.9548 26.638C25.1801 26.4692 25.4499 26.2924 25.613 26.2439C25.9202 26.1526 26.2461 26.339 26.2461 26.339C26.2738 26.3196 26.3047 26.3051 26.3374 26.2963C26.4149 26.2827 26.4712 26.273 26.514 26.2579C26.5102 26.3589 26.5665 26.5317 26.514 26.6812C26.5748 26.7153 26.6392 26.7427 26.706 26.7627C26.6731 26.8345 26.6012 27.017 26.4808 27.1045C26.5817 27.153 26.5953 27.2093 26.739 27.2581C26.6808 27.3396 26.5854 27.4795 26.5429 27.5653C26.5002 27.6565 26.3467 28.0351 26.2787 28.1788C26.2069 28.3225 26.1099 28.5866 26.0632 28.6396C26.0165 28.6926 25.8476 28.9172 25.7176 29.0278C25.8328 28.985 26.3041 28.8414 26.504 28.787C26.4445 28.8743 26.1428 29.3219 25.8528 29.7524C24.464 30.5848 22.9138 31.1116 21.3055 31.2978C19.6971 31.484 18.0676 31.3253 16.5254 30.8322L16.5263 30.8303Z" fill="#E0CD81"/>
<path fill-rule="evenodd" clip-rule="evenodd" d="M14.2211 18.1472C14.2211 18.1472 14.0523 18.1472 14.0192 18.1705C13.9862 18.1938 14.1882 18.2424 14.2503 18.2657C14.3124 18.289 14.4464 18.3957 14.4813 18.4812C14.5144 18.5628 15.6949 19.0384 15.6949 19.0384L16.5298 18.9957L16.8177 18.598L16.2701 18.1184L16.6541 16.9863L16.1455 17.0679L14.9222 17.7975L14.3085 18.0325L14.2211 18.1472Z" fill="#DFC57C"/>
<path fill-rule="evenodd" clip-rule="evenodd" d="M16.0553 18.5223C16.0674 18.5418 16.0844 18.5579 16.1046 18.5688C16.1248 18.5797 16.1475 18.5851 16.1705 18.5844C16.3433 18.5844 16.5024 18.6271 16.5684 18.7144C16.6792 18.8543 16.986 19.3009 16.986 19.3009L17.7199 19.565L17.7673 18.7007L16.9654 18.1436L16.0527 18.4794V18.5222H16.0548L16.0553 18.5223Z" fill="#E5CC7C"/>
<path fill-rule="evenodd" clip-rule="evenodd" d="M15.9106 18.8428C15.9106 18.8428 16.0445 18.8525 16.2135 18.7903C16.3824 18.7281 16.66 18.5942 16.7805 18.6467C16.9493 18.7185 16.9144 18.9438 17.097 19.1459C17.2076 19.2702 17.4096 19.2663 17.5242 19.4004C17.6387 19.5344 18.0328 19.4722 18.0328 19.4722L18.1823 20.2786L17.5824 21.0476L17.3862 22.0029H16.5749L15.8338 21.7088L15.4688 20.8256L15.6513 19.9325L15.9106 18.8428Z" fill="#D2C281"/>
<path fill-rule="evenodd" clip-rule="evenodd" d="M17.4802 18.8812C17.5004 18.8874 17.5213 18.8907 17.5423 18.8909C17.519 18.9104 17.4704 18.953 17.4898 19.0637C17.5093 19.1744 17.5714 19.3142 17.519 19.3996C17.5608 19.4453 17.592 19.4997 17.6103 19.5588C17.6433 19.654 17.653 19.7413 17.8685 19.755C17.8374 19.7742 17.8087 19.797 17.7831 19.823C17.7831 19.823 17.9326 19.9531 18.0084 20.0734C18.0859 20.07 18.2918 20.006 18.2918 20.006L18.3345 20.0352L18.4258 19.9968C18.4258 19.9968 18.3404 19.9638 18.4025 19.7561C18.4607 19.5735 18.5132 19.5833 18.5177 19.5697C18.5222 19.5561 18.5604 19.3639 18.5604 19.2862C18.5895 19.1853 18.6128 18.8785 18.6128 18.8785L18.5507 18.2009L18.2013 17.9891L17.9171 17.7148L17.6491 18.2197L17.4726 18.3957L17.459 18.8325L17.4802 18.8812Z" fill="#E2C270"/>
<path fill-rule="evenodd" clip-rule="evenodd" d="M18.3203 18.3149C18.3203 18.3149 18.3824 18.4915 18.4058 18.6275C18.4141 18.6011 18.4186 18.5736 18.4194 18.5459C18.4194 18.5459 18.4679 18.814 18.4775 18.9247C18.497 18.9207 18.5159 18.915 18.5202 18.9343C18.5246 18.9536 18.5689 19.1693 18.5586 19.2896C18.6395 19.1562 18.7514 19.0443 18.8848 18.9635C18.9625 18.9148 19.0538 18.8625 19.149 18.8585C19.2985 18.8547 19.4072 18.9538 19.5858 18.9538C20.0168 18.9538 20.4072 18.6372 20.6946 18.5402C20.9062 18.4682 21.0887 18.4159 21.2168 18.2993C21.279 18.2469 21.3898 18.1305 21.4906 17.9575C21.6246 17.7271 21.7644 17.5266 21.9043 17.5013C21.841 17.513 21.7766 17.5175 21.7123 17.5149C21.7123 17.5149 21.7551 17.4722 21.8275 17.4139C21.9 17.3557 21.9867 17.2839 22.1109 17.2839C22.3323 17.2839 22.4429 17.3168 22.5672 17.3168C22.6915 17.3129 22.7633 17.2839 22.7633 17.2839C22.7633 17.2839 22.8935 17.3751 23.1866 17.3751C23.4799 17.379 23.676 17.4042 23.8294 17.4179C23.9829 17.4316 24.4973 17.3751 24.6449 17.3795C24.7411 17.3832 24.8356 17.4063 24.9227 17.4474L24.4469 16.065L22.7378 14.5713L21.7204 15.2917L20.1552 16.8567L18.6407 17.4179L18.3242 17.7732V18.3149H18.3203Z" fill="#CCB360"/>
<path fill-rule="evenodd" clip-rule="evenodd" d="M21.719 17.5219C21.719 17.5219 21.7617 17.4793 21.8334 17.4211C21.9051 17.3628 21.9928 17.2909 22.1169 17.2909C22.3383 17.2909 22.449 17.3239 22.5733 17.3239C22.6976 17.3201 22.7694 17.2909 22.7694 17.2909C22.7694 17.2909 22.8997 17.382 23.1927 17.382C23.4859 17.3859 23.682 17.4111 23.8355 17.4247C23.9889 17.4382 24.5034 17.382 24.651 17.3863C24.7472 17.3899 24.8416 17.413 24.9286 17.4542L24.713 16.8309L24.4627 16.3552L23.7481 15.5726C23.7481 15.5726 22.8905 15.0678 22.8839 15.064C22.8801 15.0601 22.5868 14.9824 22.5868 14.9824L21.8101 15.4523L21.1054 17.2757L21.0918 17.6597L21.548 17.8752C21.6625 17.6832 21.7889 17.5296 21.9073 17.5102C21.8004 17.5218 21.7189 17.5218 21.7189 17.5218L21.719 17.5219Z" fill="#D5B457"/>
<path fill-rule="evenodd" clip-rule="evenodd" d="M21.7075 17.6528C21.6395 17.6566 21.5833 17.643 21.5677 17.5945C21.5095 17.4315 21.4629 17.4082 21.4141 17.4082C21.3654 17.4082 21.2996 17.513 21.2605 17.5226C21.2215 17.5322 21.1751 17.4023 21.1751 17.4023L21.1324 17.3828C21.1324 17.3828 20.8819 17.5459 20.7053 17.7381C20.5286 17.9304 20.2392 18.2567 20.1092 18.3148C19.9791 18.3729 19.5324 18.3925 19.3796 18.4255C19.2267 18.4585 19.0573 18.5692 19.034 18.5945C19.0107 18.6197 19.1021 18.6468 19.1156 18.672C19.1292 18.6953 18.966 18.6856 18.9524 18.7104C18.9428 18.7299 18.9908 18.8405 19.0146 18.8968C19.0563 18.8761 19.102 18.8648 19.1485 18.8638C19.298 18.8599 19.4068 18.959 19.5854 18.959C20.0165 18.959 20.4068 18.6425 20.6941 18.5453C20.9058 18.4735 21.0884 18.421 21.2165 18.3045C21.2786 18.2522 21.3893 18.1356 21.4903 17.9628C21.564 17.8444 21.6359 17.7337 21.7079 17.6521L21.7075 17.6528Z" fill="#D2B257"/>
<path fill-rule="evenodd" clip-rule="evenodd" d="M15.5275 27.2618C15.5275 27.2618 15.4891 27.118 15.1333 26.7472C15.0323 26.6424 14.9702 26.5552 14.9022 26.4929C14.7333 26.3335 14.6342 26.2909 14.5139 26.1996C14.2498 26.0035 13.9624 26.0035 13.7411 25.7628C13.5198 25.522 13.2619 25.062 13.0827 24.5918C12.9061 24.1219 12.8574 23.9724 12.8574 23.9588C12.8574 23.9453 12.9061 23.854 12.9681 23.8676C13.0302 23.8812 13.0302 24.0015 13.0458 24.0307C13.0768 24.0783 13.1118 24.1231 13.1507 24.1645C13.2419 24.2695 13.372 24.3949 13.438 24.5821C13.4245 24.4228 13.3701 24.2462 13.3701 24.2462C13.3701 24.2462 13.7118 24.4618 14.003 24.6869C14.2963 24.9122 14.4166 24.9899 14.5022 25.1335C14.5879 25.2771 14.7896 25.6559 14.8862 25.7666C14.9829 25.8773 16.307 26.2947 16.307 26.2947L16.9369 26.7644L17.2496 27.4498L17.0049 27.8338L16.535 27.9348L15.7719 27.593L15.5275 27.2616V27.2618Z" fill="#D2B159"/>
<path fill-rule="evenodd" clip-rule="evenodd" d="M13.8301 24.9007C13.8301 24.9007 13.9893 25.155 14.3777 25.3958C14.7272 25.6075 15.2806 25.7997 15.7739 25.9143C16.0573 25.9823 16.3408 26.0346 16.5951 26.0386C17.2806 26.0482 17.7524 25.8522 18.337 25.7881C18.6535 25.7551 19.0419 25.7298 19.4457 25.6345C19.9641 25.5102 20.2709 25.3703 20.6884 25.1737C20.9913 25.0339 21.2691 24.9291 21.4942 24.7951C21.8108 24.6087 22.0418 24.4009 22.3098 24.3389C22.2768 24.4301 22.2419 24.5932 21.9778 24.7622C22.1176 24.7582 22.3098 24.7486 22.3098 24.7486C22.3098 24.7486 22.1235 24.8592 21.7953 25.1078C21.5933 25.2614 21.3254 25.5213 21.0516 25.6941C20.8748 25.8049 20.6826 25.8861 20.5563 25.9524C20.2491 26.1214 20.1252 26.2068 19.9234 26.4132C19.9952 26.4094 20.0011 26.4132 20.0011 26.4132C20.0011 26.4132 19.7466 26.4463 19.5642 26.5433C19.5258 26.5433 19.4593 26.5297 19.3428 26.5627C19.2515 26.5918 19.1311 26.658 19.0069 26.6928C18.8301 26.7453 18.772 26.722 18.772 26.722L18.8011 26.7802C18.8011 26.7802 18.5707 26.7762 18.4939 26.7841C18.5075 26.7879 18.5036 26.7938 18.5036 26.7938C18.4901 26.796 18.4771 26.8006 18.4652 26.8073C18.4283 26.8313 18.3876 26.849 18.3449 26.8597C18.3216 26.8635 18.3021 26.8635 18.273 26.8694C18.2827 26.8927 18.3585 27.023 18.3934 27.0998C18.3643 27.1193 17.9274 27.4494 17.9274 27.4494C17.9409 27.4707 17.952 27.4935 17.9604 27.5174C17.9739 27.56 17.9798 27.6222 17.9934 27.6513C18.0263 27.7095 18.0458 27.7192 18.0458 27.7192C18.0458 27.7192 17.9934 27.7289 17.902 27.7522C17.8244 27.7717 17.7292 27.8046 17.5948 27.8241C17.5536 27.8294 17.5121 27.8327 17.4705 27.8338C17.49 27.8765 17.5754 28.0396 17.418 28.2279C17.2607 28.4162 17.2122 28.4436 17.1637 28.5639C17.1393 28.5454 17.1133 28.5292 17.086 28.5153C17.0337 28.492 16.9617 28.4571 16.9365 28.4104C16.9218 28.4727 16.9023 28.5337 16.8783 28.5929C16.8298 28.723 16.7579 28.8513 16.7444 28.9483C16.6919 28.89 16.5949 28.7755 16.4609 28.7988C16.3268 28.8221 16.2201 29.0046 16.1968 29.0571C16.1968 29.0241 16.1735 28.9988 16.1677 29.0376C16.1638 29.0804 16.09 29.5268 15.6784 29.8881C15.6746 29.7968 15.6746 29.5948 15.6648 29.5289C15.6264 29.5673 15.5795 29.624 15.2998 29.7444C15.026 29.8648 15.0694 29.9852 15.0694 29.9852C15.0694 29.9852 15.0461 29.7932 15.1937 29.591C15.3432 29.3891 15.4344 29.2939 15.4344 29.2784C15.432 29.2626 15.4253 29.2478 15.415 29.2356C15.3955 29.2162 15.3567 29.1929 15.3567 29.1774C15.38 29.1678 15.6111 29.0571 15.5975 28.8278C15.5839 28.6221 15.4966 28.5153 15.4344 28.4396C15.4248 28.4299 15.5258 28.3581 15.5121 28.3348C15.5024 28.3212 15.3782 28.2298 15.3626 28.1812C15.3663 28.1521 15.3728 28.1235 15.3821 28.0958C15.3956 28.053 15.4054 28.0239 15.4015 27.9948C15.3918 27.9463 15.3393 27.8123 15.3238 27.7987C15.3374 27.8025 15.4344 27.7987 15.4344 27.7987C15.4344 27.7987 15.3569 27.6744 15.3432 27.6162C15.3295 27.5579 15.3004 27.4045 15.2849 27.3754C15.318 27.3793 15.3995 27.385 15.3995 27.3754C15.4035 27.3462 15.3277 27.2977 15.3611 27.2602C15.3844 27.2641 15.4291 27.2835 15.4717 27.3379C15.4484 27.2757 15.4096 27.1554 15.3279 27.1069C15.3663 27.0933 15.4969 27.0582 15.6115 27.1262C15.726 27.1942 15.7651 27.2893 15.7651 27.2893C15.7651 27.2893 15.833 27.3417 15.938 27.4194C16.0583 27.5145 16.2116 27.6498 16.4564 27.7456C16.5089 27.7748 16.6428 27.7748 16.7399 27.7553C16.7822 27.7452 16.8228 27.7289 16.8602 27.7068C16.8737 27.6988 16.8881 27.6923 16.903 27.6873C16.8821 27.6454 16.8581 27.6052 16.8312 27.5669C16.8642 27.5669 16.903 27.5709 16.903 27.5709C16.903 27.5709 16.9263 27.5184 16.8214 27.4173C16.8447 27.394 16.8739 27.3789 16.8739 27.3396C16.8409 27.3357 16.7827 27.2872 16.7691 27.2678C16.7884 27.2542 16.8176 27.2095 16.8506 27.196C16.8214 27.1727 16.7496 27.0755 16.7166 27.0659C16.7482 27.0542 16.7787 27.0399 16.8079 27.0232C16.8079 27.0232 16.6448 26.9804 16.5923 26.9455C16.5398 26.9071 16.4623 26.8406 16.4157 26.8212C16.367 26.8017 16.2817 26.7921 16.2467 26.7532C16.2796 26.7629 16.3321 26.7532 16.371 26.7532C16.4001 26.7532 16.4138 26.757 16.4234 26.757C16.4195 26.7435 16.4195 26.7143 16.4953 26.7047C16.5317 26.6992 16.5671 26.6881 16.6001 26.6717C16.6001 26.6717 16.5282 26.6678 16.4465 26.5901C16.3649 26.5124 16.297 26.4504 16.2504 26.4406C16.2019 26.4309 16.1107 26.4737 16.0543 26.4697C15.9766 26.4601 15.9436 26.4212 15.9436 26.4212C15.9436 26.4212 15.6854 26.4445 15.1126 26.095C14.6174 25.7921 14.4019 25.5241 14.4019 25.5241C14.3555 25.5073 14.3107 25.4865 14.268 25.4619C14.0816 25.3649 13.8233 25.1629 13.8311 24.8987L13.8301 24.9007Z" fill="#C2A44D"/>
<path fill-rule="evenodd" clip-rule="evenodd" d="M20.9743 13.2467C21.0192 13.2613 21.0591 13.2882 21.0895 13.3244C21.1807 13.4292 21.239 13.6273 21.0312 13.839C21.1127 13.868 21.1464 13.8774 21.2176 13.868C21.1458 13.9535 20.9827 14.1361 20.973 14.2953C20.9632 14.4253 21.0448 14.4643 21.0448 14.4643C21.0448 14.4643 20.9205 14.6079 20.9147 14.8483C20.9734 14.7821 21.0377 14.721 21.1067 14.6657C21.2505 14.5512 21.4485 14.4211 21.5825 14.3396C21.5807 14.3738 21.5853 14.408 21.5961 14.4404C21.5961 14.4404 21.8464 14.2346 22.0569 14.326C22.152 14.3688 22.1092 14.5027 22.1092 14.5027C22.1092 14.5027 22.2394 14.4541 22.3307 14.5454C22.4219 14.6367 22.551 14.8721 22.6171 14.9633C22.6462 15.0061 22.722 15.0876 22.7995 15.2138C22.9055 15.3905 22.994 15.5771 23.0637 15.771C23.0676 15.67 23.0928 15.5128 23.3803 15.6118C23.6676 15.7128 23.9938 15.9245 24.2676 16.3414C24.5414 16.7583 24.6092 17.2289 24.7471 17.4081C24.8868 17.5809 25.0306 17.8683 25.0403 17.9887C25.05 18.1092 24.9975 18.4974 25.2849 19.5479C25.3664 19.2218 25.4907 18.4974 25.4907 18.4974L25.5587 17.8586L25.6364 15.8819L23.5723 14.167L21.9587 12.9961L20.9082 13.0971L20.9741 13.2466L20.9743 13.2467Z" fill="#CAA13E"/>
<path fill-rule="evenodd" clip-rule="evenodd" d="M24.81 16.1882C24.81 16.1882 24.7809 15.9962 24.2955 15.6698C23.81 15.3475 23.4313 15.3475 23.0819 15.0737C22.8139 14.8581 22.5343 14.3629 22.3523 14.1998C22.1755 14.0387 22.1465 13.5726 22.1465 13.5726L22.7426 13.0734L23.6291 11.792L24.3785 10.9668L24.7377 11.466L25.2369 12.0524L25.5145 13.2291L25.6155 14.9514L24.8091 16.1883L24.81 16.1882Z" fill="#B59544"/>
<path fill-rule="evenodd" clip-rule="evenodd" d="M25.4095 18.2525C25.4242 17.9913 25.392 17.7295 25.3143 17.4797C25.1863 17.0816 24.9066 16.3748 24.7767 16.1101C24.7242 15.8169 24.7631 15.7936 24.8195 15.7606C24.8758 15.7275 25.0875 15.607 25.2035 15.1839C25.3194 14.7609 25.6792 14.7471 25.6792 14.7471L25.9006 14.584L26.2366 15.4247L26.5297 16.184L26.6209 16.7646L26.6889 17.2597L26.5297 18.3064L25.7434 19.017L25.4094 18.2525H25.4095Z" fill="#C89D3A"/>
<path fill-rule="evenodd" clip-rule="evenodd" d="M14.4375 29.9188V29.8972C14.4538 29.887 14.4683 29.874 14.4801 29.8588C14.4937 29.8394 14.5035 29.8161 14.5131 29.8103C14.5326 29.8006 14.6239 29.7719 14.6724 29.7812C14.7209 29.7904 14.8491 29.8432 14.9171 29.8394C15.0569 29.8356 15.22 29.7287 15.4783 29.7773C15.8666 29.8491 15.9579 30.1132 16.1832 30.2627C16.3368 30.3676 16.4957 30.3209 16.519 30.3209H16.5714C16.5811 30.3209 16.6529 30.2394 16.6918 30.2434C16.7695 30.2472 16.7772 30.3113 16.8257 30.3152C16.9403 30.3287 17.1617 30.2569 17.2724 30.2861C17.3053 30.2964 17.3351 30.3145 17.3595 30.3388C17.3838 30.3631 17.4019 30.3929 17.4122 30.4258C17.4355 30.4976 17.4161 30.5888 17.3597 30.6413C17.2394 30.7519 17.1249 30.8569 17.1016 30.9485C17.1312 30.9711 17.1596 30.9952 17.1868 31.0207C16.2261 30.7759 15.3017 30.4058 14.4375 29.9199V29.9188Z" fill="#CEB052"/>
<path fill-rule="evenodd" clip-rule="evenodd" d="M24.7754 26.0384C24.7754 26.0384 25.0782 25.6345 25.1832 25.4345C25.288 25.2283 24.8512 22.6171 24.8512 22.6171L25.7289 19.7414L25.7054 18.8055C25.7054 18.8055 25.7482 17.9414 25.8492 17.5666C25.9696 17.7821 26.3444 18.0423 26.426 18.1802C26.4644 17.916 26.5948 17.3588 26.5755 16.7646C26.6473 16.8752 26.8201 17.9879 26.8201 17.9879L26.9929 18.7374L27.2181 19.5335L27.4686 20.3744L27.6181 20.955L27.7035 21.0948L27.7755 21.3394L27.8434 21.6036L28.0395 22.223L28.1547 22.7316L28.246 23.654C28.2658 23.7246 28.2801 23.7967 28.2887 23.8695C28.2926 23.9705 28.2752 24.0288 28.2752 24.0463C28.2752 24.0638 28.3082 24.2676 28.2946 24.4211C28.2752 24.5747 28.2752 24.6949 28.1547 24.8051C28.0343 24.9153 27.9586 25.574 27.9586 25.574L27.7431 25.4304C27.7431 25.4304 27.7858 25.2342 27.6848 25.0556C27.5838 24.877 27.3877 24.84 27.277 24.8692C27.1664 24.8925 26.9451 24.9273 26.8732 24.9895C26.8052 25.0516 26.6383 25.2439 26.4848 25.3313C26.2928 25.4465 25.98 25.4556 25.8131 25.4944C25.6441 25.5328 25.4578 25.648 25.2615 25.7817C25.1077 25.8813 24.9452 25.967 24.7762 26.0377V26.0377L24.7754 26.0384Z" fill="#CCA847"/>
<path fill-rule="evenodd" clip-rule="evenodd" d="M24.7754 30.2811C24.7754 30.2811 24.7882 30.2894 24.8129 30.303C26.1924 29.6566 27.4285 28.7405 28.4481 27.6086C28.437 27.2156 28.4225 26.8128 28.4066 26.6635C28.3737 26.347 28.397 26.0247 28.3873 25.8383C28.3776 25.652 28.2727 24.8927 28.2242 24.6966C28.1717 24.5005 28.0706 24.4033 28.0553 24.4033C28.0417 24.4073 27.96 24.7723 27.96 24.8641C27.96 24.9559 27.9406 25.1768 27.9406 25.2331C27.927 25.2292 27.9212 25.1947 27.9212 25.1807C27.9018 25.2292 27.8785 25.3147 27.8688 25.3244C27.859 25.3341 27.8823 25.2429 27.8688 25.2234C27.8552 25.204 27.8304 25.2137 27.8357 25.1652C27.838 25.1364 27.8426 25.1079 27.8493 25.0798C27.8493 25.0798 27.7911 25.1652 27.7484 25.3826C27.7057 25.5982 27.7057 25.6041 27.6902 25.6234C27.6766 25.6468 27.5989 25.7244 27.595 25.7536C27.5911 25.8059 27.6669 25.8584 27.6727 25.8875C27.6765 25.9361 27.6047 26.1613 27.5814 26.2715C27.5581 26.3817 27.5678 26.5976 27.543 26.7083C27.5236 26.8093 27.5046 26.8676 27.4382 26.9102C27.4867 26.9199 27.5333 26.9335 27.5333 26.9335C27.5333 26.9335 27.6012 27.2209 27.4284 27.4656C27.3664 27.551 27.3509 27.5899 27.2848 27.6676C27.1547 27.8112 27.0537 27.9748 27.0439 28.0811C27.0372 28.0498 27.0327 28.0179 27.0304 27.9859C27.0304 27.9859 26.8285 28.2209 26.743 28.3549C26.6324 28.5277 26.4789 28.518 26.4358 28.5608C26.3927 28.6035 26.3833 28.6811 26.3974 28.7433C26.359 28.7529 26.2868 28.7666 26.2382 28.9161C26.2149 28.9937 26.1566 29.0697 26.0654 29.1219C25.9741 29.1741 25.8634 29.1899 25.8071 29.2034C25.8556 29.217 25.875 29.217 25.8983 29.2325C25.8693 29.281 25.7353 29.3568 25.5858 29.4539C25.4363 29.5452 25.3643 29.6791 25.3275 29.7665C25.2891 29.8481 25.2323 29.9005 25.1411 29.9103C25.1795 29.9336 25.2363 29.9878 25.2654 30.0054C25.2226 30.0151 25.1502 30.0151 25.0208 30.1258C24.8848 30.2385 24.8382 30.2715 24.776 30.2812L24.7754 30.2811Z" fill="#C39D3C"/>
<path fill-rule="evenodd" clip-rule="evenodd" d="M22.0749 31.1809C22.1492 31.1288 22.2297 31.0861 22.3146 31.0538C22.6174 30.9335 22.9378 30.9102 23.064 30.8714C23.1845 30.833 23.2796 30.78 23.4291 30.751C23.4251 30.785 23.4218 30.817 23.4182 30.8472C22.9775 30.9858 22.5286 31.0972 22.0742 31.1809H22.0749Z" fill="#D2BA6B"/>
<path fill-rule="evenodd" clip-rule="evenodd" d="M27.6597 23.2158C27.6597 23.2158 27.5976 23.5517 27.4869 23.7634C27.3762 23.9751 27.2565 24.2682 27.2565 24.2682C27.2572 24.2022 27.265 24.1364 27.2798 24.072C27.14 24.1535 26.8002 24.3498 26.7038 24.4371C26.6125 24.5186 26.459 24.6623 26.4203 24.7303C26.5115 24.4624 26.6066 24.2216 26.6222 24.1109C26.4825 24.2119 25.8299 24.7498 25.4902 25.1051L24.4319 25.9614C24.3098 26.0273 24.184 26.0862 24.0552 26.1378C23.8728 26.2154 23.6573 26.2814 23.498 26.3436C23.5408 26.229 23.6086 26.1279 23.7038 26.0309C23.8048 25.9358 24.1077 25.6076 24.1543 25.4549C24.197 25.2957 24.2068 25.2006 24.1504 25.0666C24.098 25.0801 23.9776 25.086 23.8961 25.1093C23.8146 25.1326 23.7271 25.2199 23.7271 25.2199C23.7271 25.2199 23.7892 24.8646 23.9232 24.5287C23.8222 24.5325 23.6494 24.5616 23.6494 24.5616C23.6494 24.5616 23.8902 24.1578 24.3022 23.8763C24.1761 23.9031 24.0526 23.9414 23.9334 23.9907C23.6926 24.0917 23.4285 24.2412 23.2324 24.3227C23.343 24.1691 24.1197 23.0607 24.5819 22.0276C25.0427 20.9965 25.2149 20.7325 25.3159 20.1791C25.3682 19.9053 25.3543 19.5007 25.3682 19.1384C25.3818 18.7791 25.4265 18.4568 25.3974 18.2412C25.5177 18.3907 25.9683 18.8121 25.9838 19.7539C25.9973 20.6956 25.5528 21.9675 25.0809 22.6529C25.1961 22.6859 25.4946 22.7248 25.8013 22.1921C26.1079 21.6593 26.1042 21.5106 26.215 21.2891C26.2285 21.3999 26.2246 21.4387 26.2246 21.4387C26.2246 21.4387 26.6713 20.897 26.8829 20.2154C26.9256 20.5086 27.0518 20.7669 26.8537 21.3048C26.677 21.7901 26.446 21.9087 26.446 21.9087C26.446 21.9087 26.5605 21.8892 26.7294 21.7882C26.7586 21.86 26.7528 21.9418 26.8013 21.9707C26.8498 21.9997 26.9159 22.0484 26.9256 22.095C26.978 22.0173 27.0595 21.9183 27.0848 21.8445C27.0654 21.9981 27.0518 22.6698 27.1232 23.0115C27.2729 22.9979 27.4262 22.9882 27.531 22.7183C27.4592 22.9825 27.4592 23.1416 27.5078 23.3668C27.5874 23.3126 27.6592 23.2154 27.6592 23.2154L27.6597 23.2158Z" fill="#C0993A"/>
<path fill-rule="evenodd" clip-rule="evenodd" d="M22.6157 12.5126C22.6157 12.5126 22.4662 12.5746 22.2118 12.5746C21.9905 12.5746 22.0526 12.4893 21.707 12.4893C21.175 12.4893 19.3167 12.7965 18.9904 12.7921C18.7787 12.7883 19.7049 12.8834 19.7049 12.8834L22.072 12.9164L22.5477 12.878L22.7245 12.5183L22.6157 12.5126Z" fill="#A88F33"/>
<path fill-rule="evenodd" clip-rule="evenodd" d="M16.4779 17.1394C16.4779 17.1394 16.175 17.3705 16.0468 17.5472C15.9187 17.724 15.8507 17.8404 15.7051 17.9841C15.7393 17.9854 15.7734 17.9808 15.8061 17.9705C15.8061 17.9705 15.8061 18.0089 15.7828 18.019C15.8029 18.0168 15.8233 18.0191 15.8424 18.0257C15.8616 18.0324 15.879 18.0432 15.8934 18.0574C15.8506 18.0807 15.7341 18.1974 15.8254 18.3352C15.8934 18.44 16.0371 18.4496 16.0371 18.4496C16.0371 18.4496 16.0041 18.5449 16.1419 18.5351C16.439 18.5216 16.7711 18.3914 16.9244 18.4244C17.078 18.4628 17.1653 18.4769 17.274 18.6653C17.3892 18.8517 17.4895 18.8809 17.4895 18.8809C17.4895 18.8809 17.5575 18.7079 17.542 18.4498C17.5977 18.3106 17.6286 18.1627 17.6333 18.0129L17.5323 17.2692L17.0916 16.7119L16.5207 17.0285L16.4779 17.139V17.1394Z" fill="#E3C571"/>
<path fill-rule="evenodd" clip-rule="evenodd" d="M17.0195 17.0298C17.0195 17.0298 17.0623 17.1308 17.241 17.1404C17.2215 17.1831 17.2215 17.189 17.2274 17.2219C17.2312 17.2549 17.237 17.3034 17.237 17.3034C17.2567 17.2939 17.2745 17.2809 17.2895 17.265C17.2992 17.3078 17.2798 17.3756 17.2895 17.4243C17.2955 17.4539 17.3053 17.4825 17.3185 17.5096C17.3214 17.503 17.3246 17.4966 17.3283 17.4903C17.3321 17.4806 17.3667 17.5952 17.4623 17.6823C17.4622 17.6689 17.4655 17.6557 17.4719 17.6439C17.4733 17.6683 17.4814 17.6918 17.4952 17.7119C17.488 17.7085 17.4815 17.7039 17.4759 17.6983C17.4759 17.6983 17.4855 18.0055 17.5379 18.1644C17.5467 18.1541 17.5545 18.143 17.5612 18.1313C17.5612 18.1217 17.5574 18.2168 17.5477 18.2849C17.5341 18.3529 17.5438 18.448 17.5438 18.448C17.5788 18.4205 17.6173 18.3976 17.6583 18.38C17.7165 18.3566 17.8119 18.2848 17.87 18.1256C17.9037 18.0354 17.9297 17.9425 17.9477 17.848C17.9664 17.8841 17.9794 17.923 17.9861 17.9632C17.99 18.0117 18.0813 17.9864 18.0813 17.9864L18.1007 17.7747L18.2159 17.2951L18.3208 16.998L18.8256 16.2117L19.7377 15.5093L20.5339 15.6918L21.2056 14.7792L20.0484 14.084L18.9532 14.1985L17.9593 15.5752L17.1633 16.8238L17.0195 17.0296V17.0298Z" fill="#D8B65B"/>
<path fill-rule="evenodd" clip-rule="evenodd" d="M22.7563 15.0369C22.7563 15.0369 22.6883 15.0505 22.4922 15.1521C22.2961 15.2537 22.1602 15.286 22.0844 15.4355C22.0086 15.585 22.0029 15.7035 22.0029 15.7035C22.0029 15.7035 22.1369 15.6453 22.2146 15.6258C22.2961 15.6065 22.3874 15.6122 22.3777 15.6453C22.3683 15.6679 22.3554 15.6889 22.3393 15.7074C22.3393 15.7074 22.4929 15.7035 22.4888 15.7793C22.4847 15.8551 22.4597 15.9385 22.4307 15.9754C22.4015 16.0138 22.2811 16.0706 22.2676 16.1153C22.2346 16.2066 22.2811 16.2104 22.2636 16.2841C22.25 16.3561 22.186 16.4958 21.9763 16.7404C21.7607 16.9852 21.6691 17.158 21.6691 17.158C21.6691 17.158 21.5642 16.9619 21.5098 16.7929C21.4714 16.8122 21.2652 16.9268 21.2652 16.9268L20.7875 15.2628L20.7971 15.1521C20.7971 15.1521 20.8399 15.0997 20.8496 15.0026C20.7778 14.9793 20.7681 14.9598 20.6728 14.8687C20.5776 14.7776 20.5 14.6667 20.3409 14.5909C20.3176 14.5482 20.2884 14.4901 20.172 14.4666C20.0555 14.4432 19.9856 14.424 19.9856 14.424C19.9856 14.424 20.0477 14.4006 20.0769 14.3521C20.0049 14.3618 19.9468 14.3851 19.7895 14.3813C19.6303 14.3773 19.6127 14.3715 19.5254 14.3851C19.4381 14.3987 19.3334 14.4376 19.2944 14.3036C19.2516 14.2706 19.1604 14.2997 19.0827 14.4142C19.005 14.5286 18.9779 14.62 18.8283 14.6647C18.8178 14.7306 18.7948 14.7938 18.7604 14.851C18.7176 14.923 18.6497 14.9948 18.5584 15.1015C18.4147 15.2705 18.4379 15.5481 18.2088 15.7598C17.9778 15.9714 18.2472 15.1733 18.2472 15.1733L18.6161 14.2901L19.6666 13.2629L21.2977 13.1523L21.457 13.9971L22.2531 14.2709L22.756 15.0379L22.7563 15.0369Z" fill="#D3AE4D"/>
<path fill-rule="evenodd" clip-rule="evenodd" d="M23.0129 15.2231L22.3274 14.2348L21.8478 13.8658C21.8478 13.8658 21.5061 13.2368 21.4828 13.2174C21.4633 13.2038 21.141 13.1688 20.9352 13.1553L20.9736 13.2504C21.0185 13.265 21.0584 13.2919 21.0888 13.3281C21.18 13.4329 21.2383 13.6309 21.0305 13.8426C21.1121 13.8717 21.1457 13.881 21.2169 13.8717C21.1451 13.9572 20.982 14.1397 20.9723 14.299C20.9626 14.429 21.0441 14.4678 21.0441 14.4678C21.0441 14.4678 20.9198 14.6115 20.9141 14.8518C20.9728 14.7856 21.037 14.7245 21.1061 14.6693C21.2498 14.5541 21.4478 14.4245 21.5818 14.343C21.58 14.3772 21.5846 14.4115 21.5954 14.444C21.5954 14.444 21.8458 14.2382 22.0562 14.3294C22.1513 14.3722 22.1086 14.5062 22.1086 14.5062C22.1086 14.5062 22.2387 14.4577 22.33 14.5489C22.4213 14.6402 22.5513 14.8751 22.6174 14.9665C22.6464 15.0092 22.7222 15.0908 22.7998 15.2168C22.9058 15.3936 22.9942 15.5802 23.064 15.7742C23.0678 15.6965 23.0834 15.5878 23.2176 15.5878L23.0136 15.2227L23.0129 15.2231Z" fill="#CAA13E"/>
<path fill-rule="evenodd" clip-rule="evenodd" d="M12.7384 18.0314C12.7384 18.0314 12.6898 17.911 12.7384 17.6761C12.7869 17.4412 12.8626 17.3305 12.8879 16.9849C12.9131 16.6393 13.1384 16.2082 13.1384 16.2082L13.7616 15.9248L14.2024 16.0451L14.3325 16.6355L13.7752 16.9427C13.7752 16.9427 13.7461 17.0727 13.5888 17.1775C13.4315 17.2824 13.214 17.3639 13.1617 17.4708C13.1304 17.5362 13.1075 17.6054 13.0937 17.6766C13.0937 17.6766 12.9345 17.6436 12.8393 17.7484C12.7384 17.8553 12.7422 17.9504 12.7384 18.0319V18.0314Z" fill="#F4EFC8"/>
<path fill-rule="evenodd" clip-rule="evenodd" d="M13.9961 17.8739C13.9961 17.8739 13.9436 17.9069 13.9049 17.9891C13.8665 17.927 13.7747 17.558 13.7708 17.2259C13.767 16.8939 13.7472 16.8116 13.824 16.6972C13.9008 16.5827 14.2019 16.4622 14.1592 16.2561C14.1164 16.06 13.9377 15.9784 13.7184 16.0348C13.5648 16.0732 13.4505 16.3998 13.2912 16.5629C13.1708 16.6872 13.0272 16.6677 12.9884 16.7357C12.9359 16.827 12.9844 16.9182 12.9689 16.9765C12.9649 16.9959 12.9164 17.1007 12.829 17.227C12.6524 17.4813 12.3534 17.8406 12.3145 18.1629C12.328 17.9804 12.3184 17.9765 12.3669 17.7745L12.3377 17.726L12.5297 17.0969L12.654 16.5785L12.9318 15.7104L13.421 14.8231L13.8968 14.291L14.3919 14.324L14.4501 15.0677L14.7337 16.4639L15.3297 17.1979L14.3744 17.8408L13.9957 17.8739H13.9961Z" fill="#EBCC73"/>
<path fill-rule="evenodd" clip-rule="evenodd" d="M14.2926 18.1379C14.2926 18.1379 14.2111 18.1574 14.1819 18.1419C14.1527 18.1264 14.1238 18.1089 14.1334 18.0894C14.143 18.07 14.1955 18.0371 14.1955 18.0215C14.1966 18.0073 14.1921 17.9934 14.1831 17.9825C14.174 17.9716 14.1611 17.9647 14.147 17.9632C14.1023 17.9575 14.0887 17.9865 14.0887 17.9865C14.0887 17.9865 14.046 17.9536 14.0112 17.9481C14.0318 17.9456 14.0525 17.9443 14.0733 17.9441C14.0196 17.9198 13.9627 17.9035 13.9043 17.8956C13.9528 17.8666 14.048 17.7811 14.1101 17.7811C14.1722 17.7811 14.2111 17.7715 14.2014 17.7384C14.1917 17.7054 14.1431 17.6569 14.0908 17.6375C14.1101 17.6142 14.1238 17.5792 14.0772 17.4839C14.0286 17.3887 14.048 17.3246 14.0637 17.3015C14.0772 17.2723 14.1257 17.2199 14.149 17.1869C14.1723 17.1539 14.1918 17.1092 14.2306 17.0859C14.25 17.0723 14.3121 17.0475 14.3743 17.0238C14.4423 17.0005 14.4986 16.9713 14.5374 17.0005C14.5801 17.0296 14.5607 17.0685 14.5607 17.0685C14.5607 17.0685 14.6947 17.0199 14.815 17.0821C14.9355 17.1402 15.2287 17.1772 15.2287 17.1772L15.3338 17.3889L14.6386 17.985L14.3513 18.1287L14.293 18.1383L14.2926 18.1379Z" fill="#E5C66B"/>
<path fill-rule="evenodd" clip-rule="evenodd" d="M15.2581 17.1636C15.2581 17.1636 15.0425 17.3073 14.994 17.3597C15.0231 17.3637 15.0716 17.3831 15.0521 17.4122C15.0288 17.4412 14.889 17.5422 14.8113 17.6375C14.7298 17.7326 14.6521 17.853 14.625 17.9112C14.5959 17.9636 14.3745 18.1171 14.2988 18.1364C14.4581 18.1364 14.7784 17.9403 14.8988 17.9403C14.8949 17.9985 14.9318 18.0646 14.9998 18.0704C15.0677 18.0761 15.2638 18.1131 15.5279 17.95C15.7919 17.7908 15.7047 17.6723 15.8152 17.5947C16.027 17.4548 16.1123 17.3305 16.2288 17.2529C16.3453 17.1754 16.4056 17.1577 16.4056 17.1577C16.4056 17.1577 16.4094 17.0995 16.444 17.1054C16.4534 17.1064 16.4624 17.1101 16.47 17.1159C16.4775 17.1217 16.4833 17.1295 16.4867 17.1384C16.4867 17.1384 16.6887 16.9946 16.9475 16.9559C16.9415 16.9532 16.9367 16.9483 16.934 16.9423C16.934 16.9423 16.9533 16.9326 16.9573 16.9228C16.9573 16.9228 16.9708 16.9034 16.9806 16.9131C16.9903 16.9228 17.0039 16.9946 17.0233 17.0238C17.0661 17.0044 17.1476 16.8218 17.1476 16.8218L17.3438 16.2607V15.748L17.1902 15.7772L16.0382 16.2664L15.3391 16.9908L15.2575 17.1636H15.2581Z" fill="#E6BD62"/>
<path fill-rule="evenodd" clip-rule="evenodd" d="M18.5764 14.6486C18.6387 14.6335 18.6984 14.6093 18.7536 14.5767C18.7303 14.6389 18.7303 14.7069 18.6294 14.8544C18.5284 15.002 18.5245 15.0234 18.443 15.1767C18.3614 15.336 18.3517 15.5651 18.274 15.666C18.3089 15.649 18.3462 15.6379 18.3846 15.6331C18.3846 15.6331 18.3071 15.701 18.274 15.7728C18.241 15.8446 18.1828 15.9941 18.0391 16.0855C17.8955 16.1769 17.7129 16.235 17.5168 16.4506C17.3206 16.6622 17.1187 16.9302 17.0176 17.0266C17.0701 16.9353 17.1419 16.7528 17.1613 16.6325C17.1808 16.5122 17.1574 16.3683 17.1904 16.2092C17.2234 16.0501 17.2234 15.9354 17.3824 15.6576C17.5414 15.3799 17.8135 14.4149 17.8135 14.4149L18.3998 14.2285L18.5766 14.648L18.5764 14.6486Z" fill="#B6933F"/>
<path fill-rule="evenodd" clip-rule="evenodd" d="M18.1521 14.2932C18.1521 14.2932 17.9754 14.5475 17.9269 14.7728C17.8784 14.9981 17.9229 14.9786 17.8939 15.0894C17.8765 15.1569 17.8765 15.2277 17.8939 15.2952C17.9551 15.1966 18.0388 15.1141 18.1382 15.0543C18.3053 14.9534 18.4412 14.8815 18.5222 14.7961C18.6038 14.7049 18.6717 14.5553 18.8484 14.4408C18.7766 14.4311 18.6756 14.398 18.6564 14.4024C18.7283 14.3209 18.9437 14.1966 19.1612 14.0471C19.3768 13.8935 19.3632 13.8315 19.7128 13.6782C19.5982 13.6976 19.5438 13.6684 19.4486 13.6782C19.487 13.5966 19.6214 13.5577 19.7558 13.4238C19.8902 13.2899 19.6704 13.0918 19.6704 13.0918L18.6464 13.7112L18.1513 14.2937L18.1521 14.2932Z" fill="#C49937"/>
<path fill-rule="evenodd" clip-rule="evenodd" d="M15.373 13.8317L15.3963 13.6454L15.6896 13.1755L15.9964 12.3503V11.2221L15.9731 10.5697L16.0216 10.1424L16.0585 10.0066L16.0974 9.9541L16.3478 10.0841L16.6935 10.554L16.7265 11.4609L16.3905 12.892L15.4313 13.9386L15.373 13.8317Z" fill="#DFC068"/>
<path fill-rule="evenodd" clip-rule="evenodd" d="M16.1357 9.90032C16.1357 9.90032 15.9821 9.90429 15.9494 10.5431C15.9166 11.182 15.9007 11.5179 15.8774 11.8344C15.8541 12.1509 15.7999 12.3431 15.7726 12.5296C15.7453 12.7161 15.7298 12.9703 15.6425 13.1257C15.6041 13.1975 15.5221 13.4228 15.3298 13.5917C15.1143 13.7781 14.7922 13.9083 14.7435 13.918C14.658 13.9373 14.2249 13.9801 14.0483 14.0772C13.9862 14.1102 13.8793 14.149 13.7609 14.2597C13.5259 14.4713 13.2134 14.85 12.9881 15.3063C12.6425 15.9879 12.2969 17.9121 12.2969 17.9121L12.3746 17.782C12.3746 17.782 12.3843 17.6092 12.5571 17.3063C12.7261 17.0034 12.6775 16.6636 12.9124 16.083C13.0037 15.8617 13.1183 15.5743 13.258 15.3296C13.4795 14.9315 13.7474 14.5897 14.0173 14.4034C14.458 14.1005 14.9435 14.0345 14.9435 14.0345L15.4659 13.6889C15.4659 13.6889 15.5572 13.5122 15.6776 13.3102C15.8464 13.0268 16.0616 12.7103 16.1086 12.2501C16.1805 11.5685 16.0076 11.122 16.0173 10.7181C16.0271 10.3143 16.0309 10.0172 16.1126 9.94525C16.1942 9.87331 16.1359 9.90058 16.1359 9.90058L16.1357 9.90032Z" fill="#A88F33"/>
<path fill-rule="evenodd" clip-rule="evenodd" d="M16.135 12.9495C16.135 12.9495 16.3654 12.3824 16.4709 11.8795C16.4903 11.7785 16.5291 11.6776 16.5389 11.5961C16.5874 11.1203 16.6009 10.9242 16.5389 10.664C16.4903 10.472 16.304 10.299 16.2068 10.1648C16.1117 10.0249 16.0671 9.97282 16.0865 9.94338C16.106 9.91394 16.1816 9.86581 16.2553 9.87157C16.3337 9.87385 16.4108 9.89205 16.4819 9.92505C16.553 9.95806 16.6167 10.0052 16.669 10.0636C16.8185 10.2364 16.9369 10.8229 16.9369 10.8229L17.0615 11.5968L17.378 12.5715L16.1353 12.9502L16.135 12.9495Z" fill="#C99E3D"/>
<path fill-rule="evenodd" clip-rule="evenodd" d="M18.2999 12.3601C18.2999 12.3601 18.2572 12.3794 18.1796 12.3601C18.1829 12.3918 18.1774 12.4238 18.1637 12.4526C18.15 12.4813 18.1286 12.5058 18.1019 12.5232C18.0204 12.4901 17.2571 12.5562 17.2571 12.5562C17.2571 12.5562 16.9018 12.494 16.7911 12.0241C16.7135 11.7114 16.8493 11.2804 16.8046 10.9969C16.7367 10.5794 16.6415 10.4977 16.6318 10.3678C16.6221 10.2378 16.6124 10.2047 16.6124 10.1232C16.5696 10.1134 16.5444 10.0999 16.5018 10.0999C16.492 10.0615 16.5114 10.0279 16.4688 9.95996C16.492 9.96969 16.6513 9.98914 16.8376 10.1658C16.9912 10.3095 16.9912 10.3619 17.0144 10.3911C17.0435 10.4201 17.2785 10.6215 17.3795 10.8222C17.4805 11.0229 17.6766 11.6629 17.7212 11.7677C17.7348 11.8105 17.764 11.8532 17.8364 11.9502C17.9491 12.0901 18.1141 12.3214 18.3004 12.3598L18.2999 12.3601Z" fill="#B58634"/>
<path fill-rule="evenodd" clip-rule="evenodd" d="M17.043 10.3994C17.1606 10.5894 17.2663 10.7866 17.3594 10.9898C17.4739 11.2479 17.5419 11.4596 17.6857 11.6324C17.608 11.4073 17.4701 10.9645 17.3886 10.8072C17.2973 10.6408 17.1109 10.4616 17.043 10.3995V10.3994Z" fill="#A88F33"/>
<path fill-rule="evenodd" clip-rule="evenodd" d="M15.7224 13.5929C15.7224 13.5929 15.5263 13.6414 15.1613 13.8337C15.0408 13.8957 14.9264 13.9481 14.8157 13.9967C14.5281 14.1268 14.2196 14.247 13.9749 14.3133C13.9943 14.3366 14.0039 14.3462 14.0039 14.3462C14.0039 14.3462 14.0039 14.4414 14.0564 14.4957C14.0273 14.5249 13.6389 14.7889 13.7535 15.6724C13.8311 15.6433 13.9224 15.6044 13.9359 15.6044C13.9594 15.6084 13.9651 15.6724 13.9942 15.6724C14.0232 15.6724 14.1185 15.634 14.2195 15.5034C14.2156 15.5559 14.1574 16.084 14.47 16.4394C14.5282 16.3714 14.6758 16.1461 14.6758 16.1461L14.6796 16.0743C14.6796 16.0743 14.6932 15.8238 14.7749 15.5947C14.8565 15.3656 15.0156 15.1966 15.0156 15.1966L15.8465 14.0102L15.7222 13.5928L15.7224 13.5929Z" fill="#E6C367"/>
<path fill-rule="evenodd" clip-rule="evenodd" d="M14.9453 15.3338C14.9072 15.3606 14.8653 15.3816 14.821 15.3958C14.8074 15.3473 14.7879 15.1803 14.9025 15.0172C15.0365 14.821 15.3296 14.5667 15.4112 14.3644C15.4637 14.2342 15.4404 13.9081 15.9064 13.4906C16.3725 13.073 16.5549 12.9294 16.5549 12.9294L17.3083 12.5508L18.2345 12.9158L17.7743 14.7194L17.4171 15.5642L15.9963 15.2963L14.9451 15.3338H14.9453Z" fill="#DCBA5A"/>
<path fill-rule="evenodd" clip-rule="evenodd" d="M15.4883 14.8444L15.665 14.6231V14.4658C15.665 14.4658 15.8611 14.4133 16.0727 14.1978C16.2843 13.9822 16.5776 13.5687 16.8359 13.5939C17.0942 13.6231 17.1194 14.155 17.1291 14.3047C17.1388 14.4543 17.1719 14.7939 17.2242 14.9765C17.2825 15.1591 16.5951 15.8503 16.5951 15.8503L16.1283 16.2056L15.4883 14.8444Z" fill="#E9CE77"/>
<path fill-rule="evenodd" clip-rule="evenodd" d="M16.0352 16.6879C16.0352 16.6879 16.1789 16.4626 16.0736 16.4141C16.1356 16.2743 16.2502 16.1267 16.2502 16.1267C16.2502 16.1267 16.3317 15.9249 16.5958 15.6763C16.8599 15.4277 17.0231 15.2626 17.0658 15.0957C17.0922 14.9869 17.1065 14.8756 17.1086 14.7637C17.1371 14.787 17.1676 14.8078 17.1998 14.8258C17.2426 14.8452 17.4444 15.0121 17.4154 15.3481C17.3863 15.6841 17.2618 15.8239 17.2618 15.8239C17.2618 15.8239 17.1415 15.9442 17.0561 16.0064C16.9647 16.0685 16.9318 16.1403 16.7783 16.1462C16.7941 16.1337 16.8118 16.1238 16.8308 16.117C16.8308 16.117 16.6716 16.0977 16.5861 16.1753C16.5006 16.2528 16.3188 16.4918 16.2275 16.5637C16.1363 16.622 16.0355 16.688 16.0355 16.688L16.0352 16.6879Z" fill="#CDAE50"/>
<path fill-rule="evenodd" clip-rule="evenodd" d="M22.4914 12.9104C22.262 12.8268 22.0209 12.7796 21.7769 12.7706C21.3691 12.7571 20.773 12.7803 20.1886 12.7842C19.5594 12.788 18.9886 12.5686 18.1964 12.5299C18.0663 12.4522 17.7356 12.1123 16.7031 12.8327C16.7652 12.8289 17.4527 12.6735 17.6914 12.9726C17.9322 13.2697 17.8642 13.7745 17.8313 13.8948C17.7691 14.1629 17.5671 14.5531 17.4857 14.8269C17.4043 15.1007 17.4235 15.2446 17.3653 15.4366C17.307 15.6286 17.1789 15.724 17.2545 15.9453C17.3555 15.8832 17.4081 15.8832 17.5769 15.5046C17.7456 15.1259 17.7109 14.856 17.9905 14.5356C18.2643 14.2133 18.7201 13.7725 18.8935 13.6618C19.0668 13.551 20.4429 12.8365 21.8838 13.5181C22.2313 13.4813 22.4915 12.9103 22.4915 12.9103L22.4914 12.9104Z" fill="#D2A83E"/>
<path fill-rule="evenodd" clip-rule="evenodd" d="M17.283 12.6464C17.2815 12.6318 17.2783 12.6175 17.2734 12.6037C17.2599 12.5753 17.2422 12.5491 17.2209 12.526C17.2209 12.526 16.8791 12.4639 16.7063 12.4832C16.4033 12.5162 16.1296 12.891 16.0014 13.0833C15.8733 13.2755 15.7141 13.5725 15.5413 13.726C15.5432 13.711 15.5397 13.6959 15.5315 13.6832C15.5315 13.6832 15.5413 13.6968 15.5219 13.7162C15.5026 13.7357 15.5025 13.7453 15.5122 13.7546L15.5414 13.7837C15.551 13.7837 15.819 13.6633 16.1841 13.3229C16.5724 12.9676 16.8695 12.7853 17.0249 12.7228C17.1078 12.6876 17.1944 12.662 17.2831 12.6464V12.6464H17.283Z" fill="#C29637"/>
<path fill-rule="evenodd" clip-rule="evenodd" d="M23.9116 11.1865C23.9116 11.1865 23.8494 11.2641 23.7717 11.3496C23.5989 11.5321 23.3736 11.7378 23.1813 11.9495C22.9989 12.1515 22.7931 12.3088 22.5619 12.5729C22.3308 12.837 22.0627 13.1301 21.9949 13.2156C21.9328 13.3011 21.8843 13.4409 21.8843 13.5127C21.8513 13.4894 21.8125 13.4642 21.8125 13.4642C21.8288 13.4946 21.8484 13.5233 21.8707 13.5497C21.9193 13.6176 21.9949 13.7033 22.0338 13.7555C22.0816 13.822 22.1158 13.8972 22.1347 13.9768C22.158 13.9806 22.3075 14.0098 22.494 13.703C22.6805 13.3962 22.9249 13.0603 22.9249 13.0603L23.3133 12.4835L23.558 11.9943L23.8652 11.4467L23.912 11.1865H23.9116Z" fill="#AC8132"/>
<path fill-rule="evenodd" clip-rule="evenodd" d="M24.3112 10.7939C24.3112 10.7939 24.0762 10.9859 23.9849 11.1011C23.8937 11.2163 23.6777 11.5187 23.6777 11.5187L23.7554 11.509L24.1497 11.1595L24.3033 10.8857L24.3111 10.7945L24.3112 10.7939Z" fill="#A88F33"/>
<path fill-rule="evenodd" clip-rule="evenodd" d="M24.2374 26.2256C24.2374 26.2256 24.2335 26.0664 24.3229 25.9713C24.4141 25.8761 24.6452 25.7363 24.8704 25.212C25.0957 24.6877 25.1208 24.5693 25.1208 24.5693C25.1208 24.5693 24.717 24.9149 24.468 24.9964C24.5262 24.876 24.5593 24.7906 24.5885 24.7284C24.5554 24.6994 24.4157 24.6663 24.4021 24.6508C24.4797 24.5731 24.5224 24.3828 24.6797 24.2566C24.8817 24.103 25.2506 23.8391 25.5373 23.6038C25.824 23.3685 26.3878 22.8213 26.4597 22.6621C26.5024 22.7242 26.512 22.763 26.512 22.763C26.512 22.763 26.2286 23.132 26.0811 23.3669C25.9509 23.5689 25.9606 23.6834 25.9606 23.6834L26.2286 23.5682C26.2286 23.5682 26.3062 23.8556 25.9549 24.2926C26.1085 24.2343 26.1704 24.2693 26.2577 24.2206C26.114 24.312 25.9159 24.4363 25.7296 24.7779C25.547 25.1197 25.2985 25.5178 24.8791 25.7662C24.4713 26.0284 24.2363 26.2245 24.2363 26.2245L24.2374 26.2256Z" fill="#A67A2E"/>
<path fill-rule="evenodd" clip-rule="evenodd" d="M23.1872 13.1131C23.1872 13.1131 23.0279 13.4451 23.0046 13.7034C23.0008 13.7656 22.9852 13.8141 22.9852 13.8859C22.9813 14.1169 22.9987 14.3752 22.9468 14.4955C22.9273 14.447 22.9176 14.414 22.8981 14.3947C22.8691 14.4762 22.8166 14.7306 22.7739 14.8257C22.7545 14.7636 22.7118 14.548 22.7157 14.2937C22.7197 14.0394 22.7253 13.9907 22.7253 13.9384C22.7157 14.0159 22.6633 14.1209 22.6438 14.183C22.6147 14.1306 22.5817 14.0627 22.5428 14.0063C22.5195 14.0447 22.4905 14.1014 22.4652 14.1306C22.4613 14.1073 22.4517 14.0451 22.4458 13.9578C22.4419 13.8568 22.4361 13.7268 22.4419 13.6995C22.4515 13.6472 22.5332 13.4413 22.706 13.2529C22.9118 13.0276 23.1235 12.5947 23.1856 12.4607C23.2477 12.3267 23.5118 11.7695 23.5118 11.7695H23.7138L23.4205 12.4374C23.4205 12.4374 23.2439 12.8025 23.1526 12.9366C23.0613 13.0708 22.8691 13.4552 22.7836 13.6047C22.8457 13.5231 22.8981 13.4804 22.9603 13.4027C23.0205 13.3483 23.1874 13.1134 23.1874 13.1134L23.1872 13.1131Z" fill="#8C6228"/>
<path fill-rule="evenodd" clip-rule="evenodd" d="M24.3146 10.7686C24.2816 10.8701 24.2295 10.9644 24.161 11.0463C24.0406 11.1901 23.7822 11.3822 23.6562 11.5355C23.541 11.685 23.3106 12.0928 23.4153 12.5763C23.4537 12.4715 23.526 12.2637 23.7182 12.0287C23.9105 11.7937 24.1163 11.5239 24.2174 11.3142C24.3183 11.1025 24.3319 10.9356 24.3319 10.9356L24.3703 10.8871L24.347 10.7764L24.314 10.7686H24.3146Z" fill="#CBA94C"/>
<path fill-rule="evenodd" clip-rule="evenodd" d="M28.248 23.6481C28.248 23.6481 28.1703 23.4365 28.147 23.2443C28.1237 23.052 28.1854 23.0139 28.1139 22.7938C28.0712 22.6598 27.9936 22.6786 27.9742 22.6598C27.9547 22.641 27.9411 22.4385 27.945 22.3278C27.9488 22.2171 27.9411 22.0735 27.9217 22.0112C27.8926 21.988 27.8732 21.9685 27.8304 21.8249C27.7819 21.6811 27.7586 21.6093 27.7353 21.5667C27.712 21.5241 27.6439 21.4852 27.6439 21.4424C27.6439 21.3569 27.7216 21.3124 27.7216 21.2888C27.7178 21.2403 27.6595 21.2792 27.6439 21.2655C27.6246 21.2422 27.6926 21.1024 27.6674 21.083C27.6576 21.0734 27.5897 21.1549 27.5721 21.1316C27.5527 21.1082 27.5294 20.8772 27.4944 20.7238C27.4615 20.5743 27.4265 20.4656 27.4226 20.421C27.4188 20.3782 27.1546 19.6248 27.0906 19.4423C27.039 19.2881 26.9956 19.1312 26.9605 18.9724C26.9411 18.8811 26.9275 18.6946 26.9178 18.7141C26.9081 18.7336 26.9139 18.8287 26.8983 18.8248C26.8848 18.8208 26.8363 18.4889 26.8208 18.4365C26.8072 18.384 26.7255 18.2061 26.7056 18.0773C26.6861 17.9471 26.6435 17.6073 26.6143 17.3762C26.5851 17.1452 26.5715 17.0501 26.5715 16.9922C26.5763 16.8507 26.5685 16.7091 26.5483 16.5689C26.5099 16.3242 26.4331 16.0271 26.3657 15.8544C26.2357 15.5282 25.8899 14.6932 25.8281 14.4855C25.8281 14.433 25.8961 14.4622 25.8961 14.4622C25.8961 14.4622 26.0649 14.8855 26.1892 15.2116C26.3097 15.5379 26.4242 15.8253 26.4534 15.8544C26.4767 15.8835 26.6592 16.2039 26.7408 16.7282C26.8223 17.2525 26.8514 17.7359 26.9 18.0582C26.9233 18.2118 26.9427 18.3748 26.9913 18.5378C27.0436 18.7146 27.1251 18.8971 27.232 19.1767C27.3233 19.4117 27.3913 19.6078 27.4281 19.7768C27.4709 19.9923 27.4709 20.1554 27.4961 20.2623C27.5195 20.3535 27.5543 20.5359 27.636 20.7999C27.7177 21.0638 27.8379 21.4038 27.9194 21.6153C28.0787 22.0386 28.1498 22.392 28.1739 22.5805C28.1951 22.7746 28.267 23.4465 28.2476 23.6484L28.248 23.6481Z" fill="#A88F33"/>
<path fill-rule="evenodd" clip-rule="evenodd" d="M24.3248 10.7458L24.3151 10.7691C24.3151 10.7691 24.3442 10.7788 24.3384 10.8177C24.3388 10.8709 24.3356 10.9241 24.3287 10.9769C24.3191 11.0449 24.2996 11.0973 24.2958 11.14C24.2958 11.2313 24.3093 11.3361 24.1806 11.5963C24.1422 11.6681 24.1185 11.7302 24.099 11.773C24.0505 11.8778 24.0408 11.8934 23.998 11.9419C24.066 11.9035 24.3107 11.7499 24.4349 11.773C24.3495 11.8215 24.2194 11.9167 24.1378 12.041C24.1573 12.0448 24.2388 12.0605 24.3682 12.041C24.5838 12.008 24.8245 11.9303 25.0361 11.9458C25.2673 11.9593 25.176 11.6681 25.176 11.6681L24.9093 11.0818L24.4044 10.7266L24.3248 10.7459V10.7458Z" fill="#BE9C44"/>
<path fill-rule="evenodd" clip-rule="evenodd" d="M25.6407 15.1382C25.6407 15.1382 25.4155 14.913 25.3242 14.1398C25.2329 13.3631 25.2524 12.2198 25.2524 12.2198L25.0699 11.7732C25.0699 11.7732 25.0315 11.4762 24.9358 11.3656C24.8402 11.255 24.6524 11.0685 24.5669 10.9772C24.4814 10.8859 24.3844 10.7617 24.3262 10.7422C24.3552 10.6937 24.4854 10.4199 24.9843 10.4161C25.4833 10.4122 25.6371 10.6898 25.6892 10.7908C25.7413 10.8918 25.9766 11.3284 26.0639 12.1604C26.1454 12.9914 26.1494 13.0536 26.1358 13.341C26.1261 13.5002 26.0736 13.8691 25.9822 14.2632C25.8988 14.5973 25.8075 14.9702 25.6405 15.139L25.6407 15.1382Z" fill="#A17C34"/>
<path fill-rule="evenodd" clip-rule="evenodd" d="M24.9344 15.8002C25.0095 15.8056 25.0845 15.7887 25.15 15.7515C25.2218 15.7477 25.482 15.7807 25.6819 15.5264C25.6955 15.5845 25.7306 15.7419 25.6392 15.8817C25.6878 15.8331 25.7596 15.8137 25.7694 15.8002C25.7732 15.872 25.8412 16.0933 25.5538 16.6311C25.6314 16.5458 25.7226 16.5496 25.8042 16.5399C25.8081 16.6409 25.8624 16.9806 25.7188 17.1632C25.6237 17.2875 25.4683 17.2486 25.4683 17.2486C25.4706 17.2215 25.4706 17.1942 25.4683 17.1671C25.4645 17.1146 25.445 17.0622 25.4587 17.0273C25.3836 16.993 25.3152 16.9456 25.2567 16.8874C25.0878 16.7282 24.8684 16.4564 24.8529 16.2544C24.8334 16.0292 25.0354 15.9806 25.0354 15.9806C25.0185 15.9655 25.0041 15.9478 24.9927 15.9282C24.9829 15.8953 24.9732 15.8428 24.9344 15.8002V15.8002Z" fill="#8C6228"/>
<path fill-rule="evenodd" clip-rule="evenodd" d="M23.4371 13.3573C23.4371 13.3573 23.4274 13.3438 23.375 13.4058C23.3847 13.3438 23.3945 13.2854 23.3983 13.2291C23.4231 13.1769 23.4551 13.1286 23.4935 13.0855C23.4643 13.1436 23.4449 13.196 23.4449 13.196C23.4449 13.196 23.5168 13.062 23.6217 12.9805C23.6935 12.9223 23.7847 12.8951 23.8235 12.8407C23.8663 12.7825 23.8565 12.7727 23.8663 12.763C23.8663 12.763 23.9615 12.7009 24.1072 12.5183C24.1265 12.495 24.1557 12.4698 24.1751 12.4465C24.208 12.4329 24.2857 12.398 24.377 12.3512C24.4722 12.2989 24.579 12.2271 24.645 12.1976C24.7751 12.1394 24.913 12.1453 24.977 12.0539C25.0256 12.0403 25.0779 11.8947 25.0683 11.7705C25.1401 11.7996 25.509 12.0287 25.6354 12.5297C25.7266 12.885 25.5634 13.4326 25.4954 13.6968C25.4275 13.961 25.4179 14.1569 25.3226 14.2773C25.2022 14.4366 24.814 14.6613 24.7187 14.7725C24.6372 14.8638 24.3926 15.0948 24.4022 15.2617C24.4119 15.386 24.5653 15.4537 24.5984 15.4773C24.6316 15.5008 24.6313 15.5297 24.6935 15.5157C24.7557 15.5016 24.7789 15.4729 24.8042 15.4729C24.8333 15.4767 24.8333 15.4826 24.8469 15.4826C24.8567 15.4823 24.8665 15.481 24.8761 15.4787C24.8761 15.4787 24.8663 15.6554 24.4528 15.7091C24.4236 15.713 24.3945 15.7226 24.3575 15.7285C24.4062 15.7052 24.4352 15.7052 24.4877 15.6334C24.4295 15.6237 24.2624 15.614 24.2197 15.6004C24.2332 15.5771 24.2779 15.5149 24.3148 15.4858C24.3478 15.4568 24.3109 15.4474 24.2819 15.4625C24.2319 15.4966 24.1839 15.5335 24.1381 15.5731C24.0896 15.6159 24.0469 15.6741 23.9692 15.7267C23.9459 15.649 23.9497 15.5015 24.0411 15.3947C24.0177 15.3985 23.973 15.4665 23.9304 15.4529C23.9227 15.3821 23.9273 15.3105 23.944 15.2412C23.9673 15.1538 24.0935 15.0005 24.0935 15.0005L24.7031 13.9111L24.8332 13.0858L23.4371 13.3571V13.3573Z" fill="#92723A"/>
<path fill-rule="evenodd" clip-rule="evenodd" d="M23.4033 13.4037C23.4033 13.4037 23.3703 13.427 23.4364 13.4717C23.4266 13.4853 23.4033 13.5338 23.3742 13.5668C23.3413 13.6052 23.3062 13.629 23.2926 13.662C23.2636 13.73 23.2403 13.7766 23.2403 13.8058C23.2403 13.835 23.2305 14.0213 23.149 14.1416C23.1198 14.1844 23.0868 14.2562 23.0635 14.3047C23.015 14.3901 22.9722 14.4583 22.9625 14.4967C22.9432 14.5647 22.9296 14.7511 22.9296 14.7511C22.9296 14.7511 22.9724 14.6986 22.9878 14.6792C22.9644 14.7278 22.9392 14.7801 22.9023 14.819C22.9256 14.7996 22.9936 14.7511 23.1082 14.6501C23.2674 14.5162 23.516 14.2909 23.819 14.1125C23.7276 14.1455 23.65 14.1455 23.5879 14.1552C23.6364 14.1067 24.0733 13.5941 24.3024 13.5455C24.3163 13.5279 24.3232 13.5058 24.3219 13.4833L24.1256 13.464L23.7276 13.5494L23.6694 13.2422L23.4033 13.4033V13.4037Z" fill="#B18E3E"/>
<path fill-rule="evenodd" clip-rule="evenodd" d="M24.0373 15.152C24.0373 15.152 23.9848 15.2044 23.9363 15.3346C23.899 15.2956 23.8669 15.2518 23.8411 15.2044C23.7693 15.0841 23.6587 14.9306 23.4004 15.018C23.3965 14.9365 23.3907 14.8937 23.4004 14.8355C23.4431 14.8259 23.5732 14.7211 23.7032 14.5676C23.7946 14.4628 23.88 14.3423 23.9382 14.189C23.9766 14.1598 24.0431 14.1113 24.1302 14.0549C24.2545 13.9696 24.404 13.853 24.4273 13.7229C24.3691 13.7462 24.2448 13.8044 24.0583 13.7948C24.1302 13.7618 24.2408 13.7269 24.2273 13.5831C24.2564 13.5637 24.2797 13.5501 24.2797 13.5501C24.2579 13.5428 24.2348 13.5395 24.2118 13.5404C24.2078 13.5268 24.202 13.5075 24.169 13.5171C24.136 13.5267 24.1306 13.5268 24.1263 13.5404C24.1127 13.5444 24.068 13.5404 24.035 13.5638C24.002 13.5872 23.9107 13.6647 23.8758 13.6782C23.8893 13.6549 23.9087 13.6201 23.9087 13.6201C23.9087 13.6201 23.8136 13.6297 23.7456 13.6585C23.6213 13.7013 23.4777 13.779 23.332 13.8546C23.3456 13.8313 23.3515 13.8162 23.3611 13.8119C23.3707 13.8075 23.3941 13.8023 23.3941 13.7983C23.3941 13.7943 23.3845 13.7599 23.3903 13.746C23.4338 13.6537 23.4852 13.5654 23.5439 13.4819C23.6118 13.3905 23.6254 13.2604 23.6254 13.2604L23.9225 13.1109L24.7574 12.9189L25.2993 12.952L25.2313 13.3268L24.9113 13.9811L24.6375 14.5772L24.3248 14.9424L24.0374 15.152H24.0373Z" fill="#543E26"/>
<path fill-rule="evenodd" clip-rule="evenodd" d="M25.3915 13.5299C25.3915 13.5299 25.0653 13.9337 24.974 13.9959C25.0322 13.8717 25.3915 13.1318 25.5216 12.926C25.4925 12.9027 25.4536 12.9027 25.5449 12.542C25.4673 12.7244 25.4401 12.8196 25.3761 12.8681C25.3121 12.9166 25.3041 12.9012 25.2609 12.9012C25.269 12.8864 25.2724 12.8694 25.2705 12.8526C25.2705 12.8526 24.9967 12.8196 24.8097 12.8196C24.6226 12.8196 24.2525 12.9206 24.0465 13.0022C23.8834 13.0701 23.7922 13.0701 23.7339 13.1127C23.6757 13.1613 23.6427 13.2137 23.6135 13.2273C23.5902 13.2409 23.4796 13.2758 23.4543 13.3127C23.431 13.3511 23.3922 13.3942 23.3922 13.4039C23.3922 13.4137 23.3825 13.4274 23.4116 13.4175C23.4212 13.4137 23.4932 13.3748 23.5747 13.3262C23.6853 13.2642 23.8193 13.1924 23.9165 13.1496C24.1941 13.0389 24.2815 13.0583 24.4057 13.035C24.5357 13.0118 24.7222 12.9574 24.8464 12.9574C24.9707 12.9535 25.2057 12.9574 25.2601 12.9671C25.2368 12.9865 25.2173 13.0098 25.2271 13.0914C25.2271 13.1147 25.2076 13.1399 25.1887 13.1962C25.1305 13.3554 25.0198 13.6195 24.9583 13.7535C24.8729 13.9359 24.7759 14.0894 24.7279 14.1845C24.6799 14.2796 24.5743 14.5301 24.4697 14.6641C24.3651 14.7981 24.3105 14.8797 24.2777 14.9088C24.2449 14.938 24.0097 15.1107 24.0272 15.1729C24.0699 15.1593 24.3399 15.0577 24.5359 14.837C24.7318 14.6164 24.7709 14.4817 24.9242 14.3613C25.0776 14.2408 25.198 14.039 25.2698 13.872C25.33 13.7166 25.3164 13.6681 25.3921 13.5303L25.3915 13.5299Z" fill="#806031"/>
<path fill-rule="evenodd" clip-rule="evenodd" d="M18.3588 16.5439C18.3588 16.5439 18.3161 16.7205 18.2189 16.8079C18.1238 16.8934 17.9549 16.9672 17.9356 17.1109C17.9123 17.2545 18.1045 17.3265 18.1045 17.3265C18.1045 17.3265 17.9996 17.4993 17.9996 17.6293C17.9996 17.7633 17.9957 17.7885 18.0093 17.9167C17.9939 17.9266 17.9808 17.9397 17.9709 17.9551C17.9709 17.9551 17.9805 18.0793 18.0757 18.1569C18.1709 18.2345 18.2524 18.2812 18.3009 18.2617C18.3083 18.2776 18.3148 18.2938 18.3203 18.3104C18.3203 18.3104 18.3923 18.1279 18.4408 17.9686C18.4893 17.8056 18.532 17.8287 18.5514 17.6093C18.5707 17.3899 18.7818 17.0132 18.7818 17.0132L18.9258 16.6913L18.6909 16.5088L18.3588 16.5437V16.5439Z" fill="#B6903C"/>
<path fill-rule="evenodd" clip-rule="evenodd" d="M18.7962 16.8604C18.7477 16.9101 18.703 16.9633 18.6624 17.0196C18.6003 17.1051 18.5518 17.1827 18.4605 17.2158C18.3693 17.249 18.311 17.2487 18.3168 17.3401C18.3226 17.4315 18.4081 17.4701 18.4566 17.5167C18.5091 17.5652 18.5518 17.6468 18.5285 17.7382C18.5576 17.7246 18.61 17.709 18.6586 17.6042C18.7071 17.4993 19.0464 16.8605 19.0464 16.8605H18.7962V16.8604Z" fill="#685026"/>
<path fill-rule="evenodd" clip-rule="evenodd" d="M20.1343 15.3865C20.1343 15.3865 20.1633 15.3089 20.1343 15.2526C20.1051 15.1944 19.9284 15.1749 19.841 15.1089C19.7497 15.0409 19.639 14.9937 19.5478 15.0235C19.5613 14.9905 19.6157 14.9185 19.5711 14.9031C19.5283 14.8895 19.3692 14.9613 19.3264 14.9943C19.2837 15.0273 19.1865 15.0661 19.1672 15.0895C19.1479 15.113 19.1147 15.1575 19.0953 15.1381C19.0758 15.1245 19.0662 15.0895 19.0332 15.1089C19.0002 15.1282 18.8412 15.2584 18.8119 15.3342C18.7826 15.4099 18.7167 15.5789 18.5186 15.771C18.3206 15.9631 18.2351 16.0876 18.2934 16.1594C18.3516 16.2312 18.3789 16.1788 18.3886 16.2409C18.3961 16.3019 18.3928 16.3636 18.3789 16.4234C18.3556 16.5244 18.3168 16.6195 18.3691 16.639C18.5031 16.6817 18.6333 16.6006 18.6624 16.6254C18.7206 16.6778 18.6294 16.8662 18.7672 16.9031C18.9071 16.9415 19.045 16.87 19.045 16.87L19.5536 16.5962L20.043 16.3381L20.2934 15.8428L20.1591 15.4293L20.1335 15.3865H20.1343Z" fill="#D4B968"/>
<path fill-rule="evenodd" clip-rule="evenodd" d="M19.6539 16.5688C19.6539 16.5688 19.5684 16.4387 19.6734 16.324C19.7783 16.2094 19.9277 16.161 19.986 16.0892C19.9749 16.0755 19.96 16.0654 19.9432 16.0601C19.9819 15.9909 20.0408 15.9353 20.1122 15.9008C20.0831 15.8717 20.0442 15.8484 20.0016 15.8484C19.9063 15.8484 19.848 15.9066 19.7607 15.9066C19.6753 15.9066 19.6656 15.8639 19.6656 15.8639C19.6656 15.8639 19.8093 15.8503 19.7956 15.7862C19.7821 15.7182 19.7572 15.7182 19.7572 15.7182C19.7572 15.7182 20.0349 15.603 20.0834 15.5416C20.1319 15.4801 20.1261 15.4076 20.1358 15.3785C20.1687 15.3785 20.361 15.2775 20.4387 15.3203C20.5164 15.363 20.462 15.4795 20.462 15.4795C20.462 15.4795 20.6971 15.3027 20.8169 15.1294C20.9218 15.1392 20.9705 15.0576 21.0473 15.0576C21.1426 15.0576 21.2921 15.1877 21.3211 15.4653C21.3406 15.6245 21.3696 15.7158 21.3406 15.9974C21.327 16.1566 21.3309 16.4966 21.379 16.6653C21.4119 16.7993 21.4896 16.7857 21.4896 16.7857C21.4777 16.8266 21.454 16.863 21.4216 16.8906C21.3691 16.9391 21.3634 17.0673 21.3691 17.1159C21.3769 17.1513 21.3866 17.1863 21.3983 17.2207C21.3983 17.2207 21.3362 17.2925 21.3206 17.3411C21.307 17.3896 21.243 17.4227 21.1963 17.4227C21.1496 17.4227 21.173 17.4187 21.1109 17.4227C21.0489 17.4266 21.0294 17.4362 20.9905 17.4227C20.9516 17.4091 20.9225 17.3935 20.9382 17.2691C20.9517 17.1448 20.4585 16.8555 20.4585 16.8555L19.6521 16.5681L19.6539 16.5688Z" fill="#CCA849"/>
<path fill-rule="evenodd" clip-rule="evenodd" d="M18.7292 17.7962C18.7292 17.7962 18.9058 18.0313 19.6321 18.0313C19.9777 18.0313 20.0981 17.9982 20.1697 17.9788C20.2474 17.9593 20.5386 17.8449 20.8318 17.4992C21.0959 17.1866 21.0376 17.0585 21.0376 17.0585L20.884 17.0352L20.3848 17.1031L18.9077 17.7322L18.7285 17.7962H18.7292Z" fill="#585136"/>
<path fill-rule="evenodd" clip-rule="evenodd" d="M19.2697 17.8549C19.2697 17.8549 18.6406 17.9948 18.6406 17.5968C18.6406 17.2084 19.029 16.8006 19.1261 16.7288C19.2271 16.6569 19.4679 16.5752 19.4679 16.5752H20.0485L20.1591 16.8684L20.1106 17.5014L19.2697 17.8548V17.8549Z" fill="#252211"/>
<path fill-rule="evenodd" clip-rule="evenodd" d="M19.8508 16.6929C19.8508 16.6929 19.7305 16.5821 19.4567 16.7313C19.1829 16.8804 18.9614 17.1921 18.9479 17.4751C18.9343 17.7254 19.1537 17.9119 19.4954 17.9217C19.7498 17.9313 19.9033 17.9022 19.9809 17.8833C19.9615 17.86 19.8605 17.7338 19.8605 17.7338L19.8509 16.693L19.8508 16.6929Z" fill="#C3B378"/>
<path fill-rule="evenodd" clip-rule="evenodd" d="M19.7331 16.7558C19.7331 16.7558 19.7041 16.7325 19.6179 16.7791C19.5461 16.8175 19.4413 16.919 19.3597 16.9908C19.3073 17.0336 19.2742 17.0529 19.2445 17.0859C19.1241 17.2297 19.0231 17.4647 19.0815 17.5812C19.1398 17.6976 19.332 17.8317 19.8213 17.7404L19.7317 16.756L19.7331 16.7558Z" fill="#E6D89C"/>
<path fill-rule="evenodd" clip-rule="evenodd" d="M19.5736 16.9956C19.5736 16.9956 19.4959 17.1161 19.4959 17.3083C19.4959 17.5044 19.6066 17.817 20.0144 17.8403C20.327 17.8598 20.5366 17.3899 20.7638 17.2073C20.9366 17.0676 21.0415 17.0636 21.0415 17.0636C21.0415 17.0636 20.8648 16.8716 20.393 16.6229C19.927 16.3724 19.4046 16.3394 19.1211 16.7239C19.2551 16.7142 19.6881 16.6034 19.6881 16.6034L19.8998 16.6714L19.5736 16.9958V16.9956Z" fill="#252211"/>
<path fill-rule="evenodd" clip-rule="evenodd" d="M20.1818 17.2508C20.1683 17.2217 20.1585 17.1828 20.2149 17.1732C20.2712 17.1636 20.2964 17.1692 20.3159 17.2116C20.3353 17.254 20.3543 17.2893 20.3255 17.3068C20.2964 17.3223 20.2206 17.3068 20.1817 17.2505L20.1818 17.2508ZM20.0906 16.977C20.0906 16.977 20.0711 16.9905 20.0808 16.9634C20.0847 16.9305 20.11 16.8721 20.1721 16.8858C20.2342 16.8995 20.2208 16.9674 20.2105 16.9868C20.2003 17.0063 20.1484 17.0392 20.1095 17.0252C20.1046 17.024 20.1 17.0216 20.0962 17.0182C20.0924 17.0148 20.0894 17.0106 20.0875 17.0059C20.0856 17.0012 20.0848 16.9961 20.0853 16.991C20.0857 16.9859 20.0874 16.981 20.0901 16.9767L20.0906 16.977Z" fill="#6F674D"/>
<path fill-rule="evenodd" clip-rule="evenodd" d="M14.8359 17.1008C14.8359 17.1008 14.9895 17.216 15.168 17.2116C15.3446 17.2076 15.5718 17.0252 15.6766 16.9086C15.7387 16.8406 15.7918 16.7688 15.8494 16.7125C15.8981 16.664 15.931 16.6407 15.9543 16.6076C15.9873 16.5692 16.0222 16.4971 16.0398 16.4736C15.997 16.5067 15.9349 16.565 15.8708 16.6038C15.8087 16.6422 15.6747 16.7144 15.6203 16.7339C15.568 16.7533 15.0242 17.0411 15.0242 17.0411L14.8359 17.1008Z" fill="#AC924C"/>
<path fill-rule="evenodd" clip-rule="evenodd" d="M15.0703 15.6661C15.0703 15.6661 15.1557 15.6079 15.3208 15.5709C15.48 15.5325 15.8004 15.5029 15.8004 15.5029L16.0645 15.6181L16.1693 16.0162L15.9773 16.4299L15.7327 16.5835L15.455 16.1369L15.071 15.6669L15.0703 15.6661Z" fill="#9F8E57"/>
<path fill-rule="evenodd" clip-rule="evenodd" d="M14.7242 16.0217L14.6328 16.09C14.6328 16.09 14.6562 16.0472 14.6756 15.9172C14.6949 15.7871 14.796 15.4706 14.9436 15.288C15.0912 15.1055 15.0873 15.1152 15.0873 15.1152C15.0738 15.1128 15.0598 15.1132 15.0464 15.1165C15.033 15.1199 15.0205 15.126 15.0096 15.1346C15.0291 15.0916 15.1534 14.938 15.2777 14.8612C15.402 14.7844 15.4505 14.7602 15.5805 14.8228C15.7106 14.8854 15.7436 14.9179 15.8388 14.914C15.9341 14.9102 16.0155 14.8092 16.0155 14.8092C16.0155 14.8092 16.0349 14.8713 15.9631 15.015C15.8913 15.1588 15.6078 15.4519 15.6078 15.4519L15.0175 15.8557L14.7242 16.0221V16.0217Z" fill="#EAC970"/>
<path fill-rule="evenodd" clip-rule="evenodd" d="M15.1607 15.6182C15.1607 15.6182 15.5879 15.6765 15.718 15.5561C15.7218 15.5697 15.7374 15.5697 15.7374 15.5794C15.7364 15.5868 15.733 15.5936 15.7277 15.5988C15.7419 15.5965 15.7561 15.5952 15.7705 15.5949C15.7876 15.6 15.8052 15.6033 15.8229 15.6047C15.8373 15.6043 15.8516 15.603 15.8657 15.6007C15.8643 15.6103 15.8611 15.6196 15.856 15.628C15.851 15.6363 15.8444 15.6436 15.8365 15.6493C15.856 15.6493 15.8749 15.6532 15.8749 15.6687C15.8749 15.6841 15.8787 15.7309 15.8555 15.7406C15.8362 15.7459 15.8156 15.7445 15.7972 15.7366C15.7988 15.7734 15.8087 15.8093 15.8264 15.8416C15.8648 15.9134 15.9467 15.9952 16.0568 15.9716C16.0568 15.9716 16.1149 16.1114 15.8703 16.4221C15.8374 16.4648 15.8023 16.5231 15.7597 16.5716C15.7429 16.6083 15.73 16.6467 15.7213 16.6861C15.7213 16.6861 16.135 16.5269 16.2534 16.1638C16.3739 15.7987 16.3971 15.4395 16.3739 15.1037C16.3699 15.0084 16.3544 14.9406 16.3311 14.8919C16.2729 14.7715 16.1097 14.791 16.0437 14.8589C15.9485 14.9542 15.7893 15.191 15.568 15.354C15.3427 15.5171 15.3331 15.546 15.1602 15.6182H15.1607Z" fill="#D7BC6B"/>
<path fill-rule="evenodd" clip-rule="evenodd" d="M14.6481 16.1416C14.6481 16.1416 14.5665 16.1901 14.5238 16.372C14.481 16.5583 14.5622 16.7855 14.6091 16.8573C14.6561 16.9291 14.7627 17.1254 14.9839 17.1351C15.0387 17.1348 15.0928 17.1236 15.1432 17.1021C15.2204 17.0667 15.2928 17.0216 15.3587 16.9681C15.4539 16.8962 15.5315 16.8342 15.5218 16.8283C15.4985 16.8185 14.9354 16.3525 14.9354 16.3525L14.7237 16.1162L14.6479 16.1418L14.6481 16.1416Z" fill="#585136"/>
<path fill-rule="evenodd" clip-rule="evenodd" d="M15.1823 16.9146C15.1823 16.9146 15.2969 16.905 15.3649 16.8623C15.4328 16.8195 14.9668 16.3574 14.9668 16.3574L14.9998 16.8566L15.1823 16.9146Z" fill="#453A25"/>
<path fill-rule="evenodd" clip-rule="evenodd" d="M14.6852 16.107C14.6852 16.107 14.6269 16.2178 14.6269 16.2469C14.6172 16.342 14.6464 16.641 14.6697 16.7362C14.693 16.8371 14.8192 16.9905 14.9824 16.9905C15.0832 16.9905 15.2231 16.9284 15.2231 16.9129C15.2231 16.8935 15.0794 16.8745 15.0406 16.8022C15.0173 16.7638 15.0076 16.6683 15.0022 16.5718C14.9984 16.5097 14.9984 16.4418 15.0217 16.4182C15.0742 16.36 15.0838 16.1929 15.0838 16.1929L15.2701 15.8467H15.025L14.7318 16.0292L14.6852 16.107Z" fill="#84754B"/>
<path fill-rule="evenodd" clip-rule="evenodd" d="M14.6152 16.2137C14.6152 16.2137 14.8072 15.9594 14.9803 15.901C15.1533 15.8427 15.2308 15.8777 15.2308 15.8777L15.1298 16.136L14.9861 16.2953L14.9958 16.3768C14.9958 16.3768 14.9724 16.5924 15.1161 16.7419C15.2598 16.8914 15.3666 16.8856 15.4288 16.8856C15.491 16.8856 15.6696 16.8331 15.7608 16.6176C15.8424 16.4157 15.9103 16.1568 15.7473 15.8972C15.5879 15.6389 15.3064 15.6289 15.252 15.6289C15.1976 15.6289 14.7705 15.6503 14.6152 16.2134V16.2137Z" fill="#252211"/>
<path fill-rule="evenodd" clip-rule="evenodd" d="M19.5442 17.0778C19.4724 17.0448 19.5404 16.8429 19.6122 16.7807C19.684 16.7185 19.7753 16.6469 19.9346 16.637C19.9927 16.6332 20.0491 16.67 20.0395 16.7089C20.0259 16.7807 19.9249 16.8817 19.8336 16.9535C19.7074 17.0526 19.6258 17.1147 19.5442 17.0778Z" fill="#F7F7E7"/>
<path fill-rule="evenodd" clip-rule="evenodd" d="M15.6594 15.9768C15.7119 15.973 15.7799 16.0152 15.7935 16.072C15.807 16.1341 15.7604 16.2584 15.6594 16.2584C15.5779 16.2584 15.5352 16.1574 15.5352 16.1284C15.5361 16.1045 15.5427 16.0811 15.5546 16.0604C15.5585 16.0545 15.5682 15.9865 15.6594 15.9768V15.9768Z" fill="#F8F6DE"/>
<path fill-rule="evenodd" clip-rule="evenodd" d="M14.9033 16.0215C14.9033 16.0215 14.7693 16.0836 14.7072 16.2135C14.6628 16.3094 14.6494 16.4168 14.6688 16.5207C14.6785 16.5692 14.727 16.6895 14.7601 16.7323C14.7931 16.775 14.8378 16.8042 14.8708 16.8002C14.9038 16.7963 14.9716 16.709 14.9716 16.6566C14.9716 16.6043 14.9756 16.3828 15.0396 16.2624C15.0959 16.1421 14.9037 16.0216 14.9037 16.0216L14.9033 16.0215Z" fill="#D4C38B"/>
<path fill-rule="evenodd" clip-rule="evenodd" d="M14.9231 16.0119C14.8998 16.0255 14.861 16.045 14.8706 16.0702C14.8804 16.0935 14.9619 16.1086 14.9911 16.1654C15.0241 16.2236 15.0241 16.2857 15.0144 16.3149C15.0397 16.3029 15.0628 16.2864 15.0824 16.2663C15.1251 16.2178 15.1775 16.1518 15.2221 16.1518C15.2513 16.1518 15.2804 16.1654 15.3076 16.1654C15.3504 16.1654 15.393 16.1518 15.3989 16.1072C15.4085 16.0489 15.3174 15.9964 15.2649 16.0062C15.2746 15.9678 15.2882 15.9111 15.2454 15.8722C15.2027 15.8332 15.0688 15.9013 15.0396 15.9208C15.0104 15.9403 14.9231 16.0121 14.9231 16.0121V16.0119Z" fill="#E2D59D"/>
<path fill-rule="evenodd" clip-rule="evenodd" d="M18.0062 20.0917L18.2936 20.0068L18.3751 20.0651C18.3751 20.0651 18.4332 20.1894 18.5246 20.2049C18.4954 20.2669 18.4197 20.3201 18.4236 20.3641C18.4276 20.4081 18.4664 20.4418 18.4664 20.4418C18.4664 20.4418 18.2081 20.8689 18.7169 21.2994C18.5964 21.3479 18.4431 21.4146 18.3615 21.453C18.4197 21.4665 18.5439 21.4914 18.5964 21.5385C18.6489 21.5856 18.6489 21.6006 18.6974 21.6297C18.7459 21.6589 18.775 21.6977 18.7654 21.7151C18.7324 21.6957 18.6216 21.6376 18.6023 21.6918C18.583 21.7461 18.1227 21.7249 18.1227 21.7249L17.346 21.8744C17.346 21.8744 17.375 21.7967 17.2935 21.7249C17.1984 21.6395 17.0819 21.7287 16.9576 21.6336C16.7946 21.5093 16.7887 21.3656 16.7363 21.3113C16.7887 21.2783 16.8956 21.2297 17.1499 21.1961C17.1402 21.1766 17.1071 21.1184 17.1266 21.066C17.1499 20.9981 17.2469 20.9553 17.2179 20.874C17.2606 20.8643 17.2799 20.8643 17.3868 20.7303C17.4878 20.5963 17.5499 20.5672 17.6276 20.5575C17.7053 20.5478 17.7519 20.5575 17.8956 20.4235C17.9965 20.3284 17.9636 20.2468 17.9636 20.2468C17.9636 20.2468 18.0295 20.2255 18.0063 20.0914L18.0062 20.0917Z" fill="#CBAC5A"/>
<path fill-rule="evenodd" clip-rule="evenodd" d="M17.1587 20.1347C17.1625 20.1152 17.1781 20.1055 17.2829 20.1152C17.3878 20.1249 18.0518 20.0531 18.2324 20.0434C18.415 20.0298 19.0577 20.0394 19.3704 20.1055C19.6831 20.1715 19.9995 20.2492 20.1528 20.288C20.3064 20.3308 20.3548 20.3461 20.3489 20.3656C20.3451 20.385 20.3105 20.404 20.2907 20.3986C20.2714 20.3948 19.7626 20.2394 19.6054 20.2066C19.4482 20.1738 18.9043 20.0862 18.607 20.0914C18.3293 20.0954 18.2186 20.0876 17.9837 20.1147C17.7487 20.1439 17.3604 20.1827 17.2439 20.1672C17.1287 20.1536 17.1525 20.1536 17.1584 20.1342L17.1587 20.1347Z" fill="#D6BC6F"/>
<path fill-rule="evenodd" clip-rule="evenodd" d="M18.7226 21.6559C18.7226 21.6559 19.1206 21.8715 19.2644 22.1356C19.3692 22.3317 19.2023 22.4288 19.2023 22.4288C19.2023 22.4288 19.4276 22.4288 19.3984 22.5531C19.3848 22.6307 19.0101 22.8403 18.7596 22.951C18.5052 23.0618 18.515 23.056 18.3907 23.0753C18.2702 23.0948 17.9401 23.0369 17.8721 23.1336C17.8042 23.2302 17.8337 23.3298 17.8527 23.3453C17.8721 23.3589 18.0294 23.3783 18.0294 23.3783C18.0294 23.3783 17.9964 23.4696 17.6703 23.4793C17.3441 23.489 17.2625 23.5122 17.243 23.5473C17.2236 23.5802 17.3051 23.5608 17.4547 23.5857C17.6042 23.609 17.8139 23.6241 17.8139 23.6241C17.8139 23.6241 17.7459 23.6823 17.5693 23.7289C17.3673 23.7813 17.0508 23.8299 16.9557 23.8881C17.0042 23.9212 17.0761 23.9697 17.1093 23.9735C17.0277 23.993 16.913 24.0357 16.8937 24.0512C16.9228 24.0707 16.9617 24.094 16.9617 24.094C16.9617 24.094 16.7985 24.2901 16.7034 24.3387C16.6083 24.3873 16.0607 24.6415 15.8723 24.593C15.4024 24.4687 15.3441 23.9542 15.2296 23.9154C15.0568 23.8572 14.9752 23.9735 14.8218 23.892C14.8897 23.8435 14.9267 23.8144 14.9985 23.7814C14.9208 23.743 14.5189 23.4881 14.5189 23.4881C14.4769 23.3965 14.4302 23.3071 14.3791 23.2202C14.3014 23.0862 14.1871 22.9075 14.1014 22.7502C13.915 22.4046 13.9053 22.2454 13.7363 22.0493C13.7655 22.0109 13.8664 22.0163 13.8664 22.0163L15.2821 22.4823L17.7923 22.555L18.4451 21.623L18.7227 21.6561L18.7226 21.6559Z" fill="#DFC677"/>
<path fill-rule="evenodd" clip-rule="evenodd" d="M15.0039 23.0776C15.0191 23.0945 15.0367 23.1089 15.0563 23.1204C15.1049 23.1534 15.1767 23.1923 15.2252 23.2504C15.2447 23.2213 15.2932 23.1689 15.3788 23.2504C15.4644 23.3319 15.5708 23.2738 15.637 23.2932C15.705 23.3166 15.7088 23.3262 15.7088 23.3262C15.7088 23.3262 15.7472 23.2932 15.8331 23.2582C15.8856 23.2388 15.9477 23.2252 16.0156 23.2059C16.0777 23.1923 16.1457 23.1728 16.1924 23.1728C16.2351 23.2019 16.3885 23.3648 17.004 23.1243C17.5846 22.899 17.7185 22.8738 17.8157 22.9086C17.8254 22.8853 17.8351 22.8407 17.9846 22.8466C17.9846 22.7845 17.8604 22.5728 17.8604 22.5728L17.1749 22.3379H16.8L15.6758 22.5437L15.0528 22.8992L15.0043 23.0784L15.0039 23.0776Z" fill="#C4A859"/>
<path fill-rule="evenodd" clip-rule="evenodd" d="M14.6289 22.6839C14.6289 22.6839 14.6425 22.7888 14.7979 22.8995C14.9515 23.0101 14.9997 23.0761 14.9997 23.0761C14.9997 23.0761 15.0289 23.0377 15.0522 22.9986C15.0755 22.9558 15.095 22.9073 15.1337 22.8937C15.2114 22.8607 15.3881 22.9228 15.427 22.9131C15.46 22.9035 15.4503 22.8355 15.4852 22.8355C15.5668 22.8315 15.6191 22.8878 15.6483 22.8878C15.6775 22.8878 15.7492 22.884 15.7589 22.8685C15.7686 22.853 15.7725 22.6917 15.8832 22.614C16.0036 22.5287 16.1512 22.5655 16.1904 22.585C16.1904 22.614 16.1942 22.686 16.2719 22.6898C16.3496 22.6937 16.3573 22.6801 16.4255 22.7034C16.4937 22.7267 16.575 22.6996 16.6119 22.814C16.6449 22.8044 16.7226 22.7947 16.7031 22.6839C16.7415 22.6549 16.7751 22.6354 16.8567 22.5209C16.8762 22.4918 16.9091 22.4588 16.9344 22.416C17.0024 22.416 17.0839 22.4025 17.1926 22.4976C17.1596 22.5209 17.1401 22.536 17.1305 22.5596C17.159 22.5878 17.1849 22.6183 17.2081 22.6509C17.2373 22.6893 17.2567 22.7364 17.2936 22.7461C17.3751 22.7694 17.5092 22.7364 17.6587 22.7461C17.8024 22.7559 17.9227 22.8082 17.9752 22.8412C17.9947 22.8316 17.9947 22.8277 18.0432 22.8374C18.0917 22.8471 18.1286 22.851 18.0762 22.7889C18.1053 22.8025 18.1383 22.8316 18.1675 22.8025C18.1966 22.7733 18.2198 22.7307 18.3014 22.7209C18.3829 22.7112 18.4121 22.7248 18.4451 22.6394C18.4878 22.5346 18.3403 22.5346 18.3403 22.5346C18.3403 22.5346 18.4082 22.4724 18.484 22.3908C18.5753 22.3054 18.6801 22.1947 18.7053 22.0588C18.7481 21.8083 18.5035 21.7754 18.5035 21.7754L17.317 22.1404L15.8665 22.0685L14.6297 22.6841L14.6289 22.6839Z" fill="#927D49"/>
<path fill-rule="evenodd" clip-rule="evenodd" d="M13.5633 19.2568C13.5633 19.2568 13.5249 19.3053 13.5012 19.4198C13.4775 19.5344 13.4876 19.5208 13.4682 19.6024C13.4487 19.6839 13.2097 20.4956 13.2993 20.7693C13.3889 21.0431 13.5441 21.1441 13.6411 21.3654C13.6605 21.414 13.6795 21.4431 13.6896 21.4859C13.7226 21.6295 13.6936 21.7402 13.7323 21.884C13.7459 21.9325 13.781 21.9888 13.8333 22.047C13.9485 22.1674 14.1363 22.2819 14.2173 22.3635C14.3318 22.4839 14.495 22.7286 14.7027 22.7518C14.8134 22.7654 14.9707 22.7188 15.1008 22.6412C15.216 22.5693 15.2872 22.4684 15.408 22.4108C15.4934 22.3681 15.5846 22.3526 15.6662 22.3331C15.8351 22.3001 15.9886 22.2947 16.0799 22.3137C16.2196 22.3428 16.5498 22.4438 16.7327 22.4438C16.8756 22.4415 17.0177 22.422 17.156 22.3856C17.4336 22.3041 17.7695 22.1642 17.9909 22.1021C18.121 22.0637 18.2258 22.0536 18.3327 22.0303C18.5152 21.9875 18.6685 21.9293 18.756 21.8186C18.6977 21.7506 18.6259 21.6458 18.2374 21.6496C17.7967 21.6593 17.2879 21.9039 17.0374 21.9428C16.7869 21.9818 16.6783 22.0147 16.3986 21.9137C16.1244 21.8116 16.1153 21.7442 16.1153 21.7442C16.1153 21.7442 15.8275 21.5428 15.707 21.0296C15.5866 20.5163 15.707 20.1423 16.0197 19.7868C16.1012 19.6956 16.0818 19.614 16.0818 19.614C16.0818 19.614 16.2876 19.3364 16.2313 19.0764C16.1692 18.8181 15.7711 18.8706 15.7711 18.8706L13.5634 19.2568H13.5633Z" fill="#6E6342"/>
<path fill-rule="evenodd" clip-rule="evenodd" d="M13.8947 20.1201C13.8775 20.1523 13.8695 20.1885 13.8714 20.2249C13.8752 20.2773 13.8908 20.3453 14.048 20.4987C14.182 20.6326 14.1528 20.7821 14.1528 20.7821C14.1528 20.7821 14.2203 20.7957 14.4033 20.7101C14.5471 20.6421 14.5953 20.7625 14.5953 20.7625C14.6372 20.7406 14.6825 20.7261 14.7293 20.7198C14.7718 20.7159 14.8128 20.7028 14.8497 20.6814C14.8497 20.6814 15.0186 20.8542 15.1662 20.9357C15.3002 21.0077 15.3779 21.0562 15.444 21.0077C15.506 20.9649 15.506 20.8775 15.5021 20.8387C15.4867 20.8029 15.4672 20.769 15.444 20.7377C15.4012 20.6756 15.3332 20.6037 15.3288 20.5457C15.319 20.4118 15.4298 20.2525 15.4063 20.2137C15.3829 20.1749 15.2957 20.1652 15.0802 20.2429C14.857 20.3166 13.8938 20.1205 13.8938 20.1205L13.8947 20.1201Z" fill="#39331F"/>
<path fill-rule="evenodd" clip-rule="evenodd" d="M14.4023 20.9887C14.4023 20.9887 14.2917 20.8839 14.3305 20.3751C14.3775 20.3744 14.4243 20.3789 14.4703 20.3886C14.4703 20.3886 14.5306 20.7829 14.4023 20.9887Z" fill="#292311"/>
<path fill-rule="evenodd" clip-rule="evenodd" d="M13.6158 18.8677C13.6312 18.8562 13.6455 18.8434 13.6585 18.8293C13.6201 18.9011 13.4428 19.1884 13.5866 19.6409C13.7303 20.0913 14.0914 20.4272 14.5361 20.4428C14.9808 20.4584 15.2145 20.2408 15.4818 19.9147C15.5866 19.7846 15.707 19.6214 15.8138 19.5109C15.973 19.3379 16.0973 19.2894 16.0973 19.1225C16.0973 18.7807 15.7477 18.6273 15.2332 18.4739C14.7186 18.3206 14.2545 18.3395 14.0137 18.4445C13.7788 18.5589 13.6778 18.6794 13.6156 18.8678L13.6158 18.8677Z" fill="#252211"/>
<path fill-rule="evenodd" clip-rule="evenodd" d="M15.268 21.1417L15.3064 21.1222C15.3064 21.1222 15.316 20.9686 15.3782 20.9727C15.4402 20.9825 15.4694 21.0641 15.4635 21.0932C15.4597 21.1222 15.4442 21.1709 15.382 21.165C15.3005 21.1669 15.2676 21.1417 15.2676 21.1417H15.268Z" fill="#3F3824"/>
<path fill-rule="evenodd" clip-rule="evenodd" d="M15.0957 20.4891C15.0957 20.4891 15.1341 20.4756 15.1811 20.5222C15.2195 20.5222 15.3869 20.5027 15.4394 20.5357C15.4919 20.5688 15.5074 20.5978 15.5074 20.5978C15.5074 20.5978 15.3113 20.6406 15.2044 20.5978C15.0957 20.561 15.0957 20.4891 15.0957 20.4891V20.4891Z" fill="#2D2815"/>
<path fill-rule="evenodd" clip-rule="evenodd" d="M15.9588 20.5179C15.9588 20.5082 15.854 20.4364 15.7432 20.4129C15.7238 20.4091 15.7198 20.4227 15.7048 20.4227C15.6951 20.4188 15.6913 20.3896 15.6913 20.3896L15.6283 20.4228C15.6283 20.4228 15.6186 20.4364 15.6516 20.4612C15.6806 20.4845 15.7293 20.504 15.7429 20.5427C15.7564 20.5815 15.7564 20.5951 15.7623 20.601C15.7661 20.6048 15.8341 20.601 15.8671 20.5815C15.9002 20.5621 15.9624 20.5303 15.9584 20.5175L15.9588 20.5179Z" fill="#82764F"/>
<path fill-rule="evenodd" clip-rule="evenodd" d="M14.9785 20.9128C14.9785 20.9128 14.9978 20.7789 15.128 20.773C15.2619 20.7633 15.2873 20.8933 15.2873 20.8933L15.2096 20.971C15.2096 20.9691 15.1513 20.8875 14.9792 20.9128H14.9785Z" fill="#2D2816"/>
<path fill-rule="evenodd" clip-rule="evenodd" d="M15.8237 20.3358C15.8237 20.3358 15.7518 20.4135 15.5927 20.4368C15.5791 20.4173 15.5499 20.3785 15.5927 20.3164C15.6355 20.2544 15.684 20.2349 15.7325 20.2542C15.7539 20.2577 15.7738 20.2672 15.79 20.2817C15.8062 20.2961 15.8179 20.3149 15.8237 20.3358V20.3358Z" fill="#574F35"/>
<path fill-rule="evenodd" clip-rule="evenodd" d="M16.1169 20.4312C16.1208 20.4118 16.1073 20.4079 16.1169 20.3982C16.1265 20.3885 16.1791 20.3692 16.1888 20.3788C16.1927 20.3827 16.1888 20.3982 16.1888 20.4172C16.1888 20.4361 16.1888 20.4556 16.1791 20.4695C16.1655 20.489 16.1267 20.4987 16.1073 20.4929C16.0878 20.4872 16.084 20.4599 16.084 20.4545C16.0936 20.4507 16.1169 20.441 16.1169 20.4312ZM16.4484 20.2216C16.4484 20.2118 16.4814 20.1924 16.5009 20.1924C16.5299 20.1924 16.5299 20.2157 16.5339 20.2216C16.5435 20.2254 16.5435 20.2176 16.5532 20.2351C16.563 20.2527 16.5767 20.2836 16.5668 20.3031C16.5569 20.3226 16.5183 20.336 16.5087 20.3322C16.4951 20.3224 16.4524 20.2351 16.4484 20.2216V20.2216Z" fill="#82764F"/>
<path fill-rule="evenodd" clip-rule="evenodd" d="M15.7812 20.4757C15.7812 20.4757 15.824 20.4853 15.8822 20.534C15.8628 20.5475 15.8336 20.563 15.8336 20.563C15.8336 20.563 15.8298 20.5183 15.7812 20.4756V20.4757Z" fill="#6E6342"/>
<path fill-rule="evenodd" clip-rule="evenodd" d="M15.6851 20.0489C15.6754 20.0393 15.7142 20.016 15.7375 20.0198C15.7608 20.0237 15.7705 20.0393 15.7957 20.0431C15.8209 20.047 15.8249 20.0334 15.8341 20.0237C15.8433 20.0139 15.8769 20.0198 15.8826 20.0237C15.8862 20.0279 15.8895 20.0325 15.8924 20.0372C15.8928 20.0298 15.8947 20.0226 15.898 20.016C15.9013 20.0094 15.906 20.0036 15.9117 19.9988C15.9191 19.9934 15.9277 19.9896 15.9368 19.988C15.9459 19.9863 15.9553 19.9867 15.9642 19.9891C15.968 20.0027 15.9875 20.0512 15.9836 20.0609C15.9798 20.0706 15.9215 20.0843 15.9117 20.0745C15.9214 20.0979 15.9642 20.1464 15.9699 20.156C15.9757 20.1656 15.9272 20.189 15.9078 20.1852C15.8807 20.1833 15.7137 20.0861 15.6846 20.0493L15.6851 20.0489ZM15.9395 19.7266C15.9359 19.7168 15.929 19.7086 15.92 19.7033C15.9064 19.6994 15.8618 19.7033 15.8618 19.7266C15.8618 19.7499 15.9002 19.8802 15.9433 19.948C15.9919 20.016 16.0248 20.0722 16.0579 20.0878C16.0682 20.0925 16.08 20.0931 16.0908 20.0895C16.1016 20.0859 16.1107 20.0783 16.1161 20.0683C16.1199 20.0586 16.1297 19.9868 16.1258 19.8178C16.122 19.6489 16.1161 19.4858 16.1064 19.4761C16.0966 19.4663 16.0579 19.4665 16.0443 19.4858C16.0307 19.5051 15.9433 19.6975 15.9393 19.7266H15.9395Z" fill="#585136"/>
<path fill-rule="evenodd" clip-rule="evenodd" d="M15.7685 20.7201C15.7685 20.7201 15.7005 20.6773 15.6345 20.7065C15.5724 20.7357 15.5762 20.8502 15.5762 20.8502C15.5902 20.8557 15.6053 20.8577 15.6202 20.856C15.6351 20.8543 15.6493 20.849 15.6617 20.8405C15.7045 20.8114 15.7587 20.7629 15.7685 20.7202V20.7201Z" fill="#574F35"/>
<path fill-rule="evenodd" clip-rule="evenodd" d="M15.8958 20.8741C15.892 20.8357 15.8574 20.8357 15.8574 20.8158C15.8598 20.8064 15.8653 20.7979 15.873 20.792C15.8808 20.786 15.8903 20.7827 15.9 20.7828C15.9195 20.7828 15.9384 20.8061 15.9623 20.8212C15.9855 20.8348 16.0205 20.8596 16.0243 20.8892C16.0282 20.9188 15.9859 20.9998 15.939 20.9998C15.892 20.9998 15.9059 20.9123 15.8962 20.8736L15.8958 20.8741ZM16.2706 20.8216C16.2706 20.8216 16.1929 20.8449 16.1987 20.8216C16.2044 20.7983 16.2221 20.7925 16.2473 20.7925C16.2601 20.7791 16.2774 20.7708 16.2958 20.7691C16.3064 20.7686 16.3168 20.7721 16.3249 20.7788C16.3249 20.7788 16.3774 20.7556 16.3928 20.7691C16.4083 20.7827 16.3968 20.7827 16.4064 20.7983C16.4186 20.8156 16.4267 20.8356 16.4298 20.8565C16.4298 20.872 16.3716 20.9051 16.3249 20.8993C16.2706 20.8876 16.2802 20.8313 16.2706 20.8216V20.8216ZM16.723 20.7342C16.723 20.7342 16.7463 20.7477 16.7269 20.7634C16.7134 20.7769 16.6454 20.8018 16.587 20.8061C16.5288 20.8061 16.4764 20.8157 16.4764 20.7964C16.4764 20.7771 16.5249 20.7381 16.554 20.7284C16.5598 20.7211 16.5672 20.7152 16.5757 20.7112C16.5841 20.7072 16.5933 20.7051 16.6026 20.7051C16.6259 20.7051 16.7171 20.6954 16.7424 20.6916C16.7657 20.6876 16.7852 20.7012 16.7715 20.7206C16.7657 20.7342 16.723 20.7342 16.723 20.7342V20.7342ZM16.857 20.1346C16.857 20.1346 16.8278 20.1967 16.7949 20.1967C16.7619 20.1929 16.7619 20.1831 16.7619 20.1734C16.7619 20.1598 16.7949 20.1249 16.7909 20.1152C16.7813 20.1152 16.7579 20.1152 16.7619 20.0919C16.7619 20.0724 16.7949 20.0491 16.824 20.0535C16.8459 20.0354 16.8732 20.0252 16.9016 20.0244C16.9347 20.0244 16.9637 20.034 16.9637 20.0535C16.9637 20.0729 16.9253 20.1156 16.9112 20.1254C16.8958 20.1409 16.8763 20.151 16.857 20.135V20.1346ZM16.4142 21.2821C16.4142 21.2821 16.3758 21.2861 16.3758 21.3054C16.3758 21.3152 16.3854 21.3152 16.3991 21.3094C16.407 21.309 16.4148 21.3076 16.4224 21.3054C16.4263 21.3094 16.4263 21.3287 16.4554 21.3287C16.4794 21.3255 16.5025 21.3176 16.5234 21.3054C16.5467 21.2958 16.5662 21.286 16.5662 21.267C16.5564 21.234 16.537 21.2184 16.5079 21.2184C16.493 21.2175 16.4782 21.2208 16.4652 21.2281C16.4652 21.2281 16.4554 21.2087 16.4224 21.2281C16.3894 21.2476 16.3932 21.2476 16.403 21.2573C16.4204 21.2728 16.4146 21.2829 16.4146 21.2829L16.4142 21.2821ZM16.1948 21.4841C16.1948 21.4744 16.2433 21.4549 16.2569 21.4608C16.2705 21.4647 16.3093 21.5384 16.3093 21.5462C16.3093 21.5559 16.2607 21.5792 16.2413 21.5792C16.2218 21.5792 16.1889 21.5462 16.1889 21.5408C16.1889 21.537 16.2122 21.5312 16.2122 21.5273C16.218 21.5177 16.1948 21.4942 16.1948 21.4845V21.4841ZM16.0412 21.2006C16.051 21.1968 16.051 21.187 16.0645 21.1773C16.0688 21.1745 16.0736 21.1727 16.0787 21.172C16.0837 21.1713 16.0889 21.1718 16.0937 21.1735C16.0971 21.1674 16.1019 21.1621 16.1076 21.158C16.1133 21.154 16.1198 21.1513 16.1267 21.15C16.15 21.1462 16.1695 21.15 16.1651 21.1598C16.1651 21.189 16.1846 21.2083 16.1846 21.2316C16.1846 21.2549 16.171 21.2841 16.1225 21.3035C16.074 21.3171 16.0079 21.3171 15.9982 21.3132C15.9885 21.3094 15.9788 21.2705 15.9885 21.251C15.9982 21.2316 16.0254 21.2103 16.041 21.2006H16.0412Z" fill="#82764F"/>
<path fill-rule="evenodd" clip-rule="evenodd" d="M16.1033 21.2139C16.1033 21.2139 16.0703 21.2333 16.0703 21.2431C16.0674 21.2524 16.0661 21.2623 16.0665 21.2721C16.0665 21.2779 16.1092 21.2683 16.115 21.2624C16.1169 21.2585 16.1033 21.224 16.1033 21.2139Z" fill="#6E6342"/>
<path fill-rule="evenodd" clip-rule="evenodd" d="M15.8142 21.1225C15.8336 21.1264 15.8666 21.1225 15.8918 21.1322C15.9112 21.1419 15.9248 21.1614 15.9054 21.1847C15.8859 21.208 15.867 21.2429 15.8238 21.237C15.7753 21.2332 15.7287 21.208 15.7287 21.1885C15.7279 21.1762 15.7295 21.1639 15.7335 21.1522C15.7375 21.1405 15.7438 21.1298 15.752 21.1205C15.7715 21.105 15.7811 21.1148 15.8141 21.1225H15.8142Z" fill="#585136"/>
<path fill-rule="evenodd" clip-rule="evenodd" d="M15.7899 21.1416C15.7899 21.1416 15.7278 21.1901 15.7122 21.2135C15.6928 21.2368 15.5976 21.3572 15.5686 21.3824C15.5782 21.3653 15.5892 21.3491 15.6015 21.3339C15.5631 21.3584 15.5343 21.3954 15.52 21.4387C15.4967 21.5106 15.6501 21.5494 15.751 21.5786C15.8519 21.6078 15.8909 21.617 15.8909 21.617C15.8538 21.5612 15.8219 21.5021 15.7957 21.4404C15.7573 21.3491 15.7374 21.3394 15.7626 21.2966C15.7821 21.2539 15.8113 21.2248 15.8113 21.1918C15.7996 21.1611 15.7899 21.1416 15.7899 21.1416Z" fill="#574F35"/>
<path fill-rule="evenodd" clip-rule="evenodd" d="M13.5764 21.2959C13.5906 21.2985 13.605 21.2985 13.6192 21.2959C13.6482 21.2919 13.9512 21.1807 14.2678 21.2006C14.5047 21.215 14.7396 21.2536 14.9687 21.3158C15.3668 21.4207 15.8619 21.6284 16.1823 21.7469C16.2676 21.7798 16.3512 21.8382 16.4127 21.8614C16.6574 21.9566 16.667 21.9566 16.8107 21.9818C16.9797 22.0051 17.1525 21.9488 17.3331 21.91C17.5544 21.8614 17.933 21.8381 18.2651 21.7896C18.3724 21.7747 18.4783 21.7507 18.5816 21.7178C18.5816 21.7178 18.3175 21.9818 17.6845 22.0769C17.4286 22.1158 17.1685 22.1191 16.9117 22.0867C16.7097 22.0672 16.5759 22.038 16.4749 22.009C16.3603 21.9759 16.1253 21.8885 15.836 21.817C15.634 21.7645 15.4087 21.7257 15.1506 21.6772C14.5136 21.5606 13.8224 21.4267 13.5762 21.2966L13.5764 21.2959Z" fill="#252211"/>
<path fill-rule="evenodd" clip-rule="evenodd" d="M12.8618 20.0957C12.7082 20.2258 12.5453 20.35 12.3862 20.4704L11.9066 20.8389C11.7435 20.9592 11.5843 21.0835 11.4211 21.2039C11.2579 21.3244 11.0949 21.4388 10.9219 21.5495C11.0755 21.4195 11.2384 21.299 11.4015 21.1806C11.5646 21.0622 11.7337 20.9461 11.891 20.8261L12.3706 20.457C12.5356 20.3367 12.6948 20.2124 12.8618 20.096V20.0957ZM12.0133 21.4549C12.0133 21.4549 12.1861 21.3112 12.4017 21.1093C12.6696 20.859 12.9978 20.5385 13.1026 20.4803L12.0132 21.4551L12.0133 21.4549Z" fill="#CFB66C"/>
<path fill-rule="evenodd" clip-rule="evenodd" d="M12.0137 21.4543C12.0992 21.3689 12.1904 21.2854 12.2817 21.2038L12.4215 21.0835C12.4642 21.0451 12.5129 21.0019 12.5555 20.9592C12.6409 20.8738 12.7245 20.7824 12.8098 20.6951C12.8521 20.6512 12.8969 20.6097 12.9438 20.5708C12.9673 20.55 12.9934 20.5324 13.0214 20.5183C13.0448 20.5048 13.0701 20.4799 13.103 20.4756C13.0836 20.5048 13.0603 20.5183 13.0409 20.5436C13.0176 20.563 12.9981 20.5863 12.9788 20.6056C12.936 20.6484 12.8875 20.6872 12.8448 20.7261C12.7535 20.8038 12.6584 20.8797 12.5671 20.961C12.4759 21.0422 12.3905 21.1299 12.2991 21.2115C12.2002 21.295 12.1089 21.3766 12.0137 21.4547V21.4543ZM13.1749 20.6776C13.1749 20.6776 12.5419 21.2971 12.4118 21.398L13.1749 20.6776Z" fill="#CFB66C"/>
<path fill-rule="evenodd" clip-rule="evenodd" d="M13.1752 20.6777C13.1183 20.7436 13.0573 20.8059 12.9925 20.8641L12.8005 21.0466C12.7384 21.1087 12.68 21.1709 12.6141 21.233C12.5461 21.2912 12.484 21.3482 12.4121 21.402L12.5985 21.2194C12.6607 21.1574 12.7287 21.105 12.7947 21.0428L12.9811 20.8603C13.0451 20.7963 13.1073 20.7341 13.1752 20.6777V20.6777ZM13.2043 21.0136C13.146 21.1764 13.0772 21.3354 12.9985 21.4894C12.8354 21.8157 12.5908 22.2233 12.4839 22.4312L13.2043 21.0136Z" fill="#CFB66C"/>
<path fill-rule="evenodd" clip-rule="evenodd" d="M13.2028 21.0137C13.2028 21.0855 13.1834 21.1477 13.1601 21.2098C13.1374 21.2719 13.1115 21.3328 13.0825 21.3923C13.0533 21.4505 13.0203 21.5127 12.9873 21.5691C12.9543 21.6254 12.9155 21.6835 12.8863 21.7419L12.6902 22.0875C12.6222 22.2027 12.5562 22.3185 12.4844 22.4292C12.5329 22.3049 12.5989 22.1885 12.6611 22.0739C12.7291 21.9587 12.7912 21.8435 12.8531 21.7243C12.8834 21.6649 12.9106 21.6041 12.9347 21.5419C12.9637 21.4797 12.9928 21.4215 13.0162 21.3652C13.0453 21.3031 13.0686 21.2447 13.0978 21.1885C13.1306 21.1282 13.1579 21.07 13.2026 21.0137H13.2028Z" fill="#CFB66C"/>
<path fill-rule="evenodd" clip-rule="evenodd" d="M13.8949 22.6055C13.8949 22.6055 13.7029 22.8598 13.7221 23.1821C13.7744 23.0133 13.8405 22.755 13.8949 22.6055ZM14.0774 22.8604C14.0774 22.8604 14.0094 23.5516 13.9531 23.8915C14.0327 23.4987 14.0482 23.5317 14.0774 22.8604ZM15.3492 23.9323C15.3492 23.9323 15.0618 24.7771 15.0559 25.0119C15.1181 24.7705 15.2385 24.2773 15.3492 23.9317V23.9323Z" fill="#DEC270"/>
<path fill-rule="evenodd" clip-rule="evenodd" d="M16.0215 22.5537C16.0215 22.5537 16.4875 23.3226 16.8371 23.9789C16.7425 23.6486 16.5249 23.0429 16.0215 22.5537Z" fill="#CBAF59"/>
<path fill-rule="evenodd" clip-rule="evenodd" d="M17.2754 23.6855C17.5313 24.1379 17.762 24.6039 17.9666 25.0816C17.9278 24.7515 17.8228 24.1865 17.2754 23.6855Z" fill="#E3C677"/>
<path fill-rule="evenodd" clip-rule="evenodd" d="M20.9548 24.8192C21.0323 24.7707 21.1858 24.5065 21.3198 24.4405C21.4537 24.3726 21.5547 24.359 21.6751 24.225C21.7955 24.0851 21.8287 23.9997 22.0925 23.8891C22.4616 23.7298 22.2077 23.5239 22.2077 23.5239C22.2484 23.484 22.2919 23.4471 22.3378 23.4133C22.433 23.3415 22.5436 23.2541 22.534 23.1006C22.5205 22.8425 22.4719 22.4677 22.2602 22.2502C22.4661 22.2075 22.8602 22.1784 23.105 22.1163C23.3884 22.0444 23.5186 21.9434 23.5186 21.9434C23.5186 21.9434 23.3555 21.6658 23.6196 21.3862C23.8837 21.1067 24.0992 20.9396 24.2584 20.6269C24.0759 20.6036 23.7976 20.5066 23.0875 20.7764C23.1258 20.7945 23.1628 20.8152 23.1982 20.8385C23.1982 20.8385 22.7613 20.9589 22.6021 21.093C22.3244 21.3278 22.2894 21.5201 21.9885 21.6638C21.6876 21.8076 21.3846 21.7687 21.1342 21.8852C20.8838 22.0016 20.8469 22.1007 20.7555 22.1435C20.7749 22.1668 20.7516 22.2055 20.7885 22.2386C20.7652 22.2716 20.6293 22.4929 20.4914 22.4929C20.505 22.5454 20.6214 22.5842 20.6214 22.5842C20.6214 22.5842 20.5361 22.6464 20.3186 22.6619C20.4292 22.7771 20.5341 22.9026 20.8234 23.0852C20.8001 23.1337 20.703 23.2056 20.7419 23.2969C20.7846 23.3881 20.8955 23.5124 21.338 23.6134C21.1127 23.623 20.8488 23.6755 20.4932 23.627C20.1379 23.5842 20.0796 23.559 19.8602 23.6134C19.8835 23.6367 19.9456 23.6367 20 23.6988C19.9418 23.7026 19.5767 23.656 19.4524 23.8192C19.3224 23.9881 19.2661 24.2658 19.2758 24.4522C19.2078 24.4852 19.1418 24.5435 19.1748 24.6639C19.2078 24.7844 19.3806 24.8231 19.4913 24.8988C19.6019 24.9803 19.6117 25.0094 19.7166 24.99C19.8272 24.9668 19.9903 24.8562 20.0855 24.8562C20.1807 24.8562 20.2486 24.928 20.2486 24.928C20.2486 24.928 20.5069 24.8037 20.5321 24.827C20.5554 24.8503 20.5359 24.9998 20.5612 25.0231C20.5868 25.0406 20.8777 24.8678 20.9554 24.8192H20.9548Z" fill="#ECD592"/>
<path fill-rule="evenodd" clip-rule="evenodd" d="M26.6011 17.0485C25.3875 13.9146 22.3875 13.334 22.3875 13.334H13.8283L13.8613 16.5262H15.5659V23.6544H13.8281V26.8408H22.1506C24.1563 26.8408 25.7641 24.8252 25.7641 24.8252C28.3388 21.1709 26.601 17.0485 26.601 17.0485H26.6011ZM22.1952 22.6776C22.1952 22.6776 21.5424 23.6194 20.8322 23.6194H19.4114L19.3777 16.534H21.2011C21.2011 16.534 22.0459 16.7106 22.6361 18.3824C22.6361 18.3824 23.4185 20.776 22.1952 22.6776V22.6776Z" fill="white" fill-opacity="0.8"/>
</svg>
