<?xml version="1.0" encoding="utf-8"?>
<!-- Generator: Adobe Illustrator 19.2.1, SVG Export Plug-In . SVG Version: 6.00 Build 0)  -->
<svg version="1.1" id="Слой_1" xmlns="http://www.w3.org/2000/svg" xmlns:xlink="http://www.w3.org/1999/xlink" x="0px" y="0px"
	 width="511px" height="512px" viewBox="0 0 511 512" style="enable-background:new 0 0 511 512;" xml:space="preserve">
<style type="text/css">
	.st0{fill:url(#SVGID_1_);}
	.st1{fill:url(#SVGID_2_);}
</style>
<linearGradient id="SVGID_1_" gradientUnits="userSpaceOnUse" x1="352.988" y1="251.8919" x2="218.0131" y2="18.1085">
	<stop  offset="0" style="stop-color:#36C296"/>
	<stop  offset="1" style="stop-color:#229A74"/>
</linearGradient>
<path class="st0" d="M285.5,270c74.4,0,135-60.6,135-135S359.9,0,285.5,0c-74.4,0-135,60.6-135,135S211.1,270,285.5,270z M285.5,150
	c-24.8,0-45-20.2-45-45c0-19.5,12.6-36,30-42.2V45c0-8.3,6.7-15,15-15c8.3,0,15,6.7,15,15v17.8c17.4,6.2,30,22.7,30,42.2
	c0,8.3-6.7,15-15,15c-8.3,0-15-6.7-15-15c0-8.3-6.7-15-15-15c-8.3,0-15,6.7-15,15s6.7,15,15,15c24.8,0,45,20.2,45,45
	c0,19.5-12.6,36-30,42.2V225c0,8.3-6.7,15-15,15c-8.3,0-15-6.7-15-15v-17.8c-17.4-6.2-30-22.7-30-42.2c0-8.3,6.7-15,15-15
	c8.3,0,15,6.7,15,15c0,8.3,6.7,15,15,15c8.3,0,15-6.7,15-15S293.8,150,285.5,150z"/>
<linearGradient id="SVGID_2_" gradientUnits="userSpaceOnUse" x1="289.4509" y1="525.9631" x2="148.9347" y2="282.5818">
	<stop  offset="0" style="stop-color:#36C296"/>
	<stop  offset="1" style="stop-color:#229A74"/>
</linearGradient>
<path class="st1" d="M446.9,325.1c-11.7-11.7-30.9-11.4-42.3,0.6l-44.1,47.4C331.7,404,322.2,422,295.7,422H194c-8.4,0-15-6.6-15-15
	c0-8.4,6.6-15,15-15h76.5c16.6,0,30-13.4,30-30c0-16.6-13.4-30-30-30H230c-2-0.8-3.7-1.6-5.7-2.4c-39.6-39-102.3-40.2-143.1-4.2
	L39.5,362h-24c-8.4,0-15,6.6-15,15v120c0,8.3,6.7,15,15,15h270c33.1,0,64.2-15.6,84-42l80.1-106.8
	C458.3,351.8,457.1,335.3,446.9,325.1z"/>
</svg>
