<svg width="27" height="27" viewBox="0 0 27 27" fill="none" xmlns="http://www.w3.org/2000/svg">
<path d="M12.0782 1.17894C12.9831 0.776722 14.0162 0.776712 14.9211 1.17892L24.4215 5.40117C25.6854 5.96291 26.5 7.21635 26.5 8.59952V18.4005C26.5 19.7837 25.6854 21.0371 24.4215 21.5988L14.9211 25.8211C14.0162 26.2233 12.9831 26.2233 12.0782 25.8211L2.57849 21.5989C1.31455 21.0371 0.5 19.7837 0.5 18.4005V8.59946C0.5 7.21632 1.31455 5.9629 2.57848 5.40114L12.0782 1.17894Z" stroke="#54ADFF"/>
<path d="M7 11.6667L13.5 14.9997L20 11.6667V17C20 18.1046 19.1046 19 18 19H9C7.89543 19 7 18.1046 7 17V11.6667Z" fill="#54ADFF"/>
<path d="M7 10.5L13.5 14L20 10.5V10C20 8.89543 19.1046 8 18 8H9C7.89543 8 7 8.89543 7 10V10.5Z" fill="#54ADFF"/>
</svg>
