<svg width="40" height="40" viewBox="0 0 40 40" fill="none" xmlns="http://www.w3.org/2000/svg">
<path d="M21.0148 0.998414L38.0153 8.55399C38.9182 8.95524 39.5 9.85055 39.5 10.8385V29.1615C39.5 30.1495 38.9182 31.0448 38.0153 31.446L21.0148 39.0016C20.3684 39.2889 19.6305 39.2889 18.9841 39.0016L1.98463 31.446C1.08182 31.0448 0.5 30.1495 0.5 29.1615V10.8385C0.5 9.85052 1.08182 8.95523 1.98463 8.55397L18.9841 0.998434C19.6305 0.711133 20.3684 0.711125 21.0148 0.998414Z" fill="#171C1F" stroke="#54ADFF"/>
<path d="M19.968 8L14.352 15.728L12 27.152L19.968 32L27.936 27.152L25.536 15.68L19.968 8ZM13.296 26.624L15.072 17.936L19.104 30.176L13.296 26.624ZM15.648 15.968L19.968 10.016L24.288 15.968L19.968 29.024L15.648 15.968ZM20.784 30.176L24.816 17.936L26.592 26.624L20.784 30.176Z" fill="white"/>
</svg>
