<svg width="40" height="40" viewBox="0 0 40 40" fill="none" xmlns="http://www.w3.org/2000/svg">
<path d="M21.0148 0.998414L38.0153 8.55399C38.9182 8.95524 39.5 9.85055 39.5 10.8385V29.1615C39.5 30.1495 38.9182 31.0448 38.0153 31.446L21.0148 39.0016C20.3684 39.2889 19.6305 39.2889 18.9841 39.0016L1.98463 31.446C1.08182 31.0448 0.5 30.1495 0.5 29.1615V10.8385C0.5 9.85052 1.08182 8.95523 1.98463 8.55397L18.9841 0.998434C19.6305 0.711133 20.3684 0.711125 21.0148 0.998414Z" fill="#171C1F" stroke="#54ADFF"/>
<circle cx="20" cy="20" r="12" fill="#7DFBA2"/>
<path d="M13 20.9811C15.3932 22.252 17.8905 23.5824 19.8193 24.6118L26.5827 20.9811C24.1338 24.6192 22.0933 27.648 19.8193 31C17.5412 27.6554 15.0254 23.9648 13 20.9811ZM13.2601 19.9776L19.8267 16.4736L26.3077 19.9519L19.8304 23.4598L13.2601 19.9776ZM19.8193 15.351L13 18.9408L19.7895 9L26.5827 18.9631L19.8193 15.351Z" fill="black"/>
<path d="M19.8188 24.6118L26.5823 20.9811C24.1334 24.6192 19.8188 31 19.8188 31V24.6118ZM19.8262 16.4736L26.3073 19.9519L19.8299 23.4598L19.8262 16.4736ZM19.8188 15.3512L19.7891 9L26.5823 18.9631L19.8188 15.3512Z" fill="black"/>
<path d="M13.2598 19.9773L19.8267 20.5163L26.3077 19.9551L19.83 23.4632L13.2598 19.9773Z" fill="black"/>
<path d="M19.8262 20.5163L26.3073 19.9551L19.8299 23.4632L19.8262 20.5163Z" fill="black"/>
</svg>
