<svg width="127" height="31" viewBox="0 0 127 31" fill="none" xmlns="http://www.w3.org/2000/svg">
<rect width="127" height="31" rx="5" fill="#3228BA"/>
<path d="M17.8594 12.0703H13.3594V15.1172H18.6406V17H11.0156V5.625H18.625V7.52344H13.3594V10.2344H17.8594V12.0703ZM23.0859 11.0703L24.5078 8.54688H26.9219L24.5156 12.6875L27.0234 17H24.6016L23.0938 14.3438L21.5938 17H19.1641L21.6719 12.6875L19.2734 8.54688H21.6953L23.0859 11.0703ZM37.0859 13.2109C36.9974 14.4349 36.5443 15.3984 35.7266 16.1016C34.9141 16.8047 33.8411 17.1562 32.5078 17.1562C31.0495 17.1562 29.901 16.6667 29.0625 15.6875C28.2292 14.7031 27.8125 13.3542 27.8125 11.6406V10.9453C27.8125 9.85156 28.0052 8.88802 28.3906 8.05469C28.776 7.22135 29.3255 6.58333 30.0391 6.14062C30.7578 5.69271 31.5911 5.46875 32.5391 5.46875C33.8516 5.46875 34.9089 5.82031 35.7109 6.52344C36.513 7.22656 36.9766 8.21354 37.1016 9.48438H34.7578C34.7005 8.75 34.4948 8.21875 34.1406 7.89062C33.7917 7.55729 33.2578 7.39062 32.5391 7.39062C31.7578 7.39062 31.1719 7.67188 30.7812 8.23438C30.3958 8.79167 30.1979 9.65885 30.1875 10.8359V11.6953C30.1875 12.9245 30.3724 13.8229 30.7422 14.3906C31.1172 14.9583 31.7057 15.2422 32.5078 15.2422C33.2318 15.2422 33.7708 15.0781 34.125 14.75C34.4844 14.4167 34.6901 13.9036 34.7422 13.2109H37.0859ZM40.6797 9.46875C41.2786 8.75 42.0312 8.39062 42.9375 8.39062C44.7708 8.39062 45.7005 9.45573 45.7266 11.5859V17H43.4688V11.6484C43.4688 11.1641 43.3646 10.8073 43.1562 10.5781C42.9479 10.3438 42.6016 10.2266 42.1172 10.2266C41.4557 10.2266 40.9766 10.4818 40.6797 10.9922V17H38.4219V5H40.6797V9.46875ZM52.3281 17C52.224 16.7969 52.1484 16.5443 52.1016 16.2422C51.5547 16.8516 50.8438 17.1562 49.9688 17.1562C49.1406 17.1562 48.4531 16.9167 47.9062 16.4375C47.3646 15.9583 47.0938 15.3542 47.0938 14.625C47.0938 13.7292 47.4245 13.0417 48.0859 12.5625C48.7526 12.0833 49.7135 11.8411 50.9688 11.8359H52.0078V11.3516C52.0078 10.9609 51.9062 10.6484 51.7031 10.4141C51.5052 10.1797 51.1901 10.0625 50.7578 10.0625C50.3776 10.0625 50.0781 10.1536 49.8594 10.3359C49.6458 10.5182 49.5391 10.7682 49.5391 11.0859H47.2812C47.2812 10.5964 47.4323 10.1432 47.7344 9.72656C48.0365 9.3099 48.4635 8.98438 49.0156 8.75C49.5677 8.51042 50.1875 8.39062 50.875 8.39062C51.9167 8.39062 52.7422 8.65365 53.3516 9.17969C53.9661 9.70052 54.2734 10.4349 54.2734 11.3828V15.0469C54.2786 15.849 54.3906 16.4557 54.6094 16.8672V17H52.3281ZM50.4609 15.4297C50.7943 15.4297 51.1016 15.3568 51.3828 15.2109C51.6641 15.0599 51.8724 14.8594 52.0078 14.6094V13.1562H51.1641C50.0339 13.1562 49.4323 13.5469 49.3594 14.3281L49.3516 14.4609C49.3516 14.7422 49.4505 14.974 49.6484 15.1562C49.8464 15.3385 50.1172 15.4297 50.4609 15.4297ZM58.0859 8.54688L58.1562 9.52344C58.7604 8.76823 59.5703 8.39062 60.5859 8.39062C61.4818 8.39062 62.1484 8.65365 62.5859 9.17969C63.0234 9.70573 63.2474 10.4922 63.2578 11.5391V17H61V11.5938C61 11.1146 60.8958 10.7682 60.6875 10.5547C60.4792 10.3359 60.1328 10.2266 59.6484 10.2266C59.013 10.2266 58.5365 10.4974 58.2188 11.0391V17H55.9609V8.54688H58.0859ZM64.6484 12.7109C64.6484 11.4141 64.9557 10.3698 65.5703 9.57812C66.1901 8.78646 67.0234 8.39062 68.0703 8.39062C68.9974 8.39062 69.7188 8.70833 70.2344 9.34375L70.3281 8.54688H72.375V16.7188C72.375 17.4583 72.2057 18.1016 71.8672 18.6484C71.5339 19.1953 71.0625 19.612 70.4531 19.8984C69.8438 20.1849 69.1302 20.3281 68.3125 20.3281C67.6927 20.3281 67.0885 20.2031 66.5 19.9531C65.9115 19.7083 65.4661 19.3906 65.1641 19L66.1641 17.625C66.7266 18.2552 67.4089 18.5703 68.2109 18.5703C68.8099 18.5703 69.276 18.4089 69.6094 18.0859C69.9427 17.7682 70.1094 17.3151 70.1094 16.7266V16.2734C69.5885 16.862 68.9036 17.1562 68.0547 17.1562C67.0391 17.1562 66.2161 16.7604 65.5859 15.9688C64.9609 15.1719 64.6484 14.1172 64.6484 12.8047V12.7109ZM66.9062 12.875C66.9062 13.6406 67.0599 14.2422 67.3672 14.6797C67.6745 15.112 68.0964 15.3281 68.6328 15.3281C69.3203 15.3281 69.8125 15.0703 70.1094 14.5547V11C69.8073 10.4844 69.3203 10.2266 68.6484 10.2266C68.1068 10.2266 67.6797 10.4479 67.3672 10.8906C67.0599 11.3333 66.9062 11.9948 66.9062 12.875ZM78.0078 17.1562C76.7682 17.1562 75.7578 16.776 74.9766 16.0156C74.2005 15.2552 73.8125 14.2422 73.8125 12.9766V12.7578C73.8125 11.9089 73.9766 11.151 74.3047 10.4844C74.6328 9.8125 75.0964 9.29688 75.6953 8.9375C76.2995 8.57292 76.987 8.39062 77.7578 8.39062C78.9141 8.39062 79.8229 8.75521 80.4844 9.48438C81.151 10.2135 81.4844 11.2474 81.4844 12.5859V13.5078H76.1016C76.1745 14.0599 76.3932 14.5026 76.7578 14.8359C77.1276 15.1693 77.5938 15.3359 78.1562 15.3359C79.026 15.3359 79.7057 15.0208 80.1953 14.3906L81.3047 15.6328C80.9661 16.112 80.5078 16.487 79.9297 16.7578C79.3516 17.0234 78.7109 17.1562 78.0078 17.1562ZM77.75 10.2188C77.3021 10.2188 76.9375 10.3698 76.6562 10.6719C76.3802 10.974 76.2031 11.4062 76.125 11.9688H79.2656V11.7891C79.2552 11.2891 79.1198 10.9036 78.8594 10.6328C78.599 10.3568 78.2292 10.2188 77.75 10.2188ZM95 7.52344H91.5156V17H89.1719V7.52344H85.7344V5.625H95V7.52344ZM105.469 11.5703C105.469 12.6901 105.271 13.6719 104.875 14.5156C104.479 15.3594 103.911 16.0104 103.172 16.4688C102.438 16.9271 101.594 17.1562 100.641 17.1562C99.6979 17.1562 98.8568 16.9297 98.1172 16.4766C97.3776 16.0234 96.8047 15.3776 96.3984 14.5391C95.9922 13.6953 95.7865 12.7266 95.7812 11.6328V11.0703C95.7812 9.95052 95.9818 8.96615 96.3828 8.11719C96.7891 7.26302 97.3594 6.60938 98.0938 6.15625C98.8333 5.69792 99.6771 5.46875 100.625 5.46875C101.573 5.46875 102.414 5.69792 103.148 6.15625C103.888 6.60938 104.458 7.26302 104.859 8.11719C105.266 8.96615 105.469 9.94792 105.469 11.0625V11.5703ZM103.094 11.0547C103.094 9.86198 102.88 8.95573 102.453 8.33594C102.026 7.71615 101.417 7.40625 100.625 7.40625C99.8385 7.40625 99.2318 7.71354 98.8047 8.32812C98.3776 8.9375 98.1615 9.83333 98.1562 11.0156V11.5703C98.1562 12.7318 98.3698 13.6328 98.7969 14.2734C99.224 14.9141 99.8385 15.2344 100.641 15.2344C101.427 15.2344 102.031 14.9271 102.453 14.3125C102.875 13.6927 103.089 12.7917 103.094 11.6094V11.0547ZM109.516 12.9922V17H107.172V5.625H111.609C112.464 5.625 113.214 5.78125 113.859 6.09375C114.51 6.40625 115.01 6.85156 115.359 7.42969C115.708 8.0026 115.883 8.65625 115.883 9.39062C115.883 10.5052 115.5 11.3854 114.734 12.0312C113.974 12.6719 112.919 12.9922 111.57 12.9922H109.516ZM109.516 11.0938H111.609C112.229 11.0938 112.701 10.9479 113.023 10.6562C113.352 10.3646 113.516 9.94792 113.516 9.40625C113.516 8.84896 113.352 8.39844 113.023 8.05469C112.695 7.71094 112.242 7.53385 111.664 7.52344H109.516V11.0938Z" fill="white"/>
<path d="M22.6133 28V23.7734H24.2617C24.8242 23.7734 25.2552 23.8724 25.5547 24.0703C25.8568 24.2656 26.0078 24.5534 26.0078 24.9336C26.0078 25.1289 25.9492 25.306 25.832 25.4648C25.7148 25.6211 25.5417 25.7409 25.3125 25.8242C25.5677 25.8841 25.7721 26.0013 25.9258 26.1758C26.082 26.3503 26.1602 26.5586 26.1602 26.8008C26.1602 27.1888 26.0169 27.4857 25.7305 27.6914C25.4466 27.8971 25.0443 28 24.5234 28H22.6133ZM23.3359 26.1445V27.418H24.5312C24.8333 27.418 25.0586 27.362 25.207 27.25C25.3581 27.138 25.4336 26.9805 25.4336 26.7773C25.4336 26.3555 25.1237 26.1445 24.5039 26.1445H23.3359ZM23.3359 25.5664H24.2695C24.9466 25.5664 25.2852 25.3685 25.2852 24.9727C25.2852 24.5768 24.9648 24.3724 24.3242 24.3594H23.3359V25.5664ZM28.8125 27.4883C29.0703 27.4883 29.2956 27.4102 29.4883 27.2539C29.681 27.0977 29.7878 26.9023 29.8086 26.668H30.4922C30.4792 26.9102 30.3958 27.1406 30.2422 27.3594C30.0885 27.5781 29.8828 27.7526 29.625 27.8828C29.3698 28.013 29.099 28.0781 28.8125 28.0781C28.237 28.0781 27.7786 27.8867 27.4375 27.5039C27.099 27.1185 26.9297 26.5924 26.9297 25.9258V25.8047C26.9297 25.3932 27.0052 25.0273 27.1562 24.707C27.3073 24.3867 27.5234 24.138 27.8047 23.9609C28.0885 23.7839 28.4232 23.6953 28.8086 23.6953C29.2826 23.6953 29.6758 23.8372 29.9883 24.1211C30.3034 24.4049 30.4714 24.7734 30.4922 25.2266H29.8086C29.7878 24.9531 29.6836 24.7292 29.4961 24.5547C29.3112 24.3776 29.082 24.2891 28.8086 24.2891C28.4414 24.2891 28.1562 24.4219 27.9531 24.6875C27.7526 24.9505 27.6523 25.332 27.6523 25.832V25.9688C27.6523 26.4557 27.7526 26.8307 27.9531 27.0938C28.1536 27.3568 28.4401 27.4883 28.8125 27.4883ZM33.0586 28.0781C32.4857 28.0781 32.0195 27.8906 31.6602 27.5156C31.3008 27.138 31.1211 26.6341 31.1211 26.0039V25.8711C31.1211 25.4518 31.2005 25.0781 31.3594 24.75C31.5208 24.4193 31.7448 24.1615 32.0312 23.9766C32.3203 23.7891 32.6328 23.6953 32.9688 23.6953C33.5182 23.6953 33.9453 23.8763 34.25 24.2383C34.5547 24.6003 34.707 25.1185 34.707 25.793V26.0938H31.8438C31.8542 26.5104 31.9753 26.8477 32.207 27.1055C32.4414 27.3607 32.7383 27.4883 33.0977 27.4883C33.3529 27.4883 33.569 27.4362 33.7461 27.332C33.9232 27.2279 34.0781 27.0898 34.2109 26.918L34.6523 27.2617C34.2982 27.806 33.7669 28.0781 33.0586 28.0781ZM32.9688 24.2891C32.6771 24.2891 32.4323 24.3958 32.2344 24.6094C32.0365 24.8203 31.9141 25.1172 31.8672 25.5H33.9844V25.4453C33.9635 25.0781 33.8646 24.7943 33.6875 24.5938C33.5104 24.3906 33.2708 24.2891 32.9688 24.2891ZM37.3398 25.8477C37.3398 25.4336 37.4206 25.0612 37.582 24.7305C37.7461 24.3997 37.9727 24.1445 38.2617 23.9648C38.5534 23.7852 38.8854 23.6953 39.2578 23.6953C39.8333 23.6953 40.2982 23.8945 40.6523 24.293C41.0091 24.6914 41.1875 25.2214 41.1875 25.8828V25.9336C41.1875 26.3451 41.1081 26.7148 40.9492 27.043C40.793 27.3685 40.5677 27.6224 40.2734 27.8047C39.9818 27.987 39.6458 28.0781 39.2656 28.0781C38.6927 28.0781 38.2279 27.8789 37.8711 27.4805C37.5169 27.082 37.3398 26.5547 37.3398 25.8984V25.8477ZM38.0664 25.9336C38.0664 26.4023 38.1745 26.7786 38.3906 27.0625C38.6094 27.3464 38.901 27.4883 39.2656 27.4883C39.6328 27.4883 39.9245 27.3451 40.1406 27.0586C40.3568 26.7695 40.4648 26.3659 40.4648 25.8477C40.4648 25.3841 40.3542 25.0091 40.1328 24.7227C39.9141 24.4336 39.6224 24.2891 39.2578 24.2891C38.901 24.2891 38.6133 24.431 38.3945 24.7148C38.1758 24.9987 38.0664 25.4049 38.0664 25.9336ZM43.9492 24.0156C44.4805 24.0156 44.9049 24.194 45.2227 24.5508C45.543 24.9049 45.7031 25.3724 45.7031 25.9531V26.0195C45.7031 26.418 45.6263 26.7747 45.4727 27.0898C45.319 27.4023 45.0977 27.6458 44.8086 27.8203C44.5221 27.9922 44.1914 28.0781 43.8164 28.0781C43.2487 28.0781 42.7917 27.8893 42.4453 27.5117C42.099 27.1315 41.9258 26.6224 41.9258 25.9844V25.6328C41.9258 24.7448 42.0898 24.0391 42.418 23.5156C42.7487 22.9922 43.2357 22.6732 43.8789 22.5586C44.2435 22.4935 44.4896 22.4141 44.6172 22.3203C44.7448 22.2266 44.8086 22.0977 44.8086 21.9336H45.4023C45.4023 22.2591 45.3281 22.513 45.1797 22.6953C45.0339 22.8776 44.7995 23.0065 44.4766 23.082L43.9375 23.2031C43.5078 23.3047 43.1849 23.4766 42.9688 23.7188C42.7552 23.9583 42.6159 24.2786 42.5508 24.6797C42.9336 24.237 43.3997 24.0156 43.9492 24.0156ZM43.8086 24.6094C43.4544 24.6094 43.1732 24.7292 42.9648 24.9688C42.7565 25.2057 42.6523 25.5352 42.6523 25.957V26.0195C42.6523 26.4727 42.7565 26.832 42.9648 27.0977C43.1758 27.3607 43.4596 27.4922 43.8164 27.4922C44.1758 27.4922 44.4596 27.3594 44.668 27.0938C44.8763 26.8281 44.9805 26.4401 44.9805 25.9297C44.9805 25.5312 44.875 25.2122 44.6641 24.9727C44.4557 24.7305 44.1706 24.6094 43.8086 24.6094ZM48.8789 27.043L50.3164 23.7734H51.2188V28H50.4961V24.9258L49.1289 28H48.6289L47.2344 24.8594V28H46.5117V23.7734H47.4492L48.8789 27.043ZM54.1367 28.0781C53.5638 28.0781 53.0977 27.8906 52.7383 27.5156C52.3789 27.138 52.1992 26.6341 52.1992 26.0039V25.8711C52.1992 25.4518 52.2786 25.0781 52.4375 24.75C52.599 24.4193 52.8229 24.1615 53.1094 23.9766C53.3984 23.7891 53.7109 23.6953 54.0469 23.6953C54.5964 23.6953 55.0234 23.8763 55.3281 24.2383C55.6328 24.6003 55.7852 25.1185 55.7852 25.793V26.0938H52.9219C52.9323 26.5104 53.0534 26.8477 53.2852 27.1055C53.5195 27.3607 53.8164 27.4883 54.1758 27.4883C54.431 27.4883 54.6471 27.4362 54.8242 27.332C55.0013 27.2279 55.1562 27.0898 55.2891 26.918L55.7305 27.2617C55.3763 27.806 54.8451 28.0781 54.1367 28.0781ZM54.0469 24.2891C53.7552 24.2891 53.5104 24.3958 53.3125 24.6094C53.1146 24.8203 52.9922 25.1172 52.9453 25.5H55.0625V25.4453C55.0417 25.0781 54.9427 24.7943 54.7656 24.5938C54.5885 24.3906 54.349 24.2891 54.0469 24.2891ZM60.0781 28H59.3555V26.1953H57.4141V28H56.6875V23.7734H57.4141V25.6055H59.3555V23.7734H60.0781V28ZM64.6953 28H63.9727V26.1953H62.0312V28H61.3047V23.7734H62.0312V25.6055H63.9727V23.7734H64.6953V28ZM68.5938 23.7734H69.3164V28H68.5938V24.918L66.6445 28H65.9219V23.7734H66.6445V26.8594L68.5938 23.7734ZM71.793 26.1992H71.2656V28H70.5391V23.7734H71.2656V25.5625H71.7383L73.1602 23.7734H74.0352L72.3633 25.8047L74.1758 28H73.2578L71.793 26.1992ZM77.5312 23.7734H78.2539V28H77.5312V24.918L75.582 28H74.8594V23.7734H75.582V26.8594L77.5312 23.7734ZM81.4648 28V23.7734H83.1133C83.6758 23.7734 84.1068 23.8724 84.4062 24.0703C84.7083 24.2656 84.8594 24.5534 84.8594 24.9336C84.8594 25.1289 84.8008 25.306 84.6836 25.4648C84.5664 25.6211 84.3932 25.7409 84.1641 25.8242C84.4193 25.8841 84.6237 26.0013 84.7773 26.1758C84.9336 26.3503 85.0117 26.5586 85.0117 26.8008C85.0117 27.1888 84.8685 27.4857 84.582 27.6914C84.2982 27.8971 83.8958 28 83.375 28H81.4648ZM82.1875 26.1445V27.418H83.3828C83.6849 27.418 83.9102 27.362 84.0586 27.25C84.2096 27.138 84.2852 26.9805 84.2852 26.7773C84.2852 26.3555 83.9753 26.1445 83.3555 26.1445H82.1875ZM82.1875 25.5664H83.1211C83.7982 25.5664 84.1367 25.3685 84.1367 24.9727C84.1367 24.5768 83.8164 24.3724 83.1758 24.3594H82.1875V25.5664ZM88.5781 28C88.5365 27.9167 88.5026 27.7682 88.4766 27.5547C88.1406 27.9036 87.7396 28.0781 87.2734 28.0781C86.8568 28.0781 86.5143 27.9609 86.2461 27.7266C85.9805 27.4896 85.8477 27.1901 85.8477 26.8281C85.8477 26.388 86.0143 26.0469 86.3477 25.8047C86.6836 25.5599 87.1549 25.4375 87.7617 25.4375H88.4648V25.1055C88.4648 24.8529 88.3893 24.6523 88.2383 24.5039C88.0872 24.3529 87.8646 24.2773 87.5703 24.2773C87.3125 24.2773 87.0964 24.3424 86.9219 24.4727C86.7474 24.6029 86.6602 24.7604 86.6602 24.9453H85.9336C85.9336 24.7344 86.0078 24.5312 86.1562 24.3359C86.3073 24.138 86.5104 23.9818 86.7656 23.8672C87.0234 23.7526 87.306 23.6953 87.6133 23.6953C88.1003 23.6953 88.4818 23.8177 88.7578 24.0625C89.0339 24.3047 89.1771 24.6393 89.1875 25.0664V27.0117C89.1875 27.3997 89.237 27.7083 89.3359 27.9375V28H88.5781ZM87.3789 27.4492C87.6055 27.4492 87.8203 27.3906 88.0234 27.2734C88.2266 27.1562 88.3737 27.0039 88.4648 26.8164V25.9492H87.8984C87.013 25.9492 86.5703 26.2083 86.5703 26.7266C86.5703 26.9531 86.6458 27.1302 86.7969 27.2578C86.9479 27.3854 87.1419 27.4492 87.3789 27.4492ZM93.7852 23.7734V28H93.0586V24.3711H91.6211L91.5352 25.9531C91.4883 26.6797 91.3659 27.1992 91.168 27.5117C90.9727 27.8242 90.6615 27.987 90.2344 28H89.9453V27.3633L90.1523 27.3477C90.3867 27.3216 90.5547 27.1862 90.6562 26.9414C90.7578 26.6966 90.8229 26.2435 90.8516 25.582L90.9297 23.7734H93.7852ZM95.7344 25.5664H96.75C96.8047 25.0039 97.0039 24.5521 97.3477 24.2109C97.694 23.8672 98.1302 23.6953 98.6562 23.6953C99.2083 23.6953 99.6602 23.8815 100.012 24.2539C100.363 24.6263 100.553 25.1107 100.582 25.707L100.586 25.9336C100.586 26.3451 100.505 26.7161 100.344 27.0469C100.182 27.3776 99.9557 27.6328 99.6641 27.8125C99.3724 27.9896 99.0391 28.0781 98.6641 28.0781C98.1198 28.0781 97.6745 27.901 97.3281 27.5469C96.9818 27.1901 96.7878 26.7279 96.7461 26.1602H95.7344V28H95.0117V23.7734H95.7344V25.5664ZM97.4609 25.9336C97.4609 26.4023 97.569 26.7786 97.7852 27.0625C98.0039 27.3464 98.2969 27.4883 98.6641 27.4883C99.0312 27.4883 99.3216 27.3438 99.5352 27.0547C99.7513 26.7656 99.8594 26.3633 99.8594 25.8477C99.8594 25.3867 99.75 25.0117 99.5312 24.7227C99.3125 24.4336 99.0208 24.2891 98.6562 24.2891C98.2969 24.2891 98.0078 24.431 97.7891 24.7148C97.5703 24.9987 97.4609 25.4049 97.4609 25.9336ZM104.617 24.3594H103.199V28H102.477V24.3594H101.086V23.7734H104.617V24.3594Z" fill="white"/>
</svg>
