<svg width="88" height="31" viewBox="0 0 88 31" fill="none" xmlns="http://www.w3.org/2000/svg">
<path d="M88.0003 0H0.00195312V31H88.0003V0Z" fill="#3B5999"/>
<path fill-rule="evenodd" clip-rule="evenodd" d="M10.4338 6.5752C13.5395 6.5752 16.059 9.18594 16.059 12.4068C16.059 15.6261 13.5395 18.2368 10.4338 18.2368C7.32663 18.2368 4.80859 15.6261 4.80859 12.4068C4.80859 9.18594 7.32663 6.5752 10.4338 6.5752Z" fill="#2A609F"/>
<path fill-rule="evenodd" clip-rule="evenodd" d="M19.1866 21.7324H58.442V8.49023H15.7325C15.9135 8.70256 16.0779 8.92835 16.229 9.17208C17.6241 11.424 17.2816 14.3143 15.5591 16.1565C15.4245 16.303 15.2795 16.4406 15.127 16.5722L15.3228 16.8892L15.4933 17.1628L15.6279 17.3811L15.9852 17.9553C16.1168 17.9404 16.2499 17.9568 16.3755 18.0002C16.5744 18.0091 16.7688 18.0794 16.9303 18.208C17.02 18.2768 17.1007 18.365 17.1665 18.4682L19.0162 21.4543L19.1866 21.7324Z" fill="#2A609F"/>
<path fill-rule="evenodd" clip-rule="evenodd" d="M52.4793 11.1547H55.9812V12.632H53.9731V14.3157H55.7285V15.7931H53.9731V17.5904H55.9812V19.0692H52.4793V11.1547ZM18.4648 11.1547H21.9653V12.632H19.9586V14.3157H21.7126V15.7931H19.9586V17.5904H21.9653V19.0692H18.4648V11.1547ZM22.3705 11.1547H24.117L24.6762 13.1105H24.742L25.2683 11.1547H27.0238L25.5106 14.9408L27.1344 19.0692H25.3775L24.7076 16.7485H24.6642L23.9944 19.0692H22.2613L23.8418 14.9408L22.3705 11.1547ZM27.6593 13.1659C27.6593 12.5364 27.8223 12.0324 28.1482 11.6541C28.4742 11.2743 28.9736 11.0859 29.6465 11.0859C30.3119 11.0859 30.8038 11.2549 31.1223 11.5913C31.4408 11.9293 31.5993 12.3674 31.5993 12.9042C31.5993 12.9431 31.5993 12.979 31.5993 13.0133C31.5993 13.0477 31.5948 13.0821 31.5874 13.121L30.1504 13.3827C30.1429 13.1479 30.0951 12.952 30.0039 12.7965C29.9141 12.6425 29.793 12.5648 29.642 12.5648C29.5403 12.5648 29.4581 12.5842 29.3968 12.6261C29.3355 12.6679 29.2861 12.7188 29.2502 12.7801C29.2144 12.8399 29.1874 12.9072 29.174 12.979C29.1605 13.0507 29.1531 13.1135 29.1531 13.1659V17.2046C29.1531 17.3108 29.1785 17.4124 29.2293 17.5111C29.2802 17.6098 29.4013 17.6592 29.5897 17.6592C29.7347 17.6592 29.8543 17.5904 29.9455 17.4543C30.0353 17.3182 30.0846 17.1119 30.0921 16.8397L31.5664 17.0446C31.5604 17.6741 31.3915 18.1795 31.061 18.5623C30.7336 18.9451 30.2566 19.1365 29.636 19.1365C28.9467 19.1365 28.4458 18.9705 28.1318 18.6371C27.8178 18.3036 27.6593 17.8027 27.6593 17.1358V13.1659ZM32.4113 11.1547H33.9035V14.2918H34.859V11.1547H36.3513V19.0692H34.859V15.7931H33.9035V19.0692H32.4113V11.1547ZM38.4357 11.1547H40.257L41.7163 19.0692H40.1478L39.9175 17.5231H38.7976L38.5673 19.0692H36.9868L38.4357 11.1547ZM39.5542 14.8047L39.3897 13.2003H39.3239L39.1594 14.8047L39.0069 16.0667H39.6977L39.5542 14.8047ZM42.3414 11.1547H43.6467L44.5484 13.4515L45.0628 14.8959H45.1181V11.1547H46.5775V19.0692H45.3095L44.4138 16.7605L43.889 15.2592H43.8351V19.0692H42.3414V11.1547ZM47.663 13.1659C47.663 12.5364 47.8335 12.0324 48.1744 11.6541C48.5138 11.2743 49.0058 11.0859 49.6488 11.0859C49.9927 11.0859 50.2917 11.1368 50.5444 11.2385C50.7956 11.3401 51.005 11.4837 51.1695 11.6661C51.3339 11.847 51.4521 12.0638 51.5208 12.3136C51.5896 12.5648 51.6136 12.8339 51.5926 13.121L50.1437 13.3827C50.1362 13.1479 50.0884 12.952 49.9987 12.7965C49.9089 12.6425 49.7878 12.5648 49.6383 12.5648C49.5396 12.5648 49.4574 12.5842 49.3976 12.6261C49.3377 12.6679 49.2869 12.7188 49.2525 12.7801C49.2166 12.8399 49.1912 12.9072 49.1778 12.979C49.1628 13.0507 49.1553 13.1135 49.1553 13.1659V17.2046C49.1553 17.3108 49.1807 17.4124 49.2316 17.5111C49.2809 17.6098 49.3991 17.6592 49.5845 17.6592C49.7265 17.6592 49.8446 17.6188 49.9388 17.5395C50.0301 17.4603 50.0779 17.3556 50.0779 17.227V16.0099H49.5725V14.6566H51.5687V17.1463C51.5687 17.7997 51.4012 18.2932 51.0648 18.6311C50.7283 18.969 50.2543 19.1365 49.6383 19.1365C48.9505 19.1365 48.4496 18.9705 48.1355 18.6371C47.82 18.3036 47.663 17.8027 47.663 17.1358V13.1659Z" fill="white"/>
<path fill-rule="evenodd" clip-rule="evenodd" d="M13.3482 9.40039C12.5602 8.90246 11.7692 8.41351 10.9782 7.91857C10.9259 7.88418 10.8706 7.87072 10.8197 7.90362C10.7614 7.941 10.7524 8.00679 10.7659 8.07258C10.8152 8.31332 10.8706 8.55257 10.9214 8.79331C10.9319 8.84415 10.9244 8.87256 10.8646 8.87555C8.20449 9.02358 6.05279 11.3801 6.77351 14.1688C6.79146 14.2421 6.81239 14.3183 6.89612 14.3467C6.95444 14.3662 7.01425 14.3482 7.05462 14.3079C7.08752 14.278 7.10845 14.2346 7.11144 14.1838C7.26097 12.0201 9.41865 10.9615 11.2833 10.8553C11.3311 10.8523 11.364 10.8747 11.37 10.9301C11.4148 11.2456 11.5105 11.5999 11.5778 11.9154C11.5928 11.9932 11.6272 12.0351 11.6915 12.047C11.7602 12.059 11.8051 12.0156 11.841 11.9633C12.3673 11.1842 12.8892 10.3828 13.3931 9.5873C13.4394 9.51552 13.42 9.44524 13.3482 9.40039ZM7.51965 15.4099C8.30766 15.9093 9.10016 16.3983 9.88817 16.8932C9.94349 16.9261 9.99732 16.9396 10.0497 16.9067C10.1065 16.8693 10.114 16.802 10.1005 16.7377C10.0512 16.4984 9.99583 16.2577 9.94648 16.0185C9.93601 15.9676 9.94349 15.9392 10.0048 15.9362C12.6634 15.7867 14.8166 13.4301 14.0944 10.6415C14.0764 10.5697 14.054 10.4904 13.9733 10.465C13.9134 10.4456 13.8551 10.462 13.8133 10.5024C13.7819 10.5323 13.7594 10.5757 13.7549 10.628C13.6084 12.7917 11.4492 13.8503 9.58463 13.955C9.53528 13.958 9.50538 13.9355 9.4964 13.8802C9.45454 13.5647 9.35734 13.2103 9.29155 12.8948C9.27361 12.8171 9.24071 12.7767 9.17791 12.7648C9.10614 12.7513 9.06278 12.7947 9.02689 12.8485C8.50055 13.6275 7.97721 14.429 7.4748 15.223C7.42994 15.2962 7.44788 15.365 7.51965 15.4099Z" fill="white"/>
<path fill-rule="evenodd" clip-rule="evenodd" d="M18.0405 21.8266L16.1415 18.7612C16.0758 18.6536 15.992 18.5639 15.9008 18.4921C15.6421 18.2887 15.2997 18.2259 14.9872 18.3276L14.564 17.6443L14.425 17.42L14.25 17.1389L14.0482 16.8144C14.2052 16.6783 14.3547 16.5363 14.4938 16.3867C16.2612 14.4952 16.6141 11.5271 15.1816 9.21542C14.9782 8.88945 14.7494 8.59039 14.4967 8.32125C14.0766 7.86668 13.5936 7.49735 13.0732 7.21474C12.4497 6.87681 11.7739 6.66299 11.0786 6.58374C10.8677 6.55981 10.6554 6.54785 10.4416 6.54785C9.41282 6.55084 8.37211 6.8484 7.44205 7.46744C5.77482 8.57843 4.86719 10.4505 4.86719 12.363C4.86719 13.4351 5.15578 14.5192 5.75538 15.4881C6.94412 17.4065 9.039 18.3545 11.086 18.1213C11.6572 18.057 12.2254 17.8985 12.7682 17.6458L12.988 18.0001L13.7147 19.1754C13.4172 19.5178 13.3633 20.0352 13.6145 20.4434L15.8006 23.9708C15.995 24.2833 16.321 24.4523 16.6544 24.4523C16.8413 24.4523 17.0312 24.3984 17.2002 24.2863L17.2705 24.2384L18.0226 23.739C18.4921 23.425 18.6297 22.776 18.3276 22.2886L18.0405 21.8266ZM6.43573 15.0365C5.04961 12.8011 5.61183 9.84792 7.67232 8.31676C7.73961 8.26742 7.80839 8.21957 7.87867 8.17172C8.86555 7.51529 9.99896 7.28203 11.0786 7.42558C11.1114 7.43006 11.1428 7.43455 11.1742 7.43903C12.3839 7.62744 13.5173 8.29134 14.2979 9.36644C14.3637 9.45915 14.4295 9.55335 14.4908 9.65204C14.4953 9.65802 14.4982 9.66251 14.5012 9.66849C14.6792 9.95558 14.8242 10.2546 14.9393 10.5612C15.2085 11.2774 15.3057 12.0355 15.2429 12.7757C15.1203 14.2575 14.3592 15.666 13.0583 16.5333C12.4407 16.943 11.7694 17.1867 11.0875 17.2794C11.0367 17.2869 10.9873 17.2914 10.9365 17.2959C9.78215 17.411 8.61584 17.0895 7.66783 16.3838C7.19234 16.0294 6.77217 15.5778 6.43573 15.0365Z" fill="white"/>
<path fill-rule="evenodd" clip-rule="evenodd" d="M80.8515 8.49023H58.3477V21.7324H80.8515C82.1434 21.7324 83.1916 20.6468 83.1916 19.307V10.9171C83.1916 9.5758 82.1434 8.49023 80.8515 8.49023Z" fill="white"/>
<path fill-rule="evenodd" clip-rule="evenodd" d="M62.0353 13.61C62.0503 13.6937 62.0862 13.7729 62.1445 13.8492C62.2028 13.9255 62.288 13.9987 62.4002 14.072C62.5138 14.1438 62.6723 14.22 62.8772 14.3038C63.2271 14.4473 63.5022 14.5998 63.7071 14.7583C63.9104 14.9183 64.0644 15.0933 64.1706 15.2817C64.2768 15.4716 64.3455 15.6854 64.3784 15.9246C64.4128 16.1624 64.4293 16.4345 64.4293 16.7381C64.4293 17.1014 64.3964 17.4319 64.3336 17.7279C64.2723 18.0225 64.1661 18.2752 64.0166 18.4831C63.867 18.6924 63.6637 18.8539 63.4065 18.9675C63.1508 19.0797 62.8293 19.1365 62.4406 19.1365C62.0907 19.1365 61.7886 19.0842 61.5359 18.978C61.2847 18.8703 61.0799 18.7223 60.9214 18.5354C60.7644 18.3485 60.6492 18.1302 60.576 17.882C60.5027 17.6352 60.4668 17.3706 60.4668 17.0895L61.9695 16.7949C61.9845 17.0835 62.0249 17.2988 62.0951 17.4438C62.1639 17.5874 62.2925 17.6592 62.4794 17.6592C62.5886 17.6592 62.6738 17.6322 62.7351 17.5799C62.7964 17.5276 62.8443 17.4588 62.8757 17.3751C62.9086 17.2913 62.9295 17.1941 62.9415 17.079C62.9504 16.9654 62.9564 16.8532 62.9564 16.7396C62.9564 16.5811 62.946 16.448 62.925 16.3418C62.9011 16.2357 62.8652 16.1459 62.8099 16.0697C62.7546 15.9934 62.6798 15.9276 62.5841 15.8708C62.4899 15.814 62.3718 15.7557 62.2327 15.6959C61.8604 15.5359 61.5598 15.3714 61.3326 15.2009C61.1068 15.0305 60.9333 14.8495 60.8122 14.6552C60.6911 14.4638 60.6133 14.2589 60.576 14.0436C60.5401 13.8283 60.5221 13.5905 60.5221 13.3333C60.5221 13.0089 60.558 12.7068 60.6313 12.4302C60.7045 12.1551 60.8197 11.9188 60.9767 11.7214C61.1352 11.5255 61.3385 11.37 61.5912 11.2549C61.8439 11.1428 62.149 11.0859 62.5063 11.0859C62.8876 11.0859 63.2031 11.1487 63.4514 11.2728C63.6996 11.3984 63.8955 11.5584 64.0375 11.7498C64.1811 11.9442 64.2812 12.158 64.3396 12.3928C64.3994 12.6276 64.4293 12.8563 64.4293 13.0761L62.9564 13.4051C62.9564 13.2915 62.9504 13.1853 62.9415 13.0881C62.9295 12.9879 62.9056 12.8997 62.8712 12.819C62.8338 12.7397 62.786 12.6769 62.7247 12.632C62.6634 12.5872 62.5781 12.5648 62.469 12.5648C62.3673 12.5648 62.288 12.5887 62.2312 12.638C62.1729 12.6874 62.128 12.7472 62.0951 12.819C62.0623 12.8907 62.0398 12.973 62.0294 13.0642C62.0189 13.1554 62.0129 13.2421 62.0129 13.3259C62.0129 13.432 62.0204 13.5262 62.0353 13.61ZM80.4137 17.1358C80.4137 17.8177 80.2508 18.3216 79.9203 18.649C79.5928 18.975 79.1054 19.1365 78.4624 19.1365C77.166 19.1365 76.5186 18.4711 76.5186 17.1358V13.0761C76.5186 12.3928 76.6905 11.8904 77.0359 11.5689C77.3798 11.2459 77.8553 11.0859 78.4624 11.0859C79.1278 11.0859 79.6197 11.2459 79.9367 11.5689C80.2567 11.8904 80.4137 12.3928 80.4137 13.0761V17.1358ZM78.4624 12.5304C78.3368 12.5304 78.2306 12.5678 78.1439 12.644C78.0557 12.7188 78.0123 12.8444 78.0123 13.0193V17.2046C78.0123 17.387 78.0557 17.5126 78.1439 17.5844C78.2306 17.6577 78.3368 17.6935 78.4624 17.6935C78.5865 17.6935 78.6897 17.6577 78.7734 17.5844C78.8572 17.5126 78.9005 17.387 78.9005 17.2046V13.0193C78.9005 12.8444 78.8572 12.7188 78.7734 12.644C78.6897 12.5678 78.5865 12.5304 78.4624 12.5304ZM75.5317 19.0692H74.0409V15.3729H73.996L73.6357 16.6005L73.3411 17.5231H72.3467L72.0297 16.5108L71.6798 15.3385H71.626V19.0692H70.1337V11.1547H71.5273L72.2839 13.269L72.7998 14.8391H72.8656L73.3919 13.2346L74.1396 11.1547H75.5317V19.0692ZM69.1558 17.1358C69.1558 17.8177 68.9928 18.3216 68.6624 18.649C68.3349 18.975 67.8475 19.1365 67.2045 19.1365C65.9081 19.1365 65.2606 18.4711 65.2606 17.1358V11.1652H66.7544V17.1702C66.7544 17.3526 66.7978 17.4782 66.886 17.55C66.9727 17.6233 67.0789 17.6592 67.2045 17.6592C67.3286 17.6592 67.4318 17.6233 67.5155 17.55C67.6007 17.4782 67.6426 17.3526 67.6426 17.1702V11.1652H69.1558V17.1358Z" fill="#2A609F"/>
</svg>
