<?xml version="1.0" encoding="utf-8"?>
<!-- Generator: Adobe Illustrator 19.2.1, SVG Export Plug-In . SVG Version: 6.00 Build 0)  -->
<svg version="1.1" id="Layer_1" xmlns="http://www.w3.org/2000/svg" xmlns:xlink="http://www.w3.org/1999/xlink" x="0px" y="0px"
	 width="512px" height="512px" viewBox="0 0 512 512" style="enable-background:new 0 0 512 512;" xml:space="preserve">
<style type="text/css">
	.st0{fill:#2CB742;}
	.st1{fill:#FFDE39;}
</style>
<path class="st0" d="M3.7,175.6c12.1-46.7,74.6-63.6,142.6-37.7s106.5,69.1,138.2,11C308,105.7,359.7,19,453,43.2
	c19.8,5.1,73.7,35.7,53.6,113.5c-24.2,93.3-137.1,80.6-85.6,201.9c8.4,19.7,20.7,60.7,8.9,93.6c-14,39.2-42.3,72-105.7,55.6
	c-82.9-21.5-59.6-90.1-129.6-108.3C148,387.3,109.6,452,59.9,439.1C13.2,427,33.1,382.4,49.2,320.2C63.3,265.7-8.4,222.2,3.7,175.6
	L3.7,175.6z"/>
<circle class="st1" cx="158.5" cy="108" r="108"/>
<circle class="st1" cx="405" cy="248.5" r="108"/>
<circle class="st1" cx="109" cy="404" r="108"/>
<g>
	<path class="st0" d="M181.8,100.3c-6.6-3.6-13.6-6.4-20.5-9.3c-4-1.7-7.9-3.6-11.3-6.3c-6.7-5.3-5.4-14,2.4-17.4
		c2.2-1,4.5-1.3,6.9-1.4c9.1-0.5,17.7,1.2,25.9,5.1c4.1,2,5.4,1.4,6.8-2.9c1.5-4.5,2.7-9.1,4-13.6c0.9-3-0.2-5.1-3.1-6.3
		c-5.3-2.3-10.7-4-16.3-4.9c-7.4-1.1-7.4-1.2-7.4-8.6c0-10.5,0-10.5-10.6-10.5c-1.5,0-3,0-4.6,0c-4.9,0.1-5.7,1-5.9,6
		c-0.1,2.2,0,4.4,0,6.7c0,6.6-0.1,6.5-6.4,8.8c-15.2,5.5-24.7,15.9-25.7,32.6c-0.9,14.7,6.8,24.7,18.9,31.9
		c7.4,4.5,15.7,7.1,23.6,10.6c3.1,1.4,6,2.9,8.6,5.1c7.6,6.3,6.2,16.7-2.8,20.6c-4.8,2.1-9.9,2.6-15.1,2c-8.1-1-15.8-3.1-23.1-6.9
		c-4.3-2.2-5.5-1.6-7,3c-1.2,4-2.4,8-3.5,12c-1.5,5.4-0.9,6.7,4.2,9.2c6.6,3.2,13.6,4.8,20.8,6c5.6,0.9,5.8,1.1,5.9,7
		c0,2.6,0,5.3,0.1,7.9c0,3.3,1.6,5.3,5.1,5.3c3.9,0.1,7.8,0.1,11.7,0c3.2-0.1,4.8-1.8,4.8-5c0-3.6,0.2-7.2,0-10.8
		c-0.2-3.7,1.4-5.5,5-6.5c8.1-2.2,15.1-6.6,20.4-13.1C208.4,138.3,202.8,111.9,181.8,100.3z"/>
</g>
<g>
	<path class="st0" d="M451.4,319.3l-3.9-17.8c-0.2-1-0.8-1.8-1.7-2.3c-1-0.5-1.9-0.6-2.9-0.2l-0.6,0.2l-1.3,0.3
		c-0.6,0.1-1.3,0.3-2.1,0.5c-0.8,0.2-1.7,0.4-2.7,0.6c-1,0.2-2.1,0.4-3.3,0.5c-1.2,0.1-2.4,0.3-3.7,0.4c-1.3,0.1-2.7,0.2-4,0.2
		c-9.5,0-18-2.6-25.5-7.7c-7.6-5.1-13.1-12-16.7-20.7h43.2c0.8,0,1.6-0.3,2.2-0.8c0.7-0.6,1.1-1.2,1.2-2.1l2.7-12.5
		c0.2-1.1,0-2.1-0.7-3c-0.7-0.9-1.7-1.3-2.8-1.3h-51.3c-0.2-5.1-0.2-9,0-11.7h54.5c2,0,3.2-1,3.6-2.9l2.7-12.7c0.2-1,0-2-0.8-2.9
		c-0.7-0.9-1.6-1.3-2.8-1.3h-52.3c3.7-8.3,9.3-14.9,16.8-19.7c7.4-4.8,15.9-7.2,25.2-7.2c0.3-0.1,1.4-0.1,3.3,0.1
		c1.9,0.2,3,0.3,3.2,0.3c0.3,0,1.2,0.1,2.9,0.3c1.7,0.3,2.5,0.4,2.5,0.4l2,0.4c0.6,0.1,1,0.2,1.3,0.3l0.4,0.1c1,0.3,1.9,0.2,2.7-0.3
		c0.8-0.5,1.3-1.2,1.6-2.2l4.8-17.8c0.2-1,0.1-1.9-0.3-2.7c-0.7-0.9-1.4-1.5-2.2-1.7c-6.9-1.7-14.1-2.6-21.7-2.6
		c-16.7,0-31.6,4.8-44.7,14.3c-13.1,9.5-22.2,22.1-27.2,37.8H342c-1,0-1.9,0.3-2.6,1c-0.7,0.7-1,1.5-1,2.6v12.7c0,1,0.3,1.9,1,2.6
		c0.7,0.7,1.5,1,2.6,1h7.5c-0.2,3.6-0.3,7.5-0.1,11.7H342c-1,0-1.8,0.4-2.5,1.1c-0.7,0.7-1.1,1.5-1.1,2.5v12.6c0,1,0.4,1.8,1.1,2.5
		c0.7,0.7,1.5,1.1,2.5,1.1h10.6c4.7,16.5,13.6,29.6,26.6,39.3c13,9.7,28.3,14.6,45.7,14.6c1.4,0,2.8,0,4.3-0.1
		c1.5-0.1,2.8-0.2,4.1-0.3c1.3-0.1,2.5-0.3,3.7-0.5c1.2-0.2,2.3-0.4,3.4-0.6c1-0.2,2-0.4,2.8-0.6c0.9-0.2,1.7-0.4,2.4-0.6
		c0.7-0.2,1.3-0.4,1.8-0.5c0.5-0.1,0.9-0.2,1.2-0.4l0.6-0.1c0.8-0.3,1.5-0.8,1.9-1.6C451.5,321.1,451.6,320.2,451.4,319.3z"/>
</g>
<g>
	<g>
		<path class="st0" d="M44.1,455.2H68v20.5c0,1,0.3,1.8,1,2.5c0.6,0.6,1.5,1,2.5,1h17.8c0.9,0,1.7-0.3,2.4-1c0.7-0.6,1-1.5,1-2.5
			v-20.5h53.9c1,0,1.8-0.3,2.5-1c0.6-0.6,1-1.5,1-2.5v-13.7c0-1-0.3-1.8-1-2.5c-0.6-0.6-1.5-1-2.5-1H92.7v-12.6H129
			c14.2,0,25.9-4.3,34.9-13c9-8.7,13.5-19.9,13.5-33.6c0-13.7-4.5-24.9-13.5-33.6c-9-8.7-20.6-13-34.9-13H71.4c-1,0-1.8,0.3-2.5,1
			c-0.6,0.6-1,1.5-1,2.5v67.2H44.1c-1,0-1.8,0.3-2.5,1c-0.6,0.7-1,1.5-1,2.4v15.9c0,1,0.3,1.8,1,2.5c0.6,0.6,1.5,1,2.5,1H68v12.6
			H44.1c-1,0-1.8,0.3-2.5,1c-0.6,0.6-1,1.5-1,2.5v13.7c0,1,0.3,1.8,1,2.5C42.3,454.9,43.1,455.2,44.1,455.2z M92.7,351.6h34.2
			c7.5,0,13.6,2.2,18.3,6.6c4.6,4.4,6.9,10.2,6.9,17.3c0,7.1-2.3,12.9-6.9,17.3c-4.6,4.4-10.7,6.6-18.3,6.6H92.7V351.6z"/>
	</g>
</g>
</svg>
