<svg width="40" height="40" viewBox="0 0 40 40" fill="none" xmlns="http://www.w3.org/2000/svg">
<path d="M21.0148 0.998414L38.0153 8.55399C38.9182 8.95524 39.5 9.85055 39.5 10.8385V29.1615C39.5 30.1495 38.9182 31.0448 38.0153 31.446L21.0148 39.0016C20.3684 39.2889 19.6305 39.2889 18.9841 39.0016L1.98463 31.446C1.08182 31.0448 0.5 30.1495 0.5 29.1615V10.8385C0.5 9.85052 1.08182 8.95523 1.98463 8.55397L18.9841 0.998434C19.6305 0.711133 20.3684 0.711125 21.0148 0.998414Z" fill="#171C1F" stroke="#54ADFF"/>
<path d="M15.832 29.312C15.16 29.312 14.824 28.928 14.824 28.16V16.928C14.824 15.712 15.032 14.852 15.448 14.348C15.872 13.844 16.592 13.592 17.608 13.592H25.648C26.464 13.592 26.872 13.928 26.872 14.6C26.872 15.272 26.464 15.608 25.648 15.608H17.776C17.4 15.608 17.148 15.672 17.02 15.8C16.9 15.928 16.84 16.192 16.84 16.592V28.16C16.84 28.928 16.504 29.312 15.832 29.312Z" fill="#54ADFF"/>
</svg>
