<svg width="13" height="11" viewBox="0 0 13 11" fill="none" xmlns="http://www.w3.org/2000/svg">
<g clip-path="url(#clip0)">
<path d="M11.6345 11H0.677992C0.39025 11 0.15625 10.7855 0.15625 10.5217V0.478264C0.15625 0.214499 0.39025 0 0.677734 0H11.6345C11.9223 0 12.1562 0.214499 12.1562 0.478264V10.5217C12.1562 10.7855 11.9223 11 11.6345 11ZM4.33016 3.34782V5.73912H7.98234V3.34782H4.33016ZM7.98234 2.86956V0.478264H4.33016V2.86956H7.98234ZM7.98234 8.6087V6.21741H4.33016V8.6087H7.98234ZM11.6345 8.6087V6.21741H8.50408V8.6087H11.6345ZM3.80842 6.21738H0.677992V8.6087H3.80842V6.21738ZM0.677992 5.73912H3.80842V3.34782H0.677992V5.73912ZM8.50408 5.73912H11.6345V3.34782H8.50408V5.73912ZM11.6345 10.5217V9.08695H0.677992V10.5217H11.6345ZM0.677992 2.86956H3.80842V0.478264H0.677992V2.86956ZM8.50408 0.478264V2.86956H11.6345V0.478264H8.50408Z" fill="#000"/>
</g>
<defs>
<clipPath id="clip0">
<rect width="12" height="11" fill="white" transform="matrix(1 0 0 -1 0.15625 11)"/>
</clipPath>
</defs>
</svg>
