<svg width="16" height="16" viewBox="0 0 16 16" fill="none" xmlns="http://www.w3.org/2000/svg">
<g clip-path="url(#clip0)">
<path d="M14.4257 4.61302C14.3507 4.4841 14.1854 4.44036 14.0565 4.51532L12.7379 5.27756C12.6089 5.35252 12.5652 5.51783 12.6401 5.64675C12.7151 5.77566 12.8804 5.81941 13.0093 5.74445L14.328 4.98221C14.4569 4.90722 14.5006 4.74194 14.4257 4.61302Z" fill="black"/>
<path d="M14.328 11.6664L13.0093 10.9041C12.8804 10.8292 12.7151 10.8729 12.6401 11.0018C12.5652 11.1308 12.6089 11.2961 12.7379 11.371L14.0565 12.1333C14.1854 12.2082 14.3507 12.1645 14.4257 12.0356C14.5006 11.9066 14.4569 11.7413 14.328 11.6664Z" fill="black"/>
<path d="M8.02011 13.6593C7.87057 13.6481 7.74039 13.7604 7.72927 13.9099C7.72827 13.9233 7.72827 13.9367 7.72927 13.9501V15.4731C7.71816 15.6226 7.83037 15.7528 7.97991 15.7639C8.12945 15.775 8.25964 15.6628 8.27075 15.5133C8.27176 15.4999 8.27176 15.4865 8.27075 15.4731V13.9501C8.28183 13.8006 8.16962 13.6704 8.02011 13.6593Z" fill="black"/>
<path d="M3.26157 5.27756L1.94293 4.51532C1.81401 4.44036 1.6487 4.4841 1.57374 4.61302C1.49879 4.74194 1.54253 4.90725 1.67145 4.98221L2.99008 5.74445C3.119 5.81941 3.28431 5.77566 3.35927 5.64675C3.43423 5.51779 3.39048 5.35252 3.26157 5.27756Z" fill="black"/>
<path d="M8.02011 0.883099C7.87057 0.871986 7.74038 0.984197 7.72927 1.13374C7.72826 1.14712 7.72826 1.16055 7.72927 1.17394V2.69693C7.73009 2.84569 7.85051 2.9661 7.99926 2.96692C8.14921 2.96692 8.27075 2.84539 8.27075 2.69544V1.17397C8.28182 1.02443 8.16961 0.894212 8.02011 0.883099Z" fill="black"/>
<path d="M5.41857 3.31452L4.65782 1.99588C4.58287 1.86696 4.41755 1.82322 4.28863 1.89817C4.15972 1.97313 4.11597 2.13845 4.19093 2.26736L4.95168 3.586C5.02664 3.71492 5.19195 3.75866 5.32087 3.6837C5.44979 3.60871 5.49353 3.44343 5.41857 3.31452Z" fill="black"/>
<path d="M8.03909 5.9145C8.02571 5.91349 8.01228 5.91349 7.99889 5.9145C6.6684 5.9145 5.58984 6.99305 5.58984 8.32354C5.58984 8.47349 5.71138 8.59503 5.86133 8.59503C6.01068 8.59421 6.13132 8.4729 6.13132 8.32354C6.1305 7.29295 6.96531 6.45679 7.99591 6.45597C7.99692 6.45597 7.99789 6.45597 7.99889 6.45597C8.14843 6.46709 8.27862 6.35488 8.28973 6.20534C8.30085 6.0558 8.18863 5.92557 8.03909 5.9145Z" fill="black"/>
<path d="M15.3992 8.30267C15.3893 8.1686 15.2827 8.06199 15.1486 8.05203H13.6256C13.476 8.04092 13.3459 8.15313 13.3347 8.30267C13.3236 8.45221 13.4358 8.58239 13.5854 8.59351C13.5988 8.59451 13.6122 8.59451 13.6256 8.59351H15.1486C15.2981 8.58243 15.4103 8.45221 15.3992 8.30267Z" fill="black"/>
<path d="M2.4142 8.05355C2.40081 8.05254 2.38739 8.05254 2.374 8.05355H0.851006C0.701466 8.06466 0.589256 8.19489 0.600368 8.34439C0.610325 8.47845 0.716905 8.58507 0.851006 8.59503H2.374C2.52354 8.60614 2.65373 8.49393 2.66484 8.34439C2.67595 8.19485 2.56374 8.06463 2.4142 8.05355Z" fill="black"/>
<path d="M8.00043 4.33929C5.8 4.339 4.01596 6.12255 4.01563 8.32298C4.01548 9.38009 4.43546 10.3939 5.18304 11.1413C5.92921 11.8893 6.94277 12.3091 7.99932 12.3078C10.1998 12.3081 11.9838 10.5245 11.9841 8.3241C11.9844 6.12367 10.2009 4.33959 8.00043 4.33929ZM10.4337 10.7624C9.08924 12.1069 6.90939 12.1069 5.56491 10.7624C4.91816 10.1157 4.55535 9.23816 4.55654 8.32354C4.55524 7.41019 4.91816 6.53403 5.56491 5.88914V5.89361C6.90939 4.54914 9.08924 4.54914 10.4337 5.89361C11.7782 7.23809 11.7782 9.41795 10.4337 10.7624Z" fill="black"/>
<path d="M11.8094 14.3809C11.8092 14.3805 11.809 14.3801 11.8087 14.3797L11.0465 13.0611C10.9715 12.9322 10.8062 12.8884 10.6773 12.9634C10.5484 13.0383 10.5046 13.2037 10.5796 13.3326L11.3418 14.6512C11.4165 14.78 11.5813 14.824 11.7103 14.7497C11.8395 14.6752 11.8839 14.5101 11.8094 14.3809Z" fill="black"/>
<path d="M11.7194 1.89817C11.5905 1.82322 11.4252 1.86696 11.3502 1.99588L10.588 3.31452C10.5125 3.44313 10.5556 3.60856 10.6842 3.684C10.6844 3.68415 10.6847 3.6843 10.6849 3.68445C10.8137 3.75956 10.979 3.71604 11.0541 3.58719C11.0544 3.58678 11.0546 3.58637 11.0548 3.586L11.8171 2.26736C11.892 2.13841 11.8483 1.97313 11.7194 1.89817Z" fill="black"/>
<path d="M5.32236 12.9634C5.19344 12.8884 5.02813 12.9322 4.95317 13.0611L4.19093 14.3797C4.11597 14.5086 4.15972 14.674 4.28863 14.7489C4.41755 14.8239 4.58287 14.7801 4.65782 14.6512L5.42006 13.3326C5.49502 13.2036 5.45128 13.0383 5.32236 12.9634Z" fill="black"/>
<path d="M3.35927 11.0003C3.28431 10.8714 3.119 10.8277 2.99008 10.9026L1.67145 11.6649C1.54253 11.7398 1.49879 11.9052 1.57374 12.0341C1.6487 12.163 1.81401 12.2067 1.94293 12.1318L3.26157 11.3695C3.39048 11.2945 3.43423 11.1293 3.35927 11.0003Z" fill="black"/>
</g>
<defs>
<clipPath id="clip0">
<rect width="14.8824" height="14.8824" fill="white" transform="translate(0.558594 0.882355)"/>
</clipPath>
</defs>
</svg>
