<svg width="40" height="40" viewBox="0 0 40 40" fill="none" xmlns="http://www.w3.org/2000/svg">
<path d="M21.0148 0.998414L38.0153 8.55399C38.9182 8.95524 39.5 9.85055 39.5 10.8385V29.1615C39.5 30.1495 38.9182 31.0448 38.0153 31.446L21.0148 39.0016C20.3684 39.2889 19.6305 39.2889 18.9841 39.0016L1.98463 31.446C1.08182 31.0448 0.5 30.1495 0.5 29.1615V10.8385C0.5 9.85052 1.08182 8.95523 1.98463 8.55397L18.9841 0.998434C19.6305 0.711133 20.3684 0.711125 21.0148 0.998414Z" fill="#171C1F" stroke="#54ADFF"/>
<path d="M29.1036 12.7931C30.151 12.7931 31.0001 11.944 31.0001 10.8966C31.0001 9.84912 30.151 9 29.1036 9C28.0561 9 27.207 9.84912 27.207 10.8966C27.207 11.944 28.0561 12.7931 29.1036 12.7931Z" fill="#18A0B1"/>
<path d="M14.5235 23.2546C13.8092 22.042 13.518 20.6266 13.6956 19.2305C13.8732 17.8345 14.5095 16.537 15.5046 15.5419C16.4997 14.5468 17.7972 13.9105 19.1933 13.7329C20.5893 13.5553 22.0048 13.8465 23.2173 14.5608L24.7346 13.0436L24.6587 12.9829C23.0268 11.9072 21.0724 11.4304 19.1285 11.6338C17.1846 11.8371 15.3712 12.708 13.9972 14.0981C12.6232 15.4882 11.7735 17.3116 11.5928 19.2577C11.4122 21.2039 11.9117 23.1526 13.0063 24.7718L14.5235 23.2546Z" fill="#18A0B1"/>
<path d="M25.4767 16.8288C26.1909 18.0413 26.4822 19.4568 26.3046 20.8528C26.127 22.2489 25.4907 23.5464 24.4956 24.5415C23.5005 25.5366 22.203 26.1729 20.8069 26.3505C19.4109 26.5281 17.9954 26.2368 16.7829 25.5226L15.2656 27.0398C16.8906 28.143 18.8495 28.6452 20.8048 28.4599C22.7602 28.2746 24.5898 27.4134 25.9787 26.0246C27.3675 24.6357 28.2287 22.8061 28.414 20.8507C28.5993 18.8954 28.0971 16.9365 26.9939 15.3115L25.4767 16.8288Z" fill="#18A0B1"/>
<path d="M10.8966 31.0001C11.944 31.0001 12.7931 30.151 12.7931 29.1036C12.7931 28.0561 11.944 27.207 10.8966 27.207C9.84912 27.207 9 28.0561 9 29.1036C9 30.151 9.84912 31.0001 10.8966 31.0001Z" fill="#18A0B1"/>
</svg>
