<svg width="540" height="100" viewBox="0 0 540 100" fill="none" xmlns="http://www.w3.org/2000/svg">
<path d="M376.343 2.71891C378.671 1.68462 381.327 1.6846 383.654 2.71884L423.655 20.4967C426.905 21.9412 429 25.1643 429 28.721V71.279C429 74.8357 426.905 78.0588 423.655 79.5033L383.654 97.2812C381.327 98.3154 378.671 98.3154 376.343 97.2811L336.345 79.5034C333.095 78.0589 331 74.8358 331 71.2791V28.7209C331 25.1642 333.095 21.9411 336.345 20.4966L376.343 2.71891Z" stroke="#181C1F" stroke-width="2"/>
<path d="M266.343 2.71891C268.671 1.68462 271.327 1.6846 273.654 2.71884L313.655 20.4967C316.905 21.9412 319 25.1643 319 28.721V71.279C319 74.8357 316.905 78.0588 313.655 79.5033L273.654 97.2812C271.327 98.3154 268.671 98.3154 266.343 97.2811L226.345 79.5034C223.095 78.0589 221 74.8358 221 71.2791V28.7209C221 25.1642 223.095 21.9411 226.345 20.4966L266.343 2.71891Z" stroke="#181C1F" stroke-width="2"/>
<path d="M156.343 2.71891C158.671 1.68462 161.327 1.6846 163.654 2.71884L203.655 20.4967C206.905 21.9412 209 25.1643 209 28.721V71.279C209 74.8357 206.905 78.0588 203.655 79.5033L163.654 97.2812C161.327 98.3154 158.671 98.3154 156.343 97.2811L116.345 79.5034C113.095 78.0589 111 74.8358 111 71.2791V28.7209C111 25.1642 113.095 21.9411 116.345 20.4966L156.343 2.71891Z" stroke="#181C1F" stroke-width="2"/>
<path d="M46.3435 2.71891C48.6705 1.68462 51.3268 1.6846 53.6539 2.71884L93.6552 20.4967C96.9054 21.9412 99 25.1643 99 28.721V71.279C99 74.8357 96.9054 78.0588 93.6552 79.5033L53.654 97.2812C51.3269 98.3154 48.6705 98.3154 46.3435 97.2811L6.34467 79.5034C3.09456 78.0589 1 74.8358 1 71.2791V28.7209C1 25.1642 3.09456 21.9411 6.34467 20.4966L46.3435 2.71891Z" stroke="#181C1F" stroke-width="2"/>
<path d="M485.937 1.8051C488.523 0.655894 491.474 0.655866 494.06 1.80502L534.061 19.5829C537.673 21.1879 540 24.7691 540 28.721V71.279C540 75.2309 537.673 78.8121 534.061 80.4171L494.06 98.195C491.474 99.3441 488.523 99.3441 485.937 98.1949L445.939 80.4172C442.327 78.8122 440 75.231 440 71.2791V28.7209C440 24.769 442.327 21.1878 445.939 19.5828L485.937 1.8051Z" fill="#181C1F"/>
<path d="M493.3 47.25C496.367 47.75 498.717 48.9 500.35 50.7C501.983 52.4667 502.8 54.6667 502.8 57.3C502.8 59.3333 502.267 61.2167 501.2 62.95C500.133 64.65 498.5 66.0167 496.3 67.05C494.133 68.0833 491.467 68.6 488.3 68.6C485.833 68.6 483.4 68.2833 481 67.65C478.633 66.9833 476.617 66.05 474.95 64.85L478.1 58.65C479.433 59.65 480.967 60.4333 482.7 61C484.467 61.5333 486.267 61.8 488.1 61.8C490.133 61.8 491.733 61.4167 492.9 60.65C494.067 59.85 494.65 58.7333 494.65 57.3C494.65 54.4333 492.467 53 488.1 53H484.4V47.65L491.6 39.5H476.7V33H501.2V38.25L493.3 47.25Z" fill="#59788C"/>
</svg>
