<svg width="540" height="100" viewBox="0 0 540 100" fill="none" xmlns="http://www.w3.org/2000/svg">
<path d="M376.343 2.71891C378.671 1.68462 381.327 1.6846 383.654 2.71884L423.655 20.4967C426.905 21.9412 429 25.1643 429 28.721V71.279C429 74.8357 426.905 78.0588 423.655 79.5033L383.654 97.2812C381.327 98.3154 378.671 98.3154 376.343 97.2811L336.345 79.5034C333.095 78.0589 331 74.8358 331 71.2791V28.7209C331 25.1642 333.095 21.9411 336.345 20.4966L376.343 2.71891Z" stroke="#181C1F" stroke-width="2"/>
<path d="M266.343 2.71891C268.671 1.68462 271.327 1.6846 273.654 2.71884L313.655 20.4967C316.905 21.9412 319 25.1643 319 28.721V71.279C319 74.8357 316.905 78.0588 313.655 79.5033L273.654 97.2812C271.327 98.3154 268.671 98.3154 266.343 97.2811L226.345 79.5034C223.095 78.0589 221 74.8358 221 71.2791V28.7209C221 25.1642 223.095 21.9411 226.345 20.4966L266.343 2.71891Z" stroke="#181C1F" stroke-width="2"/>
<path d="M156.343 2.71891C158.671 1.68462 161.327 1.6846 163.654 2.71884L203.655 20.4967C206.905 21.9412 209 25.1643 209 28.721V71.279C209 74.8357 206.905 78.0588 203.655 79.5033L163.654 97.2812C161.327 98.3154 158.671 98.3154 156.343 97.2811L116.345 79.5034C113.095 78.0589 111 74.8358 111 71.2791V28.7209C111 25.1642 113.095 21.9411 116.345 20.4966L156.343 2.71891Z" stroke="#181C1F" stroke-width="2"/>
<path d="M46.3435 2.71891C48.6705 1.68462 51.3268 1.6846 53.6539 2.71884L93.6552 20.4967C96.9054 21.9412 99 25.1643 99 28.721V71.279C99 74.8357 96.9054 78.0588 93.6552 79.5033L53.654 97.2812C51.3269 98.3154 48.6705 98.3154 46.3435 97.2811L6.34467 79.5034C3.09456 78.0589 1 74.8358 1 71.2791V28.7209C1 25.1642 3.09456 21.9411 6.34467 20.4966L46.3435 2.71891Z" stroke="#181C1F" stroke-width="2"/>
<path d="M486.343 2.71891C488.671 1.68462 491.327 1.6846 493.654 2.71884L533.655 20.4967C536.905 21.9412 539 25.1643 539 28.721V71.279C539 74.8357 536.905 78.0588 533.655 79.5033L493.654 97.2812C491.327 98.3154 488.671 98.3154 486.343 97.2811L446.345 79.5034C443.095 78.0589 441 74.8358 441 71.2791V28.7209C441 25.1642 443.095 21.9411 446.345 20.4966L486.343 2.71891Z" fill="#181C1F" stroke="#181C1F" stroke-width="2"/>
<path d="M495.45 33V68H487.35V39.5H480.35V33H495.45Z" fill="#59788C"/>
</svg>
