<svg width="540" height="100" viewBox="0 0 540 100" fill="none" xmlns="http://www.w3.org/2000/svg">
<path d="M156.343 2.71891C158.671 1.68462 161.327 1.6846 163.654 2.71884L203.655 20.4967C206.905 21.9412 209 25.1643 209 28.721V71.279C209 74.8357 206.905 78.0588 203.655 79.5033L163.654 97.2812C161.327 98.3154 158.671 98.3154 156.343 97.2811L116.345 79.5034C113.095 78.0589 111 74.8358 111 71.2791V28.7209C111 25.1642 113.095 21.9411 116.345 20.4966L156.343 2.71891Z" stroke="#181C1F" stroke-width="2"/>
<path d="M266.343 2.71891C268.671 1.68462 271.327 1.6846 273.654 2.71884L313.655 20.4967C316.905 21.9412 319 25.1643 319 28.721V71.279C319 74.8357 316.905 78.0588 313.655 79.5033L273.654 97.2812C271.327 98.3154 268.671 98.3154 266.343 97.2811L226.345 79.5034C223.095 78.0589 221 74.8358 221 71.2791V28.7209C221 25.1642 223.095 21.9411 226.345 20.4966L266.343 2.71891Z" stroke="#181C1F" stroke-width="2"/>
<path d="M376.343 2.71891C378.671 1.68462 381.327 1.6846 383.654 2.71884L423.655 20.4967C426.905 21.9412 429 25.1643 429 28.721V71.279C429 74.8357 426.905 78.0588 423.655 79.5033L383.654 97.2812C381.327 98.3154 378.671 98.3154 376.343 97.2811L336.345 79.5034C333.095 78.0589 331 74.8358 331 71.2791V28.7209C331 25.1642 333.095 21.9411 336.345 20.4966L376.343 2.71891Z" stroke="#181C1F" stroke-width="2"/>
<path d="M486.343 2.71891C488.671 1.68462 491.327 1.6846 493.654 2.71884L533.655 20.4967C536.905 21.9412 539 25.1643 539 28.721V71.279C539 74.8357 536.905 78.0588 533.655 79.5033L493.654 97.2812C491.327 98.3154 488.671 98.3154 486.343 97.2811L446.345 79.5034C443.095 78.0589 441 74.8358 441 71.2791V28.7209C441 25.1642 443.095 21.9411 446.345 20.4966L486.343 2.71891Z" stroke="#181C1F" stroke-width="2"/>
<path d="M45.9373 1.8051C48.523 0.655893 51.4744 0.655866 54.0601 1.80502L94.0613 19.5829C97.6726 21.1879 100 24.7691 100 28.721V71.279C100 75.2309 97.6726 78.8121 94.0613 80.4171L54.0601 98.195C51.4744 99.3441 48.523 99.3441 45.9373 98.1949L5.93852 80.4172C2.32729 78.8122 0 75.231 0 71.2791V28.7209C0 24.769 2.32729 21.1878 5.93853 19.5828L45.9373 1.8051Z" fill="#181C1F"/>
<path d="M63.1 61.4V68H36.65V62.75L50.15 50C51.5833 48.6333 52.55 47.4667 53.05 46.5C53.55 45.5 53.8 44.5167 53.8 43.55C53.8 42.15 53.3167 41.0833 52.35 40.35C51.4167 39.5833 50.0333 39.2 48.2 39.2C46.6667 39.2 45.2833 39.5 44.05 40.1C42.8167 40.6667 41.7833 41.5333 40.95 42.7L35.05 38.9C36.4167 36.8667 38.3 35.2833 40.7 34.15C43.1 32.9833 45.85 32.4 48.95 32.4C51.55 32.4 53.8167 32.8333 55.75 33.7C57.7167 34.5333 59.2333 35.7333 60.3 37.3C61.4 38.8333 61.95 40.65 61.95 42.75C61.95 44.65 61.55 46.4333 60.75 48.1C59.95 49.7667 58.4 51.6667 56.1 53.8L48.05 61.4H63.1Z" fill="#59788C"/>
</svg>
