<svg width="540" height="100" viewBox="0 0 540 100" fill="none" xmlns="http://www.w3.org/2000/svg">
<path d="M156.343 2.71891C158.671 1.68462 161.327 1.6846 163.654 2.71884L203.655 20.4967C206.905 21.9412 209 25.1643 209 28.721V71.279C209 74.8357 206.905 78.0588 203.655 79.5033L163.654 97.2812C161.327 98.3154 158.671 98.3154 156.343 97.2811L116.345 79.5034C113.095 78.0589 111 74.8358 111 71.2791V28.7209C111 25.1642 113.095 21.9411 116.345 20.4966L156.343 2.71891Z" stroke="#181C1F" stroke-width="2"/>
<path d="M266.343 2.71891C268.671 1.68462 271.327 1.6846 273.654 2.71884L313.655 20.4967C316.905 21.9412 319 25.1643 319 28.721V71.279C319 74.8357 316.905 78.0588 313.655 79.5033L273.654 97.2812C271.327 98.3154 268.671 98.3154 266.343 97.2811L226.345 79.5034C223.095 78.0589 221 74.8358 221 71.2791V28.7209C221 25.1642 223.095 21.9411 226.345 20.4966L266.343 2.71891Z" stroke="#181C1F" stroke-width="2"/>
<path d="M376.343 2.71891C378.671 1.68462 381.327 1.6846 383.654 2.71884L423.655 20.4967C426.905 21.9412 429 25.1643 429 28.721V71.279C429 74.8357 426.905 78.0588 423.655 79.5033L383.654 97.2812C381.327 98.3154 378.671 98.3154 376.343 97.2811L336.345 79.5034C333.095 78.0589 331 74.8358 331 71.2791V28.7209C331 25.1642 333.095 21.9411 336.345 20.4966L376.343 2.71891Z" stroke="#181C1F" stroke-width="2"/>
<path d="M486.343 2.71891C488.671 1.68462 491.327 1.6846 493.654 2.71884L533.655 20.4967C536.905 21.9412 539 25.1643 539 28.721V71.279C539 74.8357 536.905 78.0588 533.655 79.5033L493.654 97.2812C491.327 98.3154 488.671 98.3154 486.343 97.2811L446.345 79.5034C443.095 78.0589 441 74.8358 441 71.2791V28.7209C441 25.1642 443.095 21.9411 446.345 20.4966L486.343 2.71891Z" stroke="#181C1F" stroke-width="2"/>
<path d="M45.9373 1.8051C48.523 0.655894 51.4744 0.655866 54.0601 1.80502L94.0613 19.5829C97.6726 21.1879 100 24.7691 100 28.721V71.279C100 75.2309 97.6726 78.8121 94.0613 80.4171L54.0601 98.195C51.4744 99.3441 48.5229 99.3441 45.9373 98.1949L5.93852 80.4172C2.32729 78.8122 0 75.231 0 71.2791V28.7209C0 24.769 2.32729 21.1878 5.93853 19.5828L45.9373 1.8051Z" fill="#181C1F"/>
<path d="M52.8 46.05C55.0333 46.05 57.0667 46.5 58.9 47.4C60.7333 48.3 62.1833 49.5833 63.25 51.25C64.3167 52.8833 64.85 54.7833 64.85 56.95C64.85 59.2833 64.2667 61.3333 63.1 63.1C61.9333 64.8667 60.3333 66.2333 58.3 67.2C56.3 68.1333 54.0667 68.6 51.6 68.6C46.7 68.6 42.8667 67.1 40.1 64.1C37.3333 61.1 35.95 56.8167 35.95 51.25C35.95 47.2833 36.7 43.8833 38.2 41.05C39.7 38.2167 41.7833 36.0667 44.45 34.6C47.15 33.1333 50.2667 32.4 53.8 32.4C55.6667 32.4 57.45 32.6167 59.15 33.05C60.8833 33.45 62.35 34.0333 63.55 34.8L60.55 40.75C58.8167 39.5833 56.6333 39 54 39C51.0333 39 48.6833 39.8667 46.95 41.6C45.2167 43.3333 44.2833 45.85 44.15 49.15C46.2167 47.0833 49.1 46.05 52.8 46.05ZM51.15 62.55C52.8833 62.55 54.2833 62.0833 55.35 61.15C56.45 60.2167 57 58.95 57 57.35C57 55.75 56.45 54.4833 55.35 53.55C54.2833 52.5833 52.85 52.1 51.05 52.1C49.2833 52.1 47.8333 52.6 46.7 53.6C45.5667 54.5667 45 55.8167 45 57.35C45 58.8833 45.55 60.1333 46.65 61.1C47.75 62.0667 49.25 62.55 51.15 62.55Z" fill="#59788C"/>
</svg>
