<svg width="40" height="40" viewBox="0 0 40 40" fill="none" xmlns="http://www.w3.org/2000/svg">
<path d="M21.0148 0.998414L38.0153 8.55399C38.9182 8.95524 39.5 9.85055 39.5 10.8385V29.1615C39.5 30.1495 38.9182 31.0448 38.0153 31.446L21.0148 39.0016C20.3684 39.2889 19.6305 39.2889 18.9841 39.0016L1.98463 31.446C1.08182 31.0448 0.5 30.1495 0.5 29.1615V10.8385C0.5 9.85052 1.08182 8.95523 1.98463 8.55397L18.9841 0.998434C19.6305 0.711133 20.3684 0.711125 21.0148 0.998414Z" fill="#171C1F" stroke="#54ADFF"/>
<path d="M25.4544 10.6953C26.187 10.6953 26.7823 10.0903 26.7823 9.34715C26.7823 8.60396 26.187 8 25.4544 8C24.7217 8.00384 24.1264 8.6078 24.1264 9.35099C24.1264 10.0942 24.7217 10.6953 25.4544 10.6953ZM25.8461 14.198C26.1466 14.1958 26.4339 14.0742 26.6447 13.8601C26.8556 13.646 26.9728 13.357 26.9705 13.0565C26.9705 12.4285 26.4674 11.9148 25.8461 11.9148C25.2249 11.9148 24.7217 12.4247 24.7217 13.0565C24.7217 13.6883 25.2239 14.198 25.8461 14.198ZM28.9331 14.6445C29.5515 14.6445 30.0547 14.1347 30.0547 13.5057C30.0547 12.8768 29.5515 12.367 28.9331 12.367C28.3148 12.367 27.8116 12.8768 27.8116 13.5057C27.8116 14.1347 28.3157 14.6445 28.9331 14.6445ZM28.5625 17.6413C29.0925 17.6413 29.5217 17.2054 29.5217 16.6686C29.5217 16.1319 29.0925 15.6959 28.5625 15.6959C28.0325 15.6959 27.6033 16.1319 27.6033 16.6686C27.6033 17.2054 28.0325 17.6413 28.5625 17.6413ZM31.034 18.613C31.5679 18.613 32 18.1742 32 17.6336C32 17.093 31.5679 16.6542 31.034 16.6542C30.9063 16.6551 30.78 16.6811 30.6623 16.7308C30.5447 16.7805 30.4379 16.8529 30.3482 16.9438C30.2585 17.0348 30.1876 17.1425 30.1396 17.2609C30.0915 17.3792 30.0672 17.5059 30.0681 17.6336V17.6336C30.0681 18.1742 30.5011 18.613 31.034 18.613ZM25.4563 17.2361C25.5862 17.2353 25.7146 17.209 25.8343 17.1586C25.954 17.1082 26.0626 17.0347 26.1539 16.9423C26.2452 16.85 26.3175 16.7405 26.3665 16.6202C26.4155 16.5 26.4403 16.3712 26.4395 16.2413V16.2413V16.2394C26.4395 15.6892 26.0007 15.2427 25.4563 15.2427C24.9119 15.2427 24.4731 15.6883 24.4731 16.2394C24.4731 16.7867 24.9128 17.2361 25.4563 17.2361ZM24.5652 19.6202C25.0213 19.6202 25.3891 19.2458 25.3891 18.7858C25.3909 18.5663 25.3054 18.3551 25.1514 18.1986C24.9975 18.0422 24.7877 17.9532 24.5682 17.9514H24.5652C24.1091 17.9514 23.7414 18.3259 23.7414 18.7858C23.7414 19.2458 24.1091 19.6202 24.5652 19.6202ZM27.6571 20.0418C27.7651 20.041 27.8719 20.019 27.9715 19.977C28.071 19.9349 28.1613 19.8737 28.2372 19.7968C28.3131 19.7198 28.3731 19.6287 28.4137 19.5286C28.4544 19.4285 28.4749 19.3214 28.4742 19.2133V19.2113C28.4742 18.7523 28.1093 18.3807 27.6571 18.3807C27.2048 18.3807 26.8399 18.7523 26.8399 19.2113C26.8385 19.319 26.8584 19.4259 26.8983 19.5259C26.9382 19.6259 26.9974 19.717 27.0726 19.7941C27.1477 19.8713 27.2373 19.9328 27.3362 19.9753C27.4352 20.0178 27.5415 20.0404 27.6492 20.0418H27.6571V20.0418ZM30.1219 21.0096C30.578 21.0096 30.9457 20.6352 30.9457 20.1724C30.9457 19.7095 30.578 19.3351 30.1219 19.3351C29.6658 19.3351 29.298 19.7095 29.298 20.1724C29.2957 20.3921 29.3808 20.6038 29.5346 20.7608C29.6883 20.9178 29.8982 21.0073 30.1179 21.0096H30.1219ZM28.9043 22.8186C29.2894 22.8186 29.6005 22.5008 29.6005 22.1129C29.6005 21.725 29.2894 21.4072 28.9043 21.4072C28.5193 21.4072 28.2082 21.725 28.2082 22.1129C28.2082 22.5008 28.5193 22.8186 28.9043 22.8186ZM26.428 21.8661C26.8198 21.8661 27.1405 21.5416 27.1405 21.1431C27.1405 20.7446 26.8226 20.4201 26.428 20.4201C26.0334 20.4201 25.7155 20.7446 25.7155 21.1431C25.7155 21.5416 26.0362 21.8661 26.428 21.8661ZM23.34 21.4244C23.528 21.4215 23.7072 21.3448 23.8392 21.2109C23.9711 21.077 24.0451 20.8966 24.0452 20.7086C24.0453 20.5206 23.9716 20.3402 23.8398 20.2061C23.7081 20.072 23.5289 19.995 23.341 19.9918H23.34C23.1521 19.9948 22.9728 20.0715 22.8409 20.2054C22.709 20.3393 22.635 20.5197 22.6349 20.7077C22.6347 20.8956 22.7085 21.0761 22.8402 21.2102C22.972 21.3443 23.1511 21.4212 23.3391 21.4244H23.34ZM25.0569 23.124C25.3977 23.124 25.6714 22.8436 25.6714 22.5027C25.6729 22.3395 25.6095 22.1824 25.4952 22.0659C25.3809 21.9494 25.225 21.883 25.0617 21.8815H25.0569C24.716 21.8815 24.4423 22.1619 24.4423 22.5027C24.4405 22.6657 24.5036 22.8227 24.6175 22.9392C24.7315 23.0557 24.8871 23.1222 25.05 23.124H25.0569ZM27.5322 24.0928C27.8731 24.0928 28.1535 23.8124 28.1535 23.4649C28.1535 23.1173 27.8769 22.8369 27.5322 22.8369C27.3657 22.8369 27.206 22.903 27.0882 23.0208C26.9704 23.1386 26.9043 23.2983 26.9043 23.4649C26.9043 23.6314 26.9704 23.7911 27.0882 23.9089C27.206 24.0267 27.3657 24.0928 27.5322 24.0928V24.0928ZM26.138 24.8197C26.4078 24.8197 26.6277 24.5969 26.6277 24.3233C26.6285 24.1925 26.5774 24.0668 26.4856 23.9738C26.3937 23.8807 26.2688 23.8279 26.138 23.8268C25.8682 23.8268 25.6483 24.0496 25.6483 24.3233C25.6481 24.4538 25.6994 24.5792 25.7911 24.6722C25.8828 24.7652 26.0075 24.8182 26.138 24.8197V24.8197ZM24.8168 25.2095C24.8753 25.2092 24.9332 25.1973 24.9871 25.1746C25.041 25.1518 25.0899 25.1187 25.131 25.0771C25.1721 25.0355 25.2046 24.9862 25.2266 24.932C25.2487 24.8778 25.2598 24.8198 25.2595 24.7613V24.7602C25.2595 24.5105 25.0597 24.3108 24.8168 24.3108C24.7583 24.3111 24.7005 24.323 24.6466 24.3458C24.5927 24.3685 24.5438 24.4016 24.5026 24.4432C24.4615 24.4848 24.429 24.5341 24.407 24.5883C24.3849 24.6425 24.3738 24.7005 24.3742 24.759V24.7602C24.3721 24.8773 24.4167 24.9904 24.4981 25.0746C24.5794 25.1589 24.691 25.2074 24.8081 25.2094L24.8168 25.2095ZM23.6598 23.9171C23.9507 23.9171 24.1869 23.6771 24.1869 23.3832C24.1869 23.0894 23.9507 22.8494 23.6598 22.8494C23.3688 22.8494 23.1326 23.0894 23.1326 23.3832C23.1323 23.5238 23.1876 23.6587 23.2863 23.7587C23.385 23.8587 23.5193 23.9156 23.6598 23.9171ZM21.9622 22.6929C22.3001 22.6929 22.5767 22.4163 22.5767 22.0716C22.5767 21.7269 22.303 21.4504 21.9622 21.4504C21.6242 21.4504 21.3476 21.7269 21.3476 22.0716C21.3474 22.2353 21.4118 22.3924 21.5269 22.5088C21.642 22.6252 21.7985 22.6913 21.9622 22.6929ZM26.9964 30.4762C27.7262 30.4762 28.3177 29.8751 28.3177 29.1348C28.3177 28.3945 27.7262 27.7934 26.9964 27.7934C26.2667 27.7934 25.6752 28.3945 25.6752 29.1348C25.6752 29.8751 26.2667 30.4762 26.9964 30.4762ZM23.6406 28.7786C24.2484 28.7786 24.7419 28.2783 24.7419 27.6609C24.7419 27.0435 24.2484 26.5432 23.6406 26.5432C23.0328 26.5432 22.5392 27.0435 22.5392 27.6609C22.5392 28.2783 23.0318 28.7786 23.6406 28.7786ZM21.7231 31.2357C22.3376 31.2357 22.834 30.7325 22.834 30.1075C22.834 29.4862 22.3376 28.9792 21.7231 28.9792C21.1085 28.9792 20.6121 29.4824 20.6121 30.1075C20.6098 30.4044 20.7256 30.6901 20.9339 30.9016C21.1422 31.1132 21.4261 31.2334 21.723 31.2357H21.7231ZM21.146 26.7084C21.2733 26.7075 21.3993 26.6815 21.5166 26.632C21.6339 26.5824 21.7403 26.5103 21.8298 26.4196C21.9192 26.3289 21.9899 26.2215 22.0378 26.1035C22.0857 25.9855 22.1099 25.8592 22.1091 25.7319V25.7319C22.1099 25.6045 22.0857 25.4782 22.0378 25.3602C21.9899 25.2422 21.9192 25.1348 21.8298 25.0441C21.7403 24.9535 21.6339 24.8813 21.5166 24.8317C21.3993 24.7822 21.2733 24.7562 21.146 24.7554V24.7554C21.0186 24.7562 20.8927 24.7822 20.7754 24.8317C20.658 24.8813 20.5516 24.9535 20.4622 25.0441C20.3728 25.1348 20.3021 25.2422 20.2542 25.3602C20.2062 25.4782 20.182 25.6045 20.1829 25.7319V25.7319C20.1839 26.2696 20.616 26.7084 21.146 26.7084V26.7084ZM19.2333 29.1991C19.7633 29.1991 20.1925 28.7632 20.1925 28.2264C20.1925 27.6897 19.7633 27.2538 19.2333 27.2538C18.7033 27.2538 18.2741 27.6897 18.2741 28.2264C18.2715 28.4818 18.3705 28.7278 18.5493 28.9102C18.7281 29.0926 18.972 29.1965 19.2274 29.1991H19.2333ZM17.1718 30.8891C17.7018 30.8891 18.1281 30.4531 18.1281 29.9193C18.1281 29.3825 17.6989 28.9495 17.1718 28.9495C16.6417 28.9495 16.2154 29.3854 16.2154 29.9193C16.2154 30.4531 16.6446 30.8891 17.1718 30.8891V30.8891ZM15.4559 28.6893C15.6738 28.6873 15.8821 28.5991 16.0352 28.444C16.1883 28.2889 16.2738 28.0795 16.273 27.8616C16.273 27.4055 15.9081 27.0339 15.4559 27.0339C15.2386 27.0372 15.0312 27.1259 14.8787 27.2807C14.7262 27.4356 14.6407 27.6442 14.6407 27.8616C14.6407 28.0789 14.7262 28.2876 14.8787 28.4424C15.0312 28.5973 15.2386 28.6859 15.4559 28.6893ZM17.5213 26.9916C17.7393 26.9901 17.9479 26.9021 18.1011 26.7469C18.2543 26.5917 18.3397 26.382 18.3384 26.164C18.3384 25.705 17.9735 25.3363 17.5213 25.3363C17.3039 25.3392 17.0964 25.4275 16.9436 25.5821C16.7908 25.7367 16.7049 25.9452 16.7046 26.1625C16.7042 26.3799 16.7893 26.5887 16.9416 26.7438C17.0939 26.899 17.301 26.988 17.5184 26.9916H17.5213ZM19.4484 24.5019C19.5564 24.5011 19.6633 24.4791 19.7628 24.4371C19.8624 24.395 19.9526 24.3338 20.0285 24.2569C20.1044 24.1799 20.1644 24.0888 20.205 23.9887C20.2457 23.8886 20.2662 23.7815 20.2655 23.6734V23.6714C20.2655 23.2124 19.9006 22.8408 19.4484 22.8408C19.3403 22.8416 19.2335 22.8636 19.1339 22.9056C19.0344 22.9477 18.9441 23.0089 18.8682 23.0858C18.7923 23.1627 18.7324 23.2539 18.6917 23.354C18.651 23.4541 18.6305 23.5612 18.6312 23.6693V23.6693V23.6713C18.6312 24.1303 18.9961 24.5019 19.4484 24.5019ZM16.5006 24.8447C16.8923 24.8447 17.2102 24.5239 17.2102 24.1255C17.2102 23.727 16.8923 23.4063 16.5006 23.4063C16.1088 23.4063 15.791 23.727 15.791 24.1255C15.791 24.5239 16.1088 24.8447 16.5006 24.8447ZM14.4458 26.5355C14.5386 26.535 14.6304 26.5163 14.7159 26.4803C14.8015 26.4443 14.8791 26.3918 14.9444 26.3258C15.0096 26.2599 15.0613 26.1817 15.0963 26.0957C15.1314 26.0098 15.1491 25.9178 15.1486 25.825V25.825V25.8231C15.1504 25.6359 15.0778 25.4557 14.9467 25.3221C14.8156 25.1885 14.6369 25.1124 14.4497 25.1106H14.4458C14.353 25.1111 14.2612 25.1299 14.1756 25.1659C14.0901 25.2019 14.0124 25.2543 13.9472 25.3203C13.8819 25.3863 13.8303 25.4645 13.7952 25.5504C13.7602 25.6364 13.7424 25.7284 13.7429 25.8212V25.8212V25.8231C13.7423 25.916 13.76 26.0082 13.7949 26.0943C13.8299 26.1804 13.8815 26.2587 13.9468 26.3249C14.012 26.391 14.0897 26.4437 14.1753 26.4798C14.2609 26.516 14.3528 26.5349 14.4458 26.5355ZM13.9734 24.5537C14.1353 24.5524 14.2902 24.4871 14.4041 24.3719C14.518 24.2568 14.5817 24.1012 14.5812 23.9392C14.5812 23.5983 14.3075 23.3247 13.9734 23.3247C13.6392 23.3247 13.3656 23.6012 13.3656 23.9392C13.3656 24.2801 13.6392 24.5537 13.9734 24.5537ZM13.9561 22.8148C14.025 22.8142 14.0932 22.8 14.1567 22.773C14.2202 22.746 14.2777 22.7068 14.3261 22.6576C14.3744 22.6084 14.4125 22.5501 14.4384 22.4861C14.4642 22.4222 14.4771 22.3538 14.4765 22.2848V22.2848C14.4765 21.9938 14.2432 21.7548 13.9561 21.7548C13.669 21.7548 13.4356 21.991 13.4356 22.2848C13.4356 22.5786 13.669 22.8148 13.9561 22.8148V22.8148ZM14.2422 21.3688C14.489 21.3688 14.6849 21.1662 14.6849 20.9194C14.6849 20.6726 14.4851 20.47 14.2422 20.47C13.9954 20.47 13.7996 20.6726 13.7996 20.9194C13.7996 21.1662 13.9954 21.3688 14.2422 21.3688V21.3688ZM16.0138 21.1268C16.3047 21.1268 16.5409 20.8867 16.5409 20.5929C16.5409 20.2991 16.3047 20.0591 16.0138 20.0591C15.7228 20.0591 15.4866 20.2991 15.4866 20.5929C15.4861 20.7335 15.5413 20.8686 15.64 20.9686C15.7388 21.0687 15.8732 21.1255 16.0138 21.1268V21.1268ZM17.9582 20.3692C18.2961 20.3692 18.5727 20.0888 18.5727 19.748C18.5742 19.5847 18.5108 19.4276 18.3965 19.3111C18.2822 19.1946 18.1263 19.1283 17.963 19.1267H17.9582C17.6202 19.1267 17.3436 19.4071 17.3436 19.748C17.343 19.8289 17.3583 19.9092 17.3887 19.9842C17.4191 20.0593 17.464 20.1276 17.5208 20.1853C17.5776 20.2429 17.6452 20.2889 17.7197 20.3204C17.7943 20.352 17.8743 20.3686 17.9553 20.3692H17.9582ZM18.421 22.3414C18.6059 22.341 18.7831 22.2673 18.9136 22.1363C19.0442 22.0054 19.1174 21.8279 19.1172 21.643C19.117 21.4581 19.0434 21.2809 18.9126 21.1502C18.7818 21.0195 18.6044 20.9461 18.4195 20.9461C18.2346 20.9461 18.0573 21.0195 17.9264 21.1502C17.7956 21.2809 17.722 21.4581 17.7218 21.643C17.7217 21.8279 17.7949 22.0054 17.9254 22.1363C18.056 22.2673 18.2332 22.341 18.4181 22.3414H18.421ZM16.0387 22.8667C16.3767 22.8667 16.6465 22.5901 16.6465 22.2483C16.6465 21.9065 16.3729 21.6299 16.0387 21.6299C15.9584 21.6304 15.879 21.6467 15.805 21.6779C15.7309 21.7091 15.6638 21.7546 15.6074 21.8117C15.5509 21.8689 15.5063 21.9366 15.476 22.011C15.4457 22.0854 15.4304 22.165 15.4309 22.2453V22.2483C15.4298 22.3283 15.4444 22.4078 15.474 22.4822C15.5036 22.5566 15.5475 22.6245 15.6033 22.6819C15.6591 22.7393 15.7257 22.7851 15.7992 22.8168C15.8727 22.8485 15.9518 22.8654 16.0318 22.8666H16.0387V22.8667ZM9.31738 21.9497C10.0433 21.9497 10.6348 21.3515 10.6348 20.615C10.6348 19.8785 10.0433 19.2803 9.31738 19.2803C8.59148 19.2803 8 19.8795 8 20.616C8 21.3524 8.59148 21.9497 9.31738 21.9497V21.9497ZM12.3074 19.5665C12.9325 19.5665 13.4356 19.0528 13.4356 18.421C13.4356 17.7892 12.9287 17.2755 12.3074 17.2755C12.0062 17.2775 11.7181 17.3991 11.5065 17.6135C11.2949 17.828 11.1772 18.1177 11.1792 18.4189V18.421C11.1792 19.0566 11.6862 19.5665 12.3074 19.5665V19.5665ZM11.1408 16.6283C11.762 16.6283 12.2623 16.1184 12.2623 15.4895C12.2623 14.8606 11.7592 14.3507 11.1408 14.3507C10.9925 14.3517 10.8459 14.3819 10.7093 14.4396C10.5726 14.4972 10.4487 14.5812 10.3446 14.6868C10.2404 14.7924 10.1581 14.9174 10.1023 15.0548C10.0465 15.1922 10.0183 15.3392 10.0193 15.4875V15.4895C10.0162 15.7884 10.1321 16.0764 10.3413 16.2899C10.5505 16.5035 10.836 16.6252 11.1349 16.6283H11.1408ZM14.0233 15.236C14.5533 15.236 14.9864 14.8001 14.9864 14.2595C14.9864 13.7189 14.5543 13.283 14.0233 13.283C13.4923 13.283 13.0602 13.7189 13.0602 14.2595C13.0602 14.8001 13.4933 15.236 14.0233 15.236V15.236ZM15.2014 18.1675C15.7353 18.1675 16.1674 17.7287 16.1674 17.1881C16.1674 16.6475 15.7353 16.2087 15.2014 16.2087C14.6676 16.2087 14.2355 16.6475 14.2355 17.1881C14.2355 17.7287 14.6676 18.1675 15.2014 18.1675ZM17.8247 17.5587C18.0442 17.5569 18.254 17.468 18.4079 17.3116C18.5619 17.1551 18.6474 16.9439 18.6456 16.7244V16.7244C18.6473 16.6166 18.6277 16.5095 18.588 16.4093C18.5482 16.309 18.4892 16.2176 18.4141 16.1402C18.339 16.0628 18.2494 16.0009 18.1505 15.9582C18.0515 15.9154 17.9451 15.8925 17.8373 15.8909C17.7295 15.8892 17.6224 15.9088 17.5221 15.9485C17.4219 15.9883 17.3305 16.0474 17.2531 16.1224C17.1757 16.1975 17.1138 16.2871 17.071 16.386C17.0282 16.485 17.0054 16.5914 17.0037 16.6992C17.0037 16.7077 17.0037 16.716 17.0037 16.7244C17.0012 16.9431 17.0856 17.1539 17.2385 17.3104C17.3913 17.4669 17.6001 17.5562 17.8188 17.5588L17.8247 17.5587ZM20.0907 17.5664C20.4825 17.5664 20.8003 17.2457 20.8003 16.8501C20.8003 16.4545 20.4825 16.1338 20.0907 16.1338C19.9008 16.1338 19.7186 16.2093 19.5842 16.3436C19.4499 16.4779 19.3744 16.6601 19.3744 16.8501C19.3744 17.0401 19.4499 17.2223 19.5842 17.3566C19.7186 17.4909 19.9008 17.5664 20.0907 17.5664V17.5664ZM21.9631 17.9975C22.2905 17.9975 22.5613 17.7277 22.5613 17.3926C22.5613 17.0575 22.2944 16.7877 21.9631 16.7877C21.8037 16.7889 21.6512 16.8533 21.5391 16.9666C21.427 17.08 21.3644 17.2332 21.3649 17.3926C21.3688 17.7239 21.6347 17.9975 21.9631 17.9975ZM22.207 15.791C22.3459 15.79 22.4787 15.7339 22.5763 15.6351C22.6739 15.5363 22.7282 15.4027 22.7274 15.2639C22.7274 14.9729 22.4941 14.7367 22.207 14.7367C21.9199 14.7367 21.6866 14.9729 21.6866 15.2639C21.6858 15.4027 21.7401 15.5363 21.8377 15.6351C21.9353 15.7339 22.0681 15.79 22.207 15.791V15.791ZM20.7667 15.0689C20.9256 15.0685 21.0779 15.0051 21.1901 14.8925C21.3023 14.7799 21.3652 14.6274 21.365 14.4685C21.3648 14.3095 21.3015 14.1572 21.189 14.0449C21.0766 13.9325 20.9242 13.8695 20.7652 13.8695C20.6063 13.8695 20.4539 13.9325 20.3414 14.0449C20.229 14.1572 20.1657 14.3095 20.1655 14.4685C20.1653 14.6274 20.2282 14.7799 20.3404 14.8925C20.4525 15.0051 20.6048 15.0685 20.7637 15.0689H20.7667ZM18.9164 14.6311C19.104 14.6296 19.2834 14.5537 19.4151 14.4201C19.5469 14.2866 19.6203 14.1062 19.6193 13.9186C19.6193 13.523 19.3053 13.2062 18.9164 13.2062C18.5275 13.2062 18.2136 13.5269 18.2136 13.9186C18.2128 14.0114 18.2303 14.1035 18.2651 14.1895C18.3 14.2755 18.3514 14.3539 18.4165 14.42C18.4816 14.4862 18.559 14.5389 18.6445 14.5751C18.7299 14.6113 18.8217 14.6303 18.9145 14.6311H18.9164ZM16.6542 14.634C17.1103 14.634 17.4781 14.2595 17.4781 13.7996C17.4781 13.3396 17.1103 12.9652 16.6542 12.9652C16.1981 12.9652 15.8304 13.3396 15.8304 13.7996C15.8296 14.0193 15.9158 14.2304 16.0702 14.3867C16.2245 14.543 16.4345 14.6319 16.6542 14.634V14.634ZM13.6075 12.5475C14.1241 12.5475 14.5399 12.125 14.5399 11.6017C14.5399 11.0784 14.1212 10.6559 13.6075 10.6559C13.0909 10.6559 12.6752 11.0784 12.6752 11.6017C12.6752 12.125 13.0938 12.5475 13.6075 12.5475ZM16.2298 11.9742C16.6859 11.9742 17.0537 11.5998 17.0537 11.1398C17.0537 10.6799 16.6859 10.3054 16.2298 10.3054C15.7737 10.3054 15.406 10.6799 15.406 11.1398C15.406 11.5998 15.7737 11.9742 16.2298 11.9742V11.9742ZM18.4949 11.9848C18.8867 11.9848 19.2045 11.6641 19.2045 11.2656C19.2045 10.8671 18.8867 10.5464 18.4949 10.5464C18.4012 10.5469 18.3085 10.5659 18.2222 10.6022C18.1358 10.6385 18.0574 10.6915 17.9916 10.7581C17.9257 10.8247 17.8735 10.9036 17.8382 10.9904C17.8028 11.0771 17.7848 11.17 17.7853 11.2637V11.2637V11.2656C17.7845 11.4549 17.8587 11.6369 17.9917 11.7716C18.1247 11.9064 18.3056 11.983 18.4949 11.9848V11.9848ZM20.3538 12.413C20.6851 12.413 20.952 12.1432 20.952 11.8081C20.952 11.473 20.6851 11.2032 20.3538 11.2032C20.1934 11.2032 20.0395 11.2669 19.9261 11.3804C19.8126 11.4938 19.7489 11.6477 19.7489 11.8081C19.7489 11.9686 19.8126 12.1224 19.9261 12.2359C20.0395 12.3493 20.1934 12.413 20.3538 12.413ZM21.7816 13.1543C21.9241 13.1533 22.0603 13.0958 22.1604 12.9944C22.2605 12.8931 22.3163 12.7562 22.3155 12.6137C22.3155 12.3132 22.0755 12.0731 21.7816 12.0731C21.4878 12.0731 21.2478 12.3161 21.2478 12.6137C21.2478 12.9114 21.4878 13.1543 21.7816 13.1543ZM22.8292 14.005C22.8872 14.0047 22.9446 13.9929 22.998 13.9703C23.0515 13.9478 23.0999 13.9149 23.1407 13.8736C23.1814 13.8324 23.2137 13.7835 23.2355 13.7297C23.2573 13.676 23.2684 13.6185 23.268 13.5605V13.5595C23.2685 13.5015 23.2576 13.444 23.2359 13.3902C23.2141 13.3364 23.182 13.2874 23.1414 13.2461C23.1007 13.2047 23.0523 13.1717 22.9989 13.1491C22.9455 13.1264 22.8882 13.1145 22.8302 13.114H22.8292C22.7712 13.1144 22.7138 13.1262 22.6604 13.1487C22.607 13.1713 22.5585 13.2041 22.5177 13.2454C22.477 13.2867 22.4448 13.3356 22.4229 13.3893C22.4011 13.443 22.39 13.5005 22.3904 13.5586V13.5595C22.3895 13.6171 22.4 13.6744 22.4212 13.7279C22.4425 13.7815 22.474 13.8304 22.5142 13.8717C22.5543 13.9131 22.6022 13.9462 22.6551 13.969C22.708 13.9919 22.7649 14.0041 22.8225 14.0049H22.8294L22.8292 14.005Z" fill="white"/>
</svg>
