<svg width="39" height="30" viewBox="0 0 39 30" fill="none" xmlns="http://www.w3.org/2000/svg">
<path d="M38.9524 23.9524C38.9524 27.2857 36.2381 30 32.9048 30H0V6.04762C0 2.71429 2.71429 0 6.04762 0H38.9524V23.9524Z" fill="#59788C"/>
<path d="M28.2402 17.8092H30.7402C30.8117 17.8092 30.9783 17.7853 31.0498 17.7853C31.526 17.6901 31.9307 17.2615 31.9307 16.6663C31.9307 16.0949 31.526 15.6663 31.0498 15.5472C30.9783 15.5234 30.8355 15.5234 30.7402 15.5234H28.2402V17.8092Z" fill="#181C1F"/>
<path d="M30.4528 2.02344C28.0719 2.02344 26.1195 3.95201 26.1195 6.35677V10.8568H32.2386C32.3814 10.8568 32.5481 10.8568 32.6671 10.8806C34.0481 10.952 35.0719 11.6663 35.0719 12.9044C35.0719 13.8806 34.3814 14.7139 33.0957 14.8806V14.9282C34.5005 15.0234 35.5719 15.8091 35.5719 17.0234C35.5719 18.333 34.3814 19.1901 32.81 19.1901H26.0957V27.9996H32.4528C34.8338 27.9996 36.7862 26.0711 36.7862 23.6663V2.02344H30.4528Z" fill="#20262A"/>
<path d="M31.6212 13.1902C31.6212 12.6188 31.2164 12.2378 30.7402 12.1664C30.6926 12.1664 30.5736 12.1426 30.5021 12.1426H28.2402V14.2378H30.5021C30.5736 14.2378 30.7164 14.2378 30.7402 14.214C31.2164 14.1426 31.6212 13.7616 31.6212 13.1902Z" fill="#181C1F"/>
<path d="M6.49972 2.02344C4.11877 2.02344 2.16639 3.95201 2.16639 6.35677V17.0472C3.38067 17.6425 4.64258 18.0234 5.90448 18.0234C7.40448 18.0234 8.21401 17.1187 8.21401 15.8806V10.833H11.9283V15.8568C11.9283 17.8092 10.714 19.4044 6.59496 19.4044C4.09496 19.4044 2.14258 18.8568 2.14258 18.8568V27.9758H8.49972C10.8807 27.9758 12.8331 26.0472 12.8331 23.6425V2.02344H6.49972Z" fill="#20262A"/>
<path d="M18.4759 2.02344C16.095 2.02344 14.1426 3.95201 14.1426 6.35677V12.0234C15.2378 11.0949 17.1426 10.4996 20.214 10.6425C21.8569 10.7139 23.6188 11.1663 23.6188 11.1663V12.9996C22.7378 12.5472 21.6902 12.1425 20.3331 12.0472C17.9997 11.8806 16.595 13.0234 16.595 15.0234C16.595 17.0472 17.9997 18.1901 20.3331 17.9996C21.6902 17.9044 22.7378 17.4758 23.6188 17.0472V18.8806C23.6188 18.8806 21.8807 19.333 20.214 19.4044C17.1426 19.5472 15.2378 18.952 14.1426 18.0234V28.0234H20.4997C22.8807 28.0234 24.8331 26.0949 24.8331 23.6901V2.02344H18.4759Z" fill="#20262A"/>
</svg>
