<svg width="40" height="40" viewBox="0 0 40 40" fill="none" xmlns="http://www.w3.org/2000/svg">
<path d="M21.0148 0.998414L38.0153 8.55399C38.9182 8.95524 39.5 9.85055 39.5 10.8385V29.1615C39.5 30.1495 38.9182 31.0448 38.0153 31.446L21.0148 39.0016C20.3684 39.2889 19.6305 39.2889 18.9841 39.0016L1.98463 31.446C1.08182 31.0448 0.5 30.1495 0.5 29.1615V10.8385C0.5 9.85052 1.08182 8.95523 1.98463 8.55397L18.9841 0.998434C19.6305 0.711133 20.3684 0.711125 21.0148 0.998414Z" fill="#171C1F" stroke="#54ADFF"/>
<path d="M8.00002 19.9831C7.99464 23.1648 9.25342 26.2183 11.4994 28.4719C13.7454 30.7255 16.7947 31.9946 19.9764 32C23.1581 32.0054 26.2117 30.7466 28.4653 28.5006C30.7189 26.2546 31.988 23.2053 31.9933 20.0236V19.9328C31.9929 19.01 31.8841 18.0904 31.6691 17.193C31.5814 16.8708 31.3721 16.5951 31.0852 16.4242C30.7983 16.2532 30.4562 16.2003 30.1311 16.2766C29.8059 16.3529 29.5231 16.5524 29.3422 16.8332C29.1612 17.1139 29.0963 17.4539 29.1612 17.7815V17.7815C29.6462 19.7805 29.465 21.8833 28.6449 23.7698C27.8249 25.6563 26.411 27.2233 24.6184 28.2323C22.8258 29.2412 20.7526 29.637 18.7144 29.3592C16.6762 29.0815 14.7846 28.1454 13.3273 26.6936C11.8701 25.2418 10.927 23.3536 10.6417 21.3164C10.3563 19.2793 10.7443 17.2047 11.7466 15.4083C12.7489 13.612 14.3106 12.1923 16.194 11.3652C18.0775 10.5382 20.1796 10.3491 22.1804 10.8267C22.5121 10.9041 22.8609 10.8469 23.1505 10.6676C23.4401 10.4883 23.6468 10.2016 23.7254 9.87019C23.7653 9.70685 23.7724 9.53721 23.7462 9.37111C23.72 9.20501 23.6611 9.04577 23.5729 8.90264C23.4846 8.7595 23.3688 8.63532 23.2322 8.53731C23.0956 8.4393 22.9409 8.36941 22.777 8.3317C21.2461 7.96381 19.6578 7.90122 18.1027 8.14753C16.5477 8.39383 15.0564 8.94419 13.7142 9.76715C12.372 10.5901 11.2051 11.6695 10.2802 12.9437C9.35539 14.2179 8.69073 15.6618 8.32425 17.193C8.10976 18.1076 8.00097 19.0437 8.00002 19.9831V19.9831Z" fill="url(#paint0_linear)"/>
<path d="M26.0885 11.1543C26.0674 11.1754 26.0577 11.1964 26.0463 11.2062C25.7509 11.5197 25.5694 11.9233 25.5308 12.3523V12.5582C25.5308 12.6101 25.5211 12.6506 25.5211 12.7025C25.4771 13.1557 25.344 13.5957 25.1295 13.9973C24.915 14.399 24.6233 14.7543 24.2711 15.0429C23.919 15.3315 23.5133 15.5477 23.0773 15.6791C22.6414 15.8105 22.1838 15.8546 21.7308 15.8087C21.578 15.7953 21.4263 15.7715 21.2768 15.7373C21.1888 15.719 21.1021 15.6947 21.0175 15.6644C20.6499 15.5716 20.2713 15.5302 19.8924 15.5412C18.7873 15.5628 17.7285 15.9884 16.9159 16.7376C16.8754 16.7781 16.8235 16.8105 16.7813 16.8608C16.3366 17.2717 15.9795 17.7681 15.7312 18.3203C15.483 18.8725 15.3489 19.4692 15.3368 20.0745C15.3248 20.6798 15.4351 21.2813 15.6611 21.843C15.8872 22.4047 16.2243 22.9149 16.6523 23.3431C17.0803 23.7714 17.5904 24.1087 18.1519 24.3351C18.7135 24.5614 19.3149 24.672 19.9203 24.6603C20.5256 24.6485 21.1223 24.5147 21.6747 24.2668C22.227 24.0188 22.7236 23.6619 23.1347 23.2174C23.3205 23.0298 23.4898 22.8263 23.6405 22.6095C24.003 22.088 24.2513 21.4957 24.3689 20.8716C24.4865 20.2474 24.4709 19.6055 24.323 18.9878C24.2974 18.9063 24.2763 18.8235 24.2598 18.7397C24.2598 18.7284 24.2501 18.7187 24.2501 18.6976C24.1469 18.2537 24.1324 17.7937 24.2074 17.3442C24.2824 16.8946 24.4455 16.4643 24.6873 16.0779C24.929 15.6916 25.2447 15.3567 25.6162 15.0927C25.9877 14.8287 26.4077 14.6406 26.8521 14.5393C27.0115 14.5002 27.1744 14.4763 27.3384 14.468L27.4097 14.4566C27.4818 14.4485 27.5544 14.4453 27.627 14.4469H27.648C28.0962 14.4039 28.5156 14.2068 28.8347 13.8892C28.9077 13.8065 28.9806 13.7271 29.0423 13.6412C29.19 13.4343 29.2952 13.2002 29.3518 12.9524C29.4083 12.7046 29.4152 12.4481 29.3719 12.1976C29.3286 11.9472 29.2361 11.7078 29.0996 11.4933C28.9632 11.2789 28.7855 11.0937 28.577 10.9484C28.2039 10.6853 27.7503 10.5618 27.2953 10.5994C26.8404 10.637 26.4132 10.8335 26.0885 11.1543V11.1543Z" fill="url(#paint1_linear)"/>
<defs>
<linearGradient id="paint0_linear" x1="28.931" y1="11.1769" x2="11.0981" y2="28.7666" gradientUnits="userSpaceOnUse">
<stop offset="0.09" stop-color="#00EDD3"/>
<stop offset="0.41" stop-color="#1B456E"/>
</linearGradient>
<linearGradient id="paint1_linear" x1="28.9353" y1="10.9403" x2="16.4522" y2="23.5854" gradientUnits="userSpaceOnUse">
<stop offset="0.4" stop-color="#00EDD3"/>
<stop offset="0.89" stop-color="#1B456E"/>
</linearGradient>
</defs>
</svg>
