<svg width="100" height="31" viewBox="0 0 100 31" fill="none" xmlns="http://www.w3.org/2000/svg">
<rect width="100" height="31" rx="15.5" fill="white"/>
<path d="M24.0283 12.7968C23.3457 10.4388 22.0426 8.39107 21.36 7.52234C21.0498 7.15002 20.6154 6.96387 20.181 6.96387H19.3744V8.20492H20.181C20.2431 8.20492 20.3672 8.26697 20.4293 8.32902C20.8636 8.88749 21.7324 10.1906 22.4149 11.804L16.8923 12.0522C16.4579 12.0522 16.0235 12.2383 15.7753 12.5486H13.7896C13.4794 12.2383 13.1071 12.0522 12.6727 12.0522L7.21208 11.804C7.8326 10.1906 8.70134 8.88749 9.19776 8.32902C9.25981 8.26697 9.32186 8.20492 9.44597 8.20492H10.2527V6.96387H9.44597C8.94955 6.96387 8.51518 7.15002 8.26697 7.52234C7.58439 8.39107 6.28129 10.4388 5.59871 12.7968C5.47461 13.045 5.47461 13.3553 5.47461 13.6035L5.72282 15.7133C5.84692 16.52 6.59155 17.1405 7.39824 17.1405H11.1834C12.5486 17.1405 13.6655 16.2097 14.0379 14.9066L14.224 14.162C14.224 14.0379 14.2861 13.9137 14.2861 13.7896H15.2789C15.2789 13.9137 15.2789 14.0379 15.341 14.162L15.5271 14.9066C15.8374 16.2097 17.0164 17.1405 18.3815 17.1405H22.1667C23.0355 17.1405 23.718 16.52 23.8421 15.7133L24.1524 13.6035C24.1524 13.3553 24.1524 13.045 24.0283 12.7968ZM12.983 13.8517L12.7968 14.5963C12.6106 15.341 11.9281 15.8994 11.1834 15.8994H7.39824C7.15003 15.8994 6.96387 15.7133 6.96387 15.5271L6.65361 13.4173C6.65361 13.2932 6.71566 13.1691 6.71566 13.1691C6.77771 13.1071 6.83976 13.045 6.96387 13.045L12.5486 13.2932C12.7348 13.2932 12.8589 13.4173 12.9209 13.4794C12.983 13.5414 13.045 13.6655 12.983 13.8517ZM22.6011 15.4651C22.539 15.7133 22.3529 15.8374 22.1667 15.8374H18.3815C17.6369 15.8374 16.9543 15.341 16.7682 14.5343L16.582 13.7896C16.52 13.6035 16.6441 13.4794 16.6441 13.4173C16.7061 13.3553 16.8302 13.2312 17.0164 13.2312L22.6011 12.983C22.7252 12.983 22.7873 13.045 22.8493 13.1071C22.9114 13.1691 22.9734 13.2312 22.9114 13.3553L22.6011 15.4651Z" fill="black"/>
<path d="M14.969 28C7.83293 28 2 22.1671 2 14.969C2 7.77088 7.83293 2 14.969 2C22.105 2 27.9379 7.83294 27.9379 14.969C27.9379 22.105 22.1671 28 14.969 28ZM14.969 3.86158C8.82578 3.86158 3.86158 8.82578 3.86158 14.969C3.86158 21.1122 8.82578 26.0764 14.969 26.0764C21.1122 26.0764 26.0764 21.1122 26.0764 14.969C26.0764 8.82578 21.1122 3.86158 14.969 3.86158Z" fill="black" stroke="black" stroke-width="0.5"/>
<path d="M30.72 7.04H32.98V12.92H35.4L37.88 8.56C38.1867 8.01333 38.5067 7.62667 38.84 7.4C39.1867 7.16 39.6067 7.04 40.1 7.04H41.16V9.04H39.9L37.9 12.56C37.6733 12.9467 37.46 13.2267 37.26 13.4C37.0733 13.5733 36.84 13.7067 36.56 13.8V13.9C36.88 13.9667 37.1533 14.08 37.38 14.24C37.6067 14.4 37.84 14.6933 38.08 15.12L40.3 19H41.52V21H40.14C39.7 21 39.32 20.8933 39 20.68C38.68 20.4533 38.36 20.06 38.04 19.5L35.4 14.9H32.98V21H30.72V7.04ZM46.6869 21.24C45.9402 21.24 45.2735 21.1133 44.6869 20.86C44.1002 20.6067 43.6002 20.2467 43.1869 19.78C42.7735 19.3 42.4535 18.7267 42.2269 18.06C42.0135 17.38 41.9069 16.6267 41.9069 15.8C41.9069 14.9733 42.0135 14.2267 42.2269 13.56C42.4535 12.88 42.7735 12.3067 43.1869 11.84C43.6002 11.36 44.1002 10.9933 44.6869 10.74C45.2735 10.4867 45.9402 10.36 46.6869 10.36C47.4469 10.36 48.1135 10.4933 48.6869 10.76C49.2735 11.0267 49.7602 11.4 50.1469 11.88C50.5335 12.3467 50.8202 12.8933 51.0069 13.52C51.2069 14.1467 51.3069 14.82 51.3069 15.54V16.36H44.1669V16.7C44.1669 17.5 44.4002 18.16 44.8669 18.68C45.3469 19.1867 46.0269 19.44 46.9069 19.44C47.5469 19.44 48.0869 19.3 48.5269 19.02C48.9669 18.74 49.3402 18.36 49.6469 17.88L50.9269 19.14C50.5402 19.78 49.9802 20.2933 49.2469 20.68C48.5135 21.0533 47.6602 21.24 46.6869 21.24ZM46.6869 12.06C46.3135 12.06 45.9669 12.1267 45.6469 12.26C45.3402 12.3933 45.0735 12.58 44.8469 12.82C44.6335 13.06 44.4669 13.3467 44.3469 13.68C44.2269 14.0133 44.1669 14.38 44.1669 14.78V14.92H49.0069V14.72C49.0069 13.92 48.8002 13.28 48.3869 12.8C47.9735 12.3067 47.4069 12.06 46.6869 12.06ZM52.7202 10.6H54.9002V19.22H58.2402V10.6H60.4202V19.22H63.7602V10.6H65.9402V21H52.7202V10.6ZM72.2278 21.24C71.4811 21.24 70.8145 21.12 70.2278 20.88C69.6411 20.6267 69.1411 20.2333 68.7278 19.7C68.3145 19.1667 67.9945 18.4933 67.7678 17.68C67.5545 16.8533 67.4478 15.86 67.4478 14.7C67.4478 13.2867 67.5478 12.0733 67.7478 11.06C67.9611 10.0333 68.2878 9.18667 68.7278 8.52C69.1811 7.84 69.7478 7.32 70.4278 6.96C71.1211 6.6 71.9478 6.38 72.9078 6.3L76.2278 6V8.14L72.7878 8.46C72.2411 8.51333 71.7811 8.62 71.4078 8.78C71.0478 8.94 70.7478 9.18667 70.5078 9.52C70.2811 9.84 70.1078 10.2733 69.9878 10.82C69.8678 11.3533 69.7811 12.02 69.7278 12.82H69.8278C70.0945 12.1267 70.4545 11.6067 70.9078 11.26C71.3745 10.9133 72.0011 10.74 72.7878 10.74C73.4011 10.74 73.9611 10.86 74.4678 11.1C74.9878 11.3267 75.4345 11.66 75.8078 12.1C76.1811 12.54 76.4678 13.08 76.6678 13.72C76.8811 14.3467 76.9878 15.0667 76.9878 15.88C76.9878 16.6933 76.8745 17.4333 76.6478 18.1C76.4211 18.7533 76.1011 19.3133 75.6878 19.78C75.2745 20.2467 74.7745 20.6067 74.1878 20.86C73.6011 21.1133 72.9478 21.24 72.2278 21.24ZM72.2278 19.44C72.9878 19.44 73.5878 19.2067 74.0278 18.74C74.4678 18.26 74.6878 17.56 74.6878 16.64V15.34C74.6878 14.42 74.4678 13.7267 74.0278 13.26C73.5878 12.78 72.9878 12.54 72.2278 12.54C71.4278 12.54 70.8145 12.7533 70.3878 13.18C69.9745 13.6067 69.7678 14.18 69.7678 14.9V16.64C69.7678 17.56 69.9878 18.26 70.4278 18.74C70.8678 19.2067 71.4678 19.44 72.2278 19.44ZM80.1169 14.94H84.0769V14.82C84.0769 14.02 83.8635 13.38 83.4369 12.9C83.0102 12.4067 82.3769 12.16 81.5369 12.16C80.8569 12.16 80.3235 12.3 79.9369 12.58C79.5502 12.86 79.2435 13.26 79.0169 13.78L77.3369 12.82C77.6835 12.06 78.1902 11.46 78.8569 11.02C79.5369 10.58 80.4302 10.36 81.5369 10.36C82.3235 10.36 83.0169 10.4867 83.6169 10.74C84.2169 10.9933 84.7235 11.36 85.1369 11.84C85.5502 12.3067 85.8569 12.88 86.0569 13.56C86.2702 14.2267 86.3769 14.9733 86.3769 15.8C86.3769 16.6267 86.2702 17.38 86.0569 18.06C85.8435 18.7267 85.5302 19.3 85.1169 19.78C84.7169 20.2467 84.2102 20.6067 83.5969 20.86C82.9969 21.1133 82.3035 21.24 81.5169 21.24C80.4102 21.24 79.5369 21.0267 78.8969 20.6C78.2702 20.16 77.7635 19.5333 77.3769 18.72L79.0969 17.84C79.2969 18.36 79.5902 18.76 79.9769 19.04C80.3635 19.3067 80.8769 19.44 81.5169 19.44C82.3969 19.44 83.0435 19.2 83.4569 18.72C83.8702 18.2267 84.0769 17.56 84.0769 16.72V16.54H80.1169V14.94ZM87.7866 10.6H89.9666V14.8H91.8066L93.5266 11.9C93.8199 11.4067 94.1132 11.0667 94.4066 10.88C94.6999 10.6933 95.0732 10.6 95.5266 10.6H96.5866V12.38H95.4266L94.1066 14.58C93.9066 14.9267 93.7266 15.1667 93.5666 15.3C93.4199 15.4333 93.2199 15.5333 92.9666 15.6V15.68C93.2332 15.7333 93.4666 15.8333 93.6666 15.98C93.8666 16.1133 94.0599 16.3533 94.2466 16.7L95.6466 19.22H96.7866V21H95.5466C95.1066 21 94.7266 20.9 94.4066 20.7C94.0999 20.5 93.8066 20.1467 93.5266 19.64L91.8066 16.56H89.9666V21H87.7866V10.6Z" fill="black"/>
</svg>
