<svg width="14" height="14" viewBox="0 0 14 14" fill="none" xmlns="http://www.w3.org/2000/svg">
<path fill-rule="evenodd" clip-rule="evenodd" d="M12.0856 7.73858C12.6849 7.76593 13.1933 7.29383 13.2196 6.68404C13.2458 6.07424 12.8244 5.52602 12.2247 5.49966L8.24295 4.9997C8.24295 4.9997 9.07272 3.61175 9.07272 1.55532C9.07272 0.184458 8.09337 2.58014e-08 7.5174 2.58014e-08C7.06431 -0.000173772 6.9423 0.877737 6.9423 0.877737H6.94138C6.83878 1.44067 6.70518 1.93229 6.24097 2.83742C5.72131 3.85194 5.01361 3.75676 4.18737 4.66039C4.04156 4.81953 3.84563 5.0822 3.65468 5.4054C3.6391 5.42249 3.62456 5.44642 3.61048 5.48008C3.59345 5.52017 3.57306 5.54798 3.5551 5.58505C3.52347 5.64316 3.49236 5.70127 3.46177 5.76227C2.9504 6.27364 2.15371 6.22139 1.81445 6.22139C1.13398 6.22139 0.777575 6.61678 0.777575 7.25826L0.777344 11.9988C0.777344 12.7185 1.07182 12.9612 1.81451 12.9612H2.85139C3.37342 12.9612 3.78219 13.2605 4.40676 13.4796C5.26226 13.776 6.5399 13.9985 8.74076 13.9985C9.12567 13.9985 10.3195 13.9999 10.3195 13.9999C10.685 13.9999 10.9786 13.833 11.1904 13.6314C11.2711 13.5547 11.3552 13.4434 11.3912 13.2261C11.397 13.1925 11.4033 13.0514 11.4024 13.0323C11.43 12.4108 11.0543 12.1858 10.8415 12.1149C10.8473 12.113 10.8434 12.1076 10.855 12.1081L11.5307 12.1383C12.1305 12.1657 12.7225 11.7336 12.7225 10.9989C12.7225 10.3896 12.2286 9.9599 11.6308 9.93064L11.989 9.94726C12.5888 9.97362 13.0957 9.50153 13.1235 8.89173C13.1496 8.28199 12.6849 7.76599 12.0856 7.73858Z" fill="#2aac83"/>
</svg>
