<svg width="40" height="40" viewBox="0 0 40 40" fill="none" xmlns="http://www.w3.org/2000/svg">
<path d="M21.0148 0.998414L38.0153 8.55399C38.9182 8.95524 39.5 9.85055 39.5 10.8385V29.1615C39.5 30.1495 38.9182 31.0448 38.0153 31.446L21.0148 39.0016C20.3684 39.2889 19.6305 39.2889 18.9841 39.0016L1.98463 31.446C1.08182 31.0448 0.5 30.1495 0.5 29.1615V10.8385C0.5 9.85052 1.08182 8.95523 1.98463 8.55397L18.9841 0.998434C19.6305 0.711133 20.3684 0.711125 21.0148 0.998414Z" fill="#171C1F" stroke="#54ADFF"/>
<path d="M20.1712 8L18.0157 11.5853L25.7972 24.9207L19.4844 31.9999C19.4844 31.9999 24.4463 31.9705 24.4169 31.9999C24.3874 32.0294 30.3189 25.3322 30.3189 25.3322L20.1712 8ZM17.3406 12.9075L10 25.3911L15.7843 31.9999H17.9597L21.1401 28.2983H17.6063L14.4908 24.8331L19.4822 16.344L17.3406 12.9075Z" fill="white"/>
</svg>
