<svg width="40" height="40" viewBox="0 0 40 40" fill="none" xmlns="http://www.w3.org/2000/svg">
<path d="M21.0148 0.998414L38.0153 8.55399C38.9182 8.95524 39.5 9.85055 39.5 10.8385V29.1615C39.5 30.1495 38.9182 31.0448 38.0153 31.446L21.0148 39.0016C20.3684 39.2889 19.6305 39.2889 18.9841 39.0016L1.98463 31.446C1.08182 31.0448 0.5 30.1495 0.5 29.1615V10.8385C0.5 9.85052 1.08182 8.95523 1.98463 8.55397L18.9841 0.998434C19.6305 0.711133 20.3684 0.711125 21.0148 0.998414Z" fill="#171C1F" stroke="#54ADFF"/>
<path d="M19.2988 23.2041H19.2999L19.2988 23.2075V23.2041Z" fill="white"/>
<path d="M20 8C13.3722 8 8 13.3722 8 20C8 26.6278 13.3722 32 20 32C26.6269 32 32 26.6278 32 20C32 13.3722 26.6269 8 20 8ZM24.8317 25.5661H14.9533L15.9622 21.776L14.5338 22.2973L15.0061 20.5194L16.4355 19.9971L18.1472 13.5661H21.8586L20.5501 18.4938L22.3664 17.8304L22.3818 17.8736L21.9229 19.5987L20.0778 20.2726L19.2992 23.2045H25.4653L24.8317 25.5661Z" fill="white"/>
<path d="M19.2999 23.2041L19.2988 23.2075V23.2041H19.2999Z" fill="white"/>
</svg>
