<svg width="259" height="108" viewBox="0 0 259 108" fill="none" xmlns="http://www.w3.org/2000/svg">
<path d="M63.2553 11.3492C70.6353 17.0583 76.6784 24.5239 80.5288 33.4718C84.3792 42.4196 85.9836 52.8496 83.1492 61.7426C80.2614 70.6355 72.9349 77.9914 64.6992 81.5047C56.4636 85.018 47.3723 84.6886 39.404 83.1516C31.4357 81.5596 24.5905 78.7051 18.5475 74.4782C12.5044 70.1964 7.31705 64.5422 5.92662 58.0646C4.53618 51.642 6.88923 44.3959 8.06575 35.5029C9.24227 26.6648 9.24227 16.2348 14.1088 9.70237C18.9218 3.115 35.6014 -0.519933 44.8531 0.0839096C54.0514 0.742647 55.8218 5.69505 63.2553 11.3492Z" fill="#4AC1F4"/>
<g filter="url(#filter0_d)">
<path d="M21.6613 61.511C21.1013 61.511 20.6079 61.311 20.1813 60.911C19.7813 60.511 19.5813 60.0177 19.5813 59.431V32.351C19.5813 31.7643 19.7813 31.271 20.1813 30.871C20.6079 30.471 21.1013 30.271 21.6613 30.271C22.2479 30.271 22.7413 30.471 23.1413 30.871C23.5413 31.271 23.7413 31.7643 23.7413 32.351V44.351L36.9813 31.111C37.3013 30.791 37.5946 30.5777 37.8613 30.471C38.1279 30.3377 38.4079 30.271 38.7013 30.271C39.3679 30.271 39.8479 30.471 40.1413 30.871C40.4346 31.271 40.5413 31.751 40.4613 32.311C40.3813 32.8443 40.1279 33.3377 39.7013 33.791L29.5013 44.031L39.9013 58.191C40.2213 58.6443 40.3546 59.1377 40.3013 59.671C40.2479 60.1777 40.0613 60.6177 39.7413 60.991C39.4213 61.3377 38.9946 61.511 38.4613 61.511C37.7146 61.511 37.1413 61.2177 36.7413 60.631L26.6213 46.911L23.7413 49.791V59.431C23.7413 60.0177 23.5413 60.511 23.1413 60.911C22.7413 61.311 22.2479 61.511 21.6613 61.511ZM63.1409 62.151C60.5809 62.151 58.3143 61.6843 56.3409 60.751C54.3676 59.791 52.8209 58.471 51.7009 56.791C50.6076 55.111 50.0609 53.191 50.0609 51.031V32.351C50.0609 31.7377 50.2609 31.2443 50.6609 30.871C51.0609 30.471 51.5543 30.271 52.1409 30.271C52.7543 30.271 53.2476 30.471 53.6209 30.871C54.0209 31.2443 54.2209 31.7377 54.2209 32.351V51.031C54.2209 52.471 54.5943 53.751 55.3409 54.871C56.1143 55.9643 57.1676 56.831 58.5009 57.471C59.8609 58.0843 61.4076 58.391 63.1409 58.391C64.8209 58.391 66.3009 58.0843 67.5809 57.471C68.8876 56.831 69.9009 55.9643 70.6209 54.871C71.3676 53.751 71.7409 52.471 71.7409 51.031V32.351C71.7409 31.7377 71.9409 31.2443 72.3409 30.871C72.7409 30.471 73.2343 30.271 73.8209 30.271C74.4343 30.271 74.9276 30.471 75.3009 30.871C75.6743 31.2443 75.8609 31.7377 75.8609 32.351V51.031C75.8609 53.191 75.3143 55.111 74.2209 56.791C73.1543 58.471 71.6609 59.791 69.7409 60.751C67.8209 61.6843 65.6209 62.151 63.1409 62.151Z" fill="white"/>
<path d="M89.73 61.511C89.1433 61.511 88.65 61.311 88.25 60.911C87.85 60.511 87.65 60.0177 87.65 59.431V32.351C87.65 31.7377 87.85 31.2443 88.25 30.871C88.65 30.471 89.1433 30.271 89.73 30.271H96.93C98.93 30.271 100.703 30.6977 102.25 31.551C103.797 32.3777 104.997 33.5243 105.85 34.991C106.73 36.4577 107.17 38.1643 107.17 40.111C107.17 42.031 106.69 43.7243 105.73 45.191C104.77 46.631 103.463 47.7243 101.81 48.471L107.93 58.311C108.41 59.0843 108.477 59.8177 108.13 60.511C107.783 61.1777 107.183 61.511 106.33 61.511C105.557 61.511 104.957 61.1777 104.53 60.511L97.65 49.471C97.41 49.471 97.17 49.471 96.93 49.471H91.81V59.431C91.81 60.0177 91.61 60.511 91.21 60.911C90.8367 61.311 90.3433 61.511 89.73 61.511ZM91.81 45.631H96.93C98.7433 45.631 100.237 45.1243 101.41 44.111C102.583 43.071 103.17 41.7377 103.17 40.111C103.17 38.351 102.583 36.911 101.41 35.791C100.237 34.671 98.7433 34.111 96.93 34.111H91.81V45.631ZM126.643 61.911C124.937 61.911 123.31 61.6443 121.763 61.111C120.217 60.5777 118.87 59.831 117.723 58.871C116.577 57.911 115.737 56.8043 115.203 55.551C114.937 54.991 114.937 54.471 115.203 53.991C115.497 53.511 115.977 53.2043 116.643 53.071C117.123 52.9643 117.59 53.0443 118.043 53.311C118.523 53.551 118.883 53.9243 119.123 54.431C119.443 55.0977 119.963 55.711 120.683 56.271C121.43 56.831 122.323 57.2843 123.363 57.631C124.403 57.9777 125.497 58.151 126.643 58.151C127.923 58.151 129.097 57.951 130.163 57.551C131.257 57.151 132.137 56.5777 132.803 55.831C133.47 55.0577 133.803 54.111 133.803 52.991C133.803 51.5777 133.243 50.311 132.123 49.191C131.03 48.071 129.217 47.3777 126.683 47.111C123.377 46.791 120.777 45.8177 118.883 44.191C116.99 42.5643 116.043 40.551 116.043 38.151C116.043 36.391 116.537 34.8977 117.523 33.671C118.51 32.4443 119.843 31.511 121.523 30.871C123.23 30.231 125.123 29.911 127.203 29.911C129.63 29.911 131.617 30.4043 133.163 31.391C134.71 32.3777 135.99 33.6843 137.003 35.311C137.377 35.8977 137.523 36.4577 137.443 36.991C137.39 37.4977 137.137 37.8977 136.683 38.191C136.177 38.511 135.63 38.5777 135.043 38.391C134.457 38.2043 134.017 37.8577 133.723 37.351C133.057 36.2043 132.19 35.311 131.123 34.671C130.083 34.031 128.737 33.6977 127.083 33.671C125.11 33.6443 123.457 34.0177 122.123 34.791C120.79 35.5377 120.123 36.6977 120.123 38.271C120.123 39.071 120.323 39.8443 120.723 40.591C121.15 41.311 121.91 41.9377 123.003 42.471C124.123 43.0043 125.723 43.3777 127.803 43.591C130.977 43.911 133.443 44.8843 135.203 46.511C136.99 48.111 137.883 50.231 137.883 52.871C137.883 54.391 137.563 55.711 136.923 56.831C136.31 57.951 135.47 58.8977 134.403 59.671C133.363 60.4177 132.163 60.9777 130.803 61.351C129.47 61.7243 128.083 61.911 126.643 61.911ZM194.179 61.511C193.592 61.511 193.099 61.311 192.699 60.911C192.299 60.511 192.099 60.0177 192.099 59.431V32.351C192.099 31.7377 192.299 31.2443 192.699 30.871C193.099 30.471 193.592 30.271 194.179 30.271H212.259C212.872 30.271 213.365 30.4577 213.739 30.831C214.112 31.1777 214.299 31.6443 214.299 32.231C214.299 32.791 214.112 33.2443 213.739 33.591C213.365 33.9377 212.872 34.111 212.259 34.111H196.259V43.831H207.739C208.352 43.831 208.845 44.0177 209.219 44.391C209.592 44.7377 209.779 45.191 209.779 45.751C209.779 46.311 209.592 46.7777 209.219 47.151C208.845 47.4977 208.352 47.671 207.739 47.671H196.259V59.431C196.259 60.0177 196.059 60.511 195.659 60.911C195.259 61.311 194.765 61.511 194.179 61.511ZM222.979 61.511C222.392 61.511 221.899 61.311 221.499 60.911C221.099 60.511 220.899 60.0177 220.899 59.431V32.351C220.899 31.7377 221.099 31.2443 221.499 30.871C221.899 30.471 222.392 30.271 222.979 30.271H241.059C241.672 30.271 242.165 30.4577 242.539 30.831C242.912 31.1777 243.099 31.6443 243.099 32.231C243.099 32.791 242.912 33.2443 242.539 33.591C242.165 33.9377 241.672 34.111 241.059 34.111H225.059V43.831H236.539C237.152 43.831 237.645 44.0177 238.019 44.391C238.392 44.7377 238.579 45.191 238.579 45.751C238.579 46.311 238.392 46.7777 238.019 47.151C237.645 47.4977 237.152 47.671 236.539 47.671H225.059V59.431C225.059 60.0177 224.859 60.511 224.459 60.911C224.059 61.311 223.565 61.511 222.979 61.511Z" fill="#3FC5FF"/>
</g>
<path d="M2.128 102.511C1.92267 102.511 1.75 102.441 1.61 102.301C1.47 102.161 1.4 101.988 1.4 101.783V92.305C1.4 92.0903 1.47 91.9177 1.61 91.787C1.75 91.647 1.92267 91.577 2.128 91.577C2.408 91.577 2.62267 91.7077 2.772 91.969L6.93 100.299L10.976 91.969C11.1253 91.7077 11.34 91.577 11.62 91.577C11.8253 91.577 11.998 91.647 12.138 91.787C12.278 91.9177 12.348 92.0903 12.348 92.305V101.783C12.348 101.988 12.2733 102.161 12.124 102.301C11.984 102.441 11.816 102.511 11.62 102.511C11.4147 102.511 11.242 102.441 11.102 102.301C10.962 102.161 10.892 101.988 10.892 101.783V94.825L7.504 101.727C7.34533 101.97 7.13533 102.091 6.874 102.091C6.566 102.091 6.342 101.946 6.202 101.657L2.856 94.951V101.783C2.856 101.988 2.786 102.161 2.646 102.301C2.506 102.441 2.33333 102.511 2.128 102.511ZM18.4859 102.567C17.7299 102.567 17.0626 102.404 16.4839 102.077C15.9052 101.741 15.4479 101.284 15.1119 100.705C14.7852 100.117 14.6219 99.445 14.6219 98.689C14.6219 97.9237 14.7852 97.2517 15.1119 96.673C15.4479 96.085 15.9052 95.6277 16.4839 95.301C17.0626 94.965 17.7299 94.797 18.4859 94.797C19.2326 94.797 19.8952 94.965 20.4739 95.301C21.0526 95.6277 21.5052 96.085 21.8319 96.673C22.1679 97.2517 22.3359 97.9237 22.3359 98.689C22.3359 99.445 22.1726 100.117 21.8459 100.705C21.5192 101.284 21.0666 101.741 20.4879 102.077C19.9092 102.404 19.2419 102.567 18.4859 102.567ZM18.4859 101.307C18.9712 101.307 19.4006 101.195 19.7739 100.971C20.1472 100.747 20.4366 100.439 20.6419 100.047C20.8566 99.655 20.9639 99.2023 20.9639 98.689C20.9639 98.1757 20.8566 97.723 20.6419 97.331C20.4366 96.9297 20.1472 96.617 19.7739 96.393C19.4006 96.169 18.9712 96.057 18.4859 96.057C18.0006 96.057 17.5712 96.169 17.1979 96.393C16.8246 96.617 16.5306 96.9297 16.3159 97.331C16.1012 97.723 15.9939 98.1757 15.9939 98.689C15.9939 99.2023 16.1012 99.655 16.3159 100.047C16.5306 100.439 16.8246 100.747 17.1979 100.971C17.5712 101.195 18.0006 101.307 18.4859 101.307ZM25.1472 102.511C24.9418 102.511 24.7738 102.446 24.6432 102.315C24.5218 102.175 24.4612 102.002 24.4612 101.797V95.567C24.4612 95.3523 24.5218 95.1797 24.6432 95.049C24.7738 94.9183 24.9418 94.853 25.1472 94.853C25.3618 94.853 25.5345 94.9183 25.6652 95.049C25.7958 95.1797 25.8612 95.3523 25.8612 95.567V97.905H30.1872V95.567C30.1872 95.3523 30.2525 95.1797 30.3832 95.049C30.5232 94.9183 30.6958 94.853 30.9012 94.853C31.1158 94.853 31.2838 94.9183 31.4052 95.049C31.5265 95.1797 31.5872 95.3523 31.5872 95.567V101.797C31.5872 102.002 31.5265 102.175 31.4052 102.315C31.2838 102.446 31.1158 102.511 30.9012 102.511C30.6958 102.511 30.5232 102.446 30.3832 102.315C30.2525 102.175 30.1872 102.002 30.1872 101.797V99.165H25.8612V101.797C25.8612 102.002 25.7958 102.175 25.6652 102.315C25.5345 102.446 25.3618 102.511 25.1472 102.511ZM37.3335 102.581C36.6895 102.581 36.1108 102.446 35.5975 102.175C35.0935 101.895 34.6922 101.489 34.3935 100.957C34.1042 100.425 33.9595 99.7717 33.9595 98.997V95.553C33.9595 95.3477 34.0248 95.1797 34.1555 95.049C34.2955 94.909 34.4682 94.839 34.6735 94.839C34.8788 94.839 35.0468 94.909 35.1775 95.049C35.3175 95.1797 35.3875 95.3477 35.3875 95.553V98.997C35.3875 99.7903 35.5975 100.374 36.0175 100.747C36.4468 101.111 36.9788 101.293 37.6135 101.293C38.0148 101.293 38.3695 101.214 38.6775 101.055C38.9948 100.896 39.2468 100.682 39.4335 100.411C39.6202 100.14 39.7135 99.837 39.7135 99.501V95.553C39.7135 95.3383 39.7788 95.1657 39.9095 95.035C40.0495 94.9043 40.2222 94.839 40.4275 94.839C40.6422 94.839 40.8148 94.9043 40.9455 95.035C41.0762 95.1657 41.1415 95.3383 41.1415 95.553V101.797C41.1415 102.002 41.0762 102.175 40.9455 102.315C40.8148 102.446 40.6422 102.511 40.4275 102.511C40.2222 102.511 40.0495 102.446 39.9095 102.315C39.7788 102.175 39.7135 102.002 39.7135 101.797V101.643C39.4242 101.932 39.0742 102.161 38.6635 102.329C38.2528 102.497 37.8095 102.581 37.3335 102.581ZM44.3705 102.525C44.1652 102.525 43.9925 102.46 43.8525 102.329C43.7218 102.189 43.6565 102.016 43.6565 101.811V95.581C43.6565 95.3663 43.7218 95.1937 43.8525 95.063C43.9925 94.9323 44.1652 94.867 44.3705 94.867C44.5852 94.867 44.7578 94.9323 44.8885 95.063C45.0192 95.1937 45.0845 95.357 45.0845 95.553C45.3272 95.3103 45.6165 95.1237 45.9525 94.993C46.2885 94.853 46.6525 94.783 47.0445 94.783C48.0245 94.783 48.7618 95.1517 49.2565 95.889C49.5272 95.5437 49.8725 95.273 50.2925 95.077C50.7125 94.881 51.1838 94.783 51.7065 94.783C52.5092 94.783 53.1625 95.0443 53.6665 95.567C54.1705 96.0897 54.4225 96.8363 54.4225 97.807V101.811C54.4225 102.016 54.3572 102.189 54.2265 102.329C54.0958 102.46 53.9232 102.525 53.7085 102.525C53.5032 102.525 53.3305 102.46 53.1905 102.329C53.0598 102.189 52.9945 102.016 52.9945 101.811V97.807C52.9945 97.219 52.8498 96.785 52.5605 96.505C52.2712 96.2157 51.8932 96.071 51.4265 96.071C50.9412 96.071 50.5398 96.239 50.2225 96.575C49.9145 96.911 49.7605 97.3403 49.7605 97.863V101.811C49.7605 102.016 49.6952 102.189 49.5645 102.329C49.4338 102.46 49.2612 102.525 49.0465 102.525C48.8412 102.525 48.6685 102.46 48.5285 102.329C48.3978 102.189 48.3325 102.016 48.3325 101.811V97.807C48.3325 97.219 48.1878 96.785 47.8985 96.505C47.6092 96.2157 47.2312 96.071 46.7645 96.071C46.2792 96.071 45.8778 96.239 45.5605 96.575C45.2432 96.911 45.0845 97.3403 45.0845 97.863V101.811C45.0845 102.016 45.0192 102.189 44.8885 102.329C44.7578 102.46 44.5852 102.525 44.3705 102.525ZM60.2672 102.567C59.5112 102.567 58.8438 102.404 58.2652 102.077C57.6865 101.741 57.2292 101.284 56.8932 100.705C56.5665 100.117 56.4032 99.445 56.4032 98.689C56.4032 97.9237 56.5665 97.2517 56.8932 96.673C57.2292 96.085 57.6865 95.6277 58.2652 95.301C58.8438 94.965 59.5112 94.797 60.2672 94.797C61.0138 94.797 61.6765 94.965 62.2552 95.301C62.8338 95.6277 63.2865 96.085 63.6132 96.673C63.9492 97.2517 64.1172 97.9237 64.1172 98.689C64.1172 99.445 63.9538 100.117 63.6272 100.705C63.3005 101.284 62.8478 101.741 62.2692 102.077C61.6905 102.404 61.0232 102.567 60.2672 102.567ZM60.2672 101.307C60.7525 101.307 61.1818 101.195 61.5552 100.971C61.9285 100.747 62.2178 100.439 62.4232 100.047C62.6378 99.655 62.7452 99.2023 62.7452 98.689C62.7452 98.1757 62.6378 97.723 62.4232 97.331C62.2178 96.9297 61.9285 96.617 61.5552 96.393C61.1818 96.169 60.7525 96.057 60.2672 96.057C59.7818 96.057 59.3525 96.169 58.9792 96.393C58.6058 96.617 58.3118 96.9297 58.0972 97.331C57.8825 97.723 57.7752 98.1757 57.7752 98.689C57.7752 99.2023 57.8825 99.655 58.0972 100.047C58.3118 100.439 58.6058 100.747 58.9792 100.971C59.3525 101.195 59.7818 101.307 60.2672 101.307ZM66.9564 105.787C66.7511 105.787 66.5784 105.717 66.4384 105.577C66.3078 105.446 66.2424 105.278 66.2424 105.073V98.689C66.2518 97.9517 66.4244 97.289 66.7604 96.701C67.0964 96.113 67.5538 95.651 68.1324 95.315C68.7111 94.9697 69.3644 94.797 70.0924 94.797C70.8298 94.797 71.4878 94.9697 72.0664 95.315C72.6451 95.651 73.1024 96.113 73.4384 96.701C73.7838 97.289 73.9564 97.9517 73.9564 98.689C73.9564 99.4263 73.7978 100.089 73.4804 100.677C73.1724 101.256 72.7478 101.718 72.2064 102.063C71.6651 102.399 71.0538 102.567 70.3724 102.567C69.8218 102.567 69.3131 102.455 68.8464 102.231C68.3891 101.998 67.9971 101.685 67.6704 101.293V105.073C67.6704 105.278 67.6051 105.446 67.4744 105.577C67.3438 105.717 67.1711 105.787 66.9564 105.787ZM70.0924 101.307C70.5684 101.307 70.9931 101.195 71.3664 100.971C71.7398 100.738 72.0338 100.425 72.2484 100.033C72.4724 99.6317 72.5844 99.1837 72.5844 98.689C72.5844 98.185 72.4724 97.737 72.2484 97.345C72.0338 96.9437 71.7398 96.631 71.3664 96.407C70.9931 96.1737 70.5684 96.057 70.0924 96.057C69.6258 96.057 69.2011 96.1737 68.8184 96.407C68.4451 96.631 68.1511 96.9437 67.9364 97.345C67.7218 97.737 67.6144 98.185 67.6144 98.689C67.6144 99.1837 67.7218 99.6317 67.9364 100.033C68.1511 100.425 68.4451 100.738 68.8184 100.971C69.2011 101.195 69.6258 101.307 70.0924 101.307ZM79.3062 102.581C78.6622 102.581 78.0835 102.446 77.5702 102.175C77.0662 101.895 76.6648 101.489 76.3662 100.957C76.0768 100.425 75.9322 99.7717 75.9322 98.997V95.553C75.9322 95.3477 75.9975 95.1797 76.1282 95.049C76.2682 94.909 76.4408 94.839 76.6462 94.839C76.8515 94.839 77.0195 94.909 77.1502 95.049C77.2902 95.1797 77.3602 95.3477 77.3602 95.553V98.997C77.3602 99.7903 77.5702 100.374 77.9902 100.747C78.4195 101.111 78.9515 101.293 79.5862 101.293C79.9875 101.293 80.3422 101.214 80.6502 101.055C80.9675 100.896 81.2195 100.682 81.4062 100.411C81.5928 100.14 81.6862 99.837 81.6862 99.501V95.553C81.6862 95.3383 81.7515 95.1657 81.8822 95.035C82.0222 94.9043 82.1948 94.839 82.4002 94.839C82.6148 94.839 82.7875 94.9043 82.9182 95.035C83.0488 95.1657 83.1142 95.3383 83.1142 95.553V101.797C83.1142 102.002 83.0488 102.175 82.9182 102.315C82.7875 102.446 82.6148 102.511 82.4002 102.511C82.1948 102.511 82.0222 102.446 81.8822 102.315C81.7515 102.175 81.6862 102.002 81.6862 101.797V101.643C81.3968 101.932 81.0468 102.161 80.6362 102.329C80.2255 102.497 79.7822 102.581 79.3062 102.581ZM86.3151 102.511C86.1098 102.511 85.9418 102.446 85.8111 102.315C85.6898 102.175 85.6291 102.002 85.6291 101.797V95.567C85.6291 95.3523 85.6898 95.1797 85.8111 95.049C85.9418 94.9183 86.1098 94.853 86.3151 94.853C86.5298 94.853 86.7025 94.9183 86.8331 95.049C86.9638 95.1797 87.0291 95.3523 87.0291 95.567V97.905H91.3551V95.567C91.3551 95.3523 91.4205 95.1797 91.5511 95.049C91.6911 94.9183 91.8638 94.853 92.0691 94.853C92.2838 94.853 92.4518 94.9183 92.5731 95.049C92.6945 95.1797 92.7551 95.3523 92.7551 95.567V101.797C92.7551 102.002 92.6945 102.175 92.5731 102.315C92.4518 102.446 92.2838 102.511 92.0691 102.511C91.8638 102.511 91.6911 102.446 91.5511 102.315C91.4205 102.175 91.3551 102.002 91.3551 101.797V99.165H87.0291V101.797C87.0291 102.002 86.9638 102.175 86.8331 102.315C86.7025 102.446 86.5298 102.511 86.3151 102.511ZM97.6475 102.567C97.0595 102.567 96.5322 102.478 96.0655 102.301C95.6082 102.114 95.2442 101.858 94.9735 101.531C94.7122 101.204 94.5815 100.831 94.5815 100.411C94.5815 99.7857 94.8475 99.2863 95.3795 98.913C95.9115 98.5397 96.6535 98.2643 97.6055 98.087C98.2402 97.9563 98.6695 97.8023 98.8935 97.625C99.1175 97.4383 99.2295 97.2003 99.2295 96.911C99.2295 96.6123 99.0802 96.393 98.7815 96.253C98.4828 96.1037 98.1375 96.029 97.7455 96.029C97.4188 96.029 97.0922 96.0803 96.7655 96.183C96.4482 96.2857 96.1822 96.435 95.9675 96.631C95.8275 96.7617 95.6735 96.8503 95.5055 96.897C95.3375 96.9437 95.2022 96.9343 95.0995 96.869C94.9222 96.757 94.8102 96.6123 94.7635 96.435C94.7262 96.2577 94.7682 96.0943 94.8895 95.945C95.1695 95.5997 95.5615 95.3243 96.0655 95.119C96.5788 94.9043 97.1435 94.797 97.7595 94.797C98.2822 94.797 98.7582 94.881 99.1875 95.049C99.6168 95.2077 99.9575 95.4457 100.209 95.763C100.471 96.0803 100.601 96.4723 100.601 96.939C100.601 98.0217 99.7148 98.759 97.9415 99.151C97.2042 99.3003 96.6955 99.4777 96.4155 99.683C96.1355 99.879 96.0002 100.117 96.0095 100.397C96.0282 101.004 96.5742 101.307 97.6475 101.307C98.1328 101.307 98.5435 101.26 98.8795 101.167C99.2248 101.064 99.4955 100.91 99.6915 100.705C99.8222 100.565 99.9715 100.472 100.139 100.425C100.307 100.378 100.48 100.43 100.657 100.579C100.816 100.71 100.895 100.859 100.895 101.027C100.895 101.195 100.825 101.354 100.685 101.503C100.377 101.811 99.9482 102.068 99.3975 102.273C98.8468 102.469 98.2635 102.567 97.6475 102.567ZM110.224 102.567C109.468 102.567 108.801 102.404 108.222 102.077C107.644 101.741 107.186 101.284 106.85 100.705C106.524 100.117 106.36 99.445 106.36 98.689C106.36 97.9237 106.524 97.2517 106.85 96.673C107.186 96.085 107.644 95.6277 108.222 95.301C108.801 94.965 109.468 94.797 110.224 94.797C110.971 94.797 111.634 94.965 112.212 95.301C112.791 95.6277 113.244 96.085 113.57 96.673C113.906 97.2517 114.074 97.9237 114.074 98.689C114.074 99.445 113.911 100.117 113.584 100.705C113.258 101.284 112.805 101.741 112.226 102.077C111.648 102.404 110.98 102.567 110.224 102.567ZM110.224 101.307C110.71 101.307 111.139 101.195 111.512 100.971C111.886 100.747 112.175 100.439 112.38 100.047C112.595 99.655 112.702 99.2023 112.702 98.689C112.702 98.1757 112.595 97.723 112.38 97.331C112.175 96.9297 111.886 96.617 111.512 96.393C111.139 96.169 110.71 96.057 110.224 96.057C109.739 96.057 109.31 96.169 108.936 96.393C108.563 96.617 108.269 96.9297 108.054 97.331C107.84 97.723 107.732 98.1757 107.732 98.689C107.732 99.2023 107.84 99.655 108.054 100.047C108.269 100.439 108.563 100.747 108.936 100.971C109.31 101.195 109.739 101.307 110.224 101.307ZM115.849 98.955L115.863 97.373C115.873 96.2717 116.176 95.2637 116.773 94.349C117.38 93.4343 118.318 92.6923 119.587 92.123L122.205 90.961C122.392 90.8863 122.56 90.877 122.709 90.933C122.859 90.9797 122.966 91.087 123.031 91.255C123.097 91.4323 123.111 91.5957 123.073 91.745C123.045 91.885 122.91 92.011 122.667 92.123L119.825 93.425C118.929 93.8357 118.253 94.3537 117.795 94.979C117.338 95.595 117.067 96.295 116.983 97.079C117.273 96.547 117.674 96.127 118.187 95.819C118.71 95.511 119.307 95.357 119.979 95.357C120.651 95.357 121.244 95.511 121.757 95.819C122.28 96.127 122.686 96.5517 122.975 97.093C123.274 97.625 123.423 98.2457 123.423 98.955C123.423 99.655 123.265 100.28 122.947 100.831C122.63 101.372 122.191 101.797 121.631 102.105C121.071 102.413 120.427 102.567 119.699 102.567C118.953 102.567 118.29 102.413 117.711 102.105C117.133 101.797 116.68 101.372 116.353 100.831C116.027 100.28 115.859 99.655 115.849 98.955ZM119.699 101.307C120.166 101.307 120.572 101.209 120.917 101.013C121.272 100.808 121.547 100.528 121.743 100.173C121.949 99.8183 122.051 99.4123 122.051 98.955C122.051 98.4977 121.949 98.0963 121.743 97.751C121.547 97.3963 121.272 97.121 120.917 96.925C120.572 96.7197 120.166 96.617 119.699 96.617C119.214 96.617 118.785 96.7197 118.411 96.925C118.038 97.121 117.744 97.3963 117.529 97.751C117.324 98.0963 117.221 98.4977 117.221 98.955C117.221 99.4123 117.324 99.8183 117.529 100.173C117.744 100.528 118.038 100.808 118.411 101.013C118.785 101.209 119.214 101.307 119.699 101.307ZM126.265 102.511C126.06 102.511 125.887 102.446 125.747 102.315C125.616 102.175 125.551 102.002 125.551 101.797V95.567C125.551 95.3523 125.616 95.1797 125.747 95.049C125.887 94.9183 126.06 94.853 126.265 94.853C126.564 94.853 126.816 94.9977 127.021 95.287L129.919 99.473L132.817 95.287C133.022 94.9977 133.274 94.853 133.573 94.853C133.788 94.853 133.96 94.9183 134.091 95.049C134.222 95.1797 134.287 95.3523 134.287 95.567V101.797C134.287 102.002 134.222 102.175 134.091 102.315C133.96 102.446 133.788 102.511 133.573 102.511C133.368 102.511 133.195 102.446 133.055 102.315C132.924 102.175 132.859 102.002 132.859 101.797V97.331L130.647 100.453C130.414 100.78 130.162 100.943 129.891 100.943C129.62 100.934 129.373 100.77 129.149 100.453L126.979 97.331V101.797C126.979 102.002 126.914 102.175 126.783 102.315C126.652 102.446 126.48 102.511 126.265 102.511ZM140.401 102.567C139.626 102.567 138.936 102.404 138.329 102.077C137.732 101.741 137.26 101.284 136.915 100.705C136.579 100.117 136.411 99.445 136.411 98.689C136.411 97.9237 136.57 97.2517 136.887 96.673C137.214 96.085 137.662 95.6277 138.231 95.301C138.8 94.965 139.454 94.797 140.191 94.797C140.919 94.797 141.544 94.9603 142.067 95.287C142.59 95.6043 142.986 96.0477 143.257 96.617C143.537 97.177 143.677 97.8257 143.677 98.563C143.677 98.7403 143.616 98.8897 143.495 99.011C143.374 99.123 143.22 99.179 143.033 99.179H137.713C137.816 99.823 138.11 100.35 138.595 100.761C139.09 101.162 139.692 101.363 140.401 101.363C140.69 101.363 140.984 101.312 141.283 101.209C141.591 101.097 141.838 100.971 142.025 100.831C142.165 100.728 142.314 100.677 142.473 100.677C142.641 100.668 142.786 100.714 142.907 100.817C143.066 100.957 143.15 101.111 143.159 101.279C143.168 101.447 143.094 101.592 142.935 101.713C142.618 101.965 142.221 102.17 141.745 102.329C141.278 102.488 140.83 102.567 140.401 102.567ZM140.191 96.001C139.5 96.001 138.945 96.1923 138.525 96.575C138.105 96.9577 137.839 97.4523 137.727 98.059H142.389C142.305 97.4617 142.076 96.9717 141.703 96.589C141.33 96.197 140.826 96.001 140.191 96.001ZM146.184 102.511C145.979 102.511 145.811 102.446 145.68 102.315C145.559 102.175 145.498 102.002 145.498 101.797V95.567C145.498 95.3523 145.559 95.1797 145.68 95.049C145.811 94.9183 145.979 94.853 146.184 94.853C146.399 94.853 146.572 94.9183 146.702 95.049C146.833 95.1797 146.898 95.3523 146.898 95.567V97.905H151.224V95.567C151.224 95.3523 151.29 95.1797 151.42 95.049C151.56 94.9183 151.733 94.853 151.938 94.853C152.153 94.853 152.321 94.9183 152.442 95.049C152.564 95.1797 152.624 95.3523 152.624 95.567V101.797C152.624 102.002 152.564 102.175 152.442 102.315C152.321 102.446 152.153 102.511 151.938 102.511C151.733 102.511 151.56 102.446 151.42 102.315C151.29 102.175 151.224 102.002 151.224 101.797V99.165H146.898V101.797C146.898 102.002 146.833 102.175 146.702 102.315C146.572 102.446 146.399 102.511 146.184 102.511ZM155.837 102.511C155.631 102.511 155.463 102.446 155.333 102.315C155.211 102.175 155.151 102.002 155.151 101.797V95.567C155.151 95.3523 155.211 95.1797 155.333 95.049C155.463 94.9183 155.631 94.853 155.837 94.853C156.051 94.853 156.224 94.9183 156.355 95.049C156.485 95.1797 156.551 95.3523 156.551 95.567V97.905H160.877V95.567C160.877 95.3523 160.942 95.1797 161.073 95.049C161.213 94.9183 161.385 94.853 161.591 94.853C161.805 94.853 161.973 94.9183 162.095 95.049C162.216 95.1797 162.277 95.3523 162.277 95.567V101.797C162.277 102.002 162.216 102.175 162.095 102.315C161.973 102.446 161.805 102.511 161.591 102.511C161.385 102.511 161.213 102.446 161.073 102.315C160.942 102.175 160.877 102.002 160.877 101.797V99.165H156.551V101.797C156.551 102.002 156.485 102.175 156.355 102.315C156.224 102.446 156.051 102.511 155.837 102.511ZM168.009 102.651C167.384 102.651 166.828 102.52 166.343 102.259C165.858 101.988 165.48 101.62 165.209 101.153C164.938 100.686 164.803 100.154 164.803 99.557V95.553C164.822 95.3477 164.896 95.1797 165.027 95.049C165.158 94.9183 165.321 94.853 165.517 94.853C165.732 94.853 165.904 94.9183 166.035 95.049C166.166 95.1797 166.231 95.3523 166.231 95.567V97.135H168.149C168.737 97.135 169.255 97.2377 169.703 97.443C170.16 97.6483 170.515 97.947 170.767 98.339C171.028 98.731 171.159 99.2117 171.159 99.781C171.159 100.388 171.024 100.906 170.753 101.335C170.492 101.764 170.123 102.091 169.647 102.315C169.171 102.539 168.625 102.651 168.009 102.651ZM173.091 102.511C172.886 102.511 172.713 102.446 172.573 102.315C172.442 102.175 172.377 102.002 172.377 101.797V95.567C172.377 95.3523 172.442 95.1797 172.573 95.049C172.713 94.9183 172.886 94.853 173.091 94.853C173.306 94.853 173.478 94.9183 173.609 95.049C173.74 95.1797 173.805 95.3523 173.805 95.567V101.797C173.805 102.002 173.74 102.175 173.609 102.315C173.478 102.446 173.306 102.511 173.091 102.511ZM168.009 101.321C168.532 101.321 168.956 101.195 169.283 100.943C169.619 100.682 169.787 100.294 169.787 99.781C169.787 99.2863 169.633 98.9223 169.325 98.689C169.017 98.4557 168.625 98.339 168.149 98.339H166.231V99.529C166.231 100.052 166.394 100.481 166.721 100.817C167.057 101.153 167.486 101.321 168.009 101.321ZM175.933 102.511C175.746 102.511 175.597 102.455 175.485 102.343C175.382 102.222 175.331 102.077 175.331 101.909C175.331 101.741 175.396 101.573 175.527 101.405L177.697 98.689L175.387 95.959C175.265 95.8097 175.2 95.651 175.191 95.483C175.181 95.3057 175.228 95.1563 175.331 95.035C175.433 94.9137 175.587 94.853 175.793 94.853C176.017 94.853 176.194 94.9323 176.325 95.091L178.621 97.835L180.679 95.091C180.753 94.9977 180.833 94.937 180.917 94.909C181.001 94.8717 181.094 94.853 181.197 94.853C181.402 94.853 181.556 94.9183 181.659 95.049C181.761 95.1703 181.808 95.3197 181.799 95.497C181.799 95.6743 181.733 95.847 181.603 96.015L179.489 98.773L181.715 101.433C181.855 101.601 181.92 101.769 181.911 101.937C181.911 102.096 181.85 102.231 181.729 102.343C181.617 102.455 181.467 102.511 181.281 102.511C181.187 102.511 181.099 102.497 181.015 102.469C180.931 102.441 180.851 102.38 180.777 102.287L178.551 99.627L176.437 102.287C176.297 102.436 176.129 102.511 175.933 102.511ZM188.513 102.525C188.308 102.525 188.135 102.46 187.995 102.329C187.864 102.189 187.799 102.016 187.799 101.811V95.567C187.799 95.3523 187.864 95.1797 187.995 95.049C188.135 94.9183 188.308 94.853 188.513 94.853C188.728 94.853 188.9 94.9183 189.031 95.049C189.162 95.1797 189.227 95.3523 189.227 95.567V95.721C189.516 95.4317 189.866 95.203 190.277 95.035C190.688 94.867 191.131 94.783 191.607 94.783C192.251 94.783 192.825 94.923 193.329 95.203C193.842 95.4737 194.244 95.875 194.533 96.407C194.832 96.939 194.981 97.5923 194.981 98.367V101.811C194.981 102.016 194.911 102.189 194.771 102.329C194.64 102.46 194.472 102.525 194.267 102.525C194.062 102.525 193.889 102.46 193.749 102.329C193.618 102.189 193.553 102.016 193.553 101.811V98.367C193.553 97.5737 193.338 96.995 192.909 96.631C192.489 96.2577 191.962 96.071 191.327 96.071C190.935 96.071 190.58 96.1503 190.263 96.309C189.946 96.4677 189.694 96.6823 189.507 96.953C189.32 97.2143 189.227 97.5177 189.227 97.863V101.811C189.227 102.016 189.162 102.189 189.031 102.329C188.9 102.46 188.728 102.525 188.513 102.525ZM196.75 105.871C196.582 105.871 196.41 105.848 196.232 105.801C196.064 105.754 195.896 105.684 195.728 105.591C195.523 105.47 195.388 105.32 195.322 105.143C195.257 104.966 195.285 104.793 195.406 104.625C195.518 104.466 195.654 104.368 195.812 104.331C195.971 104.294 196.139 104.326 196.316 104.429C196.512 104.541 196.699 104.597 196.876 104.597C197.446 104.597 198.006 103.986 198.556 102.763L199.004 101.741L195.868 95.777C195.775 95.5997 195.761 95.4317 195.826 95.273C195.901 95.105 196.027 94.9837 196.204 94.909C196.382 94.8343 196.545 94.8297 196.694 94.895C196.853 94.951 196.979 95.0677 197.072 95.245L199.648 100.299L201.902 95.203C201.986 95.0163 202.112 94.8903 202.28 94.825C202.458 94.7597 202.635 94.769 202.812 94.853C202.971 94.9183 203.074 95.0397 203.12 95.217C203.167 95.385 203.144 95.567 203.05 95.763L199.676 103.323C199.34 104.079 198.911 104.69 198.388 105.157C197.875 105.633 197.329 105.871 196.75 105.871ZM205.274 102.511C205.069 102.511 204.901 102.446 204.77 102.315C204.649 102.175 204.588 102.002 204.588 101.797V95.567C204.588 95.3523 204.649 95.1797 204.77 95.049C204.901 94.9183 205.069 94.853 205.274 94.853C205.489 94.853 205.661 94.9183 205.792 95.049C205.923 95.1797 205.988 95.3523 205.988 95.567V97.905H210.314V95.567C210.314 95.3523 210.379 95.1797 210.51 95.049C210.65 94.9183 210.823 94.853 211.028 94.853C211.243 94.853 211.411 94.9183 211.532 95.049C211.653 95.1797 211.714 95.3523 211.714 95.567V101.797C211.714 102.002 211.653 102.175 211.532 102.315C211.411 102.446 211.243 102.511 211.028 102.511C210.823 102.511 210.65 102.446 210.51 102.315C210.379 102.175 210.314 102.002 210.314 101.797V99.165H205.988V101.797C205.988 102.002 205.923 102.175 205.792 102.315C205.661 102.446 205.489 102.511 205.274 102.511ZM214.912 102.525C214.707 102.525 214.544 102.46 214.422 102.329C214.301 102.189 214.24 102.016 214.24 101.811V95.567C214.24 95.3523 214.301 95.1797 214.422 95.049C214.544 94.9183 214.707 94.853 214.912 94.853C215.127 94.853 215.3 94.9183 215.43 95.049C215.57 95.1797 215.64 95.3523 215.64 95.567V97.905H216.704L219.238 95.077C219.36 94.9463 219.528 94.8717 219.742 94.853C219.966 94.8343 220.139 94.881 220.26 94.993C220.4 95.1237 220.48 95.273 220.498 95.441C220.517 95.5997 220.466 95.7443 220.344 95.875L217.81 98.591L220.498 101.475C220.62 101.596 220.68 101.741 220.68 101.909C220.68 102.068 220.606 102.212 220.456 102.343C220.335 102.455 220.162 102.511 219.938 102.511C219.724 102.502 219.556 102.436 219.434 102.315L216.55 99.221H215.64V101.811C215.64 102.016 215.57 102.189 215.43 102.329C215.3 102.46 215.127 102.525 214.912 102.525ZM223.144 102.525C222.939 102.525 222.766 102.46 222.626 102.329C222.495 102.189 222.43 102.016 222.43 101.811V95.581C222.43 95.3663 222.495 95.1937 222.626 95.063C222.766 94.9323 222.939 94.867 223.144 94.867C223.359 94.867 223.531 94.9323 223.662 95.063C223.793 95.1937 223.858 95.357 223.858 95.553C224.101 95.3103 224.39 95.1237 224.726 94.993C225.062 94.853 225.426 94.783 225.818 94.783C226.798 94.783 227.535 95.1517 228.03 95.889C228.301 95.5437 228.646 95.273 229.066 95.077C229.486 94.881 229.957 94.783 230.48 94.783C231.283 94.783 231.936 95.0443 232.44 95.567C232.944 96.0897 233.196 96.8363 233.196 97.807V101.811C233.196 102.016 233.131 102.189 233 102.329C232.869 102.46 232.697 102.525 232.482 102.525C232.277 102.525 232.104 102.46 231.964 102.329C231.833 102.189 231.768 102.016 231.768 101.811V97.807C231.768 97.219 231.623 96.785 231.334 96.505C231.045 96.2157 230.667 96.071 230.2 96.071C229.715 96.071 229.313 96.239 228.996 96.575C228.688 96.911 228.534 97.3403 228.534 97.863V101.811C228.534 102.016 228.469 102.189 228.338 102.329C228.207 102.46 228.035 102.525 227.82 102.525C227.615 102.525 227.442 102.46 227.302 102.329C227.171 102.189 227.106 102.016 227.106 101.811V97.807C227.106 97.219 226.961 96.785 226.672 96.505C226.383 96.2157 226.005 96.071 225.538 96.071C225.053 96.071 224.651 96.239 224.334 96.575C224.017 96.911 223.858 97.3403 223.858 97.863V101.811C223.858 102.016 223.793 102.189 223.662 102.329C223.531 102.46 223.359 102.525 223.144 102.525ZM239.041 102.567C238.285 102.567 237.617 102.404 237.039 102.077C236.46 101.741 236.003 101.284 235.667 100.705C235.34 100.117 235.177 99.445 235.177 98.689C235.177 97.9237 235.34 97.2517 235.667 96.673C236.003 96.085 236.46 95.6277 237.039 95.301C237.617 94.965 238.285 94.797 239.041 94.797C239.787 94.797 240.45 94.965 241.029 95.301C241.607 95.6277 242.06 96.085 242.387 96.673C242.723 97.2517 242.891 97.9237 242.891 98.689C242.891 99.445 242.727 100.117 242.401 100.705C242.074 101.284 241.621 101.741 241.043 102.077C240.464 102.404 239.797 102.567 239.041 102.567ZM239.041 101.307C239.526 101.307 239.955 101.195 240.329 100.971C240.702 100.747 240.991 100.439 241.197 100.047C241.411 99.655 241.519 99.2023 241.519 98.689C241.519 98.1757 241.411 97.723 241.197 97.331C240.991 96.9297 240.702 96.617 240.329 96.393C239.955 96.169 239.526 96.057 239.041 96.057C238.555 96.057 238.126 96.169 237.753 96.393C237.379 96.617 237.085 96.9297 236.871 97.331C236.656 97.723 236.549 98.1757 236.549 98.689C236.549 99.2023 236.656 99.655 236.871 100.047C237.085 100.439 237.379 100.747 237.753 100.971C238.126 101.195 238.555 101.307 239.041 101.307ZM245.73 102.511C245.525 102.511 245.352 102.446 245.212 102.315C245.081 102.175 245.016 102.002 245.016 101.797V95.553C245.035 95.3477 245.109 95.1797 245.24 95.049C245.371 94.9183 245.534 94.853 245.73 94.853H245.744H249.244C249.683 94.853 250.07 94.9417 250.406 95.119C250.751 95.287 251.022 95.525 251.218 95.833C251.414 96.1317 251.512 96.477 251.512 96.869C251.512 97.233 251.414 97.5597 251.218 97.849C251.031 98.129 250.779 98.3437 250.462 98.493C250.873 98.6703 251.195 98.9177 251.428 99.235C251.671 99.5523 251.792 99.921 251.792 100.341C251.792 100.761 251.68 101.134 251.456 101.461C251.232 101.788 250.919 102.044 250.518 102.231C250.126 102.418 249.673 102.511 249.16 102.511H245.73ZM249.244 96.169H246.444V97.975H249.384C249.617 97.975 249.809 97.8863 249.958 97.709C250.107 97.5223 250.182 97.289 250.182 97.009C250.182 96.7663 250.093 96.5657 249.916 96.407C249.739 96.2483 249.515 96.169 249.244 96.169ZM246.444 101.181H249.16C249.533 101.181 249.837 101.092 250.07 100.915C250.303 100.728 250.42 100.49 250.42 100.201C250.42 99.893 250.303 99.641 250.07 99.445C249.837 99.249 249.533 99.151 249.16 99.151H246.444V101.181Z" fill="black" fill-opacity="0.58"/>
<g clip-path="url(#clip0)">
<path d="M164.499 46.5575C163.422 46.5575 162.546 45.7072 162.546 44.662C162.546 43.6169 163.422 42.7665 164.499 42.7665H167.423C167.959 42.7665 168.394 42.3446 168.394 41.8242C168.394 41.3038 167.959 40.8819 167.423 40.8819H165.47V39.3824C165.47 38.862 165.035 38.4401 164.499 38.4401C163.963 38.4401 163.528 38.862 163.528 39.3824V41.0009C161.849 41.4206 160.604 42.9029 160.604 44.662C160.604 46.7464 162.352 48.4422 164.499 48.4422C165.576 48.4422 166.452 49.2925 166.452 50.3377C166.452 51.3828 165.576 52.2332 164.499 52.2332H161.575C161.039 52.2332 160.604 52.6551 160.604 53.1755C160.604 53.6959 161.039 54.1178 161.575 54.1178H163.528V55.6173C163.528 56.1377 163.963 56.5596 164.499 56.5596C165.035 56.5596 165.47 56.1377 165.47 55.6173V53.9988C167.149 53.579 168.394 52.0967 168.394 50.3376C168.394 48.2534 166.647 46.5575 164.499 46.5575Z" fill="black"/>
<path d="M181.377 44.8284C181.205 44.5292 180.88 44.3436 180.528 44.3436H178.153C177.465 41.5349 175.857 38.9874 173.568 37.1042C171.039 35.024 167.818 33.8782 164.499 33.8782C161.789 33.8782 159.159 34.6293 156.893 36.0502C154.686 37.4335 152.928 39.3801 151.806 41.6794C151.577 42.1498 151.784 42.7117 152.269 42.9343C152.753 43.157 153.332 42.9561 153.562 42.4856C155.553 38.4017 159.846 35.7628 164.499 35.7628C169.987 35.7628 174.714 39.3094 176.15 44.3434H174.597C174.244 44.3434 173.919 44.529 173.748 44.8282C173.577 45.1274 173.586 45.4933 173.773 45.7838L176.738 50.406C176.915 50.6823 177.227 50.8502 177.562 50.8502C177.898 50.8502 178.209 50.6823 178.386 50.406L181.352 45.7838C181.538 45.4934 181.548 45.1277 181.377 44.8284Z" fill="black"/>
<path d="M176.745 53.1654C176.259 52.9443 175.681 53.147 175.454 53.618C173.469 57.7226 169.169 60.3749 164.5 60.3749C159.012 60.3749 154.285 56.8282 152.849 51.7942H154.402C154.755 51.7942 155.079 51.6086 155.251 51.3093C155.422 51.0101 155.413 50.6443 155.226 50.3538L152.26 45.7316C152.083 45.4553 151.772 45.2874 151.436 45.2874C151.101 45.2874 150.789 45.4553 150.612 45.7316L147.647 50.3539C147.46 50.6445 147.451 51.0103 147.622 51.3095C147.793 51.6087 148.118 51.7944 148.471 51.7944H150.845C151.534 54.603 153.141 57.1506 155.431 59.0337C157.959 61.114 161.18 62.2597 164.5 62.2597C167.218 62.2597 169.854 61.5045 172.125 60.0759C174.336 58.6848 176.095 56.7287 177.212 54.4189C177.439 53.9477 177.23 53.3865 176.745 53.1654Z" fill="black"/>
</g>
<defs>
<filter id="filter0_d" x="14.5813" y="28.911" width="233.517" height="42.24" filterUnits="userSpaceOnUse" color-interpolation-filters="sRGB">
<feFlood flood-opacity="0" result="BackgroundImageFix"/>
<feColorMatrix in="SourceAlpha" type="matrix" values="0 0 0 0 0 0 0 0 0 0 0 0 0 0 0 0 0 0 127 0"/>
<feOffset dy="4"/>
<feGaussianBlur stdDeviation="2.5"/>
<feColorMatrix type="matrix" values="0 0 0 0 0.245833 0 0 0 0 0.77375 0 0 0 0 1 0 0 0 0.2 0"/>
<feBlend mode="normal" in2="BackgroundImageFix" result="effect1_dropShadow"/>
<feBlend mode="normal" in="SourceGraphic" in2="effect1_dropShadow" result="shape"/>
</filter>
<clipPath id="clip0">
<rect width="34" height="33" fill="white" transform="translate(147.5 31)"/>
</clipPath>
</defs>
</svg>
