<svg width="218" height="44" viewBox="0 0 218 44" fill="none" xmlns="http://www.w3.org/2000/svg">
<path d="M64.2284 32.9609C61.8554 32.9609 60.1152 32.3209 58.8496 30.8809C57.584 29.4409 56.9512 27.6809 56.9512 25.4409V18.5609C56.9512 16.1609 57.584 14.4009 58.8496 12.9609C60.1152 11.5209 61.8554 10.8809 64.2284 10.8809H71.3474C73.5622 10.8809 75.3024 11.5209 76.568 12.6409C77.8336 13.7609 78.4664 15.3609 78.6246 17.4409C78.6246 17.7609 78.6246 18.0809 78.6246 18.0809H73.0876C73.0876 18.0809 73.0876 18.0809 73.0876 17.4409C72.9294 16.9609 72.7712 16.6409 72.4548 16.4809C72.1384 16.3209 71.822 16.3209 71.1892 16.3209H64.0702C63.4374 16.3209 62.9628 16.4809 62.6464 16.6409C62.33 16.9609 62.1718 17.4409 62.1718 18.4009V25.6009C62.1718 26.4009 62.33 27.0409 62.6464 27.3609C62.9628 27.6809 63.4374 27.8409 64.0702 27.8409H71.1892C71.822 27.8409 72.2966 27.6809 72.613 27.3609C72.9294 27.0409 73.0876 26.5609 73.0876 25.6009V24.9609H68.1834V20.1609H78.4664V25.4409C78.4664 27.6809 77.8336 29.6009 76.568 30.8809C75.3024 32.1609 73.5622 32.9609 71.1892 32.9609H64.2284Z" fill="#59788C"/>
<path d="M103.937 19.841C103.937 23.681 102.513 26.241 99.8239 27.361L103.621 32.961H97.4509L94.2869 28.001H88.5917V32.961H83.0547V11.041H95.0779C100.931 11.041 103.937 13.761 103.937 19.361V19.841ZM88.5917 16.321V22.721H94.7615C96.0271 22.721 96.9763 22.561 97.6091 22.081C98.2419 21.761 98.5583 20.961 98.5583 19.681V19.201C98.5583 17.921 98.2419 17.121 97.6091 16.801C96.9763 16.481 96.0271 16.161 94.7615 16.161H88.5917V16.321Z" fill="#59788C"/>
<path d="M125.611 32.961L124.187 29.601H113.588L112.164 32.961H106.152L116.119 11.041H121.814L131.623 32.961H125.611ZM115.486 25.121H122.447L118.967 16.801L115.486 25.121Z" fill="#59788C"/>
<path d="M140.006 32.961H134.469V11.041H140.48L147.441 22.881L154.402 11.041H160.414V32.961H155.035V19.681L149.181 29.441H145.543L139.689 19.841V32.961H140.006Z" fill="#59788C"/>
<path d="M178.607 32.961H165.477V11.041H178.449C180.98 11.041 182.879 11.521 183.986 12.641C185.093 13.761 185.726 15.201 185.726 17.281V17.601C185.726 19.681 185.093 21.121 183.986 22.081C185.252 23.041 185.884 24.641 185.884 26.721V27.041C185.884 29.121 185.252 30.561 184.144 31.681C183.037 32.801 181.138 32.961 178.607 32.961ZM170.855 19.841H177.974C179.398 19.841 180.031 19.361 180.031 18.241V17.601C180.031 16.641 179.398 16.001 177.974 16.001H170.855V19.841ZM170.855 27.681H178.133C179.556 27.681 180.189 27.201 180.189 26.081V25.601C180.189 24.641 179.556 24.001 178.133 24.001H170.855V27.681Z" fill="#59788C"/>
<path d="M195.535 32.961H190.156V11.041H195.535V32.961Z" fill="#59788C"/>
<path d="M211.197 32.961H205.66V16.321H198.857V11.041H218V16.321H211.197V32.961Z" fill="#59788C"/>
<path d="M37.6517 11.04L18.8258 22.08L11.2322 17.6V25.12L18.8258 29.6L31.6401 21.92V29.44L18.8258 36.96L6.01161 29.44V14.4L18.8258 6.88L24.9956 10.56L30.8491 7.04L18.8258 0L0 11.04V32.96L18.8258 44L37.6517 32.96V11.04Z" fill="#59788C"/>
</svg>
