<svg width="40" height="40" viewBox="0 0 40 40" fill="none" xmlns="http://www.w3.org/2000/svg">
<path d="M21.0148 0.998414L38.0153 8.55399C38.9182 8.95524 39.5 9.85055 39.5 10.8385V29.1615C39.5 30.1495 38.9182 31.0448 38.0153 31.446L21.0148 39.0016C20.3684 39.2889 19.6305 39.2889 18.9841 39.0016L1.98463 31.446C1.08182 31.0448 0.5 30.1495 0.5 29.1615V10.8385C0.5 9.85052 1.08182 8.95523 1.98463 8.55397L18.9841 0.998434C19.6305 0.711133 20.3684 0.711125 21.0148 0.998414Z" fill="#171C1F" stroke="#54ADFF"/>
<path d="M20 31C26.0751 31 31 26.0751 31 20C31 13.9249 26.0751 9 20 9C13.9249 9 9 13.9249 9 20C9 26.0751 13.9249 31 20 31Z" fill="url(#paint0_linear_4543_60336)"/>
<path d="M14.5855 23.2999V18.1226L18.5117 21.0775V23.2999H19.5138V20.8689C19.5137 20.7786 19.4925 20.6895 19.4521 20.6087C19.4117 20.5279 19.3532 20.4576 19.281 20.4032L14.5195 16.8183C14.4324 16.7536 14.3291 16.7144 14.221 16.7049C14.1129 16.6954 14.0043 16.7161 13.9073 16.7646C13.8103 16.8131 13.7286 16.8876 13.6713 16.9797C13.6141 17.0719 13.5835 17.1781 13.583 17.2866V23.2999H14.5855ZM25.4439 23.2999V18.1226L21.5177 21.0775V23.2999H20.5156V20.8689C20.5158 20.7786 20.5369 20.6895 20.5773 20.6087C20.6177 20.5279 20.6763 20.4576 20.7484 20.4032L25.5099 16.8198C25.5969 16.7552 25.7001 16.7159 25.8081 16.7064C25.916 16.6968 26.0245 16.7174 26.1215 16.7657C26.2184 16.814 26.3001 16.8883 26.3575 16.9802C26.4149 17.0722 26.4456 17.1782 26.4464 17.2866V23.2999H25.4439Z" fill="white"/>
<defs>
<linearGradient id="paint0_linear_4543_60336" x1="20" y1="9" x2="20" y2="31" gradientUnits="userSpaceOnUse">
<stop stop-color="#4FA89B"/>
<stop offset="1" stop-color="#6ACEBB"/>
</linearGradient>
</defs>
</svg>
