<svg width="40" height="25" viewBox="0 0 40 25" fill="none" xmlns="http://www.w3.org/2000/svg">
<path d="M25.2596 2.66797H14.5078V22.32H25.2596V2.66797Z" fill="#59788C"/>
<path d="M14.9372 12.5014C14.9358 10.5719 15.3658 8.66724 16.1951 6.93145C16.9786 5.29136 18.0991 3.84248 19.4799 2.68213C17.7543 1.37403 15.714 0.559458 13.5712 0.325678C11.3263 0.0807624 9.0588 0.483098 7.0277 1.48698C4.99656 2.49088 3.28348 4.05603 2.08471 6.00407C0.885927 7.95215 0.25 10.2043 0.25 12.5032C0.25 14.802 0.885927 17.0542 2.08471 19.0023C3.28348 20.9503 4.99656 22.5155 7.0277 23.5194C9.0588 24.5233 11.3263 24.9256 13.5712 24.6807C15.714 24.4469 17.7543 23.6323 19.4799 22.3242C18.0986 21.1635 16.9778 19.7141 16.1943 18.0733C15.365 16.3368 14.9352 14.4315 14.9372 12.5014ZM14.9372 12.5014C14.9372 12.5013 14.9372 12.5012 14.9372 12.5012L15.1872 12.5014L14.9372 12.5016C14.9372 12.5015 14.9372 12.5015 14.9372 12.5014ZM19.8805 22.3292C19.8138 22.276 19.7477 22.222 19.6822 22.1675L19.6782 22.4874C19.7461 22.4354 19.8135 22.3827 19.8805 22.3292Z" fill="#59788C" stroke="#20262A" stroke-width="0.5"/>
<path d="M39.767 12.5005C39.767 14.8455 39.1182 17.1433 37.8948 19.131C36.6715 21.1188 34.9229 22.7163 32.8489 23.7411C30.775 24.7659 28.4595 25.1765 26.1669 24.926C23.8744 24.6756 21.6974 23.7741 19.8848 22.3248C21.3478 21.1554 22.5306 19.6633 23.3439 17.9612C24.1572 16.259 24.5798 14.3913 24.5798 12.4988C24.5798 10.6063 24.1572 8.73848 23.3439 7.03634C22.5306 5.33419 21.3478 3.84214 19.8848 2.67275C21.6976 1.2232 23.8749 0.321723 26.1678 0.071396C28.4606 -0.178931 30.7764 0.231992 32.8505 1.25718C34.9245 2.28238 36.6731 3.88046 37.8962 5.86871C39.1193 7.85697 39.7676 10.1552 39.767 12.5005Z" fill="#59788C"/>
</svg>
