<svg width="90" height="25" viewBox="0 0 90 25" fill="none" xmlns="http://www.w3.org/2000/svg">
<path fill-rule="evenodd" clip-rule="evenodd" d="M64.3301 11.2949V25.0006H72.0189V16.8787H80.7328C84.4003 16.8517 87.5157 14.5317 88.6904 11.2949H64.3301Z" fill="#59788C"/>
<path fill-rule="evenodd" clip-rule="evenodd" d="M63.3047 0C63.7525 5.60212 69.1043 10.0254 75.6405 10.0254C75.6618 10.0254 89.0096 10.0254 89.0096 10.0254C89.1083 9.51166 89.1599 8.98137 89.1599 8.43914C89.1599 3.79848 85.3792 0.0343307 80.7022 0.000233496L63.3047 0Z" fill="#59788C"/>
<path fill-rule="evenodd" clip-rule="evenodd" d="M51.9244 9.89213L51.9304 9.87935L51.9312 9.87954C52.01 9.73947 52.1611 9.64473 52.3345 9.64473C52.585 9.64473 52.7888 9.84243 52.7957 10.0889L52.7958 10.0889V24.8733H60.4846V0H52.7958C51.8208 0.0321387 50.7192 0.740688 50.3097 1.61045L44.1909 14.6051C44.1758 14.6582 44.1521 14.7078 44.1216 14.7523L44.1195 14.7566L44.1187 14.7564C44.0262 14.8883 43.872 14.9747 43.6975 14.9747C43.4144 14.9747 43.1849 14.7474 43.1849 14.4671V0H35.4961V24.8733H43.1849V24.8704C44.1492 24.8205 45.2249 24.12 45.6286 23.2628L51.9086 9.92564C51.9134 9.91423 51.9187 9.90305 51.9244 9.89213Z" fill="#59788C"/>
<path fill-rule="evenodd" clip-rule="evenodd" d="M23.2141 10.3173L18.7204 24.8733H13.1892L8.69274 10.3085C8.64939 10.0752 8.443 9.89854 8.19495 9.89854C7.91539 9.89854 7.68877 10.123 7.68877 10.3998C7.68877 10.4019 7.68878 10.404 7.68881 10.4061L7.68877 24.8733H0V0H6.59953H8.565C9.97976 0 11.4623 1.08729 11.8757 2.42645L15.6177 14.5471C15.8039 15.1502 16.1059 15.1495 16.2919 14.5471L20.0338 2.42645C20.4475 1.08636 21.9296 0 23.3446 0L25.3095 0H31.9084V24.8733H24.2196V10.4062C24.2196 10.404 24.2196 10.4019 24.2196 10.3998C24.2196 10.123 23.993 9.89854 23.7135 9.89854C23.4623 9.89854 23.2538 10.0797 23.2141 10.3173Z" fill="#59788C"/>
</svg>
