<svg width="91" height="31" viewBox="0 0 91 31" fill="none" xmlns="http://www.w3.org/2000/svg">
<path d="M36.2363 0.0419922H37.3504C37.9454 0.0419922 38.357 0.332807 38.357 0.851802C38.3637 1.00068 38.3244 1.148 38.2443 1.27369C38.1642 1.39939 38.0474 1.49735 37.9096 1.55423C38.0796 1.59129 38.2317 1.68585 38.3401 1.82196C38.4485 1.95808 38.5066 2.12741 38.5047 2.3014C38.5047 2.86961 38.0573 3.17386 37.3906 3.17386H36.2497L36.2363 0.0419922ZM37.2833 1.38422C37.6233 1.38422 37.8425 1.23658 37.8425 0.936811C37.8425 0.637047 37.6501 0.489402 37.3146 0.489402H36.7419V1.38422H37.2833ZM37.3951 2.72645C37.753 2.72645 37.9767 2.56986 37.9767 2.27904C37.9767 1.98822 37.7665 1.83163 37.3683 1.83163H36.7419V2.72645H37.3951Z" fill="white"/>
<path d="M38.9023 1.62993V1.58966C38.9023 0.645628 39.4929 0.0013567 40.2983 0.0013567C40.4737 -0.00666099 40.649 0.0209208 40.8136 0.0824333C40.9781 0.143946 41.1285 0.238118 41.2557 0.359286L41.0096 0.779851C40.8221 0.594293 40.5709 0.48711 40.3072 0.480088C39.8106 0.480088 39.4437 0.927498 39.4437 1.58519V1.62546C39.4437 2.30552 39.8061 2.73503 40.3117 2.73503C40.4464 2.73277 40.5794 2.70395 40.7031 2.65021C40.8267 2.59647 40.9384 2.51887 41.032 2.42185L41.2781 2.80214C41.1487 2.938 40.9922 3.04523 40.8189 3.1169C40.6455 3.18857 40.459 3.22309 40.2714 3.21824C39.4929 3.21824 38.9023 2.57843 38.9023 1.62993Z" fill="white"/>
<path d="M41.7832 0.0419922H43.7518V0.511767H42.2977V1.36185H43.5863V1.80926H42.2977V2.6817H43.7786V3.15148H41.7921L41.7832 0.0419922Z" fill="white"/>
<path d="M44.8387 3.17386H44.3242V0.0419922H46.1139V0.516245H44.8298L44.8387 3.17386Z" fill="white"/>
<path d="M46.5265 3.17386L46.4728 3.78233H46.0254V2.69961H46.2894C46.5623 2.10455 46.6473 1.35738 46.6473 0.0419922H48.5488V2.69961H48.8843L48.8172 3.78233H48.3698V3.17386H46.5265ZM47.1439 0.516245C47.1933 1.25792 47.0867 2.00172 46.8307 2.69961H48.0343V0.516245H47.1439Z" fill="white"/>
<path d="M50.2215 0.0234375H50.7226L51.868 3.1553H51.3311L51.0671 2.41708H49.8591L49.5952 3.1553H49.0762L50.2215 0.0234375ZM50.9061 1.97414L50.4587 0.716923L50.0113 1.97414H50.9061Z" fill="white"/>
<path d="M53.4746 0.0419922H54.5887C55.1837 0.0419922 55.5953 0.332807 55.5953 0.851802C55.602 1.00068 55.5626 1.148 55.4826 1.27369C55.4025 1.39939 55.2857 1.49735 55.1479 1.55423C55.3179 1.59129 55.47 1.68585 55.5784 1.82196C55.6868 1.95808 55.7449 2.12741 55.743 2.3014C55.743 2.86961 55.2956 3.17386 54.6289 3.17386H53.488L53.4746 0.0419922ZM54.5215 1.38422C54.8616 1.38422 55.0808 1.23658 55.0808 0.936811C55.0808 0.637047 54.8884 0.489402 54.5529 0.489402H53.9802V1.38422H54.5215ZM54.6334 2.72645C54.9913 2.72645 55.215 2.56986 55.215 2.27904C55.215 1.98822 55.0047 1.83163 54.6066 1.83163H53.9802V2.72645H54.6334Z" fill="white"/>
<path d="M56.2617 0.0419922H58.4988V3.17386H57.9842V0.516245H56.7762V3.17386H56.2617V0.0419922Z" fill="white"/>
<path d="M59.1875 0.0419922H61.1561V0.511767H59.702V1.36185H60.9906V1.80926H59.702V2.6817H61.174V3.15148H59.1875V0.0419922Z" fill="white"/>
<path d="M61.7285 0.0410532H62.7262C62.8713 0.0240121 63.0184 0.038749 63.1572 0.0842471C63.296 0.129745 63.4233 0.20491 63.5301 0.304525C63.637 0.40414 63.7209 0.525817 63.776 0.661109C63.8311 0.7964 63.8561 0.942066 63.8492 1.08799C63.8533 1.23728 63.8254 1.38572 63.7673 1.52332C63.7093 1.66093 63.6224 1.78452 63.5127 1.8858C63.4029 1.98708 63.2728 2.06371 63.1309 2.11054C62.9891 2.15737 62.8389 2.17331 62.6904 2.1573H62.243V3.17292H61.7285V0.0410532ZM62.7039 1.68752C62.7849 1.69666 62.867 1.68812 62.9444 1.66248C63.0218 1.63683 63.0927 1.59469 63.1523 1.53897C63.2118 1.48325 63.2586 1.41528 63.2893 1.33973C63.32 1.26419 63.334 1.18288 63.3302 1.10141C63.337 1.0194 63.3253 0.936919 63.296 0.860038C63.2666 0.783158 63.2204 0.713833 63.1607 0.65717C63.1011 0.600506 63.0295 0.557945 62.9512 0.532619C62.8729 0.507293 62.7899 0.499846 62.7083 0.510828H62.2609V1.68752H62.7039Z" fill="white"/>
<path d="M64.332 0.0419922H66.3006V0.511767H64.8465V1.36185H66.1485V1.80926H64.86V2.6817H66.332V3.15148H64.3455L64.332 0.0419922Z" fill="white"/>
<path d="M67.0441 3.17386L66.9904 3.78233H66.543V2.69961H66.8069C67.0799 2.10455 67.1649 1.35738 67.1649 0.0419922H69.0664V2.69961H69.4019L69.3348 3.78233H68.8874V3.17386H67.0441ZM67.6615 0.516245C67.7109 1.25792 67.6042 2.00172 67.3483 2.69961H68.5518V0.516245H67.6615Z" fill="white"/>
<path d="M69.8398 0.0419922H70.3499V1.67951C70.3499 1.86742 70.3499 2.05981 70.3499 2.2522L71.6653 0.0419922H72.1485V3.17386H71.6429V1.53187C71.6429 1.34395 71.6429 1.15157 71.6429 0.963654L70.323 3.17386H69.8398V0.0419922Z" fill="white"/>
<path d="M73.2445 2.22056H72.9716L72.8105 0.216166V0.0595703H73.4101V0.216166L73.2445 2.22056ZM72.824 3.19144V2.60086H73.3922V3.19144H72.824Z" fill="white"/>
<path d="M36.4551 19.3076H37.0188L38.8085 21.9921L40.5981 19.3076H41.1618V24.2291H40.607V20.2382L38.8174 22.8779H38.7906L37.0009 20.2427V24.2291H36.4596L36.4551 19.3076Z" fill="white"/>
<path d="M42.239 21.7677C42.246 21.2716 42.3997 20.7887 42.6806 20.3797C42.9616 19.9708 43.3572 19.6541 43.8178 19.4695C44.2783 19.2849 44.7832 19.2408 45.2688 19.3425C45.7544 19.4443 46.1991 19.6874 46.5468 20.0413C46.8945 20.3953 47.1297 20.8441 47.2229 21.3315C47.316 21.8188 47.2629 22.3228 47.0702 22.78C46.8775 23.2372 46.5539 23.6272 46.14 23.9009C45.7262 24.1745 45.2406 24.3196 44.7445 24.3179C44.4111 24.3198 44.0808 24.2548 43.773 24.1267C43.4652 23.9987 43.1863 23.8102 42.9527 23.5724C42.719 23.3346 42.5355 23.0524 42.4129 22.7424C42.2903 22.4324 42.2312 22.101 42.239 21.7677V21.7677ZM46.6862 21.7677C46.6964 21.5055 46.6538 21.244 46.5611 20.9985C46.4683 20.7531 46.3272 20.5289 46.1461 20.339C45.965 20.1491 45.7476 19.9976 45.5068 19.8933C45.2661 19.789 45.0068 19.7342 44.7445 19.732C44.3371 19.7123 43.9333 19.8152 43.585 20.0272C43.2367 20.2393 42.9599 20.5509 42.7904 20.9218C42.6209 21.2927 42.5665 21.7059 42.6341 22.1081C42.7017 22.5102 42.8883 22.8829 43.1697 23.1779C43.4512 23.473 43.8146 23.677 44.2131 23.7635C44.6117 23.85 45.0269 23.8152 45.4054 23.6634C45.7839 23.5116 46.1082 23.2499 46.3365 22.912C46.5648 22.5741 46.6866 22.1755 46.6862 21.7677V21.7677Z" fill="white"/>
<path d="M48.3326 19.3076H48.8516L51.9566 23.2538V19.3076H52.498V24.2291H52.0506L48.8695 20.2024V24.2291H48.3281L48.3326 19.3076Z" fill="white"/>
<path d="M53.7832 19.3076H57.3625V19.8132H54.338V21.4954H57.0225V22.001H54.338V23.7235H57.3804V24.2336H53.8011L53.7832 19.3076Z" fill="white"/>
<path d="M59.9339 22.2829L57.8848 19.3076H58.5425L60.2023 21.7684L61.8801 19.3076H62.5244L60.4797 22.2739V24.2336H59.916L59.9339 22.2829Z" fill="white"/>
<path d="M65.3307 19.3076H65.8899L67.6795 21.9921L69.4692 19.3076H70.0329V24.2291H69.4737V20.2382L67.684 22.8779H67.6572L65.8675 20.2427V24.2291H65.3262L65.3307 19.3076Z" fill="white"/>
<path d="M73.1522 19.2715H73.6757L75.9128 24.2333H75.3222L74.745 22.9313H72.0606L71.4745 24.2333H70.9062L73.1522 19.2715ZM74.5258 22.4302L73.4073 19.9158L72.2798 22.4302H74.5258Z" fill="white"/>
<path d="M76.7838 19.3076H77.3341V22.2471L80.1617 19.3076H80.882L78.7747 21.4597L80.976 24.2336H80.278L78.3855 21.8444L77.3341 22.9093V24.2515H76.7793L76.7838 19.3076Z" fill="white"/>
<path d="M81.7363 19.3076H85.3156V19.8132H82.309V21.4954H84.9935V22.001H82.309V23.7235H85.3514V24.2336H81.7721L81.7363 19.3076Z" fill="white"/>
<path d="M86.3463 19.3069H88.4625C88.7169 19.2923 88.9716 19.3283 89.212 19.4128C89.4523 19.4973 89.6736 19.6285 89.8629 19.799C89.9895 19.9289 90.0885 20.083 90.1538 20.2522C90.2192 20.4214 90.2496 20.6021 90.2432 20.7833C90.2419 21.1478 90.1028 21.4984 89.8539 21.7648C89.605 22.0311 89.2646 22.1935 88.901 22.2195L90.4132 24.2328H89.7332L88.3059 22.3179H86.8966V24.2328H86.3418L86.3463 19.3069ZM88.4133 21.8168C89.1515 21.8168 89.6795 21.4365 89.6795 20.7878C89.6795 20.139 89.2321 19.8169 88.4223 19.8169H86.9011V21.8168H88.4133Z" fill="white"/>
<path d="M36.236 28.3626C36.2264 28.0317 36.2833 27.7023 36.4034 27.3938C36.5234 27.0853 36.7041 26.8041 36.9348 26.5667C37.1656 26.3293 37.4416 26.1406 37.7465 26.0118C38.0514 25.883 38.3791 25.8167 38.7102 25.8169C39.3833 25.7878 40.0413 26.0221 40.5445 26.4701L40.1866 26.8951C39.7814 26.5161 39.2424 26.3133 38.6878 26.3314C38.4302 26.3382 38.1766 26.3966 37.942 26.503C37.7073 26.6095 37.4964 26.7619 37.3216 26.9512C37.1469 27.1406 37.0118 27.363 36.9245 27.6055C36.8372 27.8479 36.7993 28.1053 36.8131 28.3626C36.793 28.6285 36.8289 28.8957 36.9185 29.1468C37.0081 29.3979 37.1494 29.6275 37.3332 29.8206C37.517 30.0137 37.7394 30.1661 37.9858 30.268C38.2322 30.3698 38.4973 30.4188 38.7639 30.4118C39.2794 30.4093 39.7797 30.2362 40.1866 29.9196V28.6937H38.6878V28.1971H40.7235V30.1567C40.1777 30.643 39.4725 30.9121 38.7415 30.9129C38.4053 30.9252 38.0703 30.8673 37.7577 30.7429C37.4452 30.6185 37.162 30.4303 36.9263 30.1903C36.6905 29.9504 36.5074 29.6639 36.3885 29.3492C36.2697 29.0345 36.2177 28.6985 36.236 28.3626Z" fill="white"/>
<path d="M41.8633 25.9022H43.984C44.4975 25.8748 45.0009 26.0517 45.3844 26.3943C45.5097 26.5251 45.6079 26.6794 45.6732 26.8484C45.7385 27.0173 45.7696 27.1976 45.7647 27.3786C45.7644 27.7435 45.6257 28.0946 45.3766 28.3612C45.1275 28.6278 44.7865 28.7899 44.4225 28.8148L45.9347 30.8282H45.2546L43.8229 28.9132H42.436V30.8282H41.8767L41.8633 25.9022ZM43.9348 28.4122C44.673 28.4122 45.201 28.0319 45.201 27.3876C45.201 26.7433 44.7535 26.4167 43.9437 26.4167H42.436V28.4122H43.9348Z" fill="white"/>
<path d="M46.6295 28.3624C46.6365 27.8663 46.7902 27.3834 47.0712 26.9744C47.3521 26.5655 47.7478 26.2488 48.2083 26.0642C48.6689 25.8797 49.1737 25.8355 49.6593 25.9372C50.145 26.039 50.5896 26.2821 50.9373 26.6361C51.285 26.99 51.5203 27.4389 51.6134 27.9262C51.7066 28.4135 51.6534 28.9175 51.4607 29.3747C51.2681 29.832 50.9444 30.2219 50.5306 30.4956C50.1167 30.7693 49.6311 30.9144 49.135 30.9127C48.8018 30.9139 48.4717 30.8485 48.1643 30.7202C47.8568 30.5919 47.5781 30.4034 47.3446 30.1658C47.1111 29.9281 46.9275 29.6461 46.8047 29.3364C46.6819 29.0267 46.6223 28.6955 46.6295 28.3624V28.3624ZM51.0767 28.3624C51.0557 27.9842 50.9243 27.6204 50.6987 27.316C50.4731 27.0117 50.1631 26.7802 49.8073 26.6502C49.4515 26.5202 49.0654 26.4973 48.6967 26.5845C48.328 26.6717 47.993 26.865 47.7331 27.1406C47.4731 27.4162 47.2997 27.762 47.2343 28.1351C47.1688 28.5083 47.2142 28.8924 47.3648 29.24C47.5155 29.5876 47.7647 29.8835 48.0817 30.0909C48.3987 30.2983 48.7696 30.4083 49.1484 30.4071C49.4106 30.4038 49.6694 30.3477 49.9095 30.2423C50.1496 30.1369 50.3661 29.9843 50.546 29.7935C50.7259 29.6028 50.8656 29.3778 50.9568 29.1319C51.048 28.8861 51.0888 28.6244 51.0767 28.3624V28.3624Z" fill="white"/>
<path d="M52.6426 28.7648V25.9014H53.2018V28.729C53.2018 29.7938 53.7656 30.3889 54.7051 30.3889C55.6447 30.3889 56.1905 29.843 56.1905 28.7648V25.9014H56.7543V28.7201C56.7543 30.1562 55.931 30.9034 54.6962 30.9034C53.4613 30.9034 52.6426 30.1562 52.6426 28.7648Z" fill="white"/>
<path d="M57.957 25.9014H59.8004C60.9099 25.9014 61.6437 26.492 61.6437 27.4763C61.6437 28.5411 60.7489 29.0869 59.7064 29.0869H58.5118V30.8273H57.957V25.9014ZM59.7467 28.5858C60.5654 28.5858 61.0889 28.1384 61.0889 27.4897C61.0889 26.8409 60.561 26.4204 59.7467 26.4204H58.5029V28.5858H59.7467Z" fill="white"/>
<path d="M36.2402 4.90527H38.4773L43.278 11.6522L48.0697 4.90527H50.3068V17.6162H47.4299V9.47332L43.2825 15.0928H43.2064L39.0947 9.52701V17.6162H36.2537L36.2402 4.90527Z" fill="white"/>
<path d="M51.4258 4.90527H53.6628L58.4635 11.6522L63.2508 4.90527H65.4879V17.6162H62.611V9.47332L58.4591 15.0928H58.3875L54.2713 9.52701V17.6162H51.4347L51.4258 4.90527Z" fill="white"/>
<path d="M66.4004 11.2043C66.4004 7.46395 69.313 4.68555 73.2994 4.68555C75.6662 4.68555 76.9056 5.13296 78.2791 6.27832L76.8877 7.98295C75.8296 7.2109 74.5351 6.83267 73.2279 6.91364C71.1206 6.91364 69.3041 8.92698 69.3041 11.2043C69.2878 11.7552 69.3828 12.3038 69.5835 12.8171C69.7841 13.3304 70.0862 13.798 70.4718 14.1919C70.8573 14.5858 71.3183 14.8979 71.8272 15.1095C72.3361 15.3211 72.8825 15.4278 73.4337 15.4234C74.4851 15.4234 75.4246 15.3249 76.1584 14.797V12.5599H73.2457V10.6316H78.6639V15.7679C77.2096 17.0904 75.3051 17.8074 73.3397 17.7723C69.2191 17.7723 66.4004 15.1325 66.4004 11.2043Z" fill="white"/>
<path d="M80.0195 4.90527H85.3884C88.5203 4.90527 90.4218 6.51147 90.4218 9.24067C90.4218 12.2831 88.055 13.6655 85.1066 13.6655H82.9053V17.6162H80.0195V4.90527ZM85.5227 11.3882C85.8229 11.4024 86.1229 11.3547 86.4039 11.2481C86.6849 11.1414 86.941 10.9781 87.1563 10.7683C87.3715 10.5585 87.5413 10.3067 87.6551 10.0285C87.7689 9.75033 87.8243 9.45169 87.8179 9.15118C87.8179 7.8537 86.9231 6.94546 85.4645 6.94546H82.9143V11.3793L85.5227 11.3882Z" fill="white"/>
<path d="M34.1427 0.0908203H33.6953V30.9621H34.1427V0.0908203Z" fill="white"/>
<path d="M30.2227 11.6516C22.3371 20.0132 11.8478 25.4519 0.470025 27.0782L0.398438 26.9753C0.922769 26.6613 1.41966 26.3036 1.88383 25.906C2.49511 25.4831 3.0739 25.015 3.61531 24.5056C7.47033 21.9031 10.3918 18.1358 11.9527 13.7542C13.5135 9.3727 13.6319 4.60678 12.2906 0.153142C12.8938 0.0865412 13.5002 0.0536795 14.1071 0.054711C17.6696 0.055535 21.1419 1.17545 24.0336 3.25631C26.9253 5.33716 29.0902 8.27381 30.2227 11.6516V11.6516Z" fill="#C6AC79"/>
<path d="M23.7705 27.0208C23.7705 27.2937 23.7705 27.5667 23.7929 27.8396C18.3734 30.9587 11.9413 31.8109 5.89648 30.2108C6.2902 30.2332 6.68394 30.2422 7.08213 30.2422C13.3115 30.2521 19.3365 28.0209 24.0568 23.9561C23.8682 24.9668 23.7723 25.9926 23.7705 27.0208V27.0208Z" fill="#C6AC79"/>
<path d="M4.02668 23.4595C4.85884 22.1718 5.41625 20.7262 5.66401 19.2132C5.91178 17.7001 5.84457 16.1523 5.46659 14.6664C5.08862 13.1805 4.40802 11.7887 3.46738 10.5779C2.52675 9.36723 1.34632 8.36369 0 7.63015C0.993579 6.13275 2.21828 4.80235 3.6285 3.68848C6.11867 6.2717 7.57684 9.67727 7.72768 13.2621C7.87853 16.847 6.71161 20.363 4.44725 23.1463C4.30408 23.2492 4.16538 23.3566 4.02668 23.4595Z" fill="#E5DBBA"/>
<path d="M12.6127 6.4436C12.6154 9.38765 12.0022 12.2997 10.8125 14.9927C9.6228 17.6856 7.88295 20.1 5.70471 22.0806C7.65634 19.2462 8.57349 15.8267 8.30221 12.396C8.03092 8.96543 6.58771 5.73257 4.21484 3.24015C6.42325 1.64555 8.98568 0.610748 11.6821 0.224609C12.3007 2.23959 12.6144 4.3358 12.6127 6.4436V6.4436Z" fill="#CDB584"/>
<path d="M30.687 13.348C27.5597 15.6442 25.3142 18.943 24.3248 22.6944C19.6072 27.1047 13.3876 29.5538 6.92956 29.5443C5.6159 29.5444 4.30415 29.4442 3.00577 29.2445V29.2445C2.63442 29.0924 2.26307 28.9313 1.90066 28.7568C1.85662 28.7158 1.8148 28.6725 1.77539 28.6271C12.8643 26.4939 22.9338 20.7464 30.4096 12.2832C30.5214 12.6322 30.6064 12.9856 30.687 13.348Z" fill="#424D58"/>
</svg>
