<svg width="180" height="62" viewBox="0 0 180 62" fill="none" xmlns="http://www.w3.org/2000/svg">
<path d="M72.1367 0.0839844H74.3544C75.5389 0.0839844 76.3583 0.662896 76.3583 1.69603C76.3716 1.9924 76.2932 2.28566 76.1339 2.53587C75.9745 2.78609 75.7419 2.98109 75.4677 3.09433C75.8061 3.16809 76.1088 3.35633 76.3245 3.62729C76.5403 3.89824 76.6561 4.23532 76.6522 4.58169C76.6522 5.7128 75.7616 6.31844 74.4345 6.31844H72.1634L72.1367 0.0839844ZM74.2208 2.75589C74.8977 2.75589 75.3341 2.46198 75.3341 1.86526C75.3341 1.26853 74.9511 0.974621 74.2831 0.974621H73.1431V2.75589H74.2208ZM74.4435 5.4278C75.156 5.4278 75.6013 5.11608 75.6013 4.53717C75.6013 3.95825 75.1827 3.64653 74.39 3.64653H73.1431V5.4278H74.4435Z" fill="white"/>
<path d="M77.4395 3.24462V3.16446C77.4395 1.28522 78.6151 0.00270071 80.2182 0.00270071C80.5676 -0.0132597 80.9165 0.041646 81.2441 0.164096C81.5716 0.286546 81.871 0.47401 82.1242 0.715212L81.6343 1.55241C81.261 1.18303 80.761 0.969667 80.236 0.955688C79.2474 0.955688 78.5171 1.84633 78.5171 3.15556V3.23571C78.5171 4.58948 79.2385 5.44449 80.245 5.44449C80.5132 5.44 80.778 5.38263 81.024 5.27565C81.2701 5.16866 81.4926 5.01419 81.6789 4.82106L82.1687 5.57808C81.9111 5.84853 81.5997 6.06199 81.2546 6.20466C80.9094 6.34733 80.5382 6.41605 80.1648 6.40639C78.6151 6.40639 77.4395 5.13276 77.4395 3.24462Z" fill="white"/>
<path d="M83.1758 0.0839844H87.0946V1.01914H84.2V2.71136H86.765V3.602H84.2V5.33873H87.148V6.27389H83.1936L83.1758 0.0839844Z" fill="white"/>
<path d="M89.2566 6.31844H88.2324V0.0839844H91.795V1.02806H89.2388L89.2566 6.31844Z" fill="white"/>
<path d="M92.6186 6.31844L92.5117 7.52969H91.6211V5.37437H92.1466C92.6899 4.18982 92.8591 2.70246 92.8591 0.0839844H96.6443V5.37437H97.3123L97.1787 7.52969H96.288V6.31844H92.6186ZM93.8477 1.02806C93.9461 2.50448 93.7337 3.98513 93.2243 5.37437H95.6201V1.02806H93.8477Z" fill="white"/>
<path d="M99.9734 0.0458984H100.971L103.251 6.28035H102.182L101.657 4.81081H99.252L98.7265 6.28035H97.6934L99.9734 0.0458984ZM101.336 3.92907L100.445 1.42639L99.5548 3.92907H101.336Z" fill="white"/>
<path d="M106.447 0.0839844H108.665C109.849 0.0839844 110.669 0.662896 110.669 1.69603C110.682 1.9924 110.604 2.28566 110.444 2.53587C110.285 2.78609 110.052 2.98109 109.778 3.09433C110.117 3.16809 110.419 3.35633 110.635 3.62729C110.851 3.89824 110.967 4.23532 110.963 4.58169C110.963 5.7128 110.072 6.31844 108.745 6.31844H106.474L106.447 0.0839844ZM108.531 2.75589C109.208 2.75589 109.645 2.46198 109.645 1.86526C109.645 1.26853 109.262 0.974621 108.594 0.974621H107.454V2.75589H108.531ZM108.754 5.4278C109.467 5.4278 109.912 5.11608 109.912 4.53717C109.912 3.95825 109.493 3.64653 108.701 3.64653H107.454V5.4278H108.754Z" fill="white"/>
<path d="M112 0.0839844H116.453V6.31844H115.429V1.02806H113.024V6.31844H112V0.0839844Z" fill="white"/>
<path d="M117.824 0.0839844H121.743V1.01914H118.848V2.71136H121.413V3.602H118.848V5.33873H121.779V6.27389H117.824V0.0839844Z" fill="white"/>
<path d="M122.883 0.082042H124.869C125.158 0.0481193 125.45 0.0774553 125.727 0.168026C126.003 0.258597 126.256 0.408224 126.469 0.606522C126.682 0.804821 126.849 1.04704 126.959 1.31636C127.068 1.58567 127.118 1.87564 127.104 2.16613C127.112 2.46332 127.057 2.7588 126.941 3.03272C126.826 3.30665 126.653 3.55267 126.434 3.75429C126.216 3.9559 125.957 4.10845 125.675 4.20167C125.392 4.29489 125.093 4.32662 124.798 4.29475H123.907V6.3165H122.883V0.082042ZM124.824 3.35958C124.986 3.37779 125.149 3.36078 125.303 3.30973C125.457 3.25868 125.598 3.17479 125.717 3.06387C125.836 2.95295 125.929 2.81764 125.99 2.66726C126.051 2.51688 126.079 2.35502 126.071 2.19285C126.085 2.02959 126.061 1.8654 126.003 1.71236C125.945 1.55931 125.853 1.42131 125.734 1.30852C125.615 1.19572 125.473 1.11099 125.317 1.06058C125.161 1.01016 124.996 0.995338 124.833 1.0172H123.943V3.35958H124.824Z" fill="white"/>
<path d="M128.062 0.0839844H131.981V1.01914H129.087V2.71136H131.678V3.602H129.113V5.33873H132.044V6.27389H128.089L128.062 0.0839844Z" fill="white"/>
<path d="M133.458 6.31844L133.352 7.52969H132.461V5.37437H132.986C133.53 4.18982 133.699 2.70246 133.699 0.0839844H137.484V5.37437H138.152L138.018 7.52969H137.128V6.31844H133.458ZM134.688 1.02806C134.786 2.50448 134.574 3.98513 134.064 5.37437H136.46V1.02806H134.688Z" fill="white"/>
<path d="M139.025 0.0839844H140.041V3.3437C140.041 3.71777 140.041 4.10076 140.041 4.48373L142.659 0.0839844H143.621V6.31844H142.615V3.0498C142.615 2.67574 142.615 2.29276 142.615 1.91869L139.987 6.31844H139.025V0.0839844Z" fill="white"/>
<path d="M145.801 4.42189H145.258L144.938 0.431845V0.120117H146.131V0.431845L145.801 4.42189ZM144.964 6.35458V5.17894H146.095V6.35458H144.964Z" fill="white"/>
<path d="M72.5684 38.4355H73.6906L77.2531 43.7794L80.8157 38.4355H81.9378V48.2325H80.8335V40.2881L77.2709 45.5428H77.2175L73.6549 40.297V48.2325H72.5773L72.5684 38.4355Z" fill="white"/>
<path d="M84.0834 43.3316C84.0974 42.344 84.4034 41.3826 84.9626 40.5686C85.5219 39.7545 86.3095 39.1241 87.2263 38.7567C88.1431 38.3893 89.1481 38.3013 90.1148 38.5039C91.0815 38.7064 91.9666 39.1904 92.6588 39.895C93.351 40.5995 93.8192 41.4931 94.0046 42.4632C94.1901 43.4333 94.0843 44.4366 93.7007 45.3467C93.3172 46.2569 92.6729 47.0332 91.8491 47.578C91.0252 48.1227 90.0586 48.4116 89.071 48.4082C88.4074 48.4119 87.7498 48.2825 87.1371 48.0276C86.5245 47.7727 85.9692 47.3974 85.5041 46.9241C85.0391 46.4507 84.6737 45.8889 84.4297 45.2718C84.1856 44.6547 84.0679 43.995 84.0834 43.3316V43.3316ZM92.9363 43.3316C92.9566 42.8097 92.8719 42.289 92.6872 41.8004C92.5025 41.3119 92.2216 40.8654 91.8611 40.4875C91.5006 40.1096 91.0679 39.8079 90.5886 39.6003C90.1093 39.3927 89.5932 39.2835 89.071 39.2792C88.2601 39.24 87.4561 39.4447 86.7628 39.8669C86.0694 40.2891 85.5185 40.9094 85.1811 41.6477C84.8437 42.3861 84.7353 43.2086 84.8699 44.0091C85.0045 44.8096 85.3759 45.5515 85.9362 46.1389C86.4965 46.7263 87.22 47.1323 88.0133 47.3045C88.8066 47.4768 89.6333 47.4074 90.3867 47.1052C91.1402 46.803 91.7858 46.282 92.2402 45.6094C92.6947 44.9367 92.9371 44.1433 92.9363 43.3316V43.3316Z" fill="white"/>
<path d="M96.2159 38.4355H97.2491L103.43 46.291V38.4355H104.508V48.2325H103.617L97.2847 40.2168V48.2325H96.207L96.2159 38.4355Z" fill="white"/>
<path d="M107.066 38.4355H114.191V39.442H108.171V42.7907H113.515V43.7972H108.171V47.2261H114.227V48.2415H107.102L107.066 38.4355Z" fill="white"/>
<path d="M119.306 44.3583L115.227 38.4355H116.536L119.84 43.334L123.18 38.4355H124.462L120.392 44.3405V48.2415H119.27L119.306 44.3583Z" fill="white"/>
<path d="M130.05 38.4355H131.163L134.726 43.7794L138.288 38.4355H139.41V48.2325H138.297V40.2881L134.735 45.5428H134.681L131.119 40.297V48.2325H130.041L130.05 38.4355Z" fill="white"/>
<path d="M145.621 38.3623H146.663L151.117 48.2395H149.941L148.792 45.6477H143.448L142.281 48.2395H141.15L145.621 38.3623ZM148.356 44.6502L146.129 39.6448L143.885 44.6502H148.356Z" fill="white"/>
<path d="M152.849 38.4355H153.944V44.287L159.573 38.4355H161.007L156.812 42.7195L161.194 48.2415H159.805L156.037 43.4854L153.944 45.6052V48.2771H152.84L152.849 38.4355Z" fill="white"/>
<path d="M162.707 38.4355H169.832V39.442H163.847V42.7907H169.191V43.7972H163.847V47.2261H169.903V48.2415H162.778L162.707 38.4355Z" fill="white"/>
<path d="M171.886 38.434H176.099C176.605 38.405 177.112 38.4767 177.59 38.6449C178.069 38.813 178.509 39.0743 178.886 39.4137C179.138 39.6722 179.335 39.9791 179.465 40.3159C179.596 40.6527 179.656 41.0123 179.643 41.3731C179.641 42.0988 179.364 42.7967 178.868 43.3268C178.373 43.857 177.695 44.1804 176.971 44.232L179.982 48.2399H178.628L175.787 44.428H172.981V48.2399H171.877L171.886 38.434ZM176.001 43.4305C177.47 43.4305 178.521 42.6734 178.521 41.382C178.521 40.0906 177.63 39.4493 176.018 39.4493H172.99V43.4305H176.001Z" fill="white"/>
<path d="M72.136 56.4602C72.1169 55.8016 72.2302 55.1457 72.4692 54.5316C72.7082 53.9175 73.0679 53.3577 73.5272 52.8851C73.9865 52.4126 74.5359 52.037 75.1429 51.7806C75.7499 51.5242 76.4023 51.3922 77.0612 51.3925C78.4012 51.3346 79.711 51.801 80.7128 52.6929L80.0003 53.5389C79.1937 52.7843 78.1206 52.3807 77.0167 52.4168C76.5039 52.4303 75.9991 52.5465 75.532 52.7584C75.0649 52.9703 74.645 53.2737 74.2971 53.6506C73.9492 54.0276 73.6804 54.4704 73.5066 54.953C73.3327 55.4355 73.2574 55.948 73.2849 56.4602C73.2449 56.9895 73.3163 57.5213 73.4946 58.0212C73.673 58.5212 73.9542 58.9781 74.3202 59.3626C74.6862 59.747 75.1287 60.0504 75.6193 60.2531C76.1099 60.4558 76.6375 60.5533 77.1681 60.5394C78.1944 60.5344 79.1903 60.1899 80.0003 59.5597V57.1193H77.0167V56.1307H81.0691V60.0317C79.9827 60.9997 78.5787 61.5353 77.1236 61.5369C76.4544 61.5614 75.7874 61.4461 75.1653 61.1985C74.5431 60.9508 73.9794 60.5762 73.5101 60.0986C73.0408 59.6209 72.6763 59.0506 72.4397 58.4242C72.2031 57.7978 72.0997 57.1289 72.136 56.4602Z" fill="white"/>
<path d="M83.3359 51.5612H87.5575C88.5797 51.5066 89.5819 51.8589 90.3452 52.5409C90.5948 52.8012 90.7902 53.1084 90.9201 53.4447C91.0501 53.7811 91.112 54.1398 91.1023 54.5003C91.1017 55.2266 90.8256 55.9256 90.3297 56.4562C89.8338 56.9869 89.155 57.3096 88.4304 57.3592L91.4407 61.3671H90.0869L87.2369 57.5552H84.476V61.3671H83.3627L83.3359 51.5612ZM87.4596 56.5577C88.9291 56.5577 89.9801 55.8006 89.9801 54.5181C89.9801 53.2356 89.0894 52.5854 87.4774 52.5854H84.476V56.5577H87.4596Z" fill="white"/>
<path d="M92.8254 56.4614C92.8394 55.4739 93.1454 54.5125 93.7046 53.6984C94.2639 52.8844 95.0515 52.2539 95.9683 51.8865C96.8851 51.5191 97.8901 51.4312 98.8568 51.6337C99.8234 51.8363 100.709 52.3203 101.401 53.0248C102.093 53.7294 102.561 54.623 102.747 55.5931C102.932 56.5632 102.826 57.5665 102.443 58.4766C102.059 59.3868 101.415 60.1631 100.591 60.7079C99.7672 61.2526 98.8006 61.5415 97.8129 61.5381C97.1497 61.5406 96.4927 61.4103 95.8806 61.155C95.2685 60.8996 94.7137 60.5244 94.2489 60.0513C93.7841 59.5782 93.4186 59.0168 93.1742 58.4003C92.9297 57.7837 92.8111 57.1245 92.8254 56.4614V56.4614ZM101.678 56.4614C101.636 55.7085 101.375 54.9843 100.926 54.3785C100.477 53.7727 99.8597 53.3118 99.1513 53.053C98.443 52.7942 97.6744 52.7487 96.9405 52.9222C96.2066 53.0958 95.5396 53.4806 95.0222 54.0293C94.5048 54.5779 94.1596 55.2662 94.0293 56.009C93.899 56.7518 93.9894 57.5165 94.2892 58.2085C94.589 58.9004 95.0852 59.4893 95.7162 59.9022C96.3473 60.3151 97.0855 60.534 97.8397 60.5317C98.3616 60.525 98.8769 60.4135 99.3548 60.2037C99.8328 59.9938 100.264 59.69 100.622 59.3103C100.98 58.9305 101.258 58.4826 101.44 57.9932C101.621 57.5038 101.702 56.9829 101.678 56.4614V56.4614Z" fill="white"/>
<path d="M104.793 57.2596V51.5596H105.906V57.1884C105.906 59.3081 107.028 60.4927 108.899 60.4927C110.769 60.4927 111.856 59.4061 111.856 57.2596V51.5596H112.978V57.1706C112.978 60.0295 111.339 61.5169 108.881 61.5169C106.423 61.5169 104.793 60.0295 104.793 57.2596Z" fill="white"/>
<path d="M115.371 51.5596H119.041C121.249 51.5596 122.71 52.7352 122.71 54.6946C122.71 56.8143 120.929 57.9009 118.853 57.9009H116.475V61.3655H115.371V51.5596ZM118.934 56.9034C120.564 56.9034 121.606 56.0128 121.606 54.7213C121.606 53.4299 120.555 52.5927 118.934 52.5927H116.458V56.9034H118.934Z" fill="white"/>
<path d="M72.1406 9.76562H76.5938L86.1503 23.1964L95.6891 9.76562H100.142V35.0686H94.4154V18.859L86.1593 30.0454H86.0078L77.8229 18.9659V35.0686H72.1673L72.1406 9.76562Z" fill="white"/>
<path d="M102.367 9.76562H106.82L116.377 23.1964L125.907 9.76562H130.36V35.0686H124.633V18.859L116.368 30.0454H116.225L108.032 18.9659V35.0686H102.385L102.367 9.76562Z" fill="white"/>
<path d="M132.182 22.3047C132.182 14.859 137.98 9.32812 145.915 9.32812C150.627 9.32812 153.094 10.2188 155.828 12.4988L153.058 15.8921C150.952 14.3552 148.375 13.6023 145.773 13.7635C141.578 13.7635 137.962 17.7713 137.962 22.3047C137.929 23.4014 138.119 24.4933 138.518 25.5152C138.917 26.5371 139.519 27.4679 140.286 28.252C141.054 29.0361 141.971 29.6573 142.985 30.0785C143.998 30.4997 145.085 30.7123 146.182 30.7034C148.275 30.7034 150.146 30.5074 151.606 29.4565V25.0033H145.808V21.1647H156.594V31.3892C153.699 34.0218 149.908 35.4491 145.995 35.3792C137.793 35.3792 132.182 30.1245 132.182 22.3047Z" fill="white"/>
<path d="M159.293 9.76562H169.981C176.215 9.76562 180 12.963 180 18.3959C180 24.4522 175.289 27.2043 169.419 27.2043H165.038V35.0686H159.293V9.76562ZM170.248 22.6709C170.845 22.6992 171.443 22.6042 172.002 22.3919C172.561 22.1796 173.071 21.8546 173.5 21.4369C173.928 21.0193 174.266 20.518 174.493 19.9642C174.719 19.4104 174.83 18.816 174.817 18.2178C174.817 15.6349 173.035 13.8269 170.132 13.8269H165.055V22.6531L170.248 22.6709Z" fill="white"/>
<path d="M67.9668 0.181641H67.0762V61.6355H67.9668V0.181641Z" fill="white"/>
<path d="M60.1608 23.1947C44.4634 39.8398 23.5827 50.6663 0.933521 53.9038L0.791016 53.699C1.83478 53.0739 2.8239 52.3618 3.74791 51.5704C4.96476 50.7284 6.11692 49.7966 7.19469 48.7827C14.8687 43.602 20.6843 36.1025 23.7915 27.3804C26.8986 18.6583 27.1343 9.171 24.4641 0.305363C25.6649 0.172785 26.8721 0.107368 28.0801 0.109422C35.1719 0.111062 42.084 2.34043 47.8404 6.48268C53.5967 10.6249 57.9064 16.4708 60.1608 23.1947V23.1947Z" fill="#C6AC79"/>
<path d="M47.3173 53.7893C47.3173 54.3326 47.3172 54.8759 47.3618 55.4192C36.5735 61.6283 23.7694 63.3248 11.7363 60.1396C12.5201 60.1841 13.3039 60.2019 14.0965 60.2019C26.497 60.2218 38.4908 55.7802 47.8873 47.6885C47.5117 49.7005 47.3209 51.7426 47.3173 53.7893V53.7893Z" fill="#C6AC79"/>
<path d="M8.01573 46.698C9.67226 44.1347 10.7819 41.257 11.2751 38.2451C11.7683 35.2331 11.6345 32.1519 10.8821 29.194C10.1297 26.2362 8.77483 23.4655 6.90235 21.0554C5.02987 18.6452 2.68005 16.6475 0 15.1873C1.97787 12.2065 4.41583 9.55815 7.22307 7.34082C12.1801 12.4831 15.0828 19.2624 15.3831 26.3986C15.6834 33.5348 13.3605 40.534 8.85293 46.0746C8.56792 46.2794 8.29182 46.4932 8.01573 46.698Z" fill="#E5DBBA"/>
<path d="M25.1059 12.8271C25.1112 18.6877 23.8905 24.4846 21.5223 29.8453C19.154 35.2061 15.6906 40.0122 11.3545 43.9549C15.2395 38.3126 17.0652 31.5055 16.5252 24.6763C15.9851 17.8472 13.1122 11.4117 8.38867 6.45016C12.7848 3.27586 17.8857 1.21593 23.2534 0.447266C24.4849 4.45839 25.1093 8.63121 25.1059 12.8271V12.8271Z" fill="#CDB584"/>
<path d="M61.0881 26.5709C54.8628 31.1417 50.3927 37.7086 48.4232 45.1763C39.032 53.9556 26.6511 58.8309 13.7953 58.8119C11.1803 58.8122 8.56904 58.6127 5.98441 58.2152V58.2152C5.24518 57.9124 4.50595 57.5918 3.78453 57.2444C3.69685 57.1628 3.6136 57.0766 3.53516 56.9861C25.6093 52.7397 45.6541 41.2985 60.5359 24.4512C60.7585 25.1459 60.9278 25.8495 61.0881 26.5709Z" fill="#424D58"/>
</svg>
