<svg width="40" height="40" viewBox="0 0 40 40" fill="none" xmlns="http://www.w3.org/2000/svg">
<path d="M21.0148 0.998414L38.0153 8.55399C38.9182 8.95524 39.5 9.85055 39.5 10.8385V29.1615C39.5 30.1495 38.9182 31.0448 38.0153 31.446L21.0148 39.0016C20.3684 39.2889 19.6305 39.2889 18.9841 39.0016L1.98463 31.446C1.08182 31.0448 0.5 30.1495 0.5 29.1615V10.8385C0.5 9.85052 1.08182 8.95523 1.98463 8.55397L18.9841 0.998434C19.6305 0.711133 20.3684 0.711125 21.0148 0.998414Z" fill="#171C1F" stroke="#54ADFF"/>
<circle cx="20" cy="20" r="12" fill="white"/>
<path d="M20 8C13.3739 8 8 13.3732 8 19.9997C8 21.3245 8.21462 22.5985 8.61133 23.7903H12.2V13.6939L20 21.4939L27.8001 13.6939V23.7903H31.3891C31.7858 22.5985 32.0004 21.3245 32.0004 19.9997C32.0004 13.3732 26.6265 8 20 8" fill="#FF6600"/>
<path d="M14.8026 19.8828V26.2358H9.74609C11.8526 29.6918 15.6572 31.9999 19.9999 31.9999C24.3427 31.9999 28.1476 29.6918 30.2538 26.2358H25.1976V19.8828L19.9999 25.0805L14.8026 19.8828Z" fill="#4C4C4C"/>
</svg>
