<svg width="40" height="40" viewBox="0 0 40 40" fill="none" xmlns="http://www.w3.org/2000/svg">
<path d="M21.0148 0.998414L38.0153 8.55399C38.9182 8.95524 39.5 9.85055 39.5 10.8385V29.1615C39.5 30.1495 38.9182 31.0448 38.0153 31.446L21.0148 39.0016C20.3684 39.2889 19.6305 39.2889 18.9841 39.0016L1.98463 31.446C1.08182 31.0448 0.5 30.1495 0.5 29.1615V10.8385C0.5 9.85052 1.08182 8.95523 1.98463 8.55397L18.9841 0.998434C19.6305 0.711133 20.3684 0.711125 21.0148 0.998414Z" fill="#171C1F" stroke="#54ADFF"/>
<path d="M20.0063 32.958L19.8688 32.8892C14.5077 29.7505 10.4526 24.5727 8.803 18.3868C8.53953 17.4131 8.34479 16.4165 8.20733 15.4084C8.08132 14.4004 8.01259 13.3808 8.00113 12.3613C8.00113 12.1895 7.97822 12.2124 8.1386 12.1322C10.1547 10.9867 12.2854 10.1504 14.5421 9.6235C15.3783 9.42876 16.2146 9.27984 17.0623 9.17674C18.2307 9.03928 19.3992 8.982 20.5791 9.00491C21.2435 9.01636 21.8964 9.06219 22.5494 9.13092C25.837 9.48603 28.9185 10.4712 31.8053 12.0864C31.8511 12.1093 31.8854 12.1322 31.9313 12.1551C31.9771 12.178 32 12.2124 32 12.2697V12.4415C31.9885 13.0372 31.9656 13.6214 31.9198 14.2171C31.8511 15.0648 31.7365 15.901 31.5762 16.7372C31.2325 18.5357 30.6941 20.2655 29.9495 21.9265C28.7696 24.5727 27.1544 26.9325 25.1154 28.9944C23.6491 30.4836 22.011 31.7666 20.201 32.8319C20.1323 32.8778 20.075 32.9121 20.0063 32.958V32.958ZM9.10084 12.9455V13.083C9.10084 13.9192 9.15812 14.7669 9.26122 15.5917C9.35286 16.3478 9.47887 17.0924 9.6507 17.837C9.68506 17.963 9.71943 18.089 9.7767 18.215C10.8077 20.4029 13.1904 21.5714 15.5502 21.033C17.3487 20.6206 18.8149 19.2345 19.3075 17.4589C19.445 16.9663 19.4908 16.4623 19.5137 15.9583C19.5252 15.6261 19.5595 15.2939 19.6168 14.9617C20.0063 12.9455 21.3466 11.2845 23.2367 10.4941C23.3398 10.4483 23.4543 10.4139 23.5574 10.3681C23.5689 10.3566 23.5918 10.3566 23.5918 10.3337C23.294 10.2306 21.5184 10.0473 20.4531 10.0244C18.162 9.97861 15.9167 10.2764 13.7288 10.9409C12.1021 11.4334 10.5671 12.0978 9.10084 12.9455V12.9455ZM25.9974 26.669C26.0547 26.6346 26.0891 26.5888 26.112 26.5544C26.5702 25.9817 27.0055 25.386 27.4064 24.7674C28.8383 22.5451 29.8464 20.1509 30.4077 17.562C30.6025 16.68 30.7285 15.7979 30.8086 14.9044C30.8659 14.2973 30.8888 13.6901 30.8888 13.0715C30.8888 13.0257 30.8888 12.9914 30.8774 12.9455L30.7055 12.8424C30.2359 12.579 29.7548 12.3269 29.2736 12.0978C28.5634 11.7656 27.8532 11.4678 27.1086 11.2272C26.2036 10.9409 25.2872 10.9065 24.3708 11.1356C21.7475 11.7656 20.0636 14.3431 20.5676 16.9893C20.8425 18.4555 21.6329 19.6011 22.893 20.4029C22.9732 20.4602 23.0649 20.506 23.145 20.5633C24.0729 21.1246 24.7946 21.8921 25.3101 22.8429C25.86 23.8395 26.1005 24.9163 26.0318 26.0504C26.0432 26.2451 26.0203 26.4513 25.9974 26.669V26.669ZM20.0063 31.7895C20.0521 31.7666 20.1094 31.7322 20.1552 31.6979C21.5986 30.8502 22.9274 29.8421 24.1417 28.6966C24.2218 28.6279 24.2791 28.5362 24.3249 28.4446C24.4051 28.2956 24.4853 28.1353 24.554 27.9864C25.1268 26.795 25.2528 25.5578 24.8748 24.2748C24.1302 21.8005 21.7475 20.38 19.3533 20.6779C18.666 20.7581 18.036 20.9757 17.4403 21.3194C16.3062 21.9609 15.092 22.2243 13.7861 22.0983C13.1446 22.041 12.5374 21.8692 11.9532 21.6172C11.495 21.411 11.0597 21.159 10.6702 20.8497C10.6473 20.8268 10.6129 20.8153 10.5557 20.781C10.5671 20.8382 10.5786 20.8726 10.59 20.8955C11.1055 22.2014 11.7356 23.4386 12.4802 24.6185C13.2935 25.89 14.2214 27.0699 15.2753 28.1467C16.3291 29.2235 17.4861 30.1858 18.7348 31.022C19.3075 31.3886 19.8459 31.7208 20.0063 31.7895V31.7895Z" fill="black"/>
<path d="M9.09935 12.9453C10.5656 12.0976 12.1006 11.4332 13.7158 10.9521C15.9153 10.2992 18.149 9.98987 20.4401 10.0357C21.5054 10.0586 23.281 10.2304 23.5789 10.345C23.5903 10.3679 23.5674 10.3793 23.5445 10.3793C23.4414 10.4252 23.3268 10.4595 23.2237 10.5054C21.3336 11.2958 19.9933 12.9568 19.6039 14.9729C19.5466 15.3051 19.5122 15.6373 19.5008 15.9695C19.4893 16.4736 19.4435 16.9776 19.2946 17.4702C18.7905 19.2458 17.3357 20.6318 15.5372 21.0442C13.1774 21.5826 10.7947 20.4142 9.76375 18.2262C9.70648 18.1002 9.66066 17.9742 9.63775 17.8482C9.46592 17.1036 9.33991 16.359 9.24826 15.603C9.14517 14.7667 9.08789 13.9305 9.08789 13.0943C9.09935 13.037 9.09935 13.0026 9.09935 12.9453V12.9453Z" fill="#F7A800"/>
<path d="M25.9948 26.6692C26.0177 26.4515 26.0406 26.2568 26.0521 26.0506C26.1093 24.9165 25.8688 23.8397 25.3304 22.8431C24.8149 21.8923 24.0932 21.1363 23.1653 20.5635C23.0851 20.5063 22.9935 20.4604 22.9133 20.4032C21.6418 19.6013 20.8628 18.4672 20.5879 16.9895C20.0953 14.3319 21.7678 11.7659 24.391 11.1359C25.3189 10.9182 26.2239 10.9411 27.1289 11.2275C27.8735 11.4566 28.5837 11.7659 29.2939 12.0981C29.7865 12.3272 30.2562 12.5792 30.7258 12.8427C30.7831 12.8771 30.8289 12.9 30.8977 12.9458C30.8977 12.9916 30.9091 13.026 30.9091 13.0718C30.9091 13.6789 30.8747 14.2975 30.8289 14.9046C30.7487 15.7981 30.6113 16.6917 30.428 17.5623C29.8667 20.1511 28.8701 22.5453 27.4267 24.7676C27.0258 25.3862 26.5905 25.9819 26.1323 26.5546C26.0864 26.589 26.0635 26.6348 25.9948 26.6692V26.6692Z" fill="#67B2E8"/>
<path d="M20.0036 31.7886C19.8318 31.7199 19.3049 31.3991 18.7435 31.0211C17.4949 30.1849 16.3379 29.2226 15.284 28.1458C14.2302 27.069 13.2908 25.8891 12.4889 24.6175C11.7329 23.4376 11.1029 22.2004 10.5988 20.8945C10.5874 20.8601 10.5759 20.8372 10.5645 20.78C10.6217 20.8143 10.6446 20.8258 10.679 20.8487C11.0799 21.158 11.5038 21.4215 11.962 21.6162C12.5462 21.8682 13.1534 22.0401 13.7949 22.0973C15.0893 22.2233 16.3036 21.9599 17.4491 21.3184C18.0448 20.9862 18.6863 20.7685 19.3621 20.6769C21.7563 20.379 24.139 21.7995 24.8836 24.2739C25.2616 25.5454 25.1471 26.7826 24.5628 27.9854C24.4827 28.1458 24.4139 28.2947 24.3337 28.4436C24.2879 28.5353 24.2306 28.6269 24.1504 28.6956C22.9362 29.8412 21.6074 30.8493 20.164 31.697C20.1067 31.7313 20.0494 31.7657 20.0036 31.7886Z" fill="#00C4B3"/>
</svg>
