<svg width="18" height="18" viewBox="0 0 18 18" fill="none" xmlns="http://www.w3.org/2000/svg">
<path d="M7.37521 0.72204C8.40947 0.262359 9.59006 0.262346 10.6243 0.722008L15.6245 2.94426C17.0691 3.58626 18 5.01875 18 6.59952V11.4005C18 12.9812 17.069 14.4137 15.6245 15.0557L10.6243 17.278C9.59005 17.7377 8.40947 17.7376 7.37522 17.278L2.37541 15.0558C0.930919 14.4138 0 12.9813 0 11.4005V6.59946C0 5.01872 0.930917 3.58625 2.37541 2.94423L7.37521 0.72204Z" fill="#FF9F9F"/>
<path d="M8.18757 3.36102C8.7047 3.13118 9.29499 3.13117 9.81212 3.361L13.8123 5.1388C14.5345 5.45979 15 6.17604 15 6.96643V11.0336C15 11.824 14.5345 12.5402 13.8123 12.8612L9.81212 14.639C9.29499 14.8688 8.7047 14.8688 8.18757 14.639L4.1877 12.8612C3.46546 12.5402 3 11.824 3 11.0336V6.9664C3 6.17603 3.46546 5.45979 4.18771 5.13878L8.18757 3.36102Z" fill="#FF5252"/>
</svg>
