<svg width="40" height="40" viewBox="0 0 40 40" fill="none" xmlns="http://www.w3.org/2000/svg">
<path d="M21.0148 0.998414L38.0153 8.55399C38.9182 8.95524 39.5 9.85055 39.5 10.8385V29.1615C39.5 30.1495 38.9182 31.0448 38.0153 31.446L21.0148 39.0016C20.3684 39.2889 19.6305 39.2889 18.9841 39.0016L1.98463 31.446C1.08182 31.0448 0.5 30.1495 0.5 29.1615V10.8385C0.5 9.85052 1.08182 8.95523 1.98463 8.55397L18.9841 0.998434C19.6305 0.711133 20.3684 0.711125 21.0148 0.998414Z" fill="#171C1F" stroke="#54ADFF"/>
<path d="M18.6338 9.05829C13.8888 9.70292 10.0698 13.2793 9.19669 17.8977C8.64986 20.8118 9.2496 23.7347 10.9165 26.2337C11.4986 27.0991 12.9539 28.565 13.7918 29.1213C15.0707 29.9602 16.376 30.5077 17.8842 30.8344C18.9249 31.0552 21.0769 31.0552 22.1177 30.8344C24.2697 30.3752 26.0072 29.4745 27.5418 28.0263C29.1647 26.481 30.2407 24.6089 30.7169 22.4984C31.546 18.8425 30.5317 15.1249 27.9652 12.3962C26.457 10.8067 24.2697 9.59695 22.1 9.18192C21.1916 9.0053 19.4541 8.94349 18.6338 9.05829ZM21.1034 9.93251C23.7229 10.2328 26.2012 11.575 27.8152 13.5707C28.856 14.8688 29.4557 16.0697 29.8526 17.7034C30.0466 18.4805 30.0819 18.8337 30.0907 19.911C30.0907 21.4476 29.932 22.3924 29.4293 23.664C26.7745 30.49 17.9988 32.3356 12.8569 27.1521C9.95519 24.238 9.09967 19.9993 10.6431 16.1757C11.4281 14.2065 13.0686 12.3079 14.8854 11.2748C16.8699 10.1356 18.9337 9.69409 21.1034 9.93251Z" fill="white"/>
<path d="M12.883 17.4031C11.7364 17.8182 11.0044 19.2399 11.269 20.5645C11.4013 21.2268 11.5512 21.5358 11.9657 21.9685C12.5126 22.5602 12.8654 22.6926 13.8267 22.6926C14.594 22.6926 14.7087 22.6661 15.132 22.4365C15.917 21.995 16.3492 21.2974 16.4462 20.3084C16.5697 18.9485 15.7847 17.6769 14.6293 17.3501C14.1795 17.2265 13.3152 17.253 12.883 17.4031ZM14.8145 18.5069C15.3349 18.8867 15.5995 19.7609 15.4143 20.5291C15.0615 22.0127 13.1123 22.3041 12.442 20.9707C12.0363 20.1759 12.248 18.9308 12.8654 18.4981C13.3769 18.1272 14.2853 18.1361 14.8145 18.5069Z" fill="white"/>
<path d="M24.8166 17.4385C23.1585 18.1008 22.691 20.5468 23.9434 22.0304C24.6225 22.8428 26.2277 22.9929 26.9421 22.3041L27.1362 22.1187L27.1626 22.3659C27.1891 22.5867 27.2156 22.6043 27.6301 22.6043H28.0711L28.0975 21.2091L28.124 19.8227H26.8804H25.6456V20.2642V20.7058H26.3953C27.2067 20.7058 27.2332 20.7234 27.0039 21.2003C26.8451 21.527 26.2807 21.8537 25.8573 21.8537C24.843 21.8537 24.2345 21.1385 24.2345 19.9817C24.2433 18.7012 25.0635 17.9683 26.1836 18.2332C26.6158 18.3392 27.0568 18.7189 27.0568 18.9926C27.0568 19.0809 27.1891 19.1163 27.586 19.1163H28.1064L27.9829 18.7189C27.7095 17.7917 27.0303 17.3237 25.9102 17.2883C25.4163 17.2707 25.1429 17.306 24.8166 17.4385Z" fill="white"/>
<path d="M17.1787 19.9994V22.6485H17.6197H18.0607L18.0783 20.8647L18.1048 19.0721L18.7575 20.8647L19.4101 22.6573L19.8511 22.6309L20.2921 22.6044L20.9359 20.8383L21.5798 19.0721L21.6062 20.8383L21.6327 22.6044L22.1001 22.6309L22.5588 22.6573L22.5411 20.0258L22.5147 17.3943H21.9061H21.2887L20.5831 19.3547C20.1951 20.4409 19.8511 21.2974 19.8246 21.2533C19.7894 21.218 19.4719 20.3791 19.1191 19.3812C18.7663 18.3834 18.4311 17.518 18.387 17.4562C18.3341 17.3943 18.0871 17.3502 17.7432 17.3502H17.1787V19.9994Z" fill="white"/>
</svg>
