<svg width="40" height="40" viewBox="0 0 40 40" fill="none" xmlns="http://www.w3.org/2000/svg">
<path d="M21.0148 0.998414L38.0153 8.55399C38.9182 8.95524 39.5 9.85055 39.5 10.8385V29.1615C39.5 30.1495 38.9182 31.0448 38.0153 31.446L21.0148 39.0016C20.3684 39.2889 19.6305 39.2889 18.9841 39.0016L1.98463 31.446C1.08182 31.0448 0.5 30.1495 0.5 29.1615V10.8385C0.5 9.85052 1.08182 8.95523 1.98463 8.55397L18.9841 0.998434C19.6305 0.711133 20.3684 0.711125 21.0148 0.998414Z" fill="#171C1F" stroke="#54ADFF"/>
<path d="M9.00591 18.6427V9.47071L27.6013 28.2001C27.216 28.5184 22.5755 32.2291 17.0471 30.579C12.2475 29.1382 8.83839 24.2465 9.00591 18.6427ZM31.5214 21.3902L31.5465 30.4952L12.8925 11.8328C13.2778 11.5062 17.9099 7.7787 23.4383 9.41208C28.263 10.8444 31.6889 15.7529 31.513 21.3902H31.5214Z" fill="#2DA7BF"/>
</svg>
