<svg width="40" height="40" viewBox="0 0 40 40" fill="none" xmlns="http://www.w3.org/2000/svg">
<path d="M21.0148 0.998414L38.0153 8.55399C38.9182 8.95524 39.5 9.85055 39.5 10.8385V29.1615C39.5 30.1495 38.9182 31.0448 38.0153 31.446L21.0148 39.0016C20.3684 39.2889 19.6305 39.2889 18.9841 39.0016L1.98463 31.446C1.08182 31.0448 0.5 30.1495 0.5 29.1615V10.8385C0.5 9.85052 1.08182 8.95523 1.98463 8.55397L18.9841 0.998434C19.6305 0.711133 20.3684 0.711125 21.0148 0.998414Z" fill="#171C1F" stroke="#54ADFF"/>
<path d="M18.296 29C16.464 29 15.108 28.564 14.228 27.692C13.356 26.812 12.92 25.456 12.92 23.624V18.08C12.92 16.232 13.36 14.876 14.24 14.012C15.12 13.14 16.472 12.712 18.296 12.728H21.176C23.016 12.728 24.372 13.164 25.244 14.036C26.116 14.908 26.552 16.264 26.552 18.104V23.624C26.552 25.456 26.116 26.812 25.244 27.692C24.372 28.564 23.016 29 21.176 29H18.296ZM18.296 26.984H21.176C22.032 26.984 22.704 26.884 23.192 26.684C23.68 26.476 24.024 26.128 24.224 25.64C24.432 25.152 24.536 24.48 24.536 23.624V18.104C24.536 17.256 24.432 16.588 24.224 16.1C24.024 15.612 23.68 15.264 23.192 15.056C22.704 14.848 22.032 14.744 21.176 14.744H18.296C17.448 14.736 16.78 14.832 16.292 15.032C15.804 15.232 15.456 15.576 15.248 16.064C15.04 16.552 14.936 17.224 14.936 18.08V23.624C14.936 24.48 15.036 25.152 15.236 25.64C15.444 26.128 15.792 26.476 16.28 26.684C16.768 26.884 17.44 26.984 18.296 26.984Z" fill="#54ADFF"/>
</svg>
