<svg width="100" height="25" viewBox="0 0 100 25" fill="none" xmlns="http://www.w3.org/2000/svg">
<path d="M37.3907 5.46094H31.8569C31.6737 5.46082 31.4965 5.52614 31.3572 5.64512C31.2179 5.76409 31.1257 5.92891 31.0971 6.10987L28.859 20.2998C28.8488 20.3657 28.8529 20.433 28.8711 20.4971C28.8893 20.5612 28.9212 20.6206 28.9645 20.6712C29.0079 20.7218 29.0617 20.7624 29.1223 20.7902C29.1829 20.818 29.2488 20.8323 29.3154 20.8322H31.9573C32.1406 20.8323 32.3179 20.7669 32.4572 20.6478C32.5965 20.5286 32.6887 20.3636 32.717 20.1825L33.3207 16.3552C33.349 16.1743 33.441 16.0094 33.5802 15.8903C33.7193 15.7711 33.8965 15.7056 34.0796 15.7055H35.8314C39.4766 15.7055 41.5804 13.9416 42.1298 10.4461C42.3774 8.91679 42.1403 7.71521 41.4242 6.8737C40.6377 5.94966 39.2428 5.46094 37.3907 5.46094ZM38.0291 10.6435C37.7265 12.6291 36.2093 12.6291 34.7423 12.6291H33.9073L34.4931 8.92084C34.5103 8.81234 34.5656 8.71354 34.6491 8.64219C34.7326 8.57084 34.8388 8.53164 34.9487 8.53164H35.3314C36.3307 8.53164 37.2733 8.53164 37.7604 9.10127C38.0509 9.44111 38.1399 9.94602 38.0291 10.6435ZM53.932 10.5796H51.282C51.1722 10.5796 51.066 10.6188 50.9825 10.6901C50.8989 10.7615 50.8436 10.8603 50.8265 10.9688L50.7092 11.71L50.5239 11.4413C49.9502 10.6087 48.6709 10.3304 47.3941 10.3304C44.4658 10.3304 41.9647 12.5482 41.4776 15.6594C41.2244 17.2113 41.5844 18.6953 42.4648 19.7302C43.2723 20.6817 44.4278 21.0782 45.8025 21.0782C48.162 21.0782 49.4704 19.5611 49.4704 19.5611L49.3522 20.2974C49.3417 20.3632 49.3456 20.4306 49.3636 20.4948C49.3816 20.5589 49.4133 20.6185 49.4565 20.6692C49.4997 20.72 49.5534 20.7608 49.6139 20.7888C49.6744 20.8168 49.7403 20.8313 49.807 20.8314H52.1939C52.3773 20.8315 52.5546 20.7661 52.6939 20.6469C52.8332 20.5278 52.9254 20.3628 52.9537 20.1817L54.3859 11.112C54.3964 11.0463 54.3926 10.9791 54.3746 10.9151C54.3567 10.851 54.325 10.7916 54.2819 10.741C54.2387 10.6904 54.1851 10.6497 54.1247 10.6219C54.0642 10.594 53.9985 10.5796 53.932 10.5796ZM50.2382 15.7371C49.9825 17.251 48.781 18.2673 47.2485 18.2673C46.479 18.2673 45.864 18.0205 45.4691 17.5528C45.0775 17.0883 44.9286 16.4273 45.0532 15.6909C45.2919 14.19 46.5138 13.1405 48.0228 13.1405C48.7753 13.1405 49.387 13.3905 49.79 13.8623C50.1937 14.3389 50.3539 15.004 50.2382 15.7371ZM68.0451 10.5796H65.3822C65.2566 10.5798 65.1329 10.6106 65.022 10.6694C64.911 10.7282 64.8161 10.8132 64.7454 10.917L61.0727 16.3269L59.5159 11.1282C59.4681 10.9696 59.3705 10.8307 59.2376 10.7319C59.1047 10.6331 58.9435 10.5797 58.7779 10.5796H56.1612C56.0877 10.5794 56.0153 10.5967 55.9499 10.6302C55.8845 10.6636 55.828 10.7122 55.7852 10.7719C55.7424 10.8316 55.7144 10.9006 55.7037 10.9733C55.6929 11.046 55.6997 11.1202 55.7234 11.1897L58.6566 19.7973L55.899 23.6901C55.85 23.7592 55.8209 23.8403 55.815 23.9248C55.809 24.0092 55.8265 24.0937 55.8653 24.1689C55.9042 24.2441 55.963 24.3071 56.0353 24.3511C56.1076 24.3951 56.1906 24.4184 56.2753 24.4184H58.9349C59.0591 24.4185 59.1815 24.3886 59.2915 24.3311C59.4016 24.2736 59.4961 24.1903 59.5669 24.0882L68.4237 11.3038C68.4717 11.2346 68.4999 11.1536 68.5052 11.0696C68.5104 10.9856 68.4926 10.9017 68.4536 10.8271C68.4145 10.7525 68.3558 10.69 68.2838 10.6463C68.2118 10.6027 68.1293 10.5796 68.0451 10.5796Z" fill="#59788C"/>
<path d="M76.8634 5.46077H71.3289C71.1459 5.46085 70.9688 5.52625 70.8297 5.64521C70.6906 5.76417 70.5984 5.92888 70.5699 6.1097L68.3318 20.2997C68.3214 20.3654 68.3254 20.4326 68.3435 20.4967C68.3615 20.5607 68.3933 20.6201 68.4365 20.6707C68.4797 20.7213 68.5334 20.7619 68.5938 20.7898C68.6543 20.8176 68.72 20.8321 68.7866 20.8321H71.6267C71.7548 20.8319 71.8787 20.786 71.976 20.7026C72.0733 20.6193 72.1376 20.5039 72.1575 20.3773L72.7926 16.3551C72.821 16.1741 72.913 16.0092 73.0522 15.8901C73.1913 15.771 73.3685 15.7054 73.5516 15.7053H75.3026C78.9486 15.7053 81.0516 13.9414 81.6018 10.4459C81.8502 8.91662 81.6115 7.71504 80.8954 6.87354C80.1097 5.94949 78.7156 5.46077 76.8634 5.46077ZM77.5019 10.6433C77.2001 12.629 75.6829 12.629 74.2151 12.629H73.3809L73.9675 8.92067C73.9843 8.81217 74.0394 8.71328 74.1229 8.6419C74.2063 8.57051 74.3125 8.53133 74.4223 8.53147H74.805C75.8035 8.53147 76.7469 8.53147 77.234 9.10111C77.5245 9.44095 77.6127 9.94585 77.5019 10.6433ZM93.404 10.5794H90.7556C90.6458 10.5791 90.5395 10.6182 90.4561 10.6896C90.3726 10.7611 90.3176 10.86 90.3009 10.9686L90.1836 11.7098L89.9975 11.4412C89.4238 10.6085 88.1453 10.3302 86.8685 10.3302C83.9402 10.3302 81.44 12.5481 80.9529 15.6592C80.7004 17.2112 81.0589 18.6951 81.9392 19.73C82.7484 20.6816 83.9022 21.0781 85.2769 21.0781C87.6364 21.0781 88.9448 19.5609 88.9448 19.5609L88.8266 20.2972C88.8161 20.3632 88.82 20.4307 88.8381 20.495C88.8562 20.5593 88.888 20.6189 88.9314 20.6697C88.9748 20.7205 89.0288 20.7612 89.0895 20.7891C89.1502 20.817 89.2162 20.8314 89.283 20.8313H91.6692C91.8523 20.8312 92.0295 20.7656 92.1686 20.6465C92.3078 20.5274 92.3998 20.3625 92.4281 20.1815L93.8611 11.1118C93.8713 11.0459 93.8671 10.9786 93.8488 10.9145C93.8304 10.8504 93.7985 10.791 93.755 10.7404C93.7116 10.6899 93.6577 10.6493 93.5971 10.6215C93.5365 10.5937 93.4706 10.5793 93.404 10.5794ZM89.7102 15.7369C89.4562 17.2508 88.253 18.2671 86.7204 18.2671C85.9526 18.2671 85.336 18.0203 84.9411 17.5526C84.5495 17.0882 84.4022 16.4271 84.5252 15.6908C84.7655 14.1898 85.9857 13.1404 87.4948 13.1404C88.2473 13.1404 88.859 13.3904 89.262 13.8621C89.6673 14.3387 89.8276 15.0038 89.7102 15.7369ZM96.5281 5.84997L94.2568 20.2997C94.2464 20.3654 94.2504 20.4326 94.2684 20.4967C94.2865 20.5607 94.3182 20.6201 94.3615 20.6707C94.4047 20.7213 94.4583 20.7619 94.5188 20.7898C94.5792 20.8176 94.645 20.8321 94.7115 20.8321H96.9949C97.3744 20.8321 97.6965 20.557 97.7547 20.1823L99.9944 5.99319C100.005 5.92741 100.001 5.86017 99.9828 5.79608C99.9648 5.73199 99.933 5.67256 99.8898 5.6219C99.8466 5.57123 99.7929 5.53052 99.7325 5.50257C99.6721 5.47461 99.6063 5.46008 99.5397 5.45996H96.9828C96.873 5.46035 96.767 5.49981 96.6837 5.57127C96.6003 5.64274 96.5452 5.74154 96.5281 5.84997Z" fill="#59788C"/>
<path d="M5.88011 23.5893L6.30329 20.9014L5.36064 20.8795H0.859375L3.98752 1.04498C3.99684 0.984376 4.02762 0.929136 4.07426 0.889331C4.12089 0.849526 4.18028 0.827805 4.2416 0.828129H11.8314C14.351 0.828129 16.0899 1.35245 16.9977 2.38735C17.4234 2.87283 17.6944 3.38017 17.8255 3.93848C17.9631 4.5243 17.9655 5.22421 17.8312 6.07785L17.8215 6.14016V6.68714L18.2471 6.92826C18.572 7.09288 18.864 7.31555 19.1088 7.58529C19.4729 8.00038 19.7084 8.52794 19.8079 9.15341C19.9107 9.79668 19.8767 10.5621 19.7084 11.4287C19.5142 12.4256 19.2002 13.2938 18.7762 14.0042C18.4022 14.6407 17.8992 15.1919 17.2996 15.6225C16.7364 16.0222 16.0672 16.3257 15.3107 16.5199C14.5776 16.7108 13.7418 16.8071 12.825 16.8071H12.2343C11.8119 16.8071 11.4017 16.9592 11.0797 17.2319C10.7581 17.5075 10.5448 17.8883 10.4777 18.3064L10.4332 18.5484L9.68551 23.2859L9.65153 23.4599C9.64263 23.5149 9.62726 23.5424 9.6046 23.561C9.58265 23.579 9.55527 23.589 9.52692 23.5893H5.88011Z" fill="#253B80"/>
<path d="M18.8337 6.60005C18.8278 6.63192 18.8218 6.66395 18.8156 6.69615L18.8154 6.69693C18.3052 9.31648 17.1702 11.1067 15.5803 12.237C13.9957 13.3635 11.989 13.8133 9.77143 13.8133H7.54467C7.13385 13.8133 6.78707 14.1111 6.72274 14.5182L18.8337 6.60005ZM18.8337 6.60005C19.0949 6.76878 19.3331 6.9716 19.5418 7.20354C20.4348 8.22207 20.6337 9.69508 20.2747 11.5387C19.8467 13.7364 18.9077 15.187 17.6331 16.0932C16.3533 17.0032 14.705 17.3857 12.8227 17.3857H12.232C11.6425 17.3857 11.1404 17.8133 11.047 18.3961L10.9998 18.652L10.9997 18.6519L10.9987 18.6584L10.2558 23.373L10.2178 23.5694L10.2177 23.5693L10.2164 23.5775C10.1621 23.9176 9.86921 24.1679 9.52464 24.1679H5.57534C5.52915 24.1679 5.48352 24.1579 5.44158 24.1385C5.39964 24.1192 5.3624 24.091 5.33241 24.0558C5.30242 24.0207 5.2804 23.9795 5.26786 23.9351C5.25532 23.8906 5.25257 23.844 5.25979 23.7983L5.25981 23.7982L5.58265 21.7487L5.58266 21.7486L6.72273 14.5182L18.8337 6.60005Z" fill="#59788C" stroke="#181C1F" stroke-width="0.5"/>
<path d="M17.6015 5.78631C17.2819 5.69385 16.9568 5.6217 16.6281 5.57026C15.9786 5.47045 15.3222 5.42256 14.6651 5.42705H8.71627C8.48988 5.42687 8.27089 5.5077 8.0989 5.65491C7.9269 5.80212 7.81325 6.00601 7.77847 6.22972L6.51297 14.2451L6.47656 14.4789C6.51599 14.2238 6.64543 13.9911 6.84149 13.8231C7.03754 13.6551 7.28725 13.5629 7.54544 13.563H9.7722C14.1456 13.563 17.5699 11.7869 18.5708 6.64885C18.6008 6.49673 18.6259 6.34866 18.6485 6.20382C18.3844 6.06532 18.1091 5.94921 17.8256 5.8567C17.7513 5.83204 17.6766 5.80857 17.6015 5.78631Z" fill="#59788C"/>
<path d="M7.77903 6.2296C7.81351 6.00583 7.9271 5.80184 8.09919 5.6547C8.27127 5.50757 8.49042 5.42703 8.71683 5.42774H14.6657C15.3704 5.42774 16.0283 5.47386 16.6286 5.57095C17.0349 5.63481 17.4356 5.73031 17.827 5.85658C18.1223 5.95449 18.3966 6.0702 18.6499 6.2037C18.9476 4.30464 18.6475 3.01163 17.6207 1.8408C16.4887 0.551836 14.4456 0 11.8312 0H4.24146C3.70742 0 3.25188 0.388389 3.16934 0.91676L0.00801838 20.9552C-0.00670654 21.0482 -0.00110421 21.1434 0.02444 21.234C0.0499842 21.3247 0.0948641 21.4087 0.155992 21.4804C0.217121 21.5521 0.293047 21.6096 0.378548 21.6492C0.464049 21.6887 0.557096 21.7092 0.651288 21.7093H5.33704L6.51353 14.245L7.77903 6.2296Z" fill="#59788C"/>
</svg>
