<svg width="40" height="40" viewBox="0 0 40 40" fill="none" xmlns="http://www.w3.org/2000/svg">
<path d="M21.0148 0.998414L38.0153 8.55399C38.9182 8.95524 39.5 9.85055 39.5 10.8385V29.1615C39.5 30.1495 38.9182 31.0448 38.0153 31.446L21.0148 39.0016C20.3684 39.2889 19.6305 39.2889 18.9841 39.0016L1.98463 31.446C1.08182 31.0448 0.5 30.1495 0.5 29.1615V10.8385C0.5 9.85052 1.08182 8.95523 1.98463 8.55397L18.9841 0.998434C19.6305 0.711133 20.3684 0.711125 21.0148 0.998414Z" fill="#171C1F" stroke="#54ADFF"/>
<path d="M9.42 27.26C8.86 27.26 8.58 26.94 8.58 26.3V14.16H18.7V26.3C18.7 26.94 18.42 27.26 17.86 27.26C17.3 27.26 17.02 26.94 17.02 26.3V15.84H10.26V26.3C10.26 26.94 9.98 27.26 9.42 27.26ZM21.8613 14.16H29.6613C30.3413 14.16 30.6813 14.44 30.6813 15C30.6813 15.56 30.3413 15.84 29.6613 15.84H23.5413V17.36H26.4813C27.4146 17.36 28.2446 17.5767 28.9713 18.01C29.7046 18.4367 30.2813 19.0233 30.7013 19.77C31.1279 20.5167 31.3413 21.3667 31.3413 22.32C31.3413 23.2667 31.1313 24.1133 30.7113 24.86C30.2913 25.6 29.7146 26.1867 28.9813 26.62C28.2479 27.0467 27.4146 27.26 26.4813 27.26H22.6613C22.1279 27.26 21.8613 26.9333 21.8613 26.28V14.16ZM26.4813 19.04H23.5413V25.58H26.4813C27.1213 25.58 27.6779 25.4467 28.1513 25.18C28.6313 24.9067 29.0013 24.5267 29.2613 24.04C29.5279 23.5467 29.6613 22.9733 29.6613 22.32C29.6613 21.66 29.5279 21.0867 29.2613 20.6C29.0013 20.1067 28.6313 19.7233 28.1513 19.45C27.6779 19.1767 27.1213 19.04 26.4813 19.04Z" fill="#54ADFF"/>
</svg>
