<svg width="40" height="40" viewBox="0 0 40 40" fill="none" xmlns="http://www.w3.org/2000/svg">
<path d="M21.0148 0.998414L38.0153 8.55399C38.9182 8.95524 39.5 9.85055 39.5 10.8385V29.1615C39.5 30.1495 38.9182 31.0448 38.0153 31.446L21.0148 39.0016C20.3684 39.2889 19.6305 39.2889 18.9841 39.0016L1.98463 31.446C1.08182 31.0448 0.5 30.1495 0.5 29.1615V10.8385C0.5 9.85052 1.08182 8.95523 1.98463 8.55397L18.9841 0.998434C19.6305 0.711133 20.3684 0.711125 21.0148 0.998414Z" fill="#171C1F" stroke="#54ADFF"/>
<path d="M20.0011 13.8108C22.2852 13.8108 24.1369 12.7338 24.1369 11.4054C24.1369 10.0769 22.2852 9 20.0011 9C17.7169 9 15.8652 10.0769 15.8652 11.4054C15.8652 12.7338 17.7169 13.8108 20.0011 13.8108Z" fill="#E6007A"/>
<path d="M20.0011 31.9349C22.2852 31.9349 24.1369 30.858 24.1369 29.5295C24.1369 28.2011 22.2852 27.1241 20.0011 27.1241C17.7169 27.1241 15.8652 28.2011 15.8652 29.5295C15.8652 30.858 17.7169 31.9349 20.0011 31.9349Z" fill="#E6007A"/>
<path d="M14.2369 17.1404C15.3789 15.1624 15.3715 13.02 14.2203 12.3553C13.0691 11.6906 11.21 12.7554 10.0679 14.7334C8.92584 16.7115 8.93325 18.8539 10.0845 19.5186C11.2357 20.1832 13.0948 19.1185 14.2369 17.1404Z" fill="#E6007A"/>
<path d="M29.9303 26.2014C31.0724 24.2234 31.0656 22.0814 29.9152 21.4171C28.7647 20.7529 26.9063 21.818 25.7642 23.7961C24.6221 25.7741 24.6289 27.9161 25.7794 28.5804C26.9298 29.2446 28.7882 28.1795 29.9303 26.2014Z" fill="#E6007A"/>
<path d="M14.2213 28.5797C15.3725 27.9151 15.3799 25.7727 14.2378 23.7946C13.0958 21.8165 11.2367 20.7518 10.0854 21.4165C8.93423 22.0812 8.92681 24.2235 10.0689 26.2016C11.211 28.1797 13.0701 29.2444 14.2213 28.5797Z" fill="#E6007A"/>
<path d="M29.9171 19.519C31.0676 18.8548 31.0744 16.7128 29.9323 14.7347C28.7902 12.7566 26.9317 11.6916 25.7813 12.3558C24.6309 13.02 24.6241 15.162 25.7662 17.1401C26.9082 19.1182 28.7667 20.1833 29.9171 19.519Z" fill="#E6007A"/>
</svg>
