<svg width="40" height="40" viewBox="0 0 40 40" fill="none" xmlns="http://www.w3.org/2000/svg">
<path d="M21.0148 0.998414L38.0153 8.55399C38.9182 8.95524 39.5 9.85055 39.5 10.8385V29.1615C39.5 30.1495 38.9182 31.0448 38.0153 31.446L21.0148 39.0016C20.3684 39.2889 19.6305 39.2889 18.9841 39.0016L1.98463 31.446C1.08182 31.0448 0.5 30.1495 0.5 29.1615V10.8385C0.5 9.85052 1.08182 8.95523 1.98463 8.55397L18.9841 0.998434C19.6305 0.711133 20.3684 0.711125 21.0148 0.998414Z" fill="#171C1F" stroke="#54ADFF"/>
<path d="M26.1107 16.2851C25.6678 16.0242 25.0922 16.0242 24.6052 16.2851L21.1513 18.2859L18.8044 19.5908L15.3505 21.5916C14.9077 21.8526 14.3321 21.8526 13.845 21.5916L11.0996 20.0257C10.6568 19.7648 10.3469 19.2864 10.3469 18.7644V15.6762C10.3469 15.1542 10.6125 14.6758 11.0996 14.4148L13.8007 12.8925C14.2435 12.6315 14.8192 12.6315 15.3063 12.8925L18.0074 14.4148C18.4502 14.6758 18.7601 15.1542 18.7601 15.6762V17.677L21.107 16.3286V14.3278C21.107 13.8059 20.8414 13.3274 20.3542 13.0664L15.3505 10.1957C14.9077 9.93476 14.3321 9.93476 13.845 10.1957L8.75277 13.0664C8.26568 13.3274 8 13.8059 8 14.3278V20.1128C8 20.6347 8.26568 21.1132 8.75277 21.3742L13.845 24.2449C14.2878 24.5058 14.8635 24.5058 15.3505 24.2449L18.8044 22.2875L21.1513 20.9392L24.6052 18.9819C25.048 18.7209 25.6236 18.7209 26.1107 18.9819L28.8118 20.5042C29.2545 20.7652 29.5645 21.2437 29.5645 21.7656V24.8538C29.5645 25.3758 29.2989 25.8542 28.8118 26.1152L26.1107 27.681C25.6678 27.942 25.0922 27.942 24.6052 27.681L21.9041 26.1587C21.4612 25.8977 21.1513 25.4192 21.1513 24.8973V22.8965L18.8044 24.2449V26.2456C18.8044 26.7676 19.0701 27.2461 19.5571 27.507L24.6494 30.3777C25.0922 30.6387 25.6678 30.6387 26.1549 30.3777L31.2472 27.507C31.69 27.2461 32 26.7676 32 26.2456V20.4607C32 19.9388 31.7343 19.4604 31.2472 19.1994L26.1107 16.2851Z" fill="#8247E5"/>
</svg>
