<svg width="40" height="40" viewBox="0 0 40 40" fill="none" xmlns="http://www.w3.org/2000/svg">
<path d="M21.0148 0.998414L38.0153 8.55399C38.9182 8.95524 39.5 9.85055 39.5 10.8385V29.1615C39.5 30.1495 38.9182 31.0448 38.0153 31.446L21.0148 39.0016C20.3684 39.2889 19.6305 39.2889 18.9841 39.0016L1.98463 31.446C1.08182 31.0448 0.5 30.1495 0.5 29.1615V10.8385C0.5 9.85052 1.08182 8.95523 1.98463 8.55397L18.9841 0.998434C19.6305 0.711133 20.3684 0.711125 21.0148 0.998414Z" fill="#171C1F" stroke="#54ADFF"/>
<path d="M9.42 27.26C8.86 27.26 8.58 26.94 8.58 26.3V14.16H18.7V26.3C18.7 26.94 18.42 27.26 17.86 27.26C17.3 27.26 17.02 26.94 17.02 26.3V15.84H10.26V26.3C10.26 26.94 9.98 27.26 9.42 27.26ZM26.7613 27.12C25.4746 27.12 24.4546 27 23.7013 26.76C22.9479 26.52 22.4046 26.1233 22.0713 25.57C21.7446 25.0167 21.5813 24.2667 21.5813 23.32V17.96C21.5813 17.0267 21.7379 16.2833 22.0513 15.73C22.3646 15.1767 22.8746 14.7767 23.5813 14.53C24.2879 14.2833 25.2279 14.16 26.4013 14.16H29.5813C30.1079 14.16 30.5413 14.2533 30.8813 14.44C31.2279 14.62 31.4846 14.8833 31.6513 15.23C31.8179 15.5767 31.9013 15.9933 31.9013 16.48C31.9013 17.32 31.6213 17.74 31.0613 17.74C30.7613 17.74 30.5513 17.6467 30.4313 17.46C30.3113 17.2667 30.2413 17.0067 30.2213 16.68C30.2013 16.3667 30.1546 16.15 30.0813 16.03C30.0146 15.9033 29.8013 15.84 29.4413 15.84H26.4013C25.5213 15.84 24.8546 15.8933 24.4013 16C23.9546 16.1067 23.6513 16.3167 23.4913 16.63C23.3379 16.9367 23.2613 17.3933 23.2613 18V23.28C23.2613 23.8933 23.3446 24.3567 23.5113 24.67C23.6779 24.9767 24.0113 25.1833 24.5113 25.29C25.0113 25.39 25.7613 25.44 26.7613 25.44H29.4413C29.8013 25.44 30.0146 25.3767 30.0813 25.25C30.1546 25.1233 30.2013 24.9067 30.2213 24.6C30.2546 24.22 30.3346 23.95 30.4613 23.79C30.5946 23.6233 30.7946 23.54 31.0613 23.54C31.3546 23.5467 31.5679 23.6533 31.7013 23.86C31.8346 24.06 31.9013 24.38 31.9013 24.82C31.9013 25.3067 31.8179 25.7233 31.6513 26.07C31.4846 26.41 31.2279 26.67 30.8813 26.85C30.5413 27.03 30.1079 27.12 29.5813 27.12H26.7613Z" fill="#54ADFF"/>
</svg>
