<svg width="40" height="40" viewBox="0 0 40 40" fill="none" xmlns="http://www.w3.org/2000/svg">
<path d="M21.0148 0.998414L38.0153 8.55399C38.9182 8.95524 39.5 9.85055 39.5 10.8385V29.1615C39.5 30.1495 38.9182 31.0448 38.0153 31.446L21.0148 39.0016C20.3684 39.2889 19.6305 39.2889 18.9841 39.0016L1.98463 31.446C1.08182 31.0448 0.5 30.1495 0.5 29.1615V10.8385C0.5 9.85052 1.08182 8.95523 1.98463 8.55397L18.9841 0.998434C19.6305 0.711133 20.3684 0.711125 21.0148 0.998414Z" fill="#171C1F" stroke="#54ADFF"/>
<path d="M20.2719 8.00313C20.3125 8.0125 20.3563 8.03125 20.3969 8.03125C20.6219 8.02812 20.8438 8.05312 21.0656 8.0875C21.2469 8.11562 21.4313 8.12813 21.6125 8.15625C21.7313 8.17188 21.8469 8.19375 21.9625 8.22187C22.3688 8.32187 22.7719 8.425 23.1656 8.575C23.425 8.675 23.6844 8.77813 23.9375 8.89375C24.1906 9.00938 24.4438 9.13125 24.6844 9.26875C24.9531 9.42187 25.2125 9.59063 25.4656 9.76562C25.7063 9.93125 25.9344 10.1156 26.1688 10.2938C26.1813 10.3031 26.1937 10.3125 26.2031 10.3219C26.4812 10.5875 26.7594 10.8531 27.0312 11.125C27.1469 11.2406 27.2438 11.375 27.35 11.5C27.6063 11.8063 27.8375 12.1281 28.0531 12.4656C28.3969 13.0031 28.6969 13.5656 28.9188 14.1656C28.9969 14.375 29.0812 14.5844 29.1562 14.7938C29.2906 15.175 29.3688 15.5688 29.45 15.9625C29.4969 16.1813 29.5344 16.4 29.5656 16.6219C29.5875 16.7656 29.5844 16.9094 29.6031 17.0531C29.6656 17.5625 29.625 18.0719 29.6281 18.5781C29.6281 18.7406 29.5969 18.9031 29.5781 19.0656C29.5656 19.1688 29.5594 19.275 29.5406 19.375C29.4812 19.7063 29.425 20.0375 29.3594 20.3688C29.2906 20.725 29.1844 21.0719 29.0625 21.4156C28.9062 21.8563 28.7375 22.2937 28.5312 22.7156C28.2344 23.3281 27.8688 23.8969 27.4906 24.4562C27.4594 24.5 27.4187 24.5375 27.3687 24.5906C27.35 24.5375 27.3312 24.5 27.3219 24.4625C27.2062 23.9312 26.9906 23.4437 26.6781 22.9969C26.5031 22.7437 26.3 22.5156 26.0719 22.3188C25.6469 21.95 25.175 21.6531 24.6188 21.5188C24.4156 21.4719 24.2094 21.4281 24 21.4406C23.9469 21.4438 23.8906 21.4406 23.8281 21.4219C23.8531 21.4094 23.8781 21.3906 23.9062 21.3813C23.9406 21.3719 23.975 21.3719 24.0094 21.3656C24.2125 21.3219 24.4188 21.275 24.6281 21.2906C24.9344 21.3125 25.2375 21.3656 25.5312 21.4719C25.7875 21.5656 26.0219 21.6906 26.2437 21.8438C26.2625 21.8563 26.2875 21.8656 26.3219 21.8813C26.3625 21.7313 26.4094 21.5906 26.4406 21.4469C26.4969 21.1906 26.5375 20.9312 26.5719 20.6687C26.6375 20.1625 26.625 19.6531 26.6219 19.1469C26.6219 18.9594 26.5812 18.7719 26.5719 18.5844C26.5625 18.4188 26.5469 18.2594 26.5094 18.0969C26.4531 17.8469 26.4094 17.5906 26.3438 17.3406C26.2219 16.8781 26.0844 16.4219 25.8906 15.9813C25.6813 15.5 25.4531 15.0313 25.1688 14.5906C25.0063 14.3406 24.8469 14.0875 24.6719 13.8469C24.5312 13.6531 24.3781 13.4688 24.2219 13.2906C24.0375 13.0813 23.8375 12.8844 23.6469 12.6813C23.2375 12.2438 22.7625 11.8812 22.2688 11.5469C21.8719 11.2781 21.45 11.05 21.0156 10.85C20.6125 10.6625 20.1937 10.5156 19.7656 10.4094C19.4781 10.3375 19.1844 10.2906 18.8906 10.2437C18.4625 10.1781 18.0344 10.175 17.6094 10.1969C17.2344 10.2156 16.8594 10.2781 16.4969 10.3844C16.1656 10.4812 15.8344 10.5719 15.5312 10.7344C15.1344 10.9437 14.7531 11.1781 14.4156 11.4781C14.2094 11.6594 14.0063 11.8438 13.8219 12.0469C13.4875 12.4125 13.2 12.8094 12.9562 13.2406C12.7219 13.6563 12.5344 14.0875 12.375 14.5344C12.2406 14.9094 12.1562 15.2969 12.0844 15.6906C12.0375 15.9531 12.0031 16.2188 11.9656 16.4844C11.9656 16.4906 11.9656 16.4937 11.9656 16.5C11.9562 16.8344 11.925 17.1687 11.9406 17.5C11.9562 17.7906 11.9781 18.0844 12.0156 18.375C12.0625 18.7406 12.1344 19.1 12.2125 19.4563C12.3125 19.9188 12.4687 20.3656 12.6469 20.8031C12.7562 21.075 12.875 21.3438 13.0062 21.6094C13.1531 21.9094 13.3156 22.2 13.5062 22.475C13.7125 22.7719 13.925 23.0687 14.1875 23.325C14.2844 23.4187 14.3594 23.5344 14.4594 23.6219C14.7094 23.8406 14.9437 24.0781 15.2156 24.275C15.4844 24.4719 15.7531 24.6688 16.0375 24.8438C16.1781 24.9312 16.3219 25.0094 16.4656 25.0875C16.9812 25.3594 17.5125 25.6 18.075 25.7687C18.375 25.8594 18.6781 25.9312 18.9844 25.9969C19.2156 26.0469 19.4531 26.0906 19.6875 26.1125C19.8844 26.1312 20.0813 26.1812 20.2938 26.1375C20.1531 25.6156 20.0375 25.0906 20.1375 24.5375C20.1563 24.5437 20.1719 24.5469 20.1781 24.5562C20.3438 24.8031 20.4969 25.0625 20.6781 25.2969C20.8906 25.575 21.1344 25.825 21.4281 26.0219C21.7813 26.2562 22.1313 26.4938 22.5188 26.6719C22.8625 26.8344 23.225 26.9437 23.5969 27.0187C23.8688 27.0719 24.1438 27.1187 24.4156 27.1625C24.6938 27.2094 24.975 27.2375 25.2531 27.2906C25.5844 27.3562 25.9156 27.4219 26.2406 27.5156C26.5656 27.6094 26.8844 27.725 27.2 27.8438C27.5094 27.9594 27.7969 28.1187 28.0688 28.3062C28.3188 28.4781 28.575 28.6406 28.8188 28.8219C28.9875 28.9437 29.1406 29.0875 29.3 29.225C29.3719 29.2875 29.4469 29.3469 29.5156 29.4125C29.7438 29.6281 29.9562 29.8625 30.15 30.1094C30.3187 30.325 30.4906 30.5375 30.6187 30.7812C30.7437 31.025 30.8719 31.2687 30.9937 31.5125C31.0281 31.5812 31.05 31.6594 31.075 31.7312C31.075 31.8219 31.075 31.9125 31.075 32C31.0344 32 30.9938 32 30.9563 32C30.8969 31.9594 30.8594 31.9031 30.8313 31.8375C30.8063 31.7781 30.7812 31.7187 30.75 31.6625C30.6 31.3906 30.4031 31.15 30.1906 30.9281C29.8031 30.5187 29.4063 30.1187 28.9438 29.7937C28.6219 29.5687 28.3031 29.3375 27.9469 29.1625C27.7281 29.0562 27.5063 28.9469 27.2844 28.8469C26.9313 28.6875 26.5625 28.5562 26.1875 28.4625C25.8656 28.3812 25.5438 28.2937 25.2094 28.275C24.9969 28.2625 24.7875 28.2031 24.575 28.1969C24.3219 28.1906 24.0719 28.1812 23.8188 28.1875C23.4938 28.1938 23.1719 28.2062 22.8531 28.2531C22.6875 28.2781 22.5188 28.3 22.3563 28.3375C22.1375 28.3906 21.925 28.4594 21.7094 28.5187C21.1969 28.6594 20.6719 28.7375 20.1438 28.7875C19.8969 28.8125 19.6469 28.8187 19.3969 28.8187C19.1438 28.8187 18.8906 28.8 18.6375 28.7906C18.6313 28.7906 18.6281 28.7906 18.6219 28.7906C18.3906 28.7625 18.1594 28.7375 17.9281 28.7031C17.65 28.6625 17.3688 28.6187 17.0938 28.5656C16.8688 28.5219 16.6469 28.4656 16.4281 28.4062C16.1156 28.3219 15.8031 28.2437 15.4969 28.1406C14.9344 27.9469 14.3969 27.7 13.8719 27.4219C13.7719 27.3687 13.6656 27.3187 13.5687 27.2594C13.25 27.0656 12.9375 26.8625 12.6375 26.6406C12.3656 26.4375 12.1 26.2281 11.8562 25.9937C11.55 25.7 11.2625 25.3937 11 25.0562C10.7844 24.7812 10.5844 24.4937 10.4125 24.1937C10.2125 23.85 10.0188 23.5031 9.86875 23.1313C9.725 22.7719 9.57188 22.4156 9.4625 22.0406C9.31563 21.5406 9.18125 21.0375 9.1125 20.5188C9.07188 20.2031 9.0375 19.8875 9.02813 19.5688C9.025 19.5219 9.00938 19.475 9 19.4281C9 19.1375 9 18.8469 9 18.5594C9.00938 18.5312 9.025 18.5063 9.025 18.4781C9.02813 18.2 9.05938 17.9219 9.08438 17.6469C9.11563 17.3188 9.175 16.9969 9.25 16.6813C9.35625 16.2313 9.46875 15.7844 9.63125 15.35C9.7375 15.0656 9.85313 14.7844 9.975 14.5063C10.075 14.2844 10.1938 14.0719 10.3 13.85C10.4438 13.5469 10.625 13.2688 10.8062 12.9875C11.0125 12.6656 11.2344 12.3531 11.4875 12.0625C11.6625 11.8594 11.8281 11.6469 12.0125 11.4531C12.3094 11.1438 12.6156 10.8437 12.9469 10.5687C13.2094 10.3531 13.4688 10.1406 13.75 9.95C14.2719 9.6 14.8 9.2625 15.375 9.00625C15.8438 8.79687 16.3156 8.6 16.8063 8.45C17.1188 8.35313 17.4344 8.26562 17.7594 8.20937C18.0281 8.1625 18.3 8.13125 18.5688 8.08437C18.8094 8.04375 19.0531 8.02188 19.2969 8.025C19.325 8.025 19.35 8.00938 19.3781 8C19.6719 8.00313 19.9719 8.00313 20.2719 8.00313Z" fill="#FF9900"/>
<path d="M24.0501 25.3134C24.0376 25.2259 24.0626 25.129 24.1157 25.0321C24.222 24.8352 24.4751 24.729 24.6876 24.8008C25.0064 24.9071 25.2064 25.1133 25.2595 25.4571C25.2939 25.6727 25.2532 25.8602 25.1001 26.0196C24.9657 26.1602 24.797 26.179 24.6157 26.1383C24.347 26.079 24.0157 25.7071 24.047 25.379C24.0501 25.3633 24.0501 25.3509 24.0501 25.3134Z" fill="#FF9900"/>
<path d="M26.7477 25.2476C26.6665 25.2289 26.6134 25.1726 26.5665 25.1039C26.4102 24.8726 26.3227 24.6164 26.2446 24.3539C26.2259 24.2945 26.2415 24.2133 26.2665 24.1508C26.3071 24.0476 26.3915 24.0164 26.4821 24.0758C26.5665 24.132 26.6571 24.2008 26.7071 24.2883C26.8384 24.5101 26.904 24.7539 26.8946 25.0133C26.8946 25.1289 26.854 25.1914 26.7477 25.2476Z" fill="#FF9900"/>
</svg>
