<svg width="40" height="40" viewBox="0 0 40 40" fill="none" xmlns="http://www.w3.org/2000/svg">
<path d="M21.0148 0.998414L38.0153 8.55399C38.9182 8.95524 39.5 9.85055 39.5 10.8385V29.1615C39.5 30.1495 38.9182 31.0448 38.0153 31.446L21.0148 39.0016C20.3684 39.2889 19.6305 39.2889 18.9841 39.0016L1.98463 31.446C1.08182 31.0448 0.5 30.1495 0.5 29.1615V10.8385C0.5 9.85052 1.08182 8.95523 1.98463 8.55397L18.9841 0.998434C19.6305 0.711133 20.3684 0.711125 21.0148 0.998414Z" fill="#171C1F" stroke="#54ADFF"/>
<path fill-rule="evenodd" clip-rule="evenodd" d="M30.1861 30.6899C30.0241 30.6908 29.8655 30.6435 29.7304 30.5541C29.5953 30.4647 29.4898 30.3373 29.4272 30.1878C29.3646 30.0384 29.3478 29.8738 29.3789 29.7148C29.41 29.5558 29.4875 29.4096 29.6018 29.2948C29.716 29.1799 29.8618 29.1016 30.0206 29.0696C30.1795 29.0377 30.3442 29.0537 30.4939 29.1155C30.6437 29.1773 30.7717 29.2821 30.8618 29.4168C30.9519 29.5514 31 29.7098 31 29.8718C31 30.088 30.9144 30.2955 30.7619 30.4488C30.6094 30.6021 30.4024 30.6888 30.1861 30.6899V30.6899ZM29.7555 21.8753C29.592 21.8727 29.433 21.8217 29.2985 21.7288C29.164 21.6358 29.06 21.505 28.9998 21.353C28.9396 21.201 28.9259 21.0345 28.9603 20.8747C28.9947 20.7148 29.0757 20.5687 29.1931 20.4549C29.3106 20.3411 29.4591 20.2647 29.6199 20.2353C29.7808 20.2059 29.9467 20.2249 30.0968 20.2898C30.2469 20.3547 30.3743 20.4627 30.463 20.6C30.5518 20.7374 30.5978 20.8979 30.5952 21.0614C30.5918 21.2785 30.5032 21.4855 30.3485 21.6377C30.1939 21.79 29.9855 21.8753 29.7685 21.8753H29.7555ZM29.7555 19.3993C29.5918 19.3993 29.4318 19.3507 29.2958 19.2596C29.1597 19.1686 29.0537 19.0392 28.9913 18.8879C28.9288 18.7366 28.9127 18.5701 28.945 18.4096C28.9772 18.2491 29.0564 18.1018 29.1725 17.9864C29.2885 17.8709 29.4362 17.7925 29.5969 17.7611C29.7576 17.7297 29.9239 17.7467 30.0749 17.8099C30.2259 17.8731 30.3547 17.9798 30.4451 18.1163C30.5354 18.2528 30.5832 18.4131 30.5823 18.5768C30.5823 18.7935 30.4969 19.0014 30.3445 19.1554C30.1921 19.3094 29.9851 19.397 29.7685 19.3993H29.7555ZM28.0977 17.9395V19.4466H26.4484V17.6165C26.4486 17.3985 26.5353 17.1894 26.6896 17.0352L28.6359 15.1061C28.7604 14.9802 28.9205 14.8958 29.0947 14.8642C29.2688 14.8326 29.4484 14.8554 29.6091 14.9295C29.728 14.9859 29.8316 15.0701 29.911 15.175C29.9904 15.2799 30.0434 15.4025 30.0654 15.5322C30.0873 15.6619 30.0777 15.7951 30.0372 15.9203C29.9968 16.0455 29.9268 16.1591 29.833 16.2515L28.0977 17.9395ZM29.5962 24.8293C29.4355 24.9034 29.2559 24.9262 29.0817 24.8946C28.9076 24.8631 28.7474 24.7786 28.623 24.6527L26.6767 22.7236C26.5224 22.5695 26.4356 22.3604 26.4355 22.1423V20.2777H28.0977V21.7849L29.8201 23.5073C29.9107 23.5989 29.9784 23.7106 30.0177 23.8332C30.0569 23.9559 30.0667 24.0861 30.0461 24.2133C30.0256 24.3405 29.9753 24.461 29.8993 24.565C29.8234 24.6691 29.724 24.7537 29.6091 24.8121L29.5962 24.8293ZM25.6174 16.8242V22.7839L30.3541 27.5206C30.4324 27.597 30.4949 27.688 30.5381 27.7885C30.5812 27.889 30.6041 27.997 30.6055 28.1064C30.6069 28.2157 30.5868 28.3243 30.5462 28.4259C30.5057 28.5274 30.4455 28.62 30.3692 28.6983C30.2928 28.7767 30.2018 28.8392 30.1013 28.8823C30.0008 28.9255 29.8928 28.9484 29.7834 28.9498C29.6741 28.9512 29.5655 28.931 29.4639 28.8905C29.3623 28.8499 29.2698 28.7897 29.1914 28.7134L24.1963 23.714C24.1185 23.6377 24.0566 23.5465 24.0145 23.446C23.9723 23.3454 23.9507 23.2374 23.9509 23.1284V16.4797C23.9507 16.3707 23.9723 16.2627 24.0145 16.1621C24.0566 16.0616 24.1185 15.9704 24.1963 15.8941L27.2451 12.8411C27.3211 12.7625 27.4119 12.6996 27.5123 12.6561C27.6126 12.6126 27.7206 12.5893 27.8299 12.5875C27.9393 12.5857 28.0479 12.6054 28.1496 12.6456C28.2514 12.6858 28.3442 12.7456 28.4228 12.8217C28.5014 12.8977 28.5642 12.9885 28.6078 13.0889C28.6513 13.1892 28.6746 13.2972 28.6764 13.4065C28.6782 13.5159 28.6584 13.6245 28.6182 13.7263C28.5781 13.828 28.5182 13.9208 28.4422 13.9994L25.6174 16.8242ZM23.7011 15.3214C23.6238 15.3988 23.5318 15.46 23.4305 15.5014C23.3292 15.5428 23.2206 15.5636 23.1112 15.5625H16.4798C16.3703 15.5641 16.2616 15.5435 16.1602 15.5021C16.0588 15.4607 15.9669 15.3992 15.8898 15.3214L12.8411 12.264C12.6835 12.1099 12.5936 11.8994 12.5912 11.6789C12.5888 11.4585 12.674 11.2461 12.8282 11.0885C12.9824 10.9309 13.1928 10.841 13.4133 10.8385C13.6338 10.8361 13.8462 10.9214 14.0038 11.0755L16.8243 13.9004H22.7796L25.5786 11.0928C25.7037 10.9651 25.8654 10.8795 26.0413 10.8479C26.2173 10.8162 26.3987 10.8401 26.5604 10.9162C26.6781 10.9757 26.7801 11.0622 26.8579 11.1687C26.9358 11.2752 26.9873 11.3986 27.0083 11.5288C27.0293 11.659 27.0192 11.7923 26.9788 11.9179C26.9383 12.0434 26.8687 12.1576 26.7757 12.2511L23.7011 15.3214ZM22.7796 12.8238C22.7025 12.9018 22.6106 12.9637 22.5093 13.0059C22.408 13.048 22.2994 13.0696 22.1897 13.0693H20.3467V11.4071H21.8624L23.5633 9.7062C23.6876 9.57873 23.8483 9.49289 24.0234 9.46051C24.1984 9.42812 24.3792 9.45077 24.5408 9.52535C24.6585 9.58484 24.7605 9.67136 24.8384 9.77783C24.9162 9.8843 24.9678 10.0077 24.9888 10.1379C25.0098 10.2681 24.9996 10.4015 24.9592 10.527C24.9188 10.6526 24.8492 10.7668 24.7561 10.8602L22.7796 12.8238ZM21.0141 10.6708C20.8506 10.6708 20.6907 10.6223 20.5548 10.5314C20.4188 10.4406 20.3129 10.3115 20.2503 10.1604C20.1877 10.0093 20.1713 9.84308 20.2032 9.6827C20.2351 9.52233 20.3139 9.37501 20.4295 9.25938C20.5451 9.14376 20.6924 9.06501 20.8528 9.03311C21.0132 9.00121 21.1794 9.01758 21.3305 9.08016C21.4816 9.14274 21.6107 9.24871 21.7016 9.38467C21.7924 9.52063 21.8409 9.68048 21.8409 9.844C21.8365 10.0573 21.7498 10.2607 21.5989 10.4116C21.448 10.5624 21.2447 10.6491 21.0313 10.6535L21.0141 10.6708ZM17.6553 13.0693C17.5456 13.0696 17.437 13.048 17.3357 13.0059C17.2344 12.9637 17.1425 12.9018 17.0654 12.8238L15.119 10.8732C14.9614 10.719 14.8715 10.5085 14.8691 10.2881C14.8667 10.0676 14.9519 9.85519 15.1061 9.69759C15.2603 9.53999 15.4708 9.45009 15.6912 9.44766C15.9117 9.44524 16.1241 9.5305 16.2817 9.68467L18.0041 11.4071H19.5199V13.0693H17.6553ZM18.5596 10.6535C18.3961 10.6535 18.2363 10.6051 18.1003 10.5142C17.9643 10.4234 17.8584 10.2942 17.7958 10.1432C17.7332 9.99209 17.7168 9.82586 17.7487 9.66548C17.7806 9.5051 17.8594 9.35778 17.975 9.24216C18.0906 9.12653 18.238 9.04779 18.3983 9.01589C18.5587 8.98399 18.7249 9.00036 18.876 9.06293C19.0271 9.12551 19.1562 9.23148 19.2471 9.36744C19.3379 9.50341 19.3864 9.66325 19.3864 9.82677C19.3864 9.93535 19.365 10.0429 19.3235 10.1432C19.2819 10.2435 19.221 10.3346 19.1442 10.4114C19.0675 10.4882 18.9763 10.5491 18.876 10.5906C18.7757 10.6322 18.6682 10.6535 18.5596 10.6535V10.6535ZM15.6315 16.4926V23.137C15.6321 23.2463 15.6111 23.3548 15.5697 23.456C15.5283 23.5572 15.4674 23.6493 15.3903 23.7269L12.3416 26.78C12.2165 26.9076 12.0548 26.9932 11.8789 27.0249C11.7029 27.0565 11.5215 27.0326 11.3598 26.9565C11.2419 26.8964 11.14 26.8091 11.0625 26.7019C10.985 26.5947 10.934 26.4706 10.9138 26.3398C10.8936 26.209 10.9048 26.0753 10.9464 25.9497C10.988 25.8241 11.0589 25.7102 11.1531 25.6173L13.9693 22.7839V16.8371L11.1531 14.0209C10.9949 13.8668 10.9045 13.6561 10.9017 13.4352C10.9003 13.3258 10.9204 13.2173 10.961 13.1157C11.0015 13.0141 11.0617 12.9215 11.138 12.8432C11.2144 12.7649 11.3054 12.7024 11.4059 12.6592C11.5064 12.6161 11.6144 12.5932 11.7238 12.5918C11.9446 12.5889 12.1576 12.674 12.3158 12.8281L15.3903 15.8941C15.4688 15.9725 15.5306 16.0659 15.572 16.1687C15.6135 16.2716 15.6337 16.3818 15.6315 16.4926V16.4926ZM12.8756 17.018C12.9585 17.094 13.0248 17.1865 13.07 17.2896C13.1152 17.3926 13.1385 17.504 13.1382 17.6165V19.4639H11.4761V17.9567L9.77515 16.2558C9.69652 16.1802 9.63363 16.0899 9.59008 15.9899C9.54654 15.8899 9.5232 15.7823 9.52142 15.6732C9.51964 15.5642 9.53945 15.4559 9.5797 15.3545C9.61996 15.2532 9.67987 15.1608 9.75598 15.0827C9.83209 15.0046 9.9229 14.9423 10.0232 14.8995C10.1235 14.8566 10.2312 14.834 10.3403 14.833C10.4493 14.832 10.5575 14.8525 10.6586 14.8935C10.7596 14.9344 10.8516 14.995 10.9292 15.0716L12.8756 17.018ZM9.80529 17.75C9.96966 17.7457 10.1316 17.7906 10.2703 17.8788C10.4091 17.967 10.5184 18.0946 10.5843 18.2452C10.6502 18.3959 10.6697 18.5627 10.6402 18.7245C10.6108 18.8863 10.5338 19.0356 10.4191 19.1534C10.3044 19.2712 10.1571 19.3521 9.9962 19.3858C9.83526 19.4195 9.66793 19.4044 9.5156 19.3425C9.36327 19.2806 9.23285 19.1747 9.14102 19.0383C9.04918 18.9019 9.0001 18.7412 9.00004 18.5768C9.00004 18.3583 9.08656 18.1486 9.24068 17.9937C9.3948 17.8388 9.60399 17.7512 9.82251 17.75H9.80529ZM9.80529 20.226C9.96929 20.2218 10.1309 20.2664 10.2694 20.3542C10.408 20.4421 10.5173 20.5692 10.5834 20.7193C10.6495 20.8694 10.6695 21.0358 10.6408 21.1974C10.612 21.3589 10.5359 21.5082 10.422 21.6263C10.3082 21.7444 10.1618 21.826 10.0014 21.8607C9.84104 21.8953 9.674 21.8815 9.52154 21.8209C9.36907 21.7603 9.23807 21.6558 9.1452 21.5205C9.05234 21.3853 9.00181 21.2255 9.00004 21.0614C8.99891 20.9525 9.01931 20.8444 9.06008 20.7434C9.10085 20.6424 9.16119 20.5504 9.23762 20.4728C9.31405 20.3951 9.40507 20.3334 9.50544 20.291C9.60582 20.2487 9.71357 20.2266 9.82251 20.226H9.80529ZM11.4588 21.7849V20.2777H13.1382V22.125C13.1361 22.2347 13.1117 22.3427 13.0666 22.4427C13.0214 22.5426 12.9564 22.6323 12.8756 22.7064L10.9464 24.6355C10.822 24.7614 10.6618 24.8458 10.4877 24.8774C10.3136 24.909 10.1339 24.8862 9.97323 24.8121C9.85464 24.7553 9.75148 24.6708 9.67249 24.5656C9.59351 24.4605 9.54102 24.3379 9.51947 24.2082C9.49792 24.0785 9.50795 23.9455 9.54871 23.8205C9.58947 23.6955 9.65976 23.5822 9.75362 23.4901L11.4588 21.7849ZM15.8898 24.1274C15.9665 24.0499 16.0576 23.9883 16.1581 23.9462C16.2587 23.9041 16.3665 23.8822 16.4755 23.8819H23.1069C23.2166 23.8817 23.3252 23.9032 23.4265 23.9454C23.5278 23.9875 23.6197 24.0494 23.6968 24.1274L28.6532 29.0923C28.8108 29.2465 28.9007 29.457 28.9031 29.6775C28.9055 29.8979 28.8203 30.1103 28.6661 30.2679C28.5119 30.4255 28.3014 30.5154 28.081 30.5178C27.8605 30.5203 27.6481 30.435 27.4905 30.2808L22.7538 25.5441H16.8156L14.0124 28.3474C13.8881 28.4749 13.7274 28.5607 13.5524 28.5931C13.3773 28.6255 13.1965 28.6028 13.0349 28.5282C12.9172 28.4688 12.8152 28.3822 12.7373 28.2758C12.6595 28.1693 12.6079 28.0459 12.5869 27.9157C12.5659 27.7855 12.5761 27.6521 12.6165 27.5266C12.6569 27.401 12.7265 27.2868 12.8196 27.1933L15.8898 24.1274ZM17.0697 26.6206C17.2283 26.4678 17.4394 26.3815 17.6596 26.3795H19.5199V28.0417H17.9998L16.3204 29.7426C16.2444 29.8209 16.1536 29.8835 16.0534 29.9267C15.9532 29.97 15.8454 29.9931 15.7362 29.9947C15.6271 29.9963 15.5187 29.9763 15.4172 29.936C15.3157 29.8957 15.2232 29.8359 15.1449 29.7598C15.0666 29.6837 15.004 29.593 14.9607 29.4928C14.9175 29.3925 14.8944 29.2847 14.8928 29.1756C14.8912 29.0664 14.9111 28.958 14.9514 28.8565C14.9917 28.7551 15.0516 28.6625 15.1277 28.5842L17.0697 26.6206ZM18.5639 28.9718C18.7276 28.9709 18.8879 29.0187 19.0244 29.109C19.161 29.1993 19.2676 29.3282 19.3308 29.4792C19.3941 29.6302 19.4111 29.7965 19.3796 29.9572C19.3482 30.1179 19.2698 30.2656 19.1544 30.3816C19.0389 30.4977 18.8916 30.5769 18.7311 30.6091C18.5706 30.6414 18.4042 30.6252 18.2528 30.5628C18.1015 30.5003 17.9721 30.3944 17.8811 30.2583C17.7901 30.1223 17.7415 29.9623 17.7415 29.7986C17.7415 29.5808 17.8274 29.3718 17.9806 29.217C18.1338 29.0622 18.3418 28.974 18.5596 28.9718H18.5639ZM22.2112 26.3881C22.4315 26.3901 22.6426 26.4764 22.8012 26.6292L24.7475 28.5799C24.9057 28.7341 24.9961 28.9448 24.999 29.1657C25.0018 29.3865 24.9168 29.5995 24.7626 29.7576C24.6084 29.9158 24.3977 30.0063 24.1768 30.0091C23.956 30.0119 23.743 29.9269 23.5849 29.7727L21.8624 28.0503H20.3467V26.3795H22.2069L22.2112 26.3881ZM21.0356 28.9718C21.1986 28.9743 21.3572 29.025 21.4914 29.1173C21.6257 29.2097 21.7296 29.3397 21.7902 29.491C21.8508 29.6423 21.8654 29.8081 21.832 29.9676C21.7987 30.1271 21.7189 30.2732 21.6028 30.3876C21.4867 30.5019 21.3393 30.5794 21.1793 30.6103C21.0193 30.6411 20.8537 30.624 20.7034 30.5611C20.5531 30.4981 20.4247 30.3922 20.3344 30.2565C20.2442 30.1208 20.196 29.9615 20.196 29.7986C20.1959 29.6892 20.2176 29.581 20.2597 29.4802C20.3018 29.3793 20.3635 29.2878 20.4411 29.2109C20.5188 29.134 20.611 29.0733 20.7123 29.0322C20.8136 28.9912 20.922 28.9706 21.0313 28.9718H21.0356Z" fill="white"/>
<path fill-rule="evenodd" clip-rule="evenodd" d="M28.1106 17.9395V19.4466H26.4484V17.6165C26.4486 17.3985 26.5353 17.1894 26.6896 17.0352L28.6359 15.1061C28.7604 14.9802 28.9205 14.8958 29.0947 14.8642C29.2688 14.8326 29.4484 14.8554 29.6091 14.9295C29.728 14.9859 29.8316 15.0701 29.911 15.175C29.9904 15.2799 30.0434 15.4025 30.0654 15.5322C30.0873 15.6619 30.0777 15.7951 30.0372 15.9203C29.9968 16.0455 29.9268 16.1591 29.833 16.2515L28.1106 17.9395ZM29.6091 24.8293C29.4484 24.9034 29.2688 24.9262 29.0947 24.8946C28.9205 24.8631 28.7604 24.7786 28.6359 24.6527L26.6896 22.7236C26.5353 22.5695 26.4486 22.3604 26.4484 22.1423V20.2777H28.1106V21.7849L29.833 23.5073C29.9232 23.5998 29.9901 23.7123 30.0284 23.8356C30.0667 23.9589 30.0753 24.0895 30.0535 24.2167C30.0317 24.344 29.98 24.4643 29.9028 24.5677C29.8255 24.6712 29.7249 24.7549 29.6091 24.8121V24.8293ZM23.7011 15.3558C23.6238 15.4333 23.5318 15.4945 23.4305 15.5359C23.3292 15.5773 23.2206 15.598 23.1112 15.597H16.4798C16.3678 15.5941 16.2576 15.5682 16.156 15.5207C16.0545 15.4733 15.9639 15.4055 15.8898 15.3214L12.8411 12.264C12.6835 12.1099 12.5936 11.8994 12.5912 11.6789C12.5888 11.4585 12.674 11.2461 12.8282 11.0885C12.9824 10.9309 13.1928 10.841 13.4133 10.8385C13.6338 10.8361 13.8462 10.9214 14.0038 11.0755L16.8243 13.9004H22.7796L25.5786 11.0928C25.7037 10.9651 25.8654 10.8795 26.0413 10.8479C26.2173 10.8162 26.3987 10.8401 26.5604 10.9162C26.6781 10.9757 26.7801 11.0622 26.8579 11.1687C26.9358 11.2752 26.9873 11.3986 27.0083 11.5288C27.0293 11.659 27.0192 11.7923 26.9788 11.9179C26.9383 12.0434 26.8687 12.1576 26.7757 12.2511L23.7011 15.3558ZM22.7796 12.8238C22.7025 12.9018 22.6106 12.9637 22.5093 13.0059C22.408 13.048 22.2994 13.0696 22.1897 13.0693H20.3467V11.4071H21.8624L23.5633 9.7062C23.6876 9.57873 23.8483 9.49289 24.0234 9.46051C24.1984 9.42812 24.3792 9.45077 24.5408 9.52535C24.6585 9.58484 24.7605 9.67136 24.8384 9.77783C24.9162 9.8843 24.9678 10.0077 24.9888 10.1379C25.0098 10.2681 24.9996 10.4015 24.9592 10.527C24.9188 10.6526 24.8492 10.7668 24.7561 10.8602L22.7796 12.8238ZM21.0141 10.6708C20.8506 10.6708 20.6907 10.6223 20.5548 10.5314C20.4188 10.4406 20.3129 10.3115 20.2503 10.1604C20.1877 10.0093 20.1713 9.84308 20.2032 9.6827C20.2351 9.52233 20.3139 9.37501 20.4295 9.25938C20.5451 9.14376 20.6924 9.06501 20.8528 9.03311C21.0132 9.00121 21.1794 9.01758 21.3305 9.08016C21.4816 9.14274 21.6107 9.24871 21.7016 9.38467C21.7924 9.52063 21.8409 9.68048 21.8409 9.844C21.8365 10.0573 21.7498 10.2607 21.5989 10.4116C21.448 10.5624 21.2447 10.6491 21.0313 10.6535L21.0141 10.6708ZM17.6553 13.0693C17.5456 13.0696 17.437 13.048 17.3357 13.0059C17.2344 12.9637 17.1425 12.9018 17.0654 12.8238L15.119 10.8732C14.9614 10.719 14.8715 10.5085 14.8691 10.2881C14.8667 10.0676 14.9519 9.85519 15.1061 9.69759C15.2603 9.53999 15.4708 9.45009 15.6912 9.44766C15.9117 9.44524 16.1241 9.5305 16.2817 9.68467L18.0041 11.4071H19.5199V13.0693H17.6553ZM18.5596 10.6535C18.3961 10.6535 18.2363 10.6051 18.1003 10.5142C17.9643 10.4234 17.8584 10.2942 17.7958 10.1432C17.7332 9.99209 17.7168 9.82586 17.7487 9.66548C17.7806 9.5051 17.8594 9.35778 17.975 9.24216C18.0906 9.12653 18.238 9.04779 18.3983 9.01589C18.5587 8.98399 18.7249 9.00036 18.876 9.06293C19.0271 9.12551 19.1562 9.23148 19.2471 9.36744C19.3379 9.50341 19.3864 9.66325 19.3864 9.82677C19.3864 9.93535 19.365 10.0429 19.3235 10.1432C19.2819 10.2435 19.221 10.3346 19.1442 10.4114C19.0675 10.4882 18.9763 10.5491 18.876 10.5906C18.7757 10.6322 18.6682 10.6535 18.5596 10.6535V10.6535ZM15.6315 16.4926V23.137C15.6321 23.2463 15.6111 23.3548 15.5697 23.456C15.5283 23.5572 15.4674 23.6493 15.3903 23.7269L12.3416 26.78C12.2165 26.9076 12.0548 26.9932 11.8789 27.0249C11.7029 27.0565 11.5215 27.0326 11.3598 26.9565C11.2419 26.8964 11.14 26.8091 11.0625 26.7019C10.985 26.5947 10.934 26.4706 10.9138 26.3398C10.8936 26.209 10.9048 26.0753 10.9464 25.9497C10.988 25.8241 11.0589 25.7102 11.1531 25.6173L13.9693 22.7839V16.8371L11.1531 14.0209C10.9949 13.8668 10.9045 13.6561 10.9017 13.4352C10.9003 13.3258 10.9204 13.2173 10.961 13.1157C11.0015 13.0141 11.0617 12.9215 11.138 12.8432C11.2144 12.7649 11.3054 12.7024 11.4059 12.6592C11.5064 12.6161 11.6144 12.5932 11.7238 12.5918C11.9446 12.5889 12.1576 12.674 12.3158 12.8281L15.3903 15.8941C15.4688 15.9725 15.5306 16.0659 15.572 16.1687C15.6135 16.2716 15.6337 16.3818 15.6315 16.4926V16.4926ZM12.8756 17.018C12.9585 17.094 13.0248 17.1865 13.07 17.2896C13.1152 17.3926 13.1385 17.504 13.1382 17.6165V19.4639H11.4761V17.9567L9.77515 16.2558C9.69652 16.1802 9.63363 16.0899 9.59008 15.9899C9.54654 15.8899 9.5232 15.7823 9.52142 15.6732C9.51964 15.5642 9.53945 15.4559 9.5797 15.3545C9.61996 15.2532 9.67987 15.1608 9.75598 15.0827C9.83209 15.0046 9.9229 14.9423 10.0232 14.8995C10.1235 14.8566 10.2312 14.834 10.3403 14.833C10.4493 14.832 10.5575 14.8525 10.6586 14.8935C10.7596 14.9344 10.8516 14.995 10.9292 15.0716L12.8756 17.018ZM9.80529 17.75C9.96966 17.7457 10.1316 17.7906 10.2703 17.8788C10.4091 17.967 10.5184 18.0946 10.5843 18.2452C10.6502 18.3959 10.6697 18.5627 10.6402 18.7245C10.6108 18.8863 10.5338 19.0356 10.4191 19.1534C10.3044 19.2712 10.1571 19.3521 9.9962 19.3858C9.83526 19.4195 9.66793 19.4044 9.5156 19.3425C9.36327 19.2806 9.23285 19.1747 9.14102 19.0383C9.04918 18.9019 9.0001 18.7412 9.00004 18.5768C9.00004 18.3583 9.08656 18.1486 9.24068 17.9937C9.3948 17.8388 9.60399 17.7512 9.82251 17.75H9.80529ZM9.80529 20.226C9.96929 20.2218 10.1309 20.2664 10.2694 20.3542C10.408 20.4421 10.5173 20.5692 10.5834 20.7193C10.6495 20.8694 10.6695 21.0358 10.6408 21.1974C10.612 21.3589 10.5359 21.5082 10.422 21.6263C10.3082 21.7444 10.1618 21.826 10.0014 21.8607C9.84104 21.8953 9.674 21.8815 9.52154 21.8209C9.36907 21.7603 9.23807 21.6558 9.1452 21.5205C9.05234 21.3853 9.00181 21.2255 9.00004 21.0614C8.99891 20.9525 9.01931 20.8444 9.06008 20.7434C9.10085 20.6424 9.16119 20.5504 9.23762 20.4728C9.31405 20.3951 9.40507 20.3334 9.50544 20.291C9.60582 20.2487 9.71357 20.2266 9.82251 20.226H9.80529ZM11.4588 21.7849V20.2777H13.1382V22.125C13.1361 22.2347 13.1117 22.3427 13.0666 22.4427C13.0214 22.5426 12.9564 22.6323 12.8756 22.7064L10.9464 24.6355C10.822 24.7614 10.6618 24.8458 10.4877 24.8774C10.3136 24.909 10.1339 24.8862 9.97323 24.8121C9.85464 24.7553 9.75148 24.6708 9.67249 24.5656C9.59351 24.4605 9.54102 24.3379 9.51947 24.2082C9.49792 24.0785 9.50795 23.9455 9.54871 23.8205C9.58947 23.6955 9.65976 23.5822 9.75362 23.4901L11.4588 21.7849ZM15.8898 24.1274C15.9665 24.0499 16.0576 23.9883 16.1581 23.9462C16.2587 23.9041 16.3665 23.8822 16.4755 23.8819H23.1069C23.2166 23.8817 23.3252 23.9032 23.4265 23.9454C23.5278 23.9875 23.6197 24.0494 23.6968 24.1274L28.6532 29.0923C28.8108 29.2465 28.9007 29.457 28.9031 29.6775C28.9055 29.8979 28.8203 30.1103 28.6661 30.2679C28.5119 30.4255 28.3014 30.5154 28.081 30.5178C27.8605 30.5203 27.6481 30.435 27.4905 30.2808L22.7538 25.5441H16.8156L14.0124 28.3474C13.8881 28.4749 13.7274 28.5607 13.5524 28.5931C13.3773 28.6255 13.1965 28.6028 13.0349 28.5282C12.9172 28.4688 12.8152 28.3822 12.7373 28.2758C12.6595 28.1693 12.6079 28.0459 12.5869 27.9157C12.5659 27.7855 12.5761 27.6521 12.6165 27.5266C12.6569 27.401 12.7265 27.2868 12.8196 27.1933L15.8898 24.1274ZM17.0697 26.6206C17.2283 26.4678 17.4394 26.3815 17.6596 26.3795H19.5199V28.0417H17.9998L16.3204 29.7426C16.2444 29.8209 16.1536 29.8835 16.0534 29.9267C15.9532 29.97 15.8454 29.9931 15.7362 29.9947C15.6271 29.9963 15.5187 29.9763 15.4172 29.936C15.3157 29.8957 15.2232 29.8359 15.1449 29.7598C15.0666 29.6837 15.004 29.593 14.9607 29.4928C14.9175 29.3925 14.8944 29.2847 14.8928 29.1756C14.8912 29.0664 14.9111 28.958 14.9514 28.8565C14.9917 28.7551 15.0516 28.6625 15.1277 28.5842L17.0697 26.6206ZM18.5639 28.9718C18.7276 28.9709 18.8879 29.0187 19.0244 29.109C19.161 29.1993 19.2676 29.3282 19.3308 29.4792C19.3941 29.6302 19.4111 29.7965 19.3796 29.9572C19.3482 30.1179 19.2698 30.2656 19.1544 30.3816C19.0389 30.4977 18.8916 30.5769 18.7311 30.6091C18.5706 30.6414 18.4042 30.6252 18.2528 30.5628C18.1015 30.5003 17.9721 30.3944 17.8811 30.2583C17.7901 30.1223 17.7415 29.9623 17.7415 29.7986C17.7415 29.5808 17.8274 29.3718 17.9806 29.217C18.1338 29.0622 18.3418 28.974 18.5596 28.9718H18.5639ZM22.2112 26.3881C22.4315 26.3901 22.6426 26.4764 22.8012 26.6292L24.7475 28.5799C24.9057 28.7341 24.9961 28.9448 24.999 29.1657C25.0018 29.3865 24.9168 29.5995 24.7626 29.7576C24.6084 29.9158 24.3977 30.0063 24.1768 30.0091C23.956 30.0119 23.743 29.9269 23.5849 29.7727L21.8624 28.0503H20.3467V26.3795H22.2069L22.2112 26.3881ZM21.0356 28.9718C21.1986 28.9743 21.3572 29.025 21.4914 29.1173C21.6257 29.2097 21.7296 29.3397 21.7902 29.491C21.8508 29.6423 21.8654 29.8081 21.832 29.9676C21.7987 30.1271 21.7189 30.2732 21.6028 30.3876C21.4867 30.5019 21.3393 30.5794 21.1793 30.6103C21.0193 30.6411 20.8537 30.624 20.7034 30.5611C20.5531 30.4981 20.4247 30.3922 20.3344 30.2565C20.2442 30.1208 20.196 29.9615 20.196 29.7986C20.1959 29.6892 20.2176 29.581 20.2597 29.4802C20.3018 29.3793 20.3635 29.2878 20.4411 29.2109C20.5188 29.134 20.611 29.0733 20.7123 29.0322C20.8136 28.9912 20.922 28.9706 21.0313 28.9718H21.0356Z" fill="white"/>
</svg>
