<svg width="83" height="31" viewBox="0 0 83 31" fill="none" xmlns="http://www.w3.org/2000/svg">
<path d="M15.6987 24H11.0229L6.76758 18.4014H5.39355V24H1.5791V8.73193H7.72119C8.56885 8.73193 9.30713 8.78662 9.93604 8.896C10.5649 8.99854 11.146 9.21729 11.6792 9.55225C12.2261 9.90088 12.6602 10.3452 12.9814 10.8853C13.3027 11.4185 13.4634 12.0986 13.4634 12.9258C13.4634 14.0947 13.2002 15.0449 12.6738 15.7764C12.1475 16.501 11.4434 17.0786 10.5615 17.5093L15.6987 24ZM9.52588 13.4077C9.52588 13.0249 9.45068 12.6968 9.30029 12.4233C9.15674 12.1431 8.91406 11.9277 8.57227 11.7773C8.33301 11.6748 8.06641 11.6099 7.77246 11.5825C7.47852 11.5552 7.11279 11.5415 6.67529 11.5415H5.39355V15.6533H6.49072C7.02393 15.6533 7.4751 15.6226 7.84424 15.561C8.22021 15.4927 8.53809 15.3525 8.79785 15.1406C9.04395 14.9492 9.2251 14.7202 9.34131 14.4536C9.46436 14.187 9.52588 13.8384 9.52588 13.4077ZM15.1963 24L20.354 8.73193H24.5376L29.6953 24H25.7476L24.7939 20.8828H19.9951L19.0415 24H15.1963ZM23.9531 18.1143L22.3945 13.0796L20.8359 18.1143H23.9531ZM34.1455 24V11.644H29.6338V8.73193H42.4922V11.644H37.9805V24H34.1455ZM44.0713 24V8.73193H54.397V11.644H47.8857V14.3203H53.8843V17.2324H47.8857V21.0879H54.397V24H44.0713ZM56.9912 24V8.73193H67.3169V11.644H60.8057V14.3203H66.8042V17.2324H60.8057V21.0879H67.3169V24H56.9912ZM82.8311 24H78.3809L75.4482 19.1294L72.4541 24H68.209L73.1616 16.3096L68.4038 8.73193H72.8438L75.5918 13.3359L78.4116 8.73193H82.667L77.8784 16.1558L82.8311 24Z" fill="white"/>
</svg>
