<svg width="40" height="40" viewBox="0 0 40 40" fill="none" xmlns="http://www.w3.org/2000/svg">
<path d="M21.0148 0.998414L38.0153 8.55399C38.9182 8.95524 39.5 9.85055 39.5 10.8385V29.1615C39.5 30.1495 38.9182 31.0448 38.0153 31.446L21.0148 39.0016C20.3684 39.2889 19.6305 39.2889 18.9841 39.0016L1.98463 31.446C1.08182 31.0448 0.5 30.1495 0.5 29.1615V10.8385C0.5 9.85052 1.08182 8.95523 1.98463 8.55397L18.9841 0.998434C19.6305 0.711133 20.3684 0.711125 21.0148 0.998414Z" fill="#171C1F" stroke="#54ADFF"/>
<path d="M19.3046 27.474L13 32.0006L17.0024 13.5827L19.3046 27.474ZM19.4321 27.4315L23.2715 27.4811L17.1511 13.6535L19.4321 27.4315ZM23.6328 27.1269L26.5726 16.232L25.4604 14.8719L23.6328 27.1269ZM22.216 10.0479L17.3778 13.3064L24.4474 11.0183L22.216 10.0479ZM21.6068 10.0479L18.6033 10.147L18.1641 11.4009L21.6068 10.0479Z" fill="#384182"/>
<path d="M25.2485 14.453L17.5059 13.3904L24.4834 11.1944L25.2485 14.453ZM23.4138 10.3585L23.8388 9.20388L21.6074 8.2334L23.4138 10.3585ZM24.0584 9.09054L24.5613 10.904L27.5365 10.1177L24.0584 9.09054Z" fill="#F79534"/>
<path d="M23.4418 27.4097L17.2363 13.5254L25.326 14.6588L23.4418 27.4097ZM21.9825 10.0472L18.1572 11.5419L17.2363 13.242L21.9825 10.0472ZM19.6094 8.91381L18.6531 9.9693L21.8266 9.89138L19.6094 8.91381ZM21.2812 8.09209L19.7653 8.79339L23.2222 10.3164L21.2812 8.09209ZM23.0096 8H21.3804L23.9022 8.97757L23.0096 8ZM23.9518 9.29634L23.5622 10.4581L24.3414 10.8335L23.9518 9.29634Z" fill="#F0513A"/>
</svg>
