<svg width="40" height="40" viewBox="0 0 40 40" fill="none" xmlns="http://www.w3.org/2000/svg">
<path d="M21.0148 0.998414L38.0153 8.55399C38.9182 8.95524 39.5 9.85055 39.5 10.8385V29.1615C39.5 30.1495 38.9182 31.0448 38.0153 31.446L21.0148 39.0016C20.3684 39.2889 19.6305 39.2889 18.9841 39.0016L1.98463 31.446C1.08182 31.0448 0.5 30.1495 0.5 29.1615V10.8385C0.5 9.85052 1.08182 8.95523 1.98463 8.55397L18.9841 0.998434C19.6305 0.711133 20.3684 0.711125 21.0148 0.998414Z" fill="#171C1F" stroke="#54ADFF"/>
<path d="M10.4 27.26C9.84 27.26 9.56 26.9533 9.56 26.34V15.06C9.56 14.3933 9.82667 14.06 10.36 14.06H14.18C15.9 14.06 17.14 14.31 17.9 14.81C18.66 15.31 19.04 16.1267 19.04 17.26C19.04 18.36 18.7067 19.2067 18.04 19.8C17.38 20.3867 16.4133 20.68 15.14 20.68H11.24V26.34C11.24 26.9533 10.96 27.26 10.4 27.26ZM11.24 19H14.18C14.9133 19 15.5133 18.97 15.98 18.91C16.4533 18.85 16.8 18.7033 17.02 18.47C17.2467 18.23 17.36 17.8467 17.36 17.32C17.36 16.8933 17.27 16.5667 17.09 16.34C16.9167 16.1133 16.6 15.9567 16.14 15.87C15.68 15.7833 15.0267 15.74 14.18 15.74H11.24V19ZM26.0816 27.12C24.7949 27.12 23.7749 27 23.0216 26.76C22.2682 26.52 21.7249 26.1233 21.3916 25.57C21.0649 25.0167 20.9016 24.2667 20.9016 23.32V17.96C20.9016 17.0267 21.0582 16.2833 21.3716 15.73C21.6849 15.1767 22.1949 14.7767 22.9016 14.53C23.6082 14.2833 24.5482 14.16 25.7216 14.16H28.9016C29.4282 14.16 29.8616 14.2533 30.2016 14.44C30.5482 14.62 30.8049 14.8833 30.9716 15.23C31.1382 15.5767 31.2216 15.9933 31.2216 16.48C31.2216 17.32 30.9416 17.74 30.3816 17.74C30.0816 17.74 29.8716 17.6467 29.7516 17.46C29.6316 17.2667 29.5616 17.0067 29.5416 16.68C29.5216 16.3667 29.4749 16.15 29.4016 16.03C29.3349 15.9033 29.1216 15.84 28.7616 15.84H25.7216C24.8416 15.84 24.1749 15.8933 23.7216 16C23.2749 16.1067 22.9716 16.3167 22.8116 16.63C22.6582 16.9367 22.5816 17.3933 22.5816 18V23.28C22.5816 23.8933 22.6649 24.3567 22.8316 24.67C22.9982 24.9767 23.3316 25.1833 23.8316 25.29C24.3316 25.39 25.0816 25.44 26.0816 25.44H28.7616C29.1216 25.44 29.3349 25.3767 29.4016 25.25C29.4749 25.1233 29.5216 24.9067 29.5416 24.6C29.5749 24.22 29.6549 23.95 29.7816 23.79C29.9149 23.6233 30.1149 23.54 30.3816 23.54C30.6749 23.5467 30.8882 23.6533 31.0216 23.86C31.1549 24.06 31.2216 24.38 31.2216 24.82C31.2216 25.3067 31.1382 25.7233 30.9716 26.07C30.8049 26.41 30.5482 26.67 30.2016 26.85C29.8616 27.03 29.4282 27.12 28.9016 27.12H26.0816Z" fill="#54ADFF"/>
</svg>
