<svg width="40" height="40" viewBox="0 0 40 40" fill="none" xmlns="http://www.w3.org/2000/svg">
<path d="M21.0148 0.998414L38.0153 8.55399C38.9182 8.95524 39.5 9.85055 39.5 10.8385V29.1615C39.5 30.1495 38.9182 31.0448 38.0153 31.446L21.0148 39.0016C20.3684 39.2889 19.6305 39.2889 18.9841 39.0016L1.98463 31.446C1.08182 31.0448 0.5 30.1495 0.5 29.1615V10.8385C0.5 9.85052 1.08182 8.95523 1.98463 8.55397L18.9841 0.998434C19.6305 0.711133 20.3684 0.711125 21.0148 0.998414Z" fill="#171C1F" stroke="#54ADFF"/>
<path d="M18.564 28C17.196 28 16.128 27.724 15.36 27.172C14.6 26.62 14.124 25.768 13.932 24.616C13.9 24.264 13.972 24 14.148 23.824C14.324 23.648 14.58 23.56 14.916 23.56C15.252 23.56 15.496 23.64 15.648 23.8C15.808 23.96 15.916 24.208 15.972 24.544C16.092 25.096 16.348 25.476 16.74 25.684C17.14 25.884 17.748 25.984 18.564 25.984H22.02C23.052 25.984 23.752 25.8 24.12 25.432C24.496 25.056 24.684 24.36 24.684 23.344C24.684 22.312 24.492 21.608 24.108 21.232C23.724 20.848 23.028 20.656 22.02 20.656H19.044C17.532 20.656 16.408 20.288 15.672 19.552C14.944 18.808 14.58 17.68 14.58 16.168C14.58 14.664 14.94 13.548 15.66 12.82C16.388 12.092 17.508 11.728 19.02 11.728H21.876C23.148 11.728 24.144 11.988 24.864 12.508C25.592 13.028 26.052 13.824 26.244 14.896C26.292 15.24 26.228 15.504 26.052 15.688C25.876 15.864 25.612 15.952 25.26 15.952C24.94 15.952 24.7 15.868 24.54 15.7C24.38 15.532 24.276 15.288 24.228 14.968C24.1 14.496 23.856 14.176 23.496 14.008C23.136 13.832 22.596 13.744 21.876 13.744H19.02C18.06 13.744 17.416 13.916 17.088 14.26C16.76 14.596 16.596 15.232 16.596 16.168C16.596 17.112 16.764 17.76 17.1 18.112C17.436 18.464 18.084 18.64 19.044 18.64H22.02C23.596 18.64 24.768 19.024 25.536 19.792C26.312 20.56 26.7 21.744 26.7 23.344C26.7 24.936 26.316 26.112 25.548 26.872C24.78 27.624 23.604 28 22.02 28H18.564Z" fill="#54ADFF"/>
</svg>
