<svg width="40" height="40" viewBox="0 0 40 40" fill="none" xmlns="http://www.w3.org/2000/svg">
<path d="M21.0148 0.998414L38.0153 8.55399C38.9182 8.95524 39.5 9.85055 39.5 10.8385V29.1615C39.5 30.1495 38.9182 31.0448 38.0153 31.446L21.0148 39.0016C20.3684 39.2889 19.6305 39.2889 18.9841 39.0016L1.98463 31.446C1.08182 31.0448 0.5 30.1495 0.5 29.1615V10.8385C0.5 9.85052 1.08182 8.95523 1.98463 8.55397L18.9841 0.998434C19.6305 0.711133 20.3684 0.711125 21.0148 0.998414Z" fill="#171C1F" stroke="#54ADFF"/>
<path d="M10.184 25.096C9.15467 25.096 8.33867 25 7.736 24.808C7.13333 24.616 6.69867 24.2987 6.432 23.856C6.17067 23.4133 6.04 22.8133 6.04 22.056V17.768C6.04 17.0213 6.16533 16.4267 6.416 15.984C6.66667 15.5413 7.07467 15.2213 7.64 15.024C8.20533 14.8267 8.95733 14.728 9.896 14.728H12.44C12.8613 14.728 13.208 14.8027 13.48 14.952C13.7573 15.096 13.9627 15.3067 14.096 15.584C14.2293 15.8613 14.296 16.1947 14.296 16.584C14.296 17.256 14.072 17.592 13.624 17.592C13.384 17.592 13.216 17.5173 13.12 17.368C13.024 17.2133 12.968 17.0053 12.952 16.744C12.936 16.4933 12.8987 16.32 12.84 16.224C12.7867 16.1227 12.616 16.072 12.328 16.072H9.896C9.192 16.072 8.65867 16.1147 8.296 16.2C7.93867 16.2853 7.696 16.4533 7.568 16.704C7.44533 16.9493 7.384 17.3147 7.384 17.8V22.024C7.384 22.5147 7.45067 22.8853 7.584 23.136C7.71733 23.3813 7.984 23.5467 8.384 23.632C8.784 23.712 9.384 23.752 10.184 23.752H12.328C12.616 23.752 12.7867 23.7013 12.84 23.6C12.8987 23.4987 12.936 23.3253 12.952 23.08C12.9787 22.776 13.0427 22.56 13.144 22.432C13.2507 22.2987 13.4107 22.232 13.624 22.232C13.8587 22.2373 14.0293 22.3227 14.136 22.488C14.2427 22.648 14.296 22.904 14.296 23.256C14.296 23.6453 14.2293 23.9787 14.096 24.256C13.9627 24.528 13.7573 24.736 13.48 24.88C13.208 25.024 12.8613 25.096 12.44 25.096H10.184ZM16.3578 14.728H22.5978C23.1418 14.728 23.4138 14.952 23.4138 15.4C23.4138 15.848 23.1418 16.072 22.5978 16.072H17.7018V17.288H20.0538C20.8004 17.288 21.4644 17.4613 22.0458 17.808C22.6324 18.1493 23.0938 18.6187 23.4298 19.216C23.7711 19.8133 23.9418 20.4933 23.9418 21.256C23.9418 22.0133 23.7738 22.6907 23.4378 23.288C23.1018 23.88 22.6404 24.3493 22.0538 24.696C21.4671 25.0373 20.8004 25.208 20.0538 25.208H16.9978C16.5711 25.208 16.3578 24.9467 16.3578 24.424V14.728ZM20.0538 18.632H17.7018V23.864H20.0538C20.5658 23.864 21.0111 23.7573 21.3898 23.544C21.7738 23.3253 22.0698 23.0213 22.2778 22.632C22.4911 22.2373 22.5978 21.7787 22.5978 21.256C22.5978 20.728 22.4911 20.2693 22.2778 19.88C22.0698 19.4853 21.7738 19.1787 21.3898 18.96C21.0111 18.7413 20.5658 18.632 20.0538 18.632ZM26.561 25.208C26.113 25.208 25.889 24.952 25.889 24.44V14.728H33.985V24.44C33.985 24.952 33.761 25.208 33.313 25.208C32.865 25.208 32.641 24.952 32.641 24.44V16.072H27.233V24.44C27.233 24.952 27.009 25.208 26.561 25.208Z" fill="url(#paint0_linear_4584_61500)"/>
<defs>
<linearGradient id="paint0_linear_4584_61500" x1="33.0937" y1="12.7941" x2="5.10121" y2="24.7052" gradientUnits="userSpaceOnUse">
<stop stop-color="#D90751"/>
<stop offset="0.132797" stop-color="#ED6F26"/>
<stop offset="0.25083" stop-color="#FAB718"/>
<stop offset="0.40625" stop-color="#63B22F"/>
<stop offset="0.546875" stop-color="#017F36"/>
<stop offset="0.73643" stop-color="#1487C9"/>
<stop offset="0.851295" stop-color="#5B57A2"/>
<stop offset="1" stop-color="#984995"/>
</linearGradient>
</defs>
</svg>
