<svg width="33" height="33" viewBox="0 0 33 33" fill="none" xmlns="http://www.w3.org/2000/svg">
<path d="M14.4948 4.54393e-07C14.3247 9.05223e-05 14.1602 0.0605742 14.0306 0.170667C13.901 0.280759 13.8147 0.433302 13.7871 0.601096L13.0893 4.87322C12.2502 5.11729 11.45 5.44663 10.6959 5.85683L7.17032 3.33895C7.03229 3.24039 6.8638 3.19392 6.69475 3.20777C6.5257 3.22162 6.36703 3.2949 6.24688 3.41461L3.45554 6.20291C3.33626 6.32227 3.26286 6.47985 3.24826 6.64795C3.23365 6.81606 3.27876 6.98393 3.37567 7.12207L5.85592 10.6698C5.43937 11.4282 5.10271 12.2328 4.85261 13.0798L0.598345 13.7874C0.43105 13.8155 0.279152 13.9021 0.169613 14.0316C0.0600736 14.1612 -1.92254e-05 14.3253 1.1823e-06 14.4949V18.4406C-0.000304819 18.6092 0.0587969 18.7726 0.166933 18.902C0.275069 19.0314 0.425329 19.1185 0.591339 19.1482L4.84841 19.902C5.09715 20.7475 5.43167 21.5526 5.84892 22.312L3.33784 25.8247C3.23927 25.9627 3.19279 26.1312 3.20664 26.3002C3.22049 26.4692 3.29378 26.6279 3.4135 26.748L6.20344 29.5391C6.32255 29.6583 6.47978 29.7317 6.64759 29.7466C6.8154 29.7614 6.98309 29.7168 7.12127 29.6204L10.6763 27.132C11.4326 27.5446 12.2347 27.8763 13.0767 28.1226L13.7871 32.4003C13.815 32.5678 13.9014 32.7201 14.031 32.8299C14.1606 32.9397 14.3249 33 14.4948 33H18.4408C18.6096 33.0002 18.7731 32.941 18.9026 32.8325C19.032 32.7241 19.119 32.5736 19.1484 32.4073L19.9093 28.1128C20.7478 27.8628 21.5461 27.5261 22.2985 27.1109L25.8773 29.6218C26.0155 29.7187 26.1834 29.7638 26.3515 29.7492C26.5196 29.7346 26.6772 29.6612 26.7966 29.542L29.5865 26.7494C29.7067 26.629 29.7802 26.4697 29.7938 26.3C29.8074 26.1304 29.7603 25.9614 29.6608 25.8233L27.109 22.2812C27.517 21.5325 27.8457 20.739 28.0899 19.9062L32.4073 19.1496C32.5735 19.1202 32.7241 19.0332 32.8325 18.9038C32.9409 18.7743 33.0002 18.6108 33 18.442V14.4963C32.9999 14.3263 32.9394 14.1618 32.8293 14.0322C32.7192 13.9026 32.5667 13.8163 32.3989 13.7888L28.0885 13.084C27.8427 12.2522 27.5131 11.4601 27.1048 10.7118L29.6215 7.12627C29.7184 6.98813 29.7635 6.82026 29.7489 6.65216C29.7343 6.48405 29.6609 6.32647 29.5417 6.20712L26.7503 3.41742C26.6298 3.29719 26.4705 3.22372 26.3008 3.21011C26.1312 3.19651 25.9622 3.24367 25.8241 3.34316L22.2915 5.88345C21.5388 5.46997 20.7399 5.13508 19.8995 4.88723L19.1484 0.59409C19.1193 0.42758 19.0324 0.276678 18.9029 0.167991C18.7735 0.0593036 18.6098 -0.000189694 18.4408 4.54393e-07H14.4948ZM15.1057 1.43478H17.8382L18.5529 5.51355C18.5766 5.65034 18.6396 5.7773 18.7341 5.87903C18.8286 5.98075 18.9507 6.05286 19.0854 6.08662C20.1346 6.34808 21.1201 6.76252 22.0196 7.30702C22.1399 7.37988 22.2789 7.41581 22.4194 7.41033C22.5599 7.40485 22.6957 7.3582 22.8099 7.2762L26.1674 4.86341L28.0997 6.7956L25.7092 10.2018C25.6293 10.3154 25.5842 10.4498 25.5792 10.5886C25.5742 10.7274 25.6096 10.8646 25.6811 10.9837C26.2203 11.8811 26.6292 12.8602 26.8904 13.9037C26.9245 14.0396 26.9975 14.1625 27.1006 14.2574C27.2037 14.3523 27.3323 14.4149 27.4706 14.4375L31.5651 15.1073V17.8395L27.4622 18.5597C27.3253 18.5839 27.1983 18.6474 27.0968 18.7424C26.9953 18.8375 26.9236 18.9599 26.8904 19.0949C26.6322 20.137 26.2231 21.1162 25.6839 22.0135C25.6116 22.1338 25.5761 22.2726 25.5818 22.4128C25.5875 22.553 25.6342 22.6885 25.7162 22.8024L28.1404 26.1666L26.208 28.1002L22.8071 25.714C22.6929 25.634 22.5579 25.589 22.4185 25.5845C22.2792 25.5801 22.1415 25.6163 22.0224 25.6888C21.1274 26.2333 20.1409 26.6497 19.0952 26.9148C18.9611 26.9486 18.8397 27.0204 18.7454 27.1215C18.6512 27.2227 18.5882 27.3489 18.5641 27.4851L17.8396 31.5652H15.1029L14.4275 27.5033C14.4045 27.3651 14.3416 27.2367 14.2465 27.1338C14.1513 27.031 14.0282 26.9583 13.8922 26.9246C12.8423 26.6658 11.8524 26.252 10.9468 25.7084C10.8278 25.6372 10.6909 25.6019 10.5524 25.6069C10.4138 25.6119 10.2797 25.6569 10.1662 25.7364L6.79198 28.1002L4.85822 26.1638L7.24319 22.8304C7.32469 22.7162 7.37092 22.5806 7.37615 22.4404C7.38138 22.3002 7.34538 22.1615 7.27261 22.0416C6.72303 21.1335 6.30739 20.1438 6.0451 19.0893C6.01154 18.955 5.93984 18.8333 5.83864 18.7388C5.73745 18.6444 5.61108 18.5812 5.47478 18.5569L1.43491 17.8395V15.103L5.47198 14.4319C5.60998 14.409 5.73829 14.3463 5.84111 14.2514C5.94393 14.1566 6.01678 14.0338 6.0507 13.8981C6.31525 12.84 6.73069 11.8504 7.27822 10.9444C7.35042 10.8255 7.38648 10.6881 7.382 10.5491C7.37752 10.41 7.3327 10.2752 7.253 10.1612L4.89605 6.7928L6.83121 4.85921L10.1761 7.24958C10.2898 7.33071 10.4249 7.37685 10.5645 7.38232C10.7042 7.3878 10.8424 7.35238 10.9622 7.2804C11.863 6.73939 12.8552 6.32888 13.9062 6.07121C14.0429 6.03757 14.1666 5.96452 14.262 5.86113C14.3574 5.75774 14.4203 5.62859 14.4429 5.48973L15.1057 1.43478ZM16.5 10.7609C13.3386 10.7609 10.7604 13.3389 10.7604 16.5C10.7604 19.6611 13.3386 22.2391 16.5 22.2391C19.6614 22.2391 22.2396 19.6611 22.2396 16.5C22.2396 13.3389 19.6614 10.7609 16.5 10.7609ZM16.5 12.1957C18.8859 12.1957 20.8047 14.1143 20.8047 16.5C20.8047 18.8857 18.8859 20.8043 16.5 20.8043C14.1141 20.8043 12.1953 18.8857 12.1953 16.5C12.1953 14.1143 14.1141 12.1957 16.5 12.1957Z" fill="white"/>
</svg>
