<svg width="40" height="40" viewBox="0 0 40 40" fill="none" xmlns="http://www.w3.org/2000/svg">
<path d="M21.0148 0.998414L38.0153 8.55399C38.9182 8.95524 39.5 9.85055 39.5 10.8385V29.1615C39.5 30.1495 38.9182 31.0448 38.0153 31.446L21.0148 39.0016C20.3684 39.2889 19.6305 39.2889 18.9841 39.0016L1.98463 31.446C1.08182 31.0448 0.5 30.1495 0.5 29.1615V10.8385C0.5 9.85052 1.08182 8.95523 1.98463 8.55397L18.9841 0.998434C19.6305 0.711133 20.3684 0.711125 21.0148 0.998414Z" fill="#171C1F" stroke="#54ADFF"/>
<path d="M25.3695 10.1137C24.752 10.7312 24.1863 11.4004 23.6835 12.1141L23.5245 12.0623C22.6075 11.7628 21.6572 11.5779 20.6996 11.5151C20.4112 11.4929 19.3352 11.4929 18.9839 11.5151C17.9227 11.5853 17.1093 11.7443 16.1849 12.066C16.1479 12.0808 16.1146 12.0919 16.0814 12.103C15.56 11.393 14.9795 10.7275 14.3398 10.1174C17.4088 8.54596 20.9991 8.35739 24.2122 9.59605C24.5561 9.72547 24.8925 9.87706 25.2216 10.0398L25.3695 10.1137Z" fill="#F00500"/>
<path d="M31.0921 24.1394C30.6262 25.4668 29.9274 26.6981 29.0215 27.7704C28.5297 28.3472 27.9862 28.8759 27.402 29.3566C26.0339 30.4585 24.4366 31.246 22.732 31.6601C20.8463 32.1149 18.8792 32.1149 16.9935 31.6601C15.2852 31.246 13.6916 30.4585 12.3235 29.3566C11.7393 28.8759 11.1958 28.3472 10.704 27.7704C8.09725 24.6903 7.30598 20.4604 8.63339 16.6482C8.88482 15.942 9.19911 15.2617 9.57626 14.6146C9.75004 14.3188 9.9645 13.986 10.068 13.8492C10.423 15.3763 10.8593 16.7185 11.022 17.2029C11.0109 17.2287 10.9961 17.2583 10.9813 17.2842C10.1198 19.0294 9.65391 20.7118 9.54298 22.5014C9.54298 22.5236 9.53928 22.5495 9.53928 22.5717C9.5097 23.1078 9.52449 23.3629 9.61323 23.6994C9.89055 24.7532 10.7447 25.9142 12.0832 27.053C14.2758 28.9166 17.2486 30.2625 19.5004 30.4178C21.8483 30.5768 25.3129 29.205 27.6201 27.2009C27.9825 26.8793 28.3227 26.5391 28.6406 26.1767C28.8699 25.9105 29.2101 25.452 29.1842 25.452C29.1768 25.452 29.1842 25.4446 29.199 25.4372C29.2101 25.4298 29.2212 25.4187 29.2138 25.4113C29.2101 25.4077 29.2175 25.3966 29.2285 25.3929C29.2396 25.3892 29.247 25.3818 29.2433 25.3744C29.2396 25.367 29.2433 25.3596 29.2581 25.3559C29.2692 25.3522 29.2729 25.3411 29.2692 25.3337C29.2655 25.3263 29.2692 25.3189 29.2766 25.3189C29.284 25.3189 29.2914 25.3078 29.2914 25.3004C29.2914 25.293 29.2988 25.2819 29.3062 25.2819C29.3136 25.2819 29.321 25.2745 29.321 25.2671C29.3321 25.2376 29.3506 25.208 29.3691 25.1821C29.4245 25.0971 29.6464 24.7014 29.6759 24.6349C29.8867 24.1579 30.0198 23.7327 30.0827 23.3075C30.1123 23.1041 30.1307 22.7307 30.116 22.6419C30.1123 22.6271 30.1123 22.6012 30.1086 22.5606C30.1012 22.4866 30.0975 22.3757 30.0901 22.2648C30.0827 22.0984 30.0679 21.8654 30.0568 21.7508C29.8978 20.0721 29.4689 18.7004 28.6554 17.2472C28.6222 17.1918 28.5926 17.1363 28.5741 17.0919C28.5667 17.0808 28.563 17.0698 28.5593 17.0624C28.6739 16.7185 29.1435 15.2802 29.517 13.6348L29.5243 13.6422L29.5798 13.7161C29.6759 13.8455 29.9311 14.2301 30.0457 14.4149C30.567 15.2654 30.9738 16.1787 31.2622 17.1326C31.9314 19.4288 31.876 21.8765 31.0921 24.1394Z" fill="#F00500"/>
<path d="M26.2921 19.7199C26.281 19.7791 26.1072 19.9566 25.9335 20.086C25.4232 20.4594 24.5099 20.807 23.5818 20.9734C23.0531 21.0695 22.5243 21.0843 22.3654 21.0067C22.2618 20.9549 22.247 20.9142 22.284 20.7811C22.3617 20.5038 22.6131 20.2006 23.005 19.9159C23.2047 19.7717 24.0144 19.2799 24.3916 19.0729C25.0128 18.7327 25.5156 18.5293 25.8558 18.4813C25.963 18.4665 26.0924 18.4628 26.1331 18.4813C26.1997 18.5071 26.2736 18.7031 26.3032 18.9398C26.318 19.0655 26.3106 19.6201 26.2921 19.7199Z" fill="black"/>
<path d="M17.5812 20.9425C17.559 20.9869 17.4481 21.035 17.3224 21.0534C17.1967 21.0719 16.8121 21.0608 16.594 21.035C15.8101 20.9314 14.9782 20.6911 14.3718 20.3953C14.0316 20.2289 13.7876 20.0625 13.6064 19.8813L13.5029 19.7741L13.4918 19.6336C13.4733 19.3896 13.477 19.005 13.5066 18.8682C13.525 18.7536 13.5657 18.6427 13.6212 18.5428C13.6508 18.5059 13.6508 18.5059 13.7839 18.5059C13.9466 18.5059 14.0834 18.5317 14.3052 18.602C14.76 18.7425 15.4367 19.0827 16.2612 19.5781C16.9416 19.9849 17.1967 20.1845 17.3926 20.4581C17.5258 20.6282 17.6145 20.8686 17.5812 20.9425Z" fill="black"/>
<path d="M22.8183 26.0911C22.8183 26.1022 22.7739 26.2797 22.7185 26.4904C22.663 26.7012 22.6186 26.8713 22.6186 26.8787C22.578 26.8824 22.541 26.8861 22.5003 26.8824H22.382L22.2193 27.2669C22.1306 27.4777 22.0492 27.6736 22.0381 27.7032L22.0159 27.755L21.9383 27.6293L21.8606 27.5036V26.4793L21.8311 26.4867C21.7682 26.5015 21.3208 26.5607 21.1248 26.5792C20.3151 26.6605 19.5016 26.642 18.6956 26.5274C18.5662 26.5089 18.4552 26.4941 18.4515 26.4978C18.4478 26.5015 18.4515 26.7382 18.4589 27.0303L18.47 27.5553L18.4072 27.6515C18.3739 27.7032 18.3406 27.7476 18.3406 27.7513C18.3295 27.7624 18.2925 27.7032 18.2075 27.5331C18.1151 27.3557 18.0485 27.1671 18.0004 26.9711L17.9745 26.8639L17.8599 26.8713L17.7453 26.8824L17.7157 26.7456C17.7009 26.6716 17.6824 26.557 17.6751 26.4941L17.664 26.3758L17.5678 26.2908C17.5124 26.2427 17.4569 26.1946 17.4458 26.1872C17.4273 26.1725 17.4199 26.1466 17.4199 26.1244V26.08L17.8821 26.0837L18.3443 26.0874L18.3591 26.1355L18.3739 26.1835L18.5329 26.1909C18.6216 26.1946 18.9026 26.202 19.1541 26.2094L19.6162 26.2205L19.7346 26.0356L19.8566 25.8508H20.0119L20.0082 25.4662L20.0045 25.0817L19.8011 24.9929C19.1467 24.7045 18.7621 24.3755 18.6179 23.9761C18.5883 23.8948 18.5883 23.8652 18.5809 23.4955C18.5772 23.1294 18.5772 23.0961 18.6031 23.0148C18.6549 22.8299 18.7991 22.6857 18.984 22.6376C19.0468 22.6191 19.2132 22.6191 20.0858 22.6191L21.1137 22.6228L21.2284 22.6783C21.3652 22.7449 21.428 22.7929 21.5057 22.8965C21.5944 23.0148 21.6203 23.1072 21.6203 23.3328C21.6203 23.6544 21.5981 23.9318 21.5648 24.0427C21.5168 24.1943 21.4428 24.3385 21.3504 24.4679C21.1655 24.7045 20.829 24.9412 20.5221 25.0484L20.4334 25.0817L20.4371 25.4699L20.4408 25.8582L20.5221 25.8656L20.6035 25.873L20.7144 26.0393L20.8216 26.2057H21.3171C21.5907 26.2057 21.8311 26.2094 21.8532 26.2131C21.8902 26.2205 21.8976 26.2168 21.9346 26.154L21.979 26.0874H22.4042C22.7222 26.0726 22.8183 26.08 22.8183 26.0911Z" fill="black"/>
<path d="M20.8663 27.1522C20.796 27.1929 20.7479 27.2113 20.7368 27.2039C20.7258 27.2002 20.674 27.1559 20.6185 27.1152L20.5187 27.0339L20.4152 27.1448C20.1896 27.3888 20.1822 27.3999 20.1157 27.4036C20.0121 27.4147 19.9899 27.3962 19.8642 27.2076C19.7977 27.1115 19.7459 27.0302 19.7459 27.0302C19.7459 27.0302 19.6978 27.0228 19.6424 27.0191L19.5389 27.008L19.4908 27.1078L19.4427 27.2076L19.3577 27.1818C19.2911 27.1596 19.2246 27.1337 19.1617 27.1041L19.0508 27.0486V26.8379L20.0343 26.8416L21.0179 26.8453L21.0216 26.9451C21.0253 27.0634 21.029 27.0597 20.8663 27.1522Z" fill="black"/>
<path d="M30.1105 22.6403C30.1068 22.6255 30.1068 22.5996 30.1031 22.5589C29.2157 22.4628 26.6829 22.4036 24.3312 24.3448C24.3312 24.3448 23.5733 20.8691 20.0236 20.8691C16.474 20.8691 15.1577 24.3448 15.1577 24.3448C13.1685 22.2039 10.5062 22.3592 9.54489 22.4997C9.54489 22.5219 9.54119 22.5478 9.54119 22.57C9.51161 23.1061 9.5264 23.3613 9.61514 23.6977C9.89245 24.7515 10.7466 25.9126 12.0851 27.0514C14.2777 28.9149 17.2505 30.2608 19.5023 30.4161C21.8502 30.5751 25.3148 29.2033 27.622 27.1993C27.9844 26.8776 28.3246 26.5374 28.6425 26.1751C28.8718 25.9089 29.212 25.4504 29.1861 25.4504C29.1787 25.4504 29.1861 25.443 29.2009 25.4356C29.212 25.4282 29.2231 25.4171 29.2157 25.4097C29.212 25.406 29.2194 25.3949 29.2305 25.3912C29.2415 25.3875 29.2489 25.3801 29.2452 25.3727C29.2415 25.3653 29.2452 25.3579 29.26 25.3542C29.2711 25.3505 29.2748 25.3394 29.2711 25.332C29.2674 25.3246 29.2711 25.3173 29.2785 25.3173C29.2859 25.3173 29.2933 25.3062 29.2933 25.2988C29.2933 25.2914 29.3007 25.2803 29.3081 25.2803C29.3155 25.2803 29.3229 25.2729 29.3229 25.2655C29.334 25.2359 29.3525 25.2063 29.371 25.1804C29.4264 25.0954 29.6483 24.6998 29.6779 24.6332C29.8886 24.1562 30.0217 23.731 30.0846 23.3058C30.1068 23.1024 30.1253 22.729 30.1105 22.6403ZM20.8667 27.1512C20.7964 27.1919 20.7484 27.2104 20.7373 27.203C20.7262 27.1993 20.6744 27.1549 20.6189 27.1142L20.5191 27.0329L20.4156 27.1438C20.19 27.3879 20.1826 27.399 20.1161 27.4026C20.0125 27.4137 19.9904 27.3953 19.8647 27.2067C19.7981 27.1105 19.7463 27.0292 19.7463 27.0292C19.7463 27.0292 19.6983 27.0218 19.6428 27.0181L19.5393 27.007L19.4912 27.1068L19.4431 27.2067L19.3581 27.1808C19.2915 27.1586 19.225 27.1327 19.1621 27.1031L19.0512 27.0477V26.8369L20.0347 26.8406L21.0183 26.8443L21.022 26.9442C21.0257 27.0625 21.0294 27.0588 20.8667 27.1512ZM22.7154 26.4857C22.66 26.6964 22.6156 26.8665 22.6156 26.8739C22.5749 26.8776 22.538 26.8813 22.4973 26.8776H22.379L22.22 27.2658C22.1312 27.4766 22.0499 27.6726 22.0388 27.7021L22.0166 27.7539L21.939 27.6282L21.8613 27.5025V26.4783L21.8317 26.4857C21.7689 26.5005 21.3215 26.5596 21.1255 26.5781C20.3157 26.6594 19.5023 26.641 18.6962 26.5263C18.5668 26.5079 18.4559 26.4931 18.4522 26.4968C18.4485 26.5005 18.4522 26.7371 18.4596 27.0292L18.4707 27.5542L18.4078 27.6504C18.3746 27.7021 18.3413 27.7465 18.3413 27.7502C18.3302 27.7613 18.2932 27.7021 18.2082 27.5321C18.1157 27.3546 18.0492 27.166 18.0011 26.97L17.9752 26.8628L17.8606 26.8702L17.746 26.8813L17.7164 26.7445C17.7016 26.6705 17.6831 26.5559 17.6757 26.4931L17.6646 26.3747L17.5685 26.2897C17.513 26.2416 17.4576 26.1936 17.4465 26.1862C17.428 26.1714 17.4206 26.1455 17.4206 26.1233V26.0789L17.8828 26.0826L18.345 26.0863L18.3598 26.1344L18.3746 26.1825L18.5335 26.1899C18.6223 26.1936 18.9033 26.201 19.1547 26.2084L19.6169 26.2194L19.7352 26.0346L19.8573 25.8497H20.0126L20.0089 25.4652L20.0052 25.0806L19.8018 24.9919C19.1473 24.7035 18.7628 24.3744 18.6186 23.9751C18.589 23.8937 18.589 23.8641 18.5816 23.4944C18.5779 23.1283 18.5779 23.095 18.6038 23.0137C18.6556 22.8288 18.7998 22.6846 18.9846 22.6366C19.0475 22.6181 19.2139 22.6181 20.0865 22.6181L21.1144 22.6218L21.229 22.6772C21.3658 22.7438 21.4287 22.7918 21.5063 22.8954C21.5951 23.0137 21.621 23.1061 21.621 23.3317C21.621 23.6534 21.5988 23.9307 21.5655 24.0416C21.5174 24.1932 21.4435 24.3374 21.3511 24.4668C21.1662 24.7035 20.8297 24.9401 20.5228 25.0473L20.4341 25.0806L20.4378 25.4688L20.4415 25.8571L20.5228 25.8645L20.6042 25.8719L20.7151 26.0383L20.8223 26.2047H21.3178C21.5914 26.2047 21.8317 26.2084 21.8539 26.212C21.8909 26.2194 21.8983 26.2157 21.9353 26.1529L21.9796 26.0863H22.4048C22.7339 26.0863 22.8301 26.09 22.8301 26.1011C22.819 26.0974 22.7709 26.2786 22.7154 26.4857Z" fill="white"/>
<path d="M30.0785 22.2627C30.0712 22.0963 30.0564 21.8634 30.0453 21.7487C29.8863 20.0701 29.4574 18.6983 28.6439 17.2452C28.6106 17.1897 28.5811 17.1342 28.5626 17.0899C28.5552 17.0788 28.5515 17.0677 28.5478 17.0603C28.6624 16.7164 29.132 15.2781 29.5054 13.6327C30.012 11.3994 30.3337 8.78895 29.3501 8.00508C29.3501 8.00508 27.6493 7.87937 25.3716 10.1127C24.7541 10.7301 24.1884 11.3994 23.6855 12.113L23.5266 12.0613C22.6096 11.7618 21.6593 11.5769 20.7017 11.514C20.4132 11.4918 19.3373 11.4918 18.986 11.514C17.9248 11.5843 17.1114 11.7433 16.187 12.065C16.15 12.0797 16.1167 12.0908 16.0835 12.1019C15.5621 11.392 14.9816 10.7265 14.3419 10.1164C11.9718 7.87197 10.2081 8.00138 10.2081 8.00138C9.16541 8.81114 9.52037 11.5399 10.0602 13.8472C10.4152 15.3742 10.8515 16.7164 11.0142 17.2008C11.0031 17.2267 10.9883 17.2563 10.9735 17.2821C10.112 19.0274 9.64608 20.7097 9.53516 22.4993C10.5002 22.3588 13.1587 22.1998 15.1517 24.3444C15.1517 24.3444 16.468 20.8687 20.0176 20.8687C23.5672 20.8687 24.3252 24.3444 24.3252 24.3444C26.6768 22.4032 29.2096 22.4661 30.097 22.5585C30.0933 22.4845 30.0859 22.3736 30.0785 22.2627ZM11.713 15.8068C11.713 15.8068 10.3301 12.3497 10.6851 10.3752C10.7442 10.0424 10.8552 9.75031 11.029 9.52846C11.029 9.52846 12.5967 9.68375 15.1258 12.4939C15.1258 12.4939 14.6451 12.7268 14.0018 13.2223C14.0018 13.2223 13.9981 13.226 13.9944 13.226C13.2955 13.7621 12.4007 14.6125 11.713 15.8068ZM17.5809 20.9427C17.5588 20.9871 17.4478 21.0351 17.3221 21.0536C17.1964 21.0721 16.8119 21.061 16.5937 21.0351C15.8098 20.9316 14.9779 20.6913 14.3715 20.3955C14.0313 20.2291 13.7873 20.0627 13.6061 19.8815L13.5026 19.7743L13.4915 19.6338C13.473 19.3897 13.4767 19.0052 13.5063 18.8684C13.5248 18.7538 13.5654 18.6428 13.6209 18.543C13.6505 18.506 13.6505 18.506 13.7836 18.506C13.9463 18.506 14.0831 18.5319 14.3049 18.6022C14.7597 18.7427 15.4364 19.0828 16.2609 19.5783C16.9413 19.985 17.1964 20.1847 17.3924 20.4583C17.5255 20.6284 17.6142 20.8687 17.5809 20.9427ZM26.2923 19.7188C26.2812 19.778 26.1074 19.9554 25.9336 20.0849C25.4234 20.4583 24.5101 20.8059 23.582 20.9723C23.0533 21.0684 22.5245 21.0832 22.3655 21.0055C22.262 20.9538 22.2472 20.9131 22.2842 20.78C22.3618 20.5027 22.6133 20.1995 23.0052 19.9148C23.2049 19.7706 24.0146 19.2788 24.3918 19.0717C25.013 18.7316 25.5158 18.5282 25.856 18.4801C25.9632 18.4653 26.0926 18.4617 26.1333 18.4801C26.1999 18.506 26.2738 18.702 26.3034 18.9386C26.3182 19.0643 26.3108 19.619 26.2923 19.7188ZM25.6785 13.2223L25.6711 13.2186C25.0499 12.7231 24.584 12.4902 24.584 12.4902C27.0281 9.68005 28.5404 9.52476 28.5404 9.52476C28.7068 9.75031 28.814 10.0387 28.8732 10.3715C29.217 12.346 27.8822 15.8068 27.8822 15.8068C27.3239 14.8122 26.5733 13.9322 25.6785 13.2223Z" fill="#FFA409"/>
<path d="M28.8748 10.3711C28.5864 10.3342 27.2221 10.3268 25.6765 13.2219L25.6691 13.2182C25.0479 12.7228 24.582 12.4898 24.582 12.4898C27.0261 9.67971 28.5384 9.52441 28.5384 9.52441C28.7085 9.74996 28.8157 10.0384 28.8748 10.3711Z" fill="#FF9300"/>
<path d="M27.8852 15.8069C27.3231 14.8086 26.5762 13.9323 25.6777 13.2224C27.2233 10.3272 28.584 10.3346 28.8761 10.3716C29.22 12.3498 27.8852 15.8069 27.8852 15.8069Z" fill="#FF8300"/>
<path d="M28.9324 10.3832C28.9139 10.3795 28.8954 10.3758 28.877 10.3721L28.9324 10.3832Z" fill="#FF8300"/>
<path d="M15.1261 12.4898C15.1261 12.4898 14.6454 12.7228 14.002 13.2182C14.002 13.2182 13.9983 13.2219 13.9946 13.2219C12.3936 10.3231 10.9848 10.3342 10.6816 10.3711C10.7408 10.0384 10.8517 9.74626 11.0255 9.52441C11.0292 9.52441 12.597 9.67971 15.1261 12.4898Z" fill="#FF9300"/>
<path d="M13.9962 13.2214C13.2937 13.7612 12.3989 14.608 11.7112 15.806C11.7112 15.806 10.3283 12.3488 10.6833 10.3706C10.9828 10.3337 12.3952 10.3263 13.9962 13.2214Z" fill="#FF8300"/>
<path d="M10.6842 10.3711C10.6657 10.3748 10.6435 10.3785 10.625 10.3822L10.6842 10.3711Z" fill="#FF8300"/>
<path d="M24.1438 17.7268C24.1438 17.7268 22.9606 17.8008 23.1085 16.8764C23.2564 15.952 24.1808 15.8411 24.4396 15.8781C24.6984 15.915 25.7337 16.2848 25.5489 17.0613C25.364 17.8377 25.1052 17.6898 24.9573 17.7268C24.8094 17.7638 24.1438 17.7268 24.1438 17.7268Z" fill="white"/>
<path d="M15.4192 17.7268C15.4192 17.7268 14.236 17.8008 14.3839 16.8764C14.5318 15.952 15.4562 15.8411 15.715 15.8781C15.9738 15.915 17.0091 16.2848 16.8242 17.0613C16.6394 17.8377 16.3805 17.6898 16.2326 17.7268C16.0847 17.7638 15.4192 17.7268 15.4192 17.7268Z" fill="white"/>
</svg>
