<svg width="65" height="56" viewBox="0 0 65 56" fill="none" xmlns="http://www.w3.org/2000/svg">
<path d="M62.7336 4.18039H2.8626C1.72247 4.18039 0.798096 3.25602 0.798096 2.11577C0.798096 0.975519 1.72247 0.0512695 2.8626 0.0512695H62.7336C63.8738 0.0512695 64.7981 0.975644 64.7981 2.11577C64.7981 3.25602 63.8737 4.18039 62.7336 4.18039Z" fill="#C0ECFF"/>
<path d="M61.7013 4.18018H3.89485C2.1846 4.18018 0.798096 5.56655 0.798096 7.27692C0.798096 8.9873 2.1846 10.3737 3.89485 10.3737H7.86985C9.12547 10.3737 10.173 11.3328 10.2833 12.5836L13.0037 43.4139C13.1065 44.5778 14.0812 45.4704 15.2497 45.4704C16.4182 45.4704 17.393 44.5778 17.4957 43.4139L20.1813 12.9768C20.3113 11.5036 21.5453 10.3737 23.0243 10.3737C24.4758 10.3737 25.6961 11.4632 25.86 12.9054L30.5005 53.7417C30.6333 54.9103 31.622 55.793 32.7981 55.793C33.9742 55.793 34.963 54.9103 35.0957 53.7417L39.7796 12.5229C39.9187 11.2986 40.9547 10.3737 42.187 10.3737C43.3327 10.3737 44.3218 11.1762 44.5578 12.2974L47.8566 27.9664C48.1045 29.1438 49.1432 29.9867 50.3465 29.9867C51.5497 29.9867 52.5883 29.1438 52.8363 27.9664L56.1351 12.2974C56.3711 11.1763 57.3602 10.3737 58.506 10.3737H61.7013C63.4116 10.3737 64.7981 8.98717 64.7981 7.27692C64.7981 5.56667 63.4116 4.18018 61.7013 4.18018Z" fill="#C0ECFF"/>
<path d="M20.411 7.27692H64.7981C64.7981 5.56667 63.4116 4.18018 61.7013 4.18018H4.07009C2.39321 4.18018 0.890212 5.4358 0.802462 7.11043C0.708962 8.8963 2.12934 10.3737 3.89484 10.3737H7.86996C9.12546 10.3737 10.1731 11.3328 10.2835 12.5836L13.0038 43.4139C13.1066 44.5778 14.0813 45.4704 15.2498 45.4704V12.4382C15.2497 9.58767 17.5605 7.27692 20.411 7.27692Z" fill="#4AC1F4" fill-opacity="0.5"/>
<path d="M23.0242 10.374C24.4757 10.374 25.6959 11.4635 25.8598 12.9058L30.5003 53.742C30.6332 54.9106 31.6218 55.7934 32.7979 55.7934V16.5675C32.7979 13.1469 30.0249 10.374 26.6044 10.374H23.0242Z" fill="#4AC1F4" fill-opacity="0.5"/>
<path d="M42.187 10.374C43.3328 10.374 44.3219 11.1765 44.5579 12.2978L47.8566 27.9668C48.1045 29.1441 49.1433 29.987 50.3465 29.987V15.5353C50.3465 12.6848 48.0358 10.374 45.1853 10.374H42.187Z" fill="#4AC1F4" fill-opacity="0.5"/>
<path d="M60.669 2.11577H4.92703C4.3569 2.11577 3.89478 1.65364 3.89478 1.08352C3.89478 0.513394 4.3569 0.0512695 4.92703 0.0512695H60.6689C61.239 0.0512695 61.7012 0.513394 61.7012 1.08352C61.7013 1.65364 61.2392 2.11577 60.669 2.11577Z" fill="#3FC5FF" fill-opacity="0.25"/>
</svg>
