<svg width="52" height="52" viewBox="0 0 52 52" fill="none" xmlns="http://www.w3.org/2000/svg">
<path d="M50.3226 6.7094H1.67741C0.751055 6.7094 0 5.95835 0 5.0319C0 4.10544 0.751055 3.35449 1.67741 3.35449H50.3226C51.249 3.35449 52 4.10555 52 5.0319C52 5.95835 51.2489 6.7094 50.3226 6.7094Z" fill="#C0ECFF"/>
<path d="M49.4839 6.70947H2.51611C1.12653 6.70947 0 7.8359 0 9.22558C0 10.6153 1.12653 11.7417 2.51611 11.7417H5.7458C6.76599 11.7417 7.61709 12.521 7.70677 13.5372L9.91707 38.5869C10.0006 39.5325 10.7925 40.2578 11.7419 40.2578C12.6914 40.2578 13.4833 39.5325 13.5668 38.5869L15.7489 13.8567C15.8545 12.6597 16.8571 11.7417 18.0588 11.7417C19.2382 11.7417 20.2296 12.6269 20.3628 13.7987L24.1332 46.9782C24.2411 47.9277 25.0444 48.6449 26 48.6449C26.9556 48.6449 27.759 47.9277 27.8668 46.9782L31.6725 13.488C31.7855 12.4932 32.6273 11.7417 33.6285 11.7417C34.5594 11.7417 35.363 12.3937 35.5548 13.3047L38.235 26.0358C38.4364 26.9924 39.2804 27.6773 40.2581 27.6773C41.2357 27.6773 42.0796 26.9924 42.2811 26.0358L44.9613 13.3047C45.1531 12.3938 45.9567 11.7417 46.8876 11.7417H49.4839C50.8735 11.7417 52 10.6152 52 9.22558C52 7.836 50.8735 6.70947 49.4839 6.70947Z" fill="#C0ECFF"/>
<path d="M15.9355 9.22558H52C52 7.836 50.8735 6.70947 49.4839 6.70947H2.65849C1.29603 6.70947 0.0748443 7.72967 0.00354747 9.0903C-0.0724213 10.5413 1.08163 11.7417 2.5161 11.7417H5.74589C6.76599 11.7417 7.61718 12.521 7.70686 13.5372L9.91717 38.5869C10.0006 39.5325 10.7926 40.2578 11.742 40.2578V13.4191C11.7419 11.1031 13.6194 9.22558 15.9355 9.22558Z" fill="#4AC1F4" fill-opacity="0.5"/>
<path d="M18.0587 11.7417C19.2381 11.7417 20.2295 12.6269 20.3627 13.7987L24.1331 46.9782C24.241 47.9277 25.0443 48.6449 25.9999 48.6449V16.7739C25.9999 13.9947 23.7468 11.7417 20.9677 11.7417H18.0587Z" fill="#4AC1F4" fill-opacity="0.5"/>
<path d="M33.6284 11.7417C34.5593 11.7417 35.363 12.3937 35.5548 13.3047L38.235 26.0358C38.4364 26.9924 39.2804 27.6773 40.258 27.6773V15.9352C40.258 13.6192 38.3805 11.7417 36.0645 11.7417H33.6284Z" fill="#4AC1F4" fill-opacity="0.5"/>
<path d="M48.6452 5.0319H3.35482C2.89159 5.0319 2.51611 4.65642 2.51611 4.1932C2.51611 3.72997 2.89159 3.35449 3.35482 3.35449H48.6451C49.1083 3.35449 49.4838 3.72997 49.4838 4.1932C49.4839 4.65642 49.1084 5.0319 48.6452 5.0319Z" fill="#3FC5FF" fill-opacity="0.25"/>
</svg>
