<svg width="40" height="40" viewBox="0 0 40 40" fill="none" xmlns="http://www.w3.org/2000/svg">
<path d="M21.0148 0.998414L38.0153 8.55399C38.9182 8.95524 39.5 9.85055 39.5 10.8385V29.1615C39.5 30.1495 38.9182 31.0448 38.0153 31.446L21.0148 39.0016C20.3684 39.2889 19.6305 39.2889 18.9841 39.0016L1.98463 31.446C1.08182 31.0448 0.5 30.1495 0.5 29.1615V10.8385C0.5 9.85052 1.08182 8.95523 1.98463 8.55397L18.9841 0.998434C19.6305 0.711133 20.3684 0.711125 21.0148 0.998414Z" fill="#171C1F" stroke="#54ADFF"/>
<path d="M12.5743 24.1594C12.7071 24.0267 12.8896 23.9492 13.0832 23.9492H30.6394C30.9602 23.9492 31.1206 24.3364 30.8938 24.5632L27.4257 28.0313C27.293 28.164 27.1104 28.2415 26.9168 28.2415H9.36065C9.03983 28.2415 8.87943 27.8543 9.10621 27.6275L12.5743 24.1594Z" fill="url(#paint0_linear)"/>
<path d="M12.5743 11.2102C12.7126 11.0774 12.8951 11 13.0832 11H30.6394C30.9602 11 31.1206 11.3872 30.8938 11.614L27.4257 15.0821C27.293 15.2148 27.1104 15.2922 26.9168 15.2922H9.36065C9.03983 15.2922 8.87943 14.9051 9.10621 14.6783L12.5743 11.2102Z" fill="url(#paint1_linear)"/>
<path d="M27.4257 17.6428C27.293 17.5101 27.1104 17.4326 26.9168 17.4326H9.36065C9.03983 17.4326 8.87943 17.8198 9.10621 18.0466L12.5743 21.5147C12.7071 21.6474 12.8896 21.7249 13.0832 21.7249H30.6394C30.9602 21.7249 31.1206 21.3377 30.8938 21.1109L27.4257 17.6428Z" fill="url(#paint2_linear)"/>
<defs>
<linearGradient id="paint0_linear" x1="28.9622" y1="8.92878" x2="16.8119" y2="32.2015" gradientUnits="userSpaceOnUse">
<stop stop-color="#00FFA3"/>
<stop offset="1" stop-color="#DC1FFF"/>
</linearGradient>
<linearGradient id="paint1_linear" x1="23.6495" y1="6.15455" x2="11.4992" y2="29.4272" gradientUnits="userSpaceOnUse">
<stop stop-color="#00FFA3"/>
<stop offset="1" stop-color="#DC1FFF"/>
</linearGradient>
<linearGradient id="paint2_linear" x1="26.2889" y1="7.53235" x2="14.1387" y2="30.805" gradientUnits="userSpaceOnUse">
<stop stop-color="#00FFA3"/>
<stop offset="1" stop-color="#DC1FFF"/>
</linearGradient>
</defs>
</svg>
