<svg width="40" height="40" viewBox="0 0 40 40" fill="none" xmlns="http://www.w3.org/2000/svg">
<path d="M21.0148 0.998414L38.0153 8.55399C38.9182 8.95524 39.5 9.85055 39.5 10.8385V29.1615C39.5 30.1495 38.9182 31.0448 38.0153 31.446L21.0148 39.0016C20.3684 39.2889 19.6305 39.2889 18.9841 39.0016L1.98463 31.446C1.08182 31.0448 0.5 30.1495 0.5 29.1615V10.8385C0.5 9.85052 1.08182 8.95523 1.98463 8.55397L18.9841 0.998434C19.6305 0.711133 20.3684 0.711125 21.0148 0.998414Z" fill="#171C1F" stroke="#54ADFF"/>
<path d="M28.6126 12.6573L25.7228 14.1297L11.7682 21.2375C11.721 20.8776 11.6972 20.515 11.6971 20.152C11.699 18.7037 12.0792 17.2811 12.8001 16.025C13.521 14.7689 14.5576 13.7229 15.8071 12.9907C17.0566 12.2584 18.4758 11.8653 19.924 11.8503C21.3722 11.8353 22.7992 12.1989 24.0636 12.9051L25.7177 12.0623L25.9645 11.9364C24.4492 10.8366 22.6594 10.1772 20.7928 10.031C18.9262 9.88482 17.0555 10.2576 15.3876 11.1081C13.7196 11.9586 12.3192 13.2537 11.3412 14.8503C10.3633 16.4468 9.8458 18.2828 9.846 20.1551C9.846 20.4136 9.85581 20.6712 9.87544 20.9278C9.90294 21.2911 9.82236 21.6544 9.64385 21.9721C9.46534 22.2897 9.19687 22.5474 8.87223 22.7128L8 23.1576V25.2321L10.5679 23.9232L11.3996 23.4988L12.219 23.0814L26.9301 15.5858L28.5832 14.744L32 13.0026V10.9291L28.6126 12.6573Z" fill="white"/>
<path d="M32 15.0771L13.0547 24.7234L11.4016 25.5672L8 27.3005V29.373L11.3782 27.6519L14.2681 26.1795L28.2369 19.0616C28.2841 19.4239 28.3079 19.7888 28.308 20.1541C28.3071 21.6041 27.927 23.0286 27.2054 24.2862C26.4838 25.5439 25.4458 26.5909 24.1944 27.3234C22.9431 28.0558 21.5219 28.4483 20.0721 28.4617C18.6222 28.4752 17.194 28.1092 15.9293 27.4L15.8277 27.4539L14.0345 28.3677C15.5494 29.4675 17.3389 30.1272 19.2052 30.2737C21.0715 30.4202 22.942 30.048 24.6099 29.1981C26.2779 28.3482 27.6785 27.0537 28.6569 25.4577C29.6353 23.8616 30.1534 22.0262 30.154 20.1541C30.154 19.8932 30.1438 19.6322 30.1246 19.3743C30.0971 19.0111 30.1776 18.6479 30.3559 18.3303C30.5342 18.0127 30.8024 17.7549 31.1268 17.5892L32 17.1445V15.0771Z" fill="white"/>
</svg>
