<svg width="27" height="27" viewBox="0 0 27 27" fill="none" xmlns="http://www.w3.org/2000/svg">
<path d="M12.0782 1.17894C12.9831 0.776722 14.0162 0.776712 14.9211 1.17892L24.4215 5.40117C25.6854 5.96291 26.5 7.21635 26.5 8.59952V18.4005C26.5 19.7837 25.6854 21.0371 24.4215 21.5988L14.9211 25.8211C14.0162 26.2233 12.9831 26.2233 12.0782 25.8211L2.57849 21.5989C1.31455 21.0371 0.5 19.7837 0.5 18.4005V8.59946C0.5 7.21632 1.31455 5.9629 2.57848 5.40114L12.0782 1.17894Z" stroke="#54ADFF"/>
<path fill-rule="evenodd" clip-rule="evenodd" d="M5.96243 13.1659C9.72052 11.4724 12.2265 10.356 13.4804 9.81659C17.0604 8.27646 17.8043 8.00893 18.2892 8.00009C18.3959 7.99815 18.6343 8.02549 18.7887 8.15511C18.9192 8.26457 18.955 8.41242 18.9722 8.5162C18.9894 8.61997 19.0108 8.85637 18.9938 9.04108C18.7998 11.1494 17.9603 16.2657 17.5332 18.6271C17.3525 19.6263 16.9967 19.9613 16.6522 19.9941C15.9036 20.0653 15.3351 19.4823 14.6101 18.9908C13.4755 18.2215 12.8345 17.7426 11.7332 16.992C10.4604 16.1245 11.2855 15.6477 12.0108 14.8685C12.2006 14.6646 15.4991 11.5615 15.5629 11.28C15.5709 11.2448 15.5783 11.1136 15.503 11.0443C15.4276 10.975 15.3163 10.9987 15.236 11.0175C15.1223 11.0442 13.3097 12.2833 9.79841 14.7348C9.28392 15.1002 8.81791 15.2783 8.40039 15.2689C7.9401 15.2586 7.05469 14.9998 6.39648 14.7785C5.58916 14.507 4.94752 14.3635 5.00339 13.9026C5.03249 13.6625 5.35217 13.4169 5.96243 13.1659Z" fill="#54ADFF"/>
</svg>
