<svg width="40" height="40" viewBox="0 0 40 40" fill="none" xmlns="http://www.w3.org/2000/svg">
<path d="M21.0148 0.998414L38.0153 8.55399C38.9182 8.95524 39.5 9.85055 39.5 10.8385V29.1615C39.5 30.1495 38.9182 31.0448 38.0153 31.446L21.0148 39.0016C20.3684 39.2889 19.6305 39.2889 18.9841 39.0016L1.98463 31.446C1.08182 31.0448 0.5 30.1495 0.5 29.1615V10.8385C0.5 9.85052 1.08182 8.95523 1.98463 8.55397L18.9841 0.998434C19.6305 0.711133 20.3684 0.711125 21.0148 0.998414Z" fill="#171C1F" stroke="#54ADFF"/>
<path d="M22.385 32C20.6724 32 19.4224 31.5875 18.635 30.7625C17.9055 30.0641 17.4822 29.1053 17.4576 28.0958C17.4487 27.7891 17.5198 27.4854 17.6638 27.2144C17.7982 26.9803 17.9923 26.7861 18.2262 26.6516C18.4982 26.5159 18.798 26.4453 19.1019 26.4453C19.4058 26.4453 19.7055 26.5159 19.9775 26.6516C20.2111 26.7856 20.4042 26.98 20.5368 27.2144C20.685 27.484 20.7587 27.7882 20.7504 28.0958C20.7657 28.4631 20.6603 28.8253 20.4504 29.1271C20.2754 29.3734 20.0254 29.5564 19.7377 29.6486C20.019 30.0069 20.4171 30.255 20.8626 30.35C21.3611 30.4947 21.8773 30.5692 22.3963 30.5711C23.0835 30.5771 23.7566 30.3759 24.3276 29.9936C24.9201 29.5751 25.3619 28.9768 25.5876 28.2874C25.8737 27.467 26.0134 26.6026 26.0001 25.7338C26.0232 24.828 25.8704 23.9263 25.5501 23.0787C25.3092 22.4008 24.8519 21.821 24.2489 21.4287C23.6883 21.074 23.0376 20.8878 22.3742 20.8925C21.7962 20.9415 21.2388 21.1307 20.7504 21.4437L19.5463 22.0474V21.4437L24.9576 14.1845H17.4576V21.7175C17.4364 22.2611 17.5802 22.7984 17.8701 23.2587C18.0103 23.4593 18.2 23.6203 18.4208 23.7261C18.6415 23.8318 18.8858 23.8788 19.13 23.8624C19.5813 23.8533 20.0177 23.6995 20.3749 23.4237C20.7799 23.1269 21.1323 22.7644 21.4175 22.3512C21.4432 22.2787 21.4905 22.2159 21.5531 22.1713C21.6033 22.1279 21.6675 22.1039 21.7339 22.1038C21.8642 22.1157 21.9875 22.1681 22.0864 22.2537C22.2118 22.3938 22.28 22.5757 22.2776 22.7637C22.2631 22.89 22.2406 23.0152 22.2101 23.1387C21.9437 23.7835 21.4971 24.338 20.9238 24.7356C20.3913 25.096 19.7624 25.287 19.1195 25.2837C17.4957 25.2837 16.3708 24.9637 15.7447 24.3237C15.4229 23.97 15.1749 23.5556 15.0152 23.1049C14.8556 22.6542 14.7874 22.1761 14.8147 21.6987V14.1845H11V12.7849H14.8325V9.59367L13.955 8.71563V8H16.5012L17.4576 8.49507V12.7849L27.3649 12.7548L28.3513 13.7448L22.2763 19.8493C22.6433 19.7017 23.0298 19.6082 23.4237 19.5718C24.2033 19.606 24.9639 19.8231 25.6441 20.2056C26.4317 20.58 27.0955 21.1723 27.5567 21.9124C27.97 22.539 28.2625 23.2372 28.4193 23.9712C28.5481 24.5502 28.6172 25.1408 28.6255 25.7339C28.6295 26.8658 28.3729 27.9833 27.8755 29C27.4038 29.9846 26.61 30.7784 25.6254 31.2501C24.6176 31.7467 23.5086 32.0034 22.385 32V32Z" fill="#2C7DF7"/>
</svg>
