<svg width="40" height="40" viewBox="0 0 40 40" fill="none" xmlns="http://www.w3.org/2000/svg">
<path d="M21.0148 0.998414L38.0153 8.55399C38.9182 8.95524 39.5 9.85055 39.5 10.8385V29.1615C39.5 30.1495 38.9182 31.0448 38.0153 31.446L21.0148 39.0016C20.3684 39.2889 19.6305 39.2889 18.9841 39.0016L1.98463 31.446C1.08182 31.0448 0.5 30.1495 0.5 29.1615V10.8385C0.5 9.85052 1.08182 8.95523 1.98463 8.55397L18.9841 0.998434C19.6305 0.711133 20.3684 0.711125 21.0148 0.998414Z" fill="#171C1F" stroke="#54ADFF"/>
<path d="M20.368 29C20.032 29 19.78 28.916 19.612 28.748C19.444 28.58 19.36 28.328 19.36 27.992V14.768H14.704C14.368 14.768 14.116 14.684 13.948 14.516C13.78 14.348 13.696 14.096 13.696 13.76C13.696 13.424 13.78 13.172 13.948 13.004C14.116 12.836 14.368 12.752 14.704 12.752H26.032C26.368 12.752 26.62 12.836 26.788 13.004C26.956 13.172 27.04 13.424 27.04 13.76C27.04 14.096 26.956 14.348 26.788 14.516C26.62 14.684 26.368 14.768 26.032 14.768H21.376V27.992C21.376 28.312 21.288 28.56 21.112 28.736C20.944 28.912 20.696 29 20.368 29Z" fill="#54ADFF"/>
</svg>
