<svg width="40" height="40" viewBox="0 0 40 40" fill="none" xmlns="http://www.w3.org/2000/svg">
<path d="M21.0148 0.998414L38.0153 8.55399C38.9182 8.95524 39.5 9.85055 39.5 10.8385V29.1615C39.5 30.1495 38.9182 31.0448 38.0153 31.446L21.0148 39.0016C20.3684 39.2889 19.6305 39.2889 18.9841 39.0016L1.98463 31.446C1.08182 31.0448 0.5 30.1495 0.5 29.1615V10.8385C0.5 9.85052 1.08182 8.95523 1.98463 8.55397L18.9841 0.998434C19.6305 0.711133 20.3684 0.711125 21.0148 0.998414Z" fill="#171C1F" stroke="#54ADFF"/>
<path d="M20 32C13.4 32 8 26.6 8 20C8 13.4 13.4 8 20 8C26.6 8 32 13.4 32 20C32 26.6 26.6 32 20 32Z" fill="#002868"/>
<path d="M26.0468 27.1998H13.9508C13.3172 27.1998 12.7988 26.6814 12.7988 26.0478V13.9518C12.7988 13.3182 13.3172 12.7998 13.9508 12.7998H26.0468C26.6804 12.7998 27.1988 13.3182 27.1988 13.9518V26.0478C27.1988 26.6814 26.6804 27.1998 26.0468 27.1998Z" fill="white"/>
<path d="M15.6096 25.7492C15.5717 25.7492 15.541 25.7146 15.541 25.6767V23.7418C15.541 23.7039 15.5102 23.6693 15.4723 23.6693H14.7893C14.7509 23.6693 14.7168 23.6386 14.7168 23.6007V23.2268C14.7168 23.1889 14.7514 23.1543 14.7893 23.1543H16.8917C16.9296 23.1543 16.9642 23.1884 16.9642 23.2268V23.6007C16.9642 23.6386 16.9296 23.6693 16.8917 23.6693H16.2125C16.1746 23.6693 16.14 23.7034 16.14 23.7418V25.6767C16.14 25.7146 16.1093 25.7492 16.0714 25.7492H15.6096Z" fill="#002868"/>
<path d="M19.0618 23.2268C19.0618 23.1889 19.0925 23.1543 19.1304 23.1543H19.5883C19.6263 23.1543 19.6608 23.1884 19.6608 23.2268V24.5473C19.6608 25.3297 19.2183 25.7837 18.516 25.7837C17.8176 25.7837 17.3789 25.3297 17.3789 24.5473V23.2268C17.3789 23.1889 17.4096 23.1543 17.4475 23.1543H17.9055C17.9434 23.1543 17.9779 23.1884 17.9779 23.2268V24.566C17.9779 24.9514 18.1762 25.226 18.5199 25.226C18.8635 25.226 19.0618 24.9514 19.0618 24.566V23.2268V23.2268Z" fill="#002868"/>
<path d="M21.7662 24.0015C21.7053 24.0015 21.6861 23.9784 21.663 23.9328C21.5829 23.7456 21.4072 23.6275 21.1403 23.6275C20.8999 23.6275 20.6978 23.7115 20.6978 23.8719C20.6978 24.0475 20.885 24.12 21.2968 24.1695C21.9227 24.2419 22.2813 24.433 22.2813 24.9288C22.2813 25.4861 21.7926 25.7799 21.1672 25.7799C20.6253 25.7799 20.1597 25.5163 20.0872 24.9634C20.0795 24.9101 20.1064 24.8909 20.1597 24.8909H20.5797C20.633 24.8909 20.6637 24.9139 20.6791 24.9557C20.7362 25.1391 20.9311 25.2802 21.2133 25.2802C21.4614 25.2802 21.6789 25.1885 21.6789 24.9941C21.6789 24.7613 21.4499 24.7195 20.992 24.6619C20.4655 24.5933 20.0992 24.4407 20.0992 23.9559C20.0992 23.4711 20.5154 23.124 21.1677 23.124C21.7552 23.124 22.1637 23.4408 22.2477 23.9141C22.2592 23.9674 22.2438 24.0019 22.1867 24.0019H21.7662V24.0015Z" fill="#002868"/>
<path d="M22.7991 25.7492C22.7612 25.7492 22.7305 25.7146 22.7305 25.6767V23.2268C22.7305 23.1889 22.7612 23.1543 22.7991 23.1543H23.8369C24.6077 23.1543 25.2068 23.6847 25.2068 24.4594C25.2068 25.2226 24.6154 25.7492 23.8369 25.7492H22.7991ZM23.8369 25.2337C24.253 25.2337 24.577 24.9053 24.577 24.4513C24.577 23.9972 24.2525 23.6689 23.833 23.6689H23.402C23.3641 23.6689 23.3333 23.7029 23.3333 23.7413V25.1645C23.3333 25.2025 23.3641 25.2332 23.402 25.2332H23.8369V25.2337Z" fill="#002868"/>
<path d="M26.8162 21.7282H13.1842C13.0786 21.7282 12.9922 21.6418 12.9922 21.5362V13.9522C12.9922 13.4242 13.4242 12.9922 13.9522 12.9922H26.0482C26.5762 12.9922 27.0082 13.4242 27.0082 13.9522V21.5362C27.0082 21.6418 26.9218 21.7282 26.8162 21.7282Z" fill="#002868"/>
<path d="M20.7065 20.1715H19.4585C19.3793 20.1715 19.3145 20.1067 19.3145 20.0275V14.7475C19.3145 14.6683 19.3793 14.6035 19.4585 14.6035H20.7065C20.7857 14.6035 20.8505 14.6683 20.8505 14.7475V20.0275C20.8505 20.1067 20.7857 20.1715 20.7065 20.1715Z" fill="white"/>
<path d="M22.8314 16.1395H17.1674C17.0882 16.1395 17.0234 16.0747 17.0234 15.9955V14.7475C17.0234 14.6683 17.0882 14.6035 17.1674 14.6035H22.8314C22.9106 14.6035 22.9754 14.6683 22.9754 14.7475V15.9955C22.9754 16.0747 22.9106 16.1395 22.8314 16.1395Z" fill="white"/>
</svg>
