<svg width="48" height="30" viewBox="0 0 48 30" fill="none" xmlns="http://www.w3.org/2000/svg">
<path d="M0.32523 27.0224L0.325247 27.0224L5.90061 3.09519L5.90064 3.09507C6.26527 1.52683 7.84035 0.25 9.39203 0.25H21.3623C22.127 0.25 22.7281 0.559574 23.0966 1.04225C23.4659 1.52592 23.6194 2.20706 23.4392 2.98184L17.8664 26.9083C17.8663 26.9084 17.8663 26.9085 17.8663 26.9087C17.4982 28.4715 15.922 29.7494 14.3713 29.7494H2.40219C1.63887 29.7494 1.03759 29.4396 0.668671 28.9572C0.29905 28.4738 0.145241 27.7938 0.32523 27.0224Z" fill="#59788C" stroke="#20262A" stroke-width="0.5"/>
<path d="M34.4104 2.98139L34.4103 2.98175L28.8382 26.9087C28.7655 27.2194 28.7096 27.5227 28.6581 27.802C28.6394 27.9039 28.6212 28.0026 28.603 28.0973C28.5334 28.4593 28.4635 28.7642 28.3603 29.0133C28.2587 29.2585 28.1311 29.4343 27.9544 29.5525C27.777 29.6712 27.5236 29.7494 27.1385 29.7494H13.3729C12.6066 29.7494 12.0056 29.4395 11.638 28.9574C11.2696 28.4744 11.1177 27.7946 11.2994 27.0229L11.2995 27.0223L16.8712 3.09587C16.8712 3.09577 16.8712 3.09566 16.8713 3.09555C17.2418 1.5263 18.814 0.25 20.3639 0.25H34.1295C34.5229 0.25 34.7085 0.331918 34.7971 0.418192C34.8802 0.498956 34.9285 0.633411 34.9158 0.877549C34.9031 1.12225 34.8316 1.42564 34.7315 1.79023C34.7048 1.88757 34.6761 1.98908 34.6464 2.0939C34.5679 2.37166 34.4827 2.67273 34.4104 2.98139Z" fill="#59788C" stroke="#20262A" stroke-width="0.5"/>
<rect x="12" y="8" width="5" height="9" fill="#59788C"/>
<path d="M47.6286 2.98139L47.6285 2.98175L42.0565 26.9083C42.0564 26.9085 42.0564 26.9086 42.0564 26.9087C41.6883 28.4714 40.1111 29.7494 38.5594 29.7494H26.5946C25.8283 29.7494 25.2266 29.4395 24.8582 28.9572C24.4891 28.4741 24.3365 27.7943 24.5176 27.0227L24.5177 27.0223L30.0907 3.09517L30.0907 3.09507C30.4554 1.52679 32.0293 0.25 33.5821 0.25H45.5524C46.3184 0.25 46.92 0.559675 47.2883 1.04223C47.6574 1.52573 47.8102 2.20668 47.6286 2.98139Z" fill="#59788C" stroke="#20262A" stroke-width="0.5"/>
<rect x="24" y="6" width="6" height="21" fill="#59788C"/>
<path d="M12.5186 7.66725C11.2876 7.67979 10.9241 7.66725 10.8079 7.63982C10.7633 7.85194 9.93264 11.6837 9.93031 11.6869C9.75145 12.4621 9.62133 13.0147 9.1793 13.3716C8.92838 13.579 8.63545 13.6791 8.29583 13.6791C7.74994 13.6791 7.43191 13.408 7.37852 12.8939L7.36831 12.7174C7.36831 12.7174 7.53461 11.679 7.53461 11.6732C7.53461 11.6732 8.40641 8.18134 8.5625 7.71977C8.57067 7.69351 8.57301 7.67979 8.57505 7.66725C6.87814 7.68213 6.57733 7.66725 6.55661 7.63982C6.54523 7.67746 6.50322 7.89395 6.50322 7.89395L5.61304 11.8296L5.5366 12.1634L5.38867 13.2552C5.38867 13.579 5.45228 13.8434 5.5789 14.0668C5.98446 14.7755 7.14131 14.8818 7.79574 14.8818C8.63895 14.8818 9.42993 14.7026 9.96444 14.3755C10.8923 13.8273 11.135 12.9704 11.3515 12.2089L11.4519 11.8182C11.4519 11.8182 12.3499 8.19155 12.5025 7.71977C12.5084 7.69351 12.5107 7.67979 12.5186 7.66725ZM15.5741 10.5929C15.3577 10.5929 14.962 10.6454 14.6066 10.8196C14.4777 10.8858 14.3557 10.9623 14.2271 11.0384L14.3432 10.6192L14.2796 10.5486C13.5259 10.7011 13.3573 10.7216 12.6611 10.8196L12.6028 10.8584C12.522 11.5286 12.4502 12.0325 12.1506 13.3498C12.0365 13.8353 11.918 14.3255 11.7993 14.8098L11.8314 14.8714C12.5447 14.8337 12.7612 14.8337 13.3812 14.8439L13.4314 14.7894C13.5102 14.3859 13.5204 14.2913 13.6949 13.4741C13.7769 13.0866 13.9478 12.2353 14.0322 11.9321C14.1871 11.8603 14.34 11.7897 14.4859 11.7897C14.8334 11.7897 14.791 12.0929 14.7776 12.2137C14.7627 12.4164 14.6361 13.0788 14.5063 13.6474L14.4196 14.0144C14.3592 14.2855 14.293 14.549 14.2326 14.8177L14.2589 14.8714C14.962 14.8337 15.1765 14.8337 15.7769 14.8439L15.8475 14.7894C15.9561 14.1592 15.9879 13.9905 16.1804 13.0729L16.2773 12.6513C16.4655 11.8262 16.56 11.4078 16.4176 11.067C16.2671 10.6851 15.9059 10.5929 15.5741 10.5929ZM18.9876 11.4568C18.6138 11.5286 18.3755 11.5764 18.1385 11.6073C17.9037 11.645 17.6746 11.6791 17.3134 11.7293L17.2848 11.7553L17.2586 11.776C17.2209 12.045 17.1947 12.2775 17.1448 12.5509C17.1025 12.8336 17.0374 13.1549 16.9315 13.6164C16.8495 13.9698 16.8072 14.0929 16.7605 14.2172C16.715 14.3415 16.6648 14.4623 16.5726 14.8098L16.5942 14.8419L16.6123 14.8713C16.9499 14.8553 17.1707 14.8439 17.3977 14.8419C17.6244 14.8337 17.8593 14.8419 18.2229 14.8439L18.2547 14.8179L18.2888 14.7893C18.3413 14.476 18.3492 14.3917 18.3813 14.2388C18.4131 14.0748 18.4679 13.8478 18.6024 13.2415C18.666 12.9568 18.7369 12.6729 18.8029 12.3823C18.8715 12.0928 18.9432 11.8078 19.0115 11.523L19.0013 11.4886L18.9876 11.4568ZM18.9955 10.292C18.6559 10.0916 18.0598 10.1552 17.6587 10.4321C17.2587 10.7034 17.2131 11.0885 17.5516 11.2916C17.8854 11.4865 18.4838 11.4284 18.8815 11.1492C19.2806 10.872 19.3305 10.4904 18.9955 10.292ZM21.0494 14.9342C21.7365 14.9342 22.4409 14.7448 22.971 14.1829C23.3789 13.7271 23.5659 13.0491 23.6307 12.7698C23.8416 11.8443 23.6774 11.4122 23.4711 11.1491C23.1577 10.7479 22.604 10.6192 22.0295 10.6192C21.684 10.6192 20.8612 10.6534 20.2185 11.2459C19.7569 11.6734 19.5436 12.2534 19.415 12.8095C19.2851 13.3761 19.1357 14.3961 20.0738 14.7757C20.3632 14.9 20.7804 14.9342 21.0494 14.9342ZM20.9957 12.8518C21.1542 12.151 21.3412 11.5628 21.8185 11.5628C22.1926 11.5628 22.2197 12.0004 22.0534 12.7036C22.0236 12.8597 21.8871 13.44 21.7024 13.6871C21.5734 13.8695 21.4208 13.9801 21.2522 13.9801C21.202 13.9801 20.9035 13.9801 20.8989 13.5369C20.8965 13.3181 20.9412 13.0946 20.9957 12.8518ZM25.3483 14.844L25.402 14.7895C25.4781 14.386 25.4907 14.2911 25.6593 13.4742C25.7437 13.0867 25.9181 12.2353 26.0001 11.9322C26.1553 11.8601 26.3056 11.7895 26.4562 11.7895C26.8013 11.7895 26.7593 12.0927 26.7456 12.2135C26.733 12.4165 26.6064 13.0785 26.4742 13.6472L26.3923 14.0142C26.3295 14.2856 26.2612 14.5488 26.2009 14.8178L26.2271 14.8715C26.9326 14.8338 27.1389 14.8338 27.7428 14.844L27.8158 14.7895C27.9217 14.159 27.9503 13.9903 28.1487 13.073L28.2432 12.6511C28.4323 11.826 28.528 11.4079 28.3879 11.0671C28.233 10.6852 27.8695 10.593 27.5424 10.593C27.3256 10.593 26.9279 10.6452 26.5746 10.8197C26.4483 10.8859 26.3216 10.9621 26.1974 11.0385L26.3056 10.6193L26.2475 10.5484C25.4942 10.7012 25.3221 10.7217 24.6268 10.8197L24.5734 10.8585C24.4891 11.5287 24.4205 12.0323 24.1209 13.3499C24.0068 13.8354 23.8883 14.3256 23.7699 14.8099L23.8017 14.8715C24.5162 14.8338 24.7295 14.8338 25.3483 14.844ZM30.5317 14.8713C30.576 14.6548 30.8395 13.3716 30.8418 13.3716C30.8418 13.3716 31.0662 12.4301 31.0799 12.396C31.0799 12.396 31.1505 12.2979 31.2211 12.2591H31.325C32.305 12.2591 33.4117 12.2591 34.2791 11.621C34.8694 11.1834 35.2729 10.5371 35.4529 9.75168C35.4996 9.55912 35.534 9.33008 35.534 9.10105C35.534 8.80023 35.4736 8.50263 35.2991 8.27009C34.8568 7.65126 33.976 7.63988 32.9592 7.63521C32.956 7.63521 32.4579 7.63988 32.4579 7.63988C31.1564 7.65593 30.6344 7.65126 30.4199 7.625C30.4019 7.71982 30.3677 7.88846 30.3677 7.88846C30.3677 7.88846 29.9015 10.0493 29.9015 10.0528C29.9015 10.0528 28.7858 14.6469 28.7332 14.8634C29.8697 14.8497 30.3356 14.8497 30.5317 14.8713ZM31.3956 11.0328C31.3956 11.0328 31.8913 8.87638 31.889 8.88455L31.905 8.77398L31.912 8.68966L32.1101 8.71008C32.1101 8.71008 33.1325 8.7979 33.1564 8.80023C33.5599 8.95633 33.7262 9.35868 33.6101 9.88385C33.5042 10.3638 33.1929 10.7673 32.7929 10.9622C32.4635 11.1274 32.06 11.1411 31.6442 11.1411H31.3752L31.3956 11.0328ZM34.482 12.8918C34.351 13.4502 34.2005 14.4702 35.1338 14.8338C35.4314 14.9604 35.6981 14.998 35.9692 14.9843C36.2554 14.9688 36.5206 14.8253 36.7663 14.6187C36.7441 14.7036 36.7219 14.7885 36.6997 14.8737L36.742 14.9283C37.4134 14.9 37.6217 14.9 38.3491 14.9055L38.415 14.8553C38.5212 14.231 38.6213 13.6247 38.8973 12.4302C39.0318 11.858 39.166 11.2914 39.304 10.7216L39.2825 10.6589C38.5314 10.798 38.3307 10.8278 37.6083 10.9302L37.5535 10.9749C37.5462 11.0329 37.5386 11.0886 37.5316 11.1444C37.4192 10.9629 37.2564 10.808 37.0052 10.7114C36.684 10.5851 35.9295 10.7479 35.2809 11.3384C34.8251 11.76 34.6063 12.3377 34.482 12.8918ZM36.0593 12.9259C36.2201 12.2376 36.4048 11.6553 36.8833 11.6553C37.1858 11.6553 37.3451 11.9345 37.3127 12.4106C37.2871 12.5294 37.2593 12.6546 37.2264 12.7961C37.1785 13.0006 37.1266 13.2034 37.0761 13.4064C37.0248 13.5453 36.965 13.6763 36.8993 13.7636C36.7762 13.938 36.4833 14.0463 36.3146 14.0463C36.2668 14.0463 35.9715 14.0463 35.9613 13.611C35.9589 13.3942 36.0036 13.171 36.0593 12.9259ZM44.296 10.6533L44.238 10.5871C43.4948 10.7376 43.3603 10.7615 42.6776 10.8537L42.6274 10.9039C42.6251 10.9121 42.623 10.9246 42.6195 10.936L42.6172 10.9246C42.1089 12.0973 42.1238 11.8443 41.7101 12.7674C41.7078 12.7254 41.7078 12.6992 41.7054 12.6545L41.6019 10.6533L41.5368 10.5871C40.7584 10.7376 40.74 10.7615 40.0211 10.8537L39.965 10.9039C39.9572 10.9279 39.9572 10.9541 39.9525 10.9827L39.9572 10.9929C40.047 11.4522 40.0254 11.3497 40.1156 12.0745C40.1576 12.4302 40.2136 12.7879 40.2556 13.1391C40.3265 13.7271 40.3662 14.0165 40.4529 14.9137C39.9674 15.7149 39.8524 16.018 39.385 16.7212L39.3882 16.7282L39.0591 17.2487C39.0215 17.3035 38.9873 17.3412 38.9395 17.3572C38.887 17.3832 38.8187 17.3878 38.7239 17.3878H38.5415L38.2705 18.2894L39.2003 18.3055C39.7462 18.3031 40.0893 18.0478 40.274 17.7047L40.8587 16.7028H40.8494L40.9109 16.6322C41.3042 15.7855 44.296 10.6533 44.296 10.6533ZM34.482 22.4939H34.0875L35.5475 17.6649H36.0319L36.1856 17.1674L36.2005 17.7206C36.1824 18.0626 36.4514 18.3657 37.1581 18.3155H37.9753L38.2566 17.3857H37.9491C37.7722 17.3857 37.6903 17.341 37.7005 17.2453L37.6856 16.6825H36.1722V16.6854C35.6829 16.6956 34.2217 16.7324 33.9259 16.8112C33.5679 16.9034 33.1906 17.1747 33.1906 17.1747L33.3389 16.6767H31.9232L31.6282 17.6649L30.1487 22.5677H29.8616L29.58 23.4909H32.3997L32.3051 23.7987H33.6945L33.7867 23.4909H34.1765L34.482 22.4939ZM33.3251 18.6461C33.0984 18.7088 32.6765 18.8991 32.6765 18.8991L33.0518 17.6649H34.1765L33.9052 18.5641C33.9052 18.5641 33.5577 18.5845 33.3251 18.6461ZM33.3467 20.4092C33.3467 20.4092 32.9934 20.4536 32.7609 20.5061C32.5318 20.5755 32.1024 20.7944 32.1024 20.7944L32.4898 19.51H33.6204L33.3467 20.4092ZM32.7165 22.5053H31.5883L31.9153 21.4214H33.0401L32.7165 22.5053ZM35.4336 19.51H37.0599L36.8262 20.2669H35.1783L34.9309 21.0943H36.3728L35.281 22.6316C35.2046 22.7445 35.136 22.7845 35.0599 22.8163C34.9834 22.8551 34.8831 22.9006 34.7669 22.9006H34.3669L34.0921 23.8069H35.1384C35.6822 23.8069 36.0034 23.5594 36.2406 23.2347L36.9893 22.21L37.1501 23.2505C37.1842 23.4454 37.3243 23.5594 37.4191 23.6038C37.5238 23.6563 37.6321 23.7465 37.785 23.7599C37.9489 23.7669 38.0674 23.7724 38.1462 23.7724H38.6603L38.969 22.7582H38.7662C38.6498 22.7582 38.4493 22.7387 38.4152 22.7022C38.381 22.6579 38.381 22.5896 38.3627 22.4857L38.1996 21.443H37.5317L37.8246 21.0943H39.4693L39.7223 20.2669H38.1996L38.4368 19.51H39.9548L40.2364 18.5767H35.7105L35.4336 19.51ZM21.6978 22.716L22.0774 21.4533H23.6375L23.9225 20.5141H22.361L22.5993 19.7368H24.1253L24.408 18.8274H20.59L20.3131 19.7368H21.1805L20.9491 20.5141H20.0794L19.7911 21.4693H20.6582L20.1523 23.14C20.084 23.3611 20.1844 23.4454 20.248 23.5481C20.3131 23.6482 20.379 23.7145 20.5272 23.7521C20.6801 23.7862 20.7849 23.8066 20.9272 23.8066H22.686L22.9994 22.7662L22.2198 22.8733C22.0692 22.8733 21.6523 22.8552 21.6978 22.716ZM21.8767 16.671L21.4814 17.3855C21.3968 17.5416 21.3206 17.6385 21.2521 17.6831C21.1917 17.7208 21.072 17.7365 20.8987 17.7365H20.6925L20.4167 18.6506H21.1018C21.4312 18.6506 21.6842 18.5298 21.805 18.4694C21.9348 18.4 21.9689 18.4397 22.0693 18.3428L22.3007 18.1424H24.4399L24.7238 17.1906H23.1579L23.4313 16.671H21.8767ZM25.0349 22.7344C24.9985 22.6819 25.0247 22.5894 25.0804 22.3968L25.6651 20.4615H27.7451C28.0483 20.4571 28.2671 20.4536 28.4095 20.4434C28.5624 20.4274 28.7287 20.3728 28.9099 20.2748C29.0969 20.1721 29.1926 20.0638 29.2734 19.9395C29.3636 19.8155 29.5083 19.5442 29.6326 19.1258L30.3675 16.6767L28.2091 16.6893C28.2091 16.6893 27.5444 16.7873 27.2518 16.8956C26.9565 17.0163 26.5346 17.3536 26.5346 17.3536L26.7295 16.6823H25.3961L23.5294 22.8733C23.4632 23.1137 23.4188 23.2882 23.4086 23.3929C23.4051 23.5058 23.551 23.6176 23.6455 23.7019C23.7573 23.7862 23.9224 23.7725 24.0809 23.7862C24.2475 23.7987 24.4844 23.8066 24.8114 23.8066H25.8361L26.1506 22.7446L25.2333 22.8312C25.1353 22.8312 25.0644 22.7787 25.0349 22.7344ZM26.0424 19.1544H28.2271L28.0883 19.5897C28.0687 19.5999 28.022 19.5681 27.7997 19.5944H25.9079L26.0424 19.1544ZM26.48 17.6944H28.6832L28.5247 18.2187C28.5247 18.2187 27.4863 18.2085 27.32 18.2391C26.5883 18.3658 26.1609 18.7567 26.1609 18.7567L26.48 17.6944ZM28.1372 21.0475C28.1191 21.1125 28.0905 21.1522 28.0505 21.182C28.0062 21.2106 27.9344 21.2208 27.8273 21.2208H27.516L27.5344 20.6906H26.2395L26.187 23.2824C26.185 23.4694 26.203 23.5777 26.3399 23.6643C26.4767 23.7726 26.8983 23.7863 27.4658 23.7863H28.2772L28.5701 22.8162L27.8638 22.855L27.6289 22.8687C27.5968 22.855 27.5662 22.8424 27.532 22.8083C27.5023 22.7788 27.4521 22.7969 27.4603 22.6099L27.4658 21.9455L28.2066 21.9149C28.6066 21.9149 28.7776 21.7848 28.9235 21.6608C29.0626 21.542 29.1082 21.4055 29.1607 21.2208L29.285 20.6326H28.267L28.1372 21.0475Z" fill="#20262A"/>
</svg>
