<svg width="40" height="40" viewBox="0 0 40 40" fill="none" xmlns="http://www.w3.org/2000/svg">
<path d="M21.0148 0.998414L38.0153 8.55399C38.9182 8.95524 39.5 9.85055 39.5 10.8385V29.1615C39.5 30.1495 38.9182 31.0448 38.0153 31.446L21.0148 39.0016C20.3684 39.2889 19.6305 39.2889 18.9841 39.0016L1.98463 31.446C1.08182 31.0448 0.5 30.1495 0.5 29.1615V10.8385C0.5 9.85052 1.08182 8.95523 1.98463 8.55397L18.9841 0.998434C19.6305 0.711133 20.3684 0.711125 21.0148 0.998414Z" fill="#171C1F" stroke="#54ADFF"/>
<path d="M18.168 13.4582C17.908 13.421 17.8957 13.4086 18.0194 13.3963C18.2546 13.3591 18.7992 13.4086 19.1829 13.4953C20.0741 13.7057 20.8786 14.2503 21.7327 15.2034L21.9555 15.4633L22.2773 15.4138C23.6512 15.191 25.0622 15.3643 26.2381 15.9089C26.5599 16.0574 27.0674 16.3545 27.1293 16.4287C27.154 16.4535 27.1912 16.6144 27.2159 16.7753C27.3026 17.3571 27.2654 17.7903 27.0798 18.1245C26.9807 18.3101 26.9807 18.3596 27.0426 18.5205C27.0921 18.6443 27.2407 18.731 27.3768 18.731C27.6739 18.731 27.9833 18.2606 28.1318 17.6046L28.1937 17.3447L28.3051 17.4685C28.9364 18.174 29.4315 19.1518 29.5057 19.8449L29.5305 20.0306L29.4191 19.8697C29.2334 19.585 29.0602 19.3993 28.825 19.2384C28.4042 18.9538 27.9586 18.8671 26.7827 18.8052C25.7182 18.7433 25.1117 18.6567 24.5176 18.4587C23.5027 18.1245 22.9828 17.6913 21.7822 16.0946C21.25 15.389 20.9158 15.0053 20.5816 14.6835C19.8513 13.978 19.121 13.6067 18.168 13.4582Z" fill="#FF007A"/>
<path d="M27.3904 15.0307C27.4152 14.5604 27.4771 14.251 27.6132 13.9663C27.6627 13.8549 27.7122 13.7559 27.7246 13.7559C27.737 13.7559 27.7122 13.8425 27.6751 13.9415C27.5761 14.2138 27.5637 14.5975 27.6256 15.0307C27.7122 15.5877 27.7494 15.662 28.3435 16.2685C28.6158 16.5532 28.9376 16.9121 29.0614 17.0606L29.2718 17.333L29.0614 17.1349C28.8015 16.8874 28.2073 16.417 28.0712 16.3551C27.9845 16.3056 27.9722 16.3056 27.9103 16.3675C27.8608 16.417 27.8484 16.4913 27.8484 16.8502C27.836 17.4072 27.7618 17.7538 27.5761 18.1127C27.4771 18.2984 27.4647 18.2613 27.5513 18.0508C27.6132 17.8899 27.6256 17.8157 27.6256 17.2834C27.6256 16.2066 27.5018 15.9467 26.7468 15.5135C26.5611 15.4021 26.2393 15.2412 26.0537 15.1545C25.8556 15.0679 25.7071 14.9936 25.7195 14.9936C25.7442 14.9689 26.4745 15.1793 26.7592 15.303C27.1924 15.4763 27.2667 15.4887 27.3162 15.4763C27.3533 15.4392 27.3781 15.3402 27.3904 15.0307Z" fill="#FF007A"/>
<path d="M18.6768 16.8742C18.1569 16.1563 17.8228 15.0423 17.897 14.2131L17.9218 13.9531L18.0455 13.9779C18.2683 14.015 18.652 14.1635 18.8377 14.2749C19.3328 14.572 19.5556 14.9805 19.766 15.9954C19.8279 16.2925 19.9146 16.639 19.9517 16.7504C20.0136 16.9361 20.2487 17.3693 20.4468 17.6416C20.5829 17.8397 20.4963 17.9387 20.1869 17.9139C19.7165 17.8644 19.0853 17.4312 18.6768 16.8742Z" fill="#FF007A"/>
<path d="M26.7586 22.2591C24.3078 21.2689 23.4414 20.4149 23.4414 18.9667C23.4414 18.7563 23.4538 18.583 23.4538 18.583C23.4662 18.583 23.5528 18.6573 23.6642 18.7439C24.1593 19.14 24.7163 19.3133 26.2635 19.5361C27.167 19.6722 27.6869 19.7712 28.1572 19.9322C29.6549 20.4273 30.5832 21.4422 30.806 22.8161C30.8679 23.2122 30.8308 23.9672 30.7317 24.3633C30.6451 24.6727 30.3976 25.2421 30.3357 25.2545C30.3233 25.2545 30.2985 25.1926 30.2985 25.0936C30.2738 24.5737 30.0139 24.0786 29.5806 23.6949C29.0608 23.2493 28.3924 22.9151 26.7586 22.2591Z" fill="#FF007A"/>
<path d="M25.0272 22.6674C25.0024 22.4818 24.9406 22.2466 24.9034 22.1476L24.8415 21.9619L24.9529 22.0981C25.1138 22.2837 25.2376 22.5065 25.349 22.816C25.4357 23.0511 25.4357 23.1254 25.4357 23.5091C25.4357 23.8804 25.4233 23.9671 25.349 24.1775C25.2252 24.5117 25.0767 24.7468 24.8292 25.0068C24.3836 25.4647 23.8018 25.7123 22.9725 25.8237C22.824 25.8361 22.4032 25.8732 22.0318 25.898C21.1035 25.9475 20.4847 26.0465 19.9277 26.2445C19.8534 26.2693 19.7791 26.294 19.7668 26.2817C19.742 26.2569 20.1257 26.0341 20.4351 25.8856C20.8684 25.6752 21.3139 25.5638 22.2918 25.3905C22.7745 25.3162 23.2696 25.2172 23.3934 25.1677C24.6187 24.784 25.2252 23.8309 25.0272 22.6674Z" fill="#FF007A"/>
<path d="M26.1536 24.6602C25.8318 23.9547 25.7575 23.2863 25.9308 22.655C25.9556 22.5931 25.9803 22.5312 26.0051 22.5312C26.0298 22.5312 26.1041 22.5684 26.1784 22.6179C26.3269 22.7169 26.6363 22.8902 27.4285 23.3234C28.4311 23.868 29.0004 24.2889 29.3965 24.7716C29.7431 25.1924 29.9535 25.6751 30.0525 26.2693C30.1144 26.6034 30.0773 27.408 29.9906 27.7422C29.7183 28.7943 29.0995 29.6359 28.1959 30.1186C28.0597 30.1929 27.9483 30.2424 27.936 30.2424C27.9236 30.2424 27.9731 30.1186 28.0474 29.9701C28.3444 29.3389 28.3816 28.7324 28.1588 28.0516C28.0226 27.6308 27.7379 27.1233 27.1686 26.2693C26.4878 25.2791 26.3269 25.0191 26.1536 24.6602Z" fill="#FF007A"/>
<path d="M16.9318 28.4486C17.8477 27.6812 18.9741 27.1366 20.0138 26.9633C20.4594 26.8891 21.202 26.9138 21.6105 27.0252C22.2665 27.1985 22.8606 27.5698 23.1701 28.0278C23.4671 28.4734 23.6033 28.8571 23.7394 29.7112C23.7889 30.0453 23.8508 30.3919 23.8632 30.4662C23.9622 30.9118 24.1603 31.2583 24.4078 31.444C24.7915 31.7287 25.4599 31.7411 26.1159 31.4935C26.2273 31.4564 26.3263 31.4192 26.3263 31.4316C26.3511 31.4564 26.0169 31.6792 25.7941 31.7906C25.4846 31.9515 25.2371 32.001 24.9029 32.001C24.3088 32.001 23.8013 31.6915 23.3928 31.0727C23.3062 30.9489 23.1329 30.59 22.9844 30.2558C22.5512 29.2532 22.3284 28.9561 21.8209 28.6219C21.3753 28.3373 20.806 28.2754 20.3727 28.4858C19.8034 28.7581 19.6548 29.4884 20.0509 29.9339C20.2118 30.1196 20.5089 30.2681 20.7564 30.3053C21.2144 30.3672 21.6105 30.0082 21.6105 29.5502C21.6105 29.2532 21.4991 29.0799 21.202 28.9437C20.806 28.7705 20.3727 28.9685 20.3851 29.3522C20.3851 29.5131 20.4594 29.6121 20.6203 29.6864C20.7193 29.7359 20.7193 29.7359 20.645 29.7235C20.2861 29.6493 20.1995 29.2037 20.4841 28.919C20.8307 28.5724 21.561 28.721 21.8085 29.2037C21.9076 29.4017 21.9199 29.7978 21.8333 30.0453C21.6229 30.59 21.0287 30.8746 20.4223 30.7137C20.0138 30.6023 19.8405 30.4909 19.3454 29.9835C18.479 29.0923 18.1448 28.919 16.907 28.7333L16.6719 28.6962L16.9318 28.4486Z" fill="#FF007A"/>
<path fill-rule="evenodd" clip-rule="evenodd" d="M10.4214 8.53223C13.3053 12.0351 17.7489 17.4812 17.9717 17.7782C18.1573 18.0258 18.083 18.2609 17.7736 18.4342C17.6003 18.5332 17.2414 18.6323 17.0681 18.6323C16.8701 18.6323 16.6349 18.5332 16.474 18.3723C16.3626 18.2609 15.8799 17.5554 14.7906 15.8597C13.9613 14.5601 13.2558 13.4832 13.2435 13.4708C13.1939 13.4461 13.1939 13.4461 14.704 16.1444C15.6571 17.8401 15.9665 18.4466 15.9665 18.5209C15.9665 18.6818 15.917 18.7684 15.7189 18.9912C15.3848 19.3625 15.2362 19.7834 15.1248 20.6622C15.0011 21.64 14.6669 22.3331 13.7138 23.509C13.1568 24.2021 13.0702 24.3259 12.934 24.6106C12.7607 24.9572 12.7112 25.1552 12.6865 25.6008C12.6617 26.0711 12.7112 26.3682 12.8474 26.8138C12.9711 27.2099 13.1073 27.4698 13.4415 27.9773C13.7262 28.4228 13.8995 28.757 13.8995 28.8808C13.8995 28.9798 13.9242 28.9798 14.3698 28.8808C15.4343 28.6333 16.3131 28.2124 16.7958 27.6926C17.0928 27.3708 17.1671 27.1975 17.1671 26.7519C17.1671 26.4672 17.1547 26.4053 17.0805 26.232C16.9567 25.9597 16.7215 25.7369 16.214 25.3904C15.5457 24.9324 15.261 24.5611 15.1867 24.066C15.1248 23.6451 15.1991 23.3605 15.5704 22.5807C15.9541 21.7761 16.0531 21.4419 16.115 20.625C16.1522 20.1052 16.214 19.8948 16.3626 19.7339C16.5235 19.5606 16.6596 19.4987 17.0433 19.4492C17.6746 19.3625 18.083 19.2016 18.4049 18.8922C18.6895 18.6323 18.8133 18.3723 18.8257 17.9886L18.8381 17.7039L18.6772 17.5307C18.0954 16.8623 10.0377 8 10.0006 8C9.98817 8 10.1862 8.23517 10.4214 8.53223ZM14.2213 26.133C14.3574 25.8978 14.2832 25.6008 14.0604 25.4523C13.8499 25.3161 13.5281 25.378 13.5281 25.5636C13.5281 25.6132 13.5529 25.6627 13.6272 25.6874C13.7386 25.7493 13.7509 25.8112 13.6643 25.9474C13.5776 26.0835 13.5776 26.2073 13.689 26.2939C13.8623 26.4301 14.0975 26.3558 14.2213 26.133Z" fill="#FF007A"/>
<path fill-rule="evenodd" clip-rule="evenodd" d="M19.2346 19.6221C18.9376 19.7087 18.6529 20.0305 18.5662 20.3523C18.5167 20.5504 18.5415 20.9093 18.6281 21.0207C18.7643 21.194 18.8881 21.2435 19.2346 21.2435C19.9154 21.2435 20.4971 20.9464 20.559 20.5875C20.6209 20.2904 20.361 19.882 20.002 19.6963C19.8164 19.5973 19.4327 19.5602 19.2346 19.6221ZM20.0268 20.2409C20.1258 20.0924 20.0887 19.9315 19.903 19.8201C19.5688 19.6097 19.0613 19.783 19.0613 20.1048C19.0613 20.2657 19.3213 20.439 19.5688 20.439C19.7297 20.439 19.9525 20.3399 20.0268 20.2409Z" fill="#FF007A"/>
</svg>
