<svg width="40" height="40" viewBox="0 0 40 40" fill="none" xmlns="http://www.w3.org/2000/svg">
<path d="M18.9841 0.998434C19.6305 0.711133 20.3684 0.711125 21.0148 0.998414L38.0153 8.55399C38.9182 8.95524 39.5 9.85055 39.5 10.8385V29.1615C39.5 30.1495 38.9182 31.0448 38.0153 31.446L21.0148 39.0016C20.3684 39.2889 19.6305 39.2889 18.9841 39.0016L1.98463 31.446C1.08182 31.0448 0.5 30.1495 0.5 29.1615V10.8385C0.5 9.85052 1.08182 8.95523 1.98463 8.55397L18.9841 0.998434Z" fill="#171C1F" stroke="#54ADFF"/>
<circle cx="20" cy="20" r="11" fill="url(#paint0_linear_4624_59244)"/>
<rect x="18.9424" y="12.0857" width="2.05714" height="15.8286" fill="white"/>
<path d="M14.8289 23.5714H21.9574C22.6935 23.5714 23.2924 22.9788 23.3002 22.2428V22.2428C23.3082 21.4956 22.7047 20.8857 21.9574 20.8857H17.6004C15.8962 20.8857 14.5146 19.5041 14.5146 17.7999V17.7999C14.5146 16.0958 15.8962 14.7142 17.6004 14.7142H25.1146V16.4857L18.0335 16.4378C17.2751 16.4327 16.6575 17.0461 16.6575 17.8046V17.8046C16.6575 18.5594 17.2694 19.1714 18.0243 19.1714H22.4289C24.1173 19.1714 25.4861 20.5401 25.4861 22.2285V22.2285C25.4861 23.9169 24.1173 25.2857 22.4289 25.2857H14.8289V23.5714Z" fill="white"/>
<rect x="18.9424" y="19.1714" width="2.05714" height="1.71429" fill="#439F63"/>
<defs>
<linearGradient id="paint0_linear_4624_59244" x1="33.5143" y1="11.9714" x2="9.74286" y2="25.2286" gradientUnits="userSpaceOnUse">
<stop offset="0.166331" stop-color="#B0D75C"/>
<stop offset="0.491704" stop-color="#48AA69"/>
<stop offset="1" stop-color="#225938"/>
</linearGradient>
</defs>
</svg>
