<svg width="40" height="40" viewBox="0 0 40 40" fill="none" xmlns="http://www.w3.org/2000/svg">
<path d="M21.0148 0.998414L38.0153 8.55399C38.9182 8.95524 39.5 9.85055 39.5 10.8385V29.1615C39.5 30.1495 38.9182 31.0448 38.0153 31.446L21.0148 39.0016C20.3684 39.2889 19.6305 39.2889 18.9841 39.0016L1.98463 31.446C1.08182 31.0448 0.5 30.1495 0.5 29.1615V10.8385C0.5 9.85052 1.08182 8.95523 1.98463 8.55397L18.9841 0.998434C19.6305 0.711133 20.3684 0.711125 21.0148 0.998414Z" fill="#171C1F" stroke="#54ADFF"/>
<path d="M18.4575 29.8327L9.04826 10.6677C8.89536 10.3619 9.12526 10 9.46405 10H12.7244C12.8993 10 13.0632 10.099 13.1402 10.2519L20.0118 24.1557C20.6245 25.403 22.3965 25.403 23.0092 24.1557L29.8588 10.2629C29.9358 10.11 30.0997 10.011 30.2746 10.011H30.6794C30.9203 10.011 31.0732 10.2629 30.9643 10.4708L21.456 29.8327C20.8434 31.0789 19.0702 31.0789 18.4575 29.8327V29.8327Z" fill="url(#paint0_linear)"/>
<path opacity="0.1" d="M18.4581 29.8343L13.1408 10.2646C13.0638 10.1007 12.8889 10.0127 12.747 10.0127H9.47567C9.11488 10.0127 8.90698 10.3735 9.04888 10.6804L18.4581 29.8343Z" fill="white"/>
<path opacity="0.1" d="M20.0125 24.1656L9.04896 10.6677C8.91806 10.3509 9.11496 10.033 9.42075 10H12.7361C12.922 10.011 13.0639 10.1309 13.1299 10.2519L20.0125 24.1656Z" fill="white"/>
<defs>
<linearGradient id="paint0_linear" x1="8.99997" y1="20.3837" x2="31" y2="20.3837" gradientUnits="userSpaceOnUse">
<stop stop-color="#9D4ABE"/>
<stop offset="0.03" stop-color="#9055C4"/>
<stop offset="0.15" stop-color="#6B74D6"/>
<stop offset="0.26" stop-color="#4C8FE5"/>
<stop offset="0.39" stop-color="#34A3F0"/>
<stop offset="0.52" stop-color="#22B2F9"/>
<stop offset="0.66" stop-color="#18BAFD"/>
<stop offset="0.83" stop-color="#15BDFF"/>
<stop offset="1" stop-color="#28BAD5"/>
</linearGradient>
</defs>
</svg>
