<?xml version="1.0" encoding="utf-8"?>
<!-- Generator: Adobe Illustrator 19.2.1, SVG Export Plug-In . SVG Version: 6.00 Build 0)  -->
<svg version="1.1" id="Capa_1" xmlns="http://www.w3.org/2000/svg" xmlns:xlink="http://www.w3.org/1999/xlink" x="0px" y="0px"
	 width="310.3px" height="310.3px" viewBox="0 0 310.3 310.3" style="enable-background:new 0 0 310.3 310.3;" xml:space="preserve"
	>
<style type="text/css">
	.st0{fill:#446CB3;}
</style>
<g>
	<g>
		<path class="st0" d="M12.6,86.9h46.6c0,0,0.1,0,0.1,0c7.8-0.1,14.1-6.4,14.2-14.2c0,0,0-0.1,0-0.1V26c0-4.3-3.5-7.2-7.2-7.2
			c-1.8,0-3.5,0.6-5,2.1L7.5,74.7C3,79.2,6.1,86.9,12.6,86.9z"/>
		<g>
			<path class="st0" d="M296.6,183c-5.7-9.8-13.4-17.5-23.2-23.2c-9.8-5.7-20.4-8.6-32-8.6c-11.6,0-22.3,2.9-32,8.6
				c-9.8,5.7-17.5,13.4-23.2,23.2c-5.7,9.8-8.6,20.5-8.6,32c0,11.6,2.9,22.2,8.6,32c5.7,9.8,13.4,17.5,23.2,23.2
				c9.8,5.7,20.4,8.6,32,8.6s22.3-2.9,32-8.6c9.8-5.7,17.5-13.4,23.2-23.2c5.7-9.8,8.6-20.5,8.6-32
				C305.2,203.4,302.3,192.7,296.6,183z M282.7,205.3l-45.1,45.1c-1.1,1.1-2.3,1.6-3.8,1.6c-1.4,0-2.7-0.5-3.7-1.6L200,220.3
				c-1-1-1.5-2.2-1.5-3.7c0-1.6,0.5-2.8,1.5-3.8l7.6-7.5c1.1-1.1,2.3-1.6,3.7-1.6s2.7,0.5,3.7,1.6l18.8,18.8l33.9-33.8
				c1.1-1.1,2.3-1.6,3.7-1.6c1.4,0,2.7,0.5,3.7,1.6l7.6,7.5c1,1,1.5,2.3,1.5,3.8C284.2,203,283.7,204.3,282.7,205.3z"/>
		</g>
		<g>
			<path class="st0" d="M83,18.5v5.6c0.1,0.6,0.1,1.2,0.1,1.8v37.1v9.5c0,13.2-10.7,24-24,24H35.7H12.6c-0.5,0-1,0-1.5-0.1H5.1
				v178.3c0,9.4,7.6,17,17,17h18.7h72.6h91.2c4.3,0,8.3-1.6,11.3-4.3c-4.5-1.6-8.9-3.6-13.1-6.1c-11.9-6.9-21.3-16.3-28.2-28.2
				c-6.9-11.9-10.4-24.8-10.4-38.9c0-14,3.5-27,10.4-38.9c6.9-11.9,16.3-21.3,28.2-28.2c6-3.5,12.3-6.1,18.9-7.8v-86V35.6
				c0-9.4-9.3-16.8-18.7-16.8 M100.9,233.9H55.4c-3.4,0-6.2-3.6-6.2-8c0-4.4,2.8-8,6.2-8H101c3.4,0,6.2,3.6,6.2,8
				C107.1,230.3,104.3,233.9,100.9,233.9z M131,192.9H54.5c-2.9,0-5.2-3.6-5.2-8c0-4.4,2.3-8,5.2-8H131c2.9,0,5.2,3.6,5.2,8
				C136.2,189.3,133.9,192.9,131,192.9z M153.3,149.3H55.9c-3.6,0-6.6-3.6-6.6-8c0-4.4,3-8,6.6-8h97.5c3.6,0,6.6,3.6,6.6,8
				C159.9,145.7,157,149.3,153.3,149.3z"/>
		</g>
	</g>
	<rect x="5.1" y="96.6" class="st0" width="56.4" height="11.5"/>
</g>
</svg>
