<svg width="77" height="25" viewBox="0 0 77 25" fill="none" xmlns="http://www.w3.org/2000/svg">
<path d="M33.2749 24.6391H27.0547L30.9452 0.438477H37.1651L33.2749 24.6391Z" fill="#59788C"/>
<path d="M55.8229 1.03032C54.596 0.540652 52.65 0 50.2439 0C44.1013 0 39.7757 3.29524 39.7491 8.00643C39.6981 11.4823 42.8461 13.4129 45.2006 14.5719C47.6071 15.7562 48.4251 16.5292 48.4251 17.5849C48.4006 19.2061 46.4805 19.9535 44.6897 19.9535C42.2063 19.9535 40.8757 19.5682 38.8535 18.6662L38.0345 18.2795L37.1641 23.712C38.6229 24.3806 41.3107 24.974 44.1013 25C50.6279 25 54.8769 21.7557 54.9273 16.7352C54.9521 13.9803 53.2898 11.8694 49.7061 10.1444C47.5306 9.03709 46.1982 8.29045 46.1982 7.15747C46.2237 6.1275 47.3251 5.07254 49.7809 5.07254C51.8031 5.02087 53.2888 5.50985 54.4144 5.99918L54.9769 6.25616L55.8229 1.03032Z" fill="#59788C"/>
<path d="M64.0904 16.0657C64.6027 14.6754 66.5738 9.29455 66.5738 9.29455C66.548 9.34622 67.085 7.87859 67.3922 6.97762L67.8269 9.06289C67.8269 9.06289 69.0048 14.8557 69.2606 16.0657C68.2885 16.0657 65.319 16.0657 64.0904 16.0657ZM71.7685 0.438477H66.9572C65.4735 0.438477 64.3462 0.875788 63.7061 2.44642L54.4668 24.6388H60.9934C60.9934 24.6388 62.068 21.6519 62.2989 21.0086C63.0149 21.0086 69.364 21.0086 70.2851 21.0086C70.4637 21.8582 71.0273 24.6388 71.0273 24.6388H76.7866L71.7685 0.438477Z" fill="#59788C"/>
<path d="M21.8571 0.438477L15.7655 16.941L15.0998 13.5941C13.9736 9.73221 10.4416 5.53634 6.5 3.45004L12.0797 24.6135H18.6574L28.4344 0.438477H21.8571Z" fill="#59788C"/>
<path d="M10.11 0.438477H0.102382L0 0.927458C7.8066 2.93574 12.9768 7.77662 15.1009 13.5951L12.9254 2.47276C12.5672 0.927116 11.4665 0.489462 10.11 0.438477Z" fill="#59788C"/>
</svg>
