<svg width="40" height="40" viewBox="0 0 40 40" fill="none" xmlns="http://www.w3.org/2000/svg">
<path d="M21.0148 0.998414L38.0153 8.55399C38.9182 8.95524 39.5 9.85055 39.5 10.8385V29.1615C39.5 30.1495 38.9182 31.0448 38.0153 31.446L21.0148 39.0016C20.3684 39.2889 19.6305 39.2889 18.9841 39.0016L1.98463 31.446C1.08182 31.0448 0.5 30.1495 0.5 29.1615V10.8385C0.5 9.85052 1.08182 8.95523 1.98463 8.55397L18.9841 0.998434C19.6305 0.711133 20.3684 0.711125 21.0148 0.998414Z" fill="#171C1F" stroke="#54ADFF"/>
<path d="M19.608 29C19.192 29 18.864 28.736 18.624 28.208L12.696 14.168C12.576 13.888 12.544 13.64 12.6 13.424C12.656 13.2 12.84 13.016 13.152 12.872C13.808 12.544 14.272 12.712 14.544 13.376L20.148 26.648H19.452L24.912 13.376C25.176 12.72 25.64 12.552 26.304 12.872C26.584 13.016 26.756 13.2 26.82 13.424C26.892 13.64 26.872 13.888 26.76 14.168L20.784 28.208C20.536 28.736 20.176 29 19.704 29H19.608Z" fill="#54ADFF"/>
</svg>
