<svg width="40" height="40" viewBox="0 0 40 40" fill="none" xmlns="http://www.w3.org/2000/svg">
<path d="M21.0148 0.998414L38.0153 8.55399C38.9182 8.95524 39.5 9.85055 39.5 10.8385V29.1615C39.5 30.1495 38.9182 31.0448 38.0153 31.446L21.0148 39.0016C20.3684 39.2889 19.6305 39.2889 18.9841 39.0016L1.98463 31.446C1.08182 31.0448 0.5 30.1495 0.5 29.1615V10.8385C0.5 9.85052 1.08182 8.95523 1.98463 8.55397L18.9841 0.998434C19.6305 0.711133 20.3684 0.711125 21.0148 0.998414Z" fill="#171C1F" stroke="#54ADFF"/>
<path fill-rule="evenodd" clip-rule="evenodd" d="M20 9C26.0742 9 31 13.9258 31 20C31 26.0742 26.0742 31 20 31C13.9258 31 9 26.0742 9 20C9 13.9258 13.9258 9 20 9Z" fill="#006AE3"/>
<path d="M19.5469 24.6376V15.4856H20.5435V24.6376H19.5469Z" fill="white"/>
<path d="M24.6195 18.5348L21.5417 19.351L20.8553 16.1566L21.7705 15.9498L22.1313 17.4634C22.1313 17.4634 22.9629 16.0994 21.8541 14.687C21.2007 13.961 20.8905 13.9302 20.1579 13.8158C19.5133 13.7234 18.0151 13.9412 17.5685 15.6902C17.3793 16.8166 17.5927 17.6504 19.0447 18.7416L18.9633 19.956C18.9633 19.956 17.3419 18.8142 16.9239 18.0134C16.6005 17.3798 16.0461 16.128 17.0471 14.3856C17.5861 13.5144 18.6487 12.6784 20.5209 12.7664C21.4625 12.806 23.7615 13.9566 23.4051 16.645C23.3435 17.1488 23.0817 17.8198 23.0817 17.8198L24.3445 17.5382L24.6195 18.5348Z" fill="white"/>
<path d="M22.8625 25.6957C22.2993 26.5515 21.2147 27.3589 19.3469 27.2225C18.4053 27.1587 16.1393 25.9465 16.5661 23.2691C16.6409 22.7675 16.9203 22.1053 16.9203 22.1053L15.6509 22.3517L15.4023 21.3507L18.5021 20.6159L19.1049 23.8279L18.1831 24.0105L17.8619 22.4859C17.8619 22.4859 16.9951 23.8257 18.0643 25.2689C18.6979 26.0125 19.0059 26.0499 19.7385 26.1841C20.3787 26.2941 21.8835 26.1137 22.3763 24.3779C22.5941 23.2581 22.4027 22.4177 20.9815 21.2869L21.0959 20.0747C21.0959 20.0747 22.6865 21.2583 23.0825 22.0701C23.3861 22.7147 23.9075 23.9819 22.8625 25.6957V25.6957Z" fill="white"/>
</svg>
