<svg width="40" height="40" viewBox="0 0 40 40" fill="none" xmlns="http://www.w3.org/2000/svg">
<path d="M21.0148 0.998414L38.0153 8.55399C38.9182 8.95524 39.5 9.85055 39.5 10.8385V29.1615C39.5 30.1495 38.9182 31.0448 38.0153 31.446L21.0148 39.0016C20.3684 39.2889 19.6305 39.2889 18.9841 39.0016L1.98463 31.446C1.08182 31.0448 0.5 30.1495 0.5 29.1615V10.8385C0.5 9.85052 1.08182 8.95523 1.98463 8.55397L18.9841 0.998434C19.6305 0.711133 20.3684 0.711125 21.0148 0.998414Z" fill="#171C1F" stroke="#54ADFF"/>
<path d="M20 9C13.9338 9 9 13.9338 9 20C9 26.0662 13.9338 31 20 31C26.0662 31 31 26.0662 31 20C31 13.9338 26.0662 9 20 9ZM20 29.1862C14.9346 29.1862 10.8138 25.0654 10.8138 20C10.8138 14.9346 14.9346 10.8185 20 10.8185C25.0654 10.8185 29.1862 14.9393 29.1862 20.0047C29.1862 25.0701 25.0654 29.1862 20 29.1862ZM20.921 14.8971H23.9235V16.5745L19.2717 22.8898H23.9235V25.1123H20.921V26.9496H19.079V25.1123H16.0765V23.4349L20.7283 17.1196H16.0765V14.8971H19.079V13.0504H20.921V14.8971Z" fill="white"/>
</svg>
